<?xml version="1.0" encoding="utf-8" standalone="no"?>
<!DOCTYPE svg PUBLIC "-//W3C//DTD SVG 1.1//EN"
  "http://www.w3.org/Graphics/SVG/1.1/DTD/svg11.dtd">
<!-- Created with matplotlib (https://matplotlib.org/) -->
<svg height="288pt" version="1.1" viewBox="0 0 432 288" width="432pt" xmlns="http://www.w3.org/2000/svg" xmlns:xlink="http://www.w3.org/1999/xlink">
 <defs>
  <style type="text/css">
*{stroke-linecap:butt;stroke-linejoin:round;}
  </style>
 </defs>
 <g id="figure_1">
  <g id="patch_1">
   <path d="M 0 288 
L 432 288 
L 432 0 
L 0 0 
z
" style="fill:#ffffff;"/>
  </g>
  <g id="axes_1">
   <g id="patch_2">
    <path d="M 54 252 
L 388.8 252 
L 388.8 34.56 
L 54 34.56 
z
" style="fill:#ffffff;"/>
   </g>
   <g id="matplotlib.axis_1">
    <g id="xtick_1">
     <g id="line2d_1">
      <path clip-path="url(#pc21825fec3)" d="M 54 252 
L 54 34.56 
" style="fill:none;stroke:#b0b0b0;stroke-linecap:square;stroke-width:0.5;"/>
     </g>
     <g id="line2d_2">
      <defs>
       <path d="M 0 0 
L 0 3.5 
" id="mbd3202c8fe" style="stroke:#000000;stroke-width:0.8;"/>
      </defs>
      <g>
       <use style="stroke:#000000;stroke-width:0.8;" x="54" xlink:href="#mbd3202c8fe" y="252"/>
      </g>
     </g>
     <g id="text_1">
      <!-- 0.01 -->
      <defs>
       <path d="M 31.78125 66.40625 
Q 24.171875 66.40625 20.328125 58.90625 
Q 16.5 51.421875 16.5 36.375 
Q 16.5 21.390625 20.328125 13.890625 
Q 24.171875 6.390625 31.78125 6.390625 
Q 39.453125 6.390625 43.28125 13.890625 
Q 47.125 21.390625 47.125 36.375 
Q 47.125 51.421875 43.28125 58.90625 
Q 39.453125 66.40625 31.78125 66.40625 
z
M 31.78125 74.21875 
Q 44.046875 74.21875 50.515625 64.515625 
Q 56.984375 54.828125 56.984375 36.375 
Q 56.984375 17.96875 50.515625 8.265625 
Q 44.046875 -1.421875 31.78125 -1.421875 
Q 19.53125 -1.421875 13.0625 8.265625 
Q 6.59375 17.96875 6.59375 36.375 
Q 6.59375 54.828125 13.0625 64.515625 
Q 19.53125 74.21875 31.78125 74.21875 
z
" id="DejaVuSans-48"/>
       <path d="M 10.6875 12.40625 
L 21 12.40625 
L 21 0 
L 10.6875 0 
z
" id="DejaVuSans-46"/>
       <path d="M 12.40625 8.296875 
L 28.515625 8.296875 
L 28.515625 63.921875 
L 10.984375 60.40625 
L 10.984375 69.390625 
L 28.421875 72.90625 
L 38.28125 72.90625 
L 38.28125 8.296875 
L 54.390625 8.296875 
L 54.390625 0 
L 12.40625 0 
z
" id="DejaVuSans-49"/>
      </defs>
      <g transform="translate(47.320312 263.559062)scale(0.06 -0.06)">
       <use xlink:href="#DejaVuSans-48"/>
       <use x="63.623047" xlink:href="#DejaVuSans-46"/>
       <use x="95.410156" xlink:href="#DejaVuSans-48"/>
       <use x="159.033203" xlink:href="#DejaVuSans-49"/>
      </g>
     </g>
    </g>
    <g id="xtick_2">
     <g id="line2d_3">
      <path clip-path="url(#pc21825fec3)" d="M 82.985139 252 
L 82.985139 34.56 
" style="fill:none;stroke:#b0b0b0;stroke-linecap:square;stroke-width:0.5;"/>
     </g>
     <g id="line2d_4">
      <g>
       <use style="stroke:#000000;stroke-width:0.8;" x="82.985139" xlink:href="#mbd3202c8fe" y="252"/>
      </g>
     </g>
     <g id="text_2">
      <!-- 0.02 -->
      <defs>
       <path d="M 19.1875 8.296875 
L 53.609375 8.296875 
L 53.609375 0 
L 7.328125 0 
L 7.328125 8.296875 
Q 12.9375 14.109375 22.625 23.890625 
Q 32.328125 33.6875 34.8125 36.53125 
Q 39.546875 41.84375 41.421875 45.53125 
Q 43.3125 49.21875 43.3125 52.78125 
Q 43.3125 58.59375 39.234375 62.25 
Q 35.15625 65.921875 28.609375 65.921875 
Q 23.96875 65.921875 18.8125 64.3125 
Q 13.671875 62.703125 7.8125 59.421875 
L 7.8125 69.390625 
Q 13.765625 71.78125 18.9375 73 
Q 24.125 74.21875 28.421875 74.21875 
Q 39.75 74.21875 46.484375 68.546875 
Q 53.21875 62.890625 53.21875 53.421875 
Q 53.21875 48.921875 51.53125 44.890625 
Q 49.859375 40.875 45.40625 35.40625 
Q 44.1875 33.984375 37.640625 27.21875 
Q 31.109375 20.453125 19.1875 8.296875 
z
" id="DejaVuSans-50"/>
      </defs>
      <g transform="translate(76.305451 263.559062)scale(0.06 -0.06)">
       <use xlink:href="#DejaVuSans-48"/>
       <use x="63.623047" xlink:href="#DejaVuSans-46"/>
       <use x="95.410156" xlink:href="#DejaVuSans-48"/>
       <use x="159.033203" xlink:href="#DejaVuSans-50"/>
      </g>
     </g>
    </g>
    <g id="xtick_3">
     <g id="line2d_5">
      <path clip-path="url(#pc21825fec3)" d="M 99.940358 252 
L 99.940358 34.56 
" style="fill:none;stroke:#b0b0b0;stroke-linecap:square;stroke-width:0.5;"/>
     </g>
     <g id="line2d_6">
      <g>
       <use style="stroke:#000000;stroke-width:0.8;" x="99.940358" xlink:href="#mbd3202c8fe" y="252"/>
      </g>
     </g>
     <g id="text_3">
      <!-- 0.03 -->
      <defs>
       <path d="M 40.578125 39.3125 
Q 47.65625 37.796875 51.625 33 
Q 55.609375 28.21875 55.609375 21.1875 
Q 55.609375 10.40625 48.1875 4.484375 
Q 40.765625 -1.421875 27.09375 -1.421875 
Q 22.515625 -1.421875 17.65625 -0.515625 
Q 12.796875 0.390625 7.625 2.203125 
L 7.625 11.71875 
Q 11.71875 9.328125 16.59375 8.109375 
Q 21.484375 6.890625 26.8125 6.890625 
Q 36.078125 6.890625 40.9375 10.546875 
Q 45.796875 14.203125 45.796875 21.1875 
Q 45.796875 27.640625 41.28125 31.265625 
Q 36.765625 34.90625 28.71875 34.90625 
L 20.21875 34.90625 
L 20.21875 43.015625 
L 29.109375 43.015625 
Q 36.375 43.015625 40.234375 45.921875 
Q 44.09375 48.828125 44.09375 54.296875 
Q 44.09375 59.90625 40.109375 62.90625 
Q 36.140625 65.921875 28.71875 65.921875 
Q 24.65625 65.921875 20.015625 65.03125 
Q 15.375 64.15625 9.8125 62.3125 
L 9.8125 71.09375 
Q 15.4375 72.65625 20.34375 73.4375 
Q 25.25 74.21875 29.59375 74.21875 
Q 40.828125 74.21875 47.359375 69.109375 
Q 53.90625 64.015625 53.90625 55.328125 
Q 53.90625 49.265625 50.4375 45.09375 
Q 46.96875 40.921875 40.578125 39.3125 
z
" id="DejaVuSans-51"/>
      </defs>
      <g transform="translate(93.260671 263.559062)scale(0.06 -0.06)">
       <use xlink:href="#DejaVuSans-48"/>
       <use x="63.623047" xlink:href="#DejaVuSans-46"/>
       <use x="95.410156" xlink:href="#DejaVuSans-48"/>
       <use x="159.033203" xlink:href="#DejaVuSans-51"/>
      </g>
     </g>
    </g>
    <g id="xtick_4">
     <g id="line2d_7">
      <path clip-path="url(#pc21825fec3)" d="M 121.301408 252 
L 121.301408 34.56 
" style="fill:none;stroke:#b0b0b0;stroke-linecap:square;stroke-width:0.5;"/>
     </g>
     <g id="line2d_8">
      <g>
       <use style="stroke:#000000;stroke-width:0.8;" x="121.301408" xlink:href="#mbd3202c8fe" y="252"/>
      </g>
     </g>
     <g id="text_4">
      <!-- 0.05 -->
      <defs>
       <path d="M 10.796875 72.90625 
L 49.515625 72.90625 
L 49.515625 64.59375 
L 19.828125 64.59375 
L 19.828125 46.734375 
Q 21.96875 47.46875 24.109375 47.828125 
Q 26.265625 48.1875 28.421875 48.1875 
Q 40.625 48.1875 47.75 41.5 
Q 54.890625 34.8125 54.890625 23.390625 
Q 54.890625 11.625 47.5625 5.09375 
Q 40.234375 -1.421875 26.90625 -1.421875 
Q 22.3125 -1.421875 17.546875 -0.640625 
Q 12.796875 0.140625 7.71875 1.703125 
L 7.71875 11.625 
Q 12.109375 9.234375 16.796875 8.0625 
Q 21.484375 6.890625 26.703125 6.890625 
Q 35.15625 6.890625 40.078125 11.328125 
Q 45.015625 15.765625 45.015625 23.390625 
Q 45.015625 31 40.078125 35.4375 
Q 35.15625 39.890625 26.703125 39.890625 
Q 22.75 39.890625 18.8125 39.015625 
Q 14.890625 38.140625 10.796875 36.28125 
z
" id="DejaVuSans-53"/>
      </defs>
      <g transform="translate(114.621721 263.559062)scale(0.06 -0.06)">
       <use xlink:href="#DejaVuSans-48"/>
       <use x="63.623047" xlink:href="#DejaVuSans-46"/>
       <use x="95.410156" xlink:href="#DejaVuSans-48"/>
       <use x="159.033203" xlink:href="#DejaVuSans-53"/>
      </g>
     </g>
    </g>
    <g id="xtick_5">
     <g id="line2d_9">
      <path clip-path="url(#pc21825fec3)" d="M 135.371572 252 
L 135.371572 34.56 
" style="fill:none;stroke:#b0b0b0;stroke-linecap:square;stroke-width:0.5;"/>
     </g>
     <g id="line2d_10">
      <g>
       <use style="stroke:#000000;stroke-width:0.8;" x="135.371572" xlink:href="#mbd3202c8fe" y="252"/>
      </g>
     </g>
     <g id="text_5">
      <!-- 0.07 -->
      <defs>
       <path d="M 8.203125 72.90625 
L 55.078125 72.90625 
L 55.078125 68.703125 
L 28.609375 0 
L 18.3125 0 
L 43.21875 64.59375 
L 8.203125 64.59375 
z
" id="DejaVuSans-55"/>
      </defs>
      <g transform="translate(128.691885 263.559062)scale(0.06 -0.06)">
       <use xlink:href="#DejaVuSans-48"/>
       <use x="63.623047" xlink:href="#DejaVuSans-46"/>
       <use x="95.410156" xlink:href="#DejaVuSans-48"/>
       <use x="159.033203" xlink:href="#DejaVuSans-55"/>
      </g>
     </g>
    </g>
    <g id="xtick_6">
     <g id="line2d_11">
      <path clip-path="url(#pc21825fec3)" d="M 150.286547 252 
L 150.286547 34.56 
" style="fill:none;stroke:#b0b0b0;stroke-linecap:square;stroke-width:0.5;"/>
     </g>
     <g id="line2d_12">
      <g>
       <use style="stroke:#000000;stroke-width:0.8;" x="150.286547" xlink:href="#mbd3202c8fe" y="252"/>
      </g>
     </g>
     <g id="text_6">
      <!-- 0.1 -->
      <g transform="translate(145.51561 263.559062)scale(0.06 -0.06)">
       <use xlink:href="#DejaVuSans-48"/>
       <use x="63.623047" xlink:href="#DejaVuSans-46"/>
       <use x="95.410156" xlink:href="#DejaVuSans-49"/>
      </g>
     </g>
    </g>
    <g id="xtick_7">
     <g id="line2d_13">
      <path clip-path="url(#pc21825fec3)" d="M 179.271686 252 
L 179.271686 34.56 
" style="fill:none;stroke:#b0b0b0;stroke-linecap:square;stroke-width:0.5;"/>
     </g>
     <g id="line2d_14">
      <g>
       <use style="stroke:#000000;stroke-width:0.8;" x="179.271686" xlink:href="#mbd3202c8fe" y="252"/>
      </g>
     </g>
     <g id="text_7">
      <!-- 0.2 -->
      <g transform="translate(174.500749 263.559062)scale(0.06 -0.06)">
       <use xlink:href="#DejaVuSans-48"/>
       <use x="63.623047" xlink:href="#DejaVuSans-46"/>
       <use x="95.410156" xlink:href="#DejaVuSans-50"/>
      </g>
     </g>
    </g>
    <g id="xtick_8">
     <g id="line2d_15">
      <path clip-path="url(#pc21825fec3)" d="M 196.226905 252 
L 196.226905 34.56 
" style="fill:none;stroke:#b0b0b0;stroke-linecap:square;stroke-width:0.5;"/>
     </g>
     <g id="line2d_16">
      <g>
       <use style="stroke:#000000;stroke-width:0.8;" x="196.226905" xlink:href="#mbd3202c8fe" y="252"/>
      </g>
     </g>
     <g id="text_8">
      <!-- 0.3 -->
      <g transform="translate(191.455968 263.559062)scale(0.06 -0.06)">
       <use xlink:href="#DejaVuSans-48"/>
       <use x="63.623047" xlink:href="#DejaVuSans-46"/>
       <use x="95.410156" xlink:href="#DejaVuSans-51"/>
      </g>
     </g>
    </g>
    <g id="xtick_9">
     <g id="line2d_17">
      <path clip-path="url(#pc21825fec3)" d="M 217.587956 252 
L 217.587956 34.56 
" style="fill:none;stroke:#b0b0b0;stroke-linecap:square;stroke-width:0.5;"/>
     </g>
     <g id="line2d_18">
      <g>
       <use style="stroke:#000000;stroke-width:0.8;" x="217.587956" xlink:href="#mbd3202c8fe" y="252"/>
      </g>
     </g>
     <g id="text_9">
      <!-- 0.5 -->
      <g transform="translate(212.817018 263.559062)scale(0.06 -0.06)">
       <use xlink:href="#DejaVuSans-48"/>
       <use x="63.623047" xlink:href="#DejaVuSans-46"/>
       <use x="95.410156" xlink:href="#DejaVuSans-53"/>
      </g>
     </g>
    </g>
    <g id="xtick_10">
     <g id="line2d_19">
      <path clip-path="url(#pc21825fec3)" d="M 231.65812 252 
L 231.65812 34.56 
" style="fill:none;stroke:#b0b0b0;stroke-linecap:square;stroke-width:0.5;"/>
     </g>
     <g id="line2d_20">
      <g>
       <use style="stroke:#000000;stroke-width:0.8;" x="231.65812" xlink:href="#mbd3202c8fe" y="252"/>
      </g>
     </g>
     <g id="text_10">
      <!-- 0.7 -->
      <g transform="translate(226.887182 263.559062)scale(0.06 -0.06)">
       <use xlink:href="#DejaVuSans-48"/>
       <use x="63.623047" xlink:href="#DejaVuSans-46"/>
       <use x="95.410156" xlink:href="#DejaVuSans-55"/>
      </g>
     </g>
    </g>
    <g id="xtick_11">
     <g id="line2d_21">
      <path clip-path="url(#pc21825fec3)" d="M 246.573095 252 
L 246.573095 34.56 
" style="fill:none;stroke:#b0b0b0;stroke-linecap:square;stroke-width:0.5;"/>
     </g>
     <g id="line2d_22">
      <g>
       <use style="stroke:#000000;stroke-width:0.8;" x="246.573095" xlink:href="#mbd3202c8fe" y="252"/>
      </g>
     </g>
     <g id="text_11">
      <!-- 1 -->
      <g transform="translate(244.664345 263.559062)scale(0.06 -0.06)">
       <use xlink:href="#DejaVuSans-49"/>
      </g>
     </g>
    </g>
    <g id="xtick_12">
     <g id="line2d_23">
      <path clip-path="url(#pc21825fec3)" d="M 275.558233 252 
L 275.558233 34.56 
" style="fill:none;stroke:#b0b0b0;stroke-linecap:square;stroke-width:0.5;"/>
     </g>
     <g id="line2d_24">
      <g>
       <use style="stroke:#000000;stroke-width:0.8;" x="275.558233" xlink:href="#mbd3202c8fe" y="252"/>
      </g>
     </g>
     <g id="text_12">
      <!-- 2 -->
      <g transform="translate(273.649483 263.559062)scale(0.06 -0.06)">
       <use xlink:href="#DejaVuSans-50"/>
      </g>
     </g>
    </g>
    <g id="xtick_13">
     <g id="line2d_25">
      <path clip-path="url(#pc21825fec3)" d="M 292.513453 252 
L 292.513453 34.56 
" style="fill:none;stroke:#b0b0b0;stroke-linecap:square;stroke-width:0.5;"/>
     </g>
     <g id="line2d_26">
      <g>
       <use style="stroke:#000000;stroke-width:0.8;" x="292.513453" xlink:href="#mbd3202c8fe" y="252"/>
      </g>
     </g>
     <g id="text_13">
      <!-- 3 -->
      <g transform="translate(290.604703 263.559062)scale(0.06 -0.06)">
       <use xlink:href="#DejaVuSans-51"/>
      </g>
     </g>
    </g>
    <g id="xtick_14">
     <g id="line2d_27">
      <path clip-path="url(#pc21825fec3)" d="M 313.874503 252 
L 313.874503 34.56 
" style="fill:none;stroke:#b0b0b0;stroke-linecap:square;stroke-width:0.5;"/>
     </g>
     <g id="line2d_28">
      <g>
       <use style="stroke:#000000;stroke-width:0.8;" x="313.874503" xlink:href="#mbd3202c8fe" y="252"/>
      </g>
     </g>
     <g id="text_14">
      <!-- 5 -->
      <g transform="translate(311.965753 263.559062)scale(0.06 -0.06)">
       <use xlink:href="#DejaVuSans-53"/>
      </g>
     </g>
    </g>
    <g id="xtick_15">
     <g id="line2d_29">
      <path clip-path="url(#pc21825fec3)" d="M 327.944667 252 
L 327.944667 34.56 
" style="fill:none;stroke:#b0b0b0;stroke-linecap:square;stroke-width:0.5;"/>
     </g>
     <g id="line2d_30">
      <g>
       <use style="stroke:#000000;stroke-width:0.8;" x="327.944667" xlink:href="#mbd3202c8fe" y="252"/>
      </g>
     </g>
     <g id="text_15">
      <!-- 7 -->
      <g transform="translate(326.035917 263.559062)scale(0.06 -0.06)">
       <use xlink:href="#DejaVuSans-55"/>
      </g>
     </g>
    </g>
    <g id="xtick_16">
     <g id="line2d_31">
      <path clip-path="url(#pc21825fec3)" d="M 342.859642 252 
L 342.859642 34.56 
" style="fill:none;stroke:#b0b0b0;stroke-linecap:square;stroke-width:0.5;"/>
     </g>
     <g id="line2d_32">
      <g>
       <use style="stroke:#000000;stroke-width:0.8;" x="342.859642" xlink:href="#mbd3202c8fe" y="252"/>
      </g>
     </g>
     <g id="text_16">
      <!-- 10 -->
      <g transform="translate(339.042142 263.559062)scale(0.06 -0.06)">
       <use xlink:href="#DejaVuSans-49"/>
       <use x="63.623047" xlink:href="#DejaVuSans-48"/>
      </g>
     </g>
    </g>
    <g id="xtick_17">
     <g id="line2d_33">
      <path clip-path="url(#pc21825fec3)" d="M 371.844781 252 
L 371.844781 34.56 
" style="fill:none;stroke:#b0b0b0;stroke-linecap:square;stroke-width:0.5;"/>
     </g>
     <g id="line2d_34">
      <g>
       <use style="stroke:#000000;stroke-width:0.8;" x="371.844781" xlink:href="#mbd3202c8fe" y="252"/>
      </g>
     </g>
     <g id="text_17">
      <!-- 20 -->
      <g transform="translate(368.027281 263.559062)scale(0.06 -0.06)">
       <use xlink:href="#DejaVuSans-50"/>
       <use x="63.623047" xlink:href="#DejaVuSans-48"/>
      </g>
     </g>
    </g>
    <g id="xtick_18">
     <g id="line2d_35">
      <path clip-path="url(#pc21825fec3)" d="M 388.8 252 
L 388.8 34.56 
" style="fill:none;stroke:#b0b0b0;stroke-linecap:square;stroke-width:0.5;"/>
     </g>
     <g id="line2d_36">
      <g>
       <use style="stroke:#000000;stroke-width:0.8;" x="388.8" xlink:href="#mbd3202c8fe" y="252"/>
      </g>
     </g>
     <g id="text_18">
      <!-- 30 -->
      <g transform="translate(384.9825 263.559062)scale(0.06 -0.06)">
       <use xlink:href="#DejaVuSans-51"/>
       <use x="63.623047" xlink:href="#DejaVuSans-48"/>
      </g>
     </g>
    </g>
    <g id="xtick_19">
     <g id="line2d_37">
      <path clip-path="url(#pc21825fec3)" d="M 111.970278 252 
L 111.970278 34.56 
" style="fill:none;stroke:#b0b0b0;stroke-linecap:square;stroke-width:0.1;"/>
     </g>
     <g id="line2d_38">
      <defs>
       <path d="M 0 0 
L 0 2 
" id="mb7e3f2f598" style="stroke:#000000;stroke-width:0.6;"/>
      </defs>
      <g>
       <use style="stroke:#000000;stroke-width:0.6;" x="111.970278" xlink:href="#mb7e3f2f598" y="252"/>
      </g>
     </g>
    </g>
    <g id="xtick_20">
     <g id="line2d_39">
      <path clip-path="url(#pc21825fec3)" d="M 128.925497 252 
L 128.925497 34.56 
" style="fill:none;stroke:#b0b0b0;stroke-linecap:square;stroke-width:0.1;"/>
     </g>
     <g id="line2d_40">
      <g>
       <use style="stroke:#000000;stroke-width:0.6;" x="128.925497" xlink:href="#mb7e3f2f598" y="252"/>
      </g>
     </g>
    </g>
    <g id="xtick_21">
     <g id="line2d_41">
      <path clip-path="url(#pc21825fec3)" d="M 140.955417 252 
L 140.955417 34.56 
" style="fill:none;stroke:#b0b0b0;stroke-linecap:square;stroke-width:0.1;"/>
     </g>
     <g id="line2d_42">
      <g>
       <use style="stroke:#000000;stroke-width:0.6;" x="140.955417" xlink:href="#mb7e3f2f598" y="252"/>
      </g>
     </g>
    </g>
    <g id="xtick_22">
     <g id="line2d_43">
      <path clip-path="url(#pc21825fec3)" d="M 145.880716 252 
L 145.880716 34.56 
" style="fill:none;stroke:#b0b0b0;stroke-linecap:square;stroke-width:0.1;"/>
     </g>
     <g id="line2d_44">
      <g>
       <use style="stroke:#000000;stroke-width:0.6;" x="145.880716" xlink:href="#mb7e3f2f598" y="252"/>
      </g>
     </g>
    </g>
    <g id="xtick_23">
     <g id="line2d_45">
      <path clip-path="url(#pc21825fec3)" d="M 208.256825 252 
L 208.256825 34.56 
" style="fill:none;stroke:#b0b0b0;stroke-linecap:square;stroke-width:0.1;"/>
     </g>
     <g id="line2d_46">
      <g>
       <use style="stroke:#000000;stroke-width:0.6;" x="208.256825" xlink:href="#mb7e3f2f598" y="252"/>
      </g>
     </g>
    </g>
    <g id="xtick_24">
     <g id="line2d_47">
      <path clip-path="url(#pc21825fec3)" d="M 225.212044 252 
L 225.212044 34.56 
" style="fill:none;stroke:#b0b0b0;stroke-linecap:square;stroke-width:0.1;"/>
     </g>
     <g id="line2d_48">
      <g>
       <use style="stroke:#000000;stroke-width:0.6;" x="225.212044" xlink:href="#mb7e3f2f598" y="252"/>
      </g>
     </g>
    </g>
    <g id="xtick_25">
     <g id="line2d_49">
      <path clip-path="url(#pc21825fec3)" d="M 237.241964 252 
L 237.241964 34.56 
" style="fill:none;stroke:#b0b0b0;stroke-linecap:square;stroke-width:0.1;"/>
     </g>
     <g id="line2d_50">
      <g>
       <use style="stroke:#000000;stroke-width:0.6;" x="237.241964" xlink:href="#mb7e3f2f598" y="252"/>
      </g>
     </g>
    </g>
    <g id="xtick_26">
     <g id="line2d_51">
      <path clip-path="url(#pc21825fec3)" d="M 242.167264 252 
L 242.167264 34.56 
" style="fill:none;stroke:#b0b0b0;stroke-linecap:square;stroke-width:0.1;"/>
     </g>
     <g id="line2d_52">
      <g>
       <use style="stroke:#000000;stroke-width:0.6;" x="242.167264" xlink:href="#mb7e3f2f598" y="252"/>
      </g>
     </g>
    </g>
    <g id="xtick_27">
     <g id="line2d_53">
      <path clip-path="url(#pc21825fec3)" d="M 304.543372 252 
L 304.543372 34.56 
" style="fill:none;stroke:#b0b0b0;stroke-linecap:square;stroke-width:0.1;"/>
     </g>
     <g id="line2d_54">
      <g>
       <use style="stroke:#000000;stroke-width:0.6;" x="304.543372" xlink:href="#mb7e3f2f598" y="252"/>
      </g>
     </g>
    </g>
    <g id="xtick_28">
     <g id="line2d_55">
      <path clip-path="url(#pc21825fec3)" d="M 321.498592 252 
L 321.498592 34.56 
" style="fill:none;stroke:#b0b0b0;stroke-linecap:square;stroke-width:0.1;"/>
     </g>
     <g id="line2d_56">
      <g>
       <use style="stroke:#000000;stroke-width:0.6;" x="321.498592" xlink:href="#mb7e3f2f598" y="252"/>
      </g>
     </g>
    </g>
    <g id="xtick_29">
     <g id="line2d_57">
      <path clip-path="url(#pc21825fec3)" d="M 333.528511 252 
L 333.528511 34.56 
" style="fill:none;stroke:#b0b0b0;stroke-linecap:square;stroke-width:0.1;"/>
     </g>
     <g id="line2d_58">
      <g>
       <use style="stroke:#000000;stroke-width:0.6;" x="333.528511" xlink:href="#mb7e3f2f598" y="252"/>
      </g>
     </g>
    </g>
    <g id="xtick_30">
     <g id="line2d_59">
      <path clip-path="url(#pc21825fec3)" d="M 338.453811 252 
L 338.453811 34.56 
" style="fill:none;stroke:#b0b0b0;stroke-linecap:square;stroke-width:0.1;"/>
     </g>
     <g id="line2d_60">
      <g>
       <use style="stroke:#000000;stroke-width:0.6;" x="338.453811" xlink:href="#mb7e3f2f598" y="252"/>
      </g>
     </g>
    </g>
    <g id="text_19">
     <!-- Frequency (MHz) -->
     <defs>
      <path d="M 9.8125 72.90625 
L 51.703125 72.90625 
L 51.703125 64.59375 
L 19.671875 64.59375 
L 19.671875 43.109375 
L 48.578125 43.109375 
L 48.578125 34.8125 
L 19.671875 34.8125 
L 19.671875 0 
L 9.8125 0 
z
" id="DejaVuSans-70"/>
      <path d="M 41.109375 46.296875 
Q 39.59375 47.171875 37.8125 47.578125 
Q 36.03125 48 33.890625 48 
Q 26.265625 48 22.1875 43.046875 
Q 18.109375 38.09375 18.109375 28.8125 
L 18.109375 0 
L 9.078125 0 
L 9.078125 54.6875 
L 18.109375 54.6875 
L 18.109375 46.1875 
Q 20.953125 51.171875 25.484375 53.578125 
Q 30.03125 56 36.53125 56 
Q 37.453125 56 38.578125 55.875 
Q 39.703125 55.765625 41.0625 55.515625 
z
" id="DejaVuSans-114"/>
      <path d="M 56.203125 29.59375 
L 56.203125 25.203125 
L 14.890625 25.203125 
Q 15.484375 15.921875 20.484375 11.0625 
Q 25.484375 6.203125 34.421875 6.203125 
Q 39.59375 6.203125 44.453125 7.46875 
Q 49.3125 8.734375 54.109375 11.28125 
L 54.109375 2.78125 
Q 49.265625 0.734375 44.1875 -0.34375 
Q 39.109375 -1.421875 33.890625 -1.421875 
Q 20.796875 -1.421875 13.15625 6.1875 
Q 5.515625 13.8125 5.515625 26.8125 
Q 5.515625 40.234375 12.765625 48.109375 
Q 20.015625 56 32.328125 56 
Q 43.359375 56 49.78125 48.890625 
Q 56.203125 41.796875 56.203125 29.59375 
z
M 47.21875 32.234375 
Q 47.125 39.59375 43.09375 43.984375 
Q 39.0625 48.390625 32.421875 48.390625 
Q 24.90625 48.390625 20.390625 44.140625 
Q 15.875 39.890625 15.1875 32.171875 
z
" id="DejaVuSans-101"/>
      <path d="M 14.796875 27.296875 
Q 14.796875 17.390625 18.875 11.75 
Q 22.953125 6.109375 30.078125 6.109375 
Q 37.203125 6.109375 41.296875 11.75 
Q 45.40625 17.390625 45.40625 27.296875 
Q 45.40625 37.203125 41.296875 42.84375 
Q 37.203125 48.484375 30.078125 48.484375 
Q 22.953125 48.484375 18.875 42.84375 
Q 14.796875 37.203125 14.796875 27.296875 
z
M 45.40625 8.203125 
Q 42.578125 3.328125 38.25 0.953125 
Q 33.9375 -1.421875 27.875 -1.421875 
Q 17.96875 -1.421875 11.734375 6.484375 
Q 5.515625 14.40625 5.515625 27.296875 
Q 5.515625 40.1875 11.734375 48.09375 
Q 17.96875 56 27.875 56 
Q 33.9375 56 38.25 53.625 
Q 42.578125 51.265625 45.40625 46.390625 
L 45.40625 54.6875 
L 54.390625 54.6875 
L 54.390625 -20.796875 
L 45.40625 -20.796875 
z
" id="DejaVuSans-113"/>
      <path d="M 8.5 21.578125 
L 8.5 54.6875 
L 17.484375 54.6875 
L 17.484375 21.921875 
Q 17.484375 14.15625 20.5 10.265625 
Q 23.53125 6.390625 29.59375 6.390625 
Q 36.859375 6.390625 41.078125 11.03125 
Q 45.3125 15.671875 45.3125 23.6875 
L 45.3125 54.6875 
L 54.296875 54.6875 
L 54.296875 0 
L 45.3125 0 
L 45.3125 8.40625 
Q 42.046875 3.421875 37.71875 1 
Q 33.40625 -1.421875 27.6875 -1.421875 
Q 18.265625 -1.421875 13.375 4.4375 
Q 8.5 10.296875 8.5 21.578125 
z
M 31.109375 56 
z
" id="DejaVuSans-117"/>
      <path d="M 54.890625 33.015625 
L 54.890625 0 
L 45.90625 0 
L 45.90625 32.71875 
Q 45.90625 40.484375 42.875 44.328125 
Q 39.84375 48.1875 33.796875 48.1875 
Q 26.515625 48.1875 22.3125 43.546875 
Q 18.109375 38.921875 18.109375 30.90625 
L 18.109375 0 
L 9.078125 0 
L 9.078125 54.6875 
L 18.109375 54.6875 
L 18.109375 46.1875 
Q 21.34375 51.125 25.703125 53.5625 
Q 30.078125 56 35.796875 56 
Q 45.21875 56 50.046875 50.171875 
Q 54.890625 44.34375 54.890625 33.015625 
z
" id="DejaVuSans-110"/>
      <path d="M 48.78125 52.59375 
L 48.78125 44.1875 
Q 44.96875 46.296875 41.140625 47.34375 
Q 37.3125 48.390625 33.40625 48.390625 
Q 24.65625 48.390625 19.8125 42.84375 
Q 14.984375 37.3125 14.984375 27.296875 
Q 14.984375 17.28125 19.8125 11.734375 
Q 24.65625 6.203125 33.40625 6.203125 
Q 37.3125 6.203125 41.140625 7.25 
Q 44.96875 8.296875 48.78125 10.40625 
L 48.78125 2.09375 
Q 45.015625 0.34375 40.984375 -0.53125 
Q 36.96875 -1.421875 32.421875 -1.421875 
Q 20.0625 -1.421875 12.78125 6.34375 
Q 5.515625 14.109375 5.515625 27.296875 
Q 5.515625 40.671875 12.859375 48.328125 
Q 20.21875 56 33.015625 56 
Q 37.15625 56 41.109375 55.140625 
Q 45.0625 54.296875 48.78125 52.59375 
z
" id="DejaVuSans-99"/>
      <path d="M 32.171875 -5.078125 
Q 28.375 -14.84375 24.75 -17.8125 
Q 21.140625 -20.796875 15.09375 -20.796875 
L 7.90625 -20.796875 
L 7.90625 -13.28125 
L 13.1875 -13.28125 
Q 16.890625 -13.28125 18.9375 -11.515625 
Q 21 -9.765625 23.484375 -3.21875 
L 25.09375 0.875 
L 2.984375 54.6875 
L 12.5 54.6875 
L 29.59375 11.921875 
L 46.6875 54.6875 
L 56.203125 54.6875 
z
" id="DejaVuSans-121"/>
      <path id="DejaVuSans-32"/>
      <path d="M 31 75.875 
Q 24.46875 64.65625 21.28125 53.65625 
Q 18.109375 42.671875 18.109375 31.390625 
Q 18.109375 20.125 21.3125 9.0625 
Q 24.515625 -2 31 -13.1875 
L 23.1875 -13.1875 
Q 15.875 -1.703125 12.234375 9.375 
Q 8.59375 20.453125 8.59375 31.390625 
Q 8.59375 42.28125 12.203125 53.3125 
Q 15.828125 64.359375 23.1875 75.875 
z
" id="DejaVuSans-40"/>
      <path d="M 9.8125 72.90625 
L 24.515625 72.90625 
L 43.109375 23.296875 
L 61.8125 72.90625 
L 76.515625 72.90625 
L 76.515625 0 
L 66.890625 0 
L 66.890625 64.015625 
L 48.09375 14.015625 
L 38.1875 14.015625 
L 19.390625 64.015625 
L 19.390625 0 
L 9.8125 0 
z
" id="DejaVuSans-77"/>
      <path d="M 9.8125 72.90625 
L 19.671875 72.90625 
L 19.671875 43.015625 
L 55.515625 43.015625 
L 55.515625 72.90625 
L 65.375 72.90625 
L 65.375 0 
L 55.515625 0 
L 55.515625 34.71875 
L 19.671875 34.71875 
L 19.671875 0 
L 9.8125 0 
z
" id="DejaVuSans-72"/>
      <path d="M 5.515625 54.6875 
L 48.1875 54.6875 
L 48.1875 46.484375 
L 14.40625 7.171875 
L 48.1875 7.171875 
L 48.1875 0 
L 4.296875 0 
L 4.296875 8.203125 
L 38.09375 47.515625 
L 5.515625 47.515625 
z
" id="DejaVuSans-122"/>
      <path d="M 8.015625 75.875 
L 15.828125 75.875 
Q 23.140625 64.359375 26.78125 53.3125 
Q 30.421875 42.28125 30.421875 31.390625 
Q 30.421875 20.453125 26.78125 9.375 
Q 23.140625 -1.703125 15.828125 -13.1875 
L 8.015625 -13.1875 
Q 14.5 -2 17.703125 9.0625 
Q 20.90625 20.125 20.90625 31.390625 
Q 20.90625 42.671875 17.703125 53.65625 
Q 14.5 64.65625 8.015625 75.875 
z
" id="DejaVuSans-41"/>
     </defs>
     <g transform="translate(195.907969 273.365937)scale(0.06 -0.06)">
      <use xlink:href="#DejaVuSans-70"/>
      <use x="57.410156" xlink:href="#DejaVuSans-114"/>
      <use x="98.492188" xlink:href="#DejaVuSans-101"/>
      <use x="160.015625" xlink:href="#DejaVuSans-113"/>
      <use x="223.492188" xlink:href="#DejaVuSans-117"/>
      <use x="286.871094" xlink:href="#DejaVuSans-101"/>
      <use x="348.394531" xlink:href="#DejaVuSans-110"/>
      <use x="411.773438" xlink:href="#DejaVuSans-99"/>
      <use x="466.753906" xlink:href="#DejaVuSans-121"/>
      <use x="525.933594" xlink:href="#DejaVuSans-32"/>
      <use x="557.720703" xlink:href="#DejaVuSans-40"/>
      <use x="596.734375" xlink:href="#DejaVuSans-77"/>
      <use x="683.013672" xlink:href="#DejaVuSans-72"/>
      <use x="758.208984" xlink:href="#DejaVuSans-122"/>
      <use x="810.699219" xlink:href="#DejaVuSans-41"/>
     </g>
    </g>
   </g>
   <g id="matplotlib.axis_2">
    <g id="ytick_1">
     <g id="line2d_61">
      <path clip-path="url(#pc21825fec3)" d="M 54 252 
L 388.8 252 
" style="fill:none;stroke:#b0b0b0;stroke-linecap:square;stroke-width:0.5;"/>
     </g>
     <g id="line2d_62">
      <defs>
       <path d="M 0 0 
L -3.5 0 
" id="mf871dfd10a" style="stroke:#000000;stroke-width:0.8;"/>
      </defs>
      <g>
       <use style="stroke:#000000;stroke-width:0.8;" x="54" xlink:href="#mf871dfd10a" y="252"/>
      </g>
     </g>
     <g id="text_20">
      <!-- −20 -->
      <defs>
       <path d="M 10.59375 35.5 
L 73.1875 35.5 
L 73.1875 27.203125 
L 10.59375 27.203125 
z
" id="DejaVuSans-8722"/>
      </defs>
      <g transform="translate(34.337187 254.279531)scale(0.06 -0.06)">
       <use xlink:href="#DejaVuSans-8722"/>
       <use x="83.789062" xlink:href="#DejaVuSans-50"/>
       <use x="147.412109" xlink:href="#DejaVuSans-48"/>
      </g>
     </g>
    </g>
    <g id="ytick_2">
     <g id="line2d_63">
      <path clip-path="url(#pc21825fec3)" d="M 54 230.256 
L 388.8 230.256 
" style="fill:none;stroke:#b0b0b0;stroke-linecap:square;stroke-width:0.5;"/>
     </g>
     <g id="line2d_64">
      <g>
       <use style="stroke:#000000;stroke-width:0.8;" x="54" xlink:href="#mf871dfd10a" y="230.256"/>
      </g>
     </g>
     <g id="text_21">
      <!-- 0 -->
      <g transform="translate(43.1825 232.535531)scale(0.06 -0.06)">
       <use xlink:href="#DejaVuSans-48"/>
      </g>
     </g>
    </g>
    <g id="ytick_3">
     <g id="line2d_65">
      <path clip-path="url(#pc21825fec3)" d="M 54 208.512 
L 388.8 208.512 
" style="fill:none;stroke:#b0b0b0;stroke-linecap:square;stroke-width:0.5;"/>
     </g>
     <g id="line2d_66">
      <g>
       <use style="stroke:#000000;stroke-width:0.8;" x="54" xlink:href="#mf871dfd10a" y="208.512"/>
      </g>
     </g>
     <g id="text_22">
      <!-- 20 -->
      <g transform="translate(39.365 210.791531)scale(0.06 -0.06)">
       <use xlink:href="#DejaVuSans-50"/>
       <use x="63.623047" xlink:href="#DejaVuSans-48"/>
      </g>
     </g>
    </g>
    <g id="ytick_4">
     <g id="line2d_67">
      <path clip-path="url(#pc21825fec3)" d="M 54 186.768 
L 388.8 186.768 
" style="fill:none;stroke:#b0b0b0;stroke-linecap:square;stroke-width:0.5;"/>
     </g>
     <g id="line2d_68">
      <g>
       <use style="stroke:#000000;stroke-width:0.8;" x="54" xlink:href="#mf871dfd10a" y="186.768"/>
      </g>
     </g>
     <g id="text_23">
      <!-- 40 -->
      <defs>
       <path d="M 37.796875 64.3125 
L 12.890625 25.390625 
L 37.796875 25.390625 
z
M 35.203125 72.90625 
L 47.609375 72.90625 
L 47.609375 25.390625 
L 58.015625 25.390625 
L 58.015625 17.1875 
L 47.609375 17.1875 
L 47.609375 0 
L 37.796875 0 
L 37.796875 17.1875 
L 4.890625 17.1875 
L 4.890625 26.703125 
z
" id="DejaVuSans-52"/>
      </defs>
      <g transform="translate(39.365 189.047531)scale(0.06 -0.06)">
       <use xlink:href="#DejaVuSans-52"/>
       <use x="63.623047" xlink:href="#DejaVuSans-48"/>
      </g>
     </g>
    </g>
    <g id="ytick_5">
     <g id="line2d_69">
      <path clip-path="url(#pc21825fec3)" d="M 54 165.024 
L 388.8 165.024 
" style="fill:none;stroke:#b0b0b0;stroke-linecap:square;stroke-width:0.5;"/>
     </g>
     <g id="line2d_70">
      <g>
       <use style="stroke:#000000;stroke-width:0.8;" x="54" xlink:href="#mf871dfd10a" y="165.024"/>
      </g>
     </g>
     <g id="text_24">
      <!-- 60 -->
      <defs>
       <path d="M 33.015625 40.375 
Q 26.375 40.375 22.484375 35.828125 
Q 18.609375 31.296875 18.609375 23.390625 
Q 18.609375 15.53125 22.484375 10.953125 
Q 26.375 6.390625 33.015625 6.390625 
Q 39.65625 6.390625 43.53125 10.953125 
Q 47.40625 15.53125 47.40625 23.390625 
Q 47.40625 31.296875 43.53125 35.828125 
Q 39.65625 40.375 33.015625 40.375 
z
M 52.59375 71.296875 
L 52.59375 62.3125 
Q 48.875 64.0625 45.09375 64.984375 
Q 41.3125 65.921875 37.59375 65.921875 
Q 27.828125 65.921875 22.671875 59.328125 
Q 17.53125 52.734375 16.796875 39.40625 
Q 19.671875 43.65625 24.015625 45.921875 
Q 28.375 48.1875 33.59375 48.1875 
Q 44.578125 48.1875 50.953125 41.515625 
Q 57.328125 34.859375 57.328125 23.390625 
Q 57.328125 12.15625 50.6875 5.359375 
Q 44.046875 -1.421875 33.015625 -1.421875 
Q 20.359375 -1.421875 13.671875 8.265625 
Q 6.984375 17.96875 6.984375 36.375 
Q 6.984375 53.65625 15.1875 63.9375 
Q 23.390625 74.21875 37.203125 74.21875 
Q 40.921875 74.21875 44.703125 73.484375 
Q 48.484375 72.75 52.59375 71.296875 
z
" id="DejaVuSans-54"/>
      </defs>
      <g transform="translate(39.365 167.303531)scale(0.06 -0.06)">
       <use xlink:href="#DejaVuSans-54"/>
       <use x="63.623047" xlink:href="#DejaVuSans-48"/>
      </g>
     </g>
    </g>
    <g id="ytick_6">
     <g id="line2d_71">
      <path clip-path="url(#pc21825fec3)" d="M 54 143.28 
L 388.8 143.28 
" style="fill:none;stroke:#b0b0b0;stroke-linecap:square;stroke-width:0.5;"/>
     </g>
     <g id="line2d_72">
      <g>
       <use style="stroke:#000000;stroke-width:0.8;" x="54" xlink:href="#mf871dfd10a" y="143.28"/>
      </g>
     </g>
     <g id="text_25">
      <!-- 80 -->
      <defs>
       <path d="M 31.78125 34.625 
Q 24.75 34.625 20.71875 30.859375 
Q 16.703125 27.09375 16.703125 20.515625 
Q 16.703125 13.921875 20.71875 10.15625 
Q 24.75 6.390625 31.78125 6.390625 
Q 38.8125 6.390625 42.859375 10.171875 
Q 46.921875 13.96875 46.921875 20.515625 
Q 46.921875 27.09375 42.890625 30.859375 
Q 38.875 34.625 31.78125 34.625 
z
M 21.921875 38.8125 
Q 15.578125 40.375 12.03125 44.71875 
Q 8.5 49.078125 8.5 55.328125 
Q 8.5 64.0625 14.71875 69.140625 
Q 20.953125 74.21875 31.78125 74.21875 
Q 42.671875 74.21875 48.875 69.140625 
Q 55.078125 64.0625 55.078125 55.328125 
Q 55.078125 49.078125 51.53125 44.71875 
Q 48 40.375 41.703125 38.8125 
Q 48.828125 37.15625 52.796875 32.3125 
Q 56.78125 27.484375 56.78125 20.515625 
Q 56.78125 9.90625 50.3125 4.234375 
Q 43.84375 -1.421875 31.78125 -1.421875 
Q 19.734375 -1.421875 13.25 4.234375 
Q 6.78125 9.90625 6.78125 20.515625 
Q 6.78125 27.484375 10.78125 32.3125 
Q 14.796875 37.15625 21.921875 38.8125 
z
M 18.3125 54.390625 
Q 18.3125 48.734375 21.84375 45.5625 
Q 25.390625 42.390625 31.78125 42.390625 
Q 38.140625 42.390625 41.71875 45.5625 
Q 45.3125 48.734375 45.3125 54.390625 
Q 45.3125 60.0625 41.71875 63.234375 
Q 38.140625 66.40625 31.78125 66.40625 
Q 25.390625 66.40625 21.84375 63.234375 
Q 18.3125 60.0625 18.3125 54.390625 
z
" id="DejaVuSans-56"/>
      </defs>
      <g transform="translate(39.365 145.559531)scale(0.06 -0.06)">
       <use xlink:href="#DejaVuSans-56"/>
       <use x="63.623047" xlink:href="#DejaVuSans-48"/>
      </g>
     </g>
    </g>
    <g id="ytick_7">
     <g id="line2d_73">
      <path clip-path="url(#pc21825fec3)" d="M 54 121.536 
L 388.8 121.536 
" style="fill:none;stroke:#b0b0b0;stroke-linecap:square;stroke-width:0.5;"/>
     </g>
     <g id="line2d_74">
      <g>
       <use style="stroke:#000000;stroke-width:0.8;" x="54" xlink:href="#mf871dfd10a" y="121.536"/>
      </g>
     </g>
     <g id="text_26">
      <!-- 100 -->
      <g transform="translate(35.5475 123.815531)scale(0.06 -0.06)">
       <use xlink:href="#DejaVuSans-49"/>
       <use x="63.623047" xlink:href="#DejaVuSans-48"/>
       <use x="127.246094" xlink:href="#DejaVuSans-48"/>
      </g>
     </g>
    </g>
    <g id="ytick_8">
     <g id="line2d_75">
      <path clip-path="url(#pc21825fec3)" d="M 54 99.792 
L 388.8 99.792 
" style="fill:none;stroke:#b0b0b0;stroke-linecap:square;stroke-width:0.5;"/>
     </g>
     <g id="line2d_76">
      <g>
       <use style="stroke:#000000;stroke-width:0.8;" x="54" xlink:href="#mf871dfd10a" y="99.792"/>
      </g>
     </g>
     <g id="text_27">
      <!-- 120 -->
      <g transform="translate(35.5475 102.071531)scale(0.06 -0.06)">
       <use xlink:href="#DejaVuSans-49"/>
       <use x="63.623047" xlink:href="#DejaVuSans-50"/>
       <use x="127.246094" xlink:href="#DejaVuSans-48"/>
      </g>
     </g>
    </g>
    <g id="ytick_9">
     <g id="line2d_77">
      <path clip-path="url(#pc21825fec3)" d="M 54 78.048 
L 388.8 78.048 
" style="fill:none;stroke:#b0b0b0;stroke-linecap:square;stroke-width:0.5;"/>
     </g>
     <g id="line2d_78">
      <g>
       <use style="stroke:#000000;stroke-width:0.8;" x="54" xlink:href="#mf871dfd10a" y="78.048"/>
      </g>
     </g>
     <g id="text_28">
      <!-- 140 -->
      <g transform="translate(35.5475 80.327531)scale(0.06 -0.06)">
       <use xlink:href="#DejaVuSans-49"/>
       <use x="63.623047" xlink:href="#DejaVuSans-52"/>
       <use x="127.246094" xlink:href="#DejaVuSans-48"/>
      </g>
     </g>
    </g>
    <g id="ytick_10">
     <g id="line2d_79">
      <path clip-path="url(#pc21825fec3)" d="M 54 56.304 
L 388.8 56.304 
" style="fill:none;stroke:#b0b0b0;stroke-linecap:square;stroke-width:0.5;"/>
     </g>
     <g id="line2d_80">
      <g>
       <use style="stroke:#000000;stroke-width:0.8;" x="54" xlink:href="#mf871dfd10a" y="56.304"/>
      </g>
     </g>
     <g id="text_29">
      <!-- 160 -->
      <g transform="translate(35.5475 58.583531)scale(0.06 -0.06)">
       <use xlink:href="#DejaVuSans-49"/>
       <use x="63.623047" xlink:href="#DejaVuSans-54"/>
       <use x="127.246094" xlink:href="#DejaVuSans-48"/>
      </g>
     </g>
    </g>
    <g id="ytick_11">
     <g id="line2d_81">
      <path clip-path="url(#pc21825fec3)" d="M 54 34.56 
L 388.8 34.56 
" style="fill:none;stroke:#b0b0b0;stroke-linecap:square;stroke-width:0.5;"/>
     </g>
     <g id="line2d_82">
      <g>
       <use style="stroke:#000000;stroke-width:0.8;" x="54" xlink:href="#mf871dfd10a" y="34.56"/>
      </g>
     </g>
     <g id="text_30">
      <!-- 180 -->
      <g transform="translate(35.5475 36.839531)scale(0.06 -0.06)">
       <use xlink:href="#DejaVuSans-49"/>
       <use x="63.623047" xlink:href="#DejaVuSans-56"/>
       <use x="127.246094" xlink:href="#DejaVuSans-48"/>
      </g>
     </g>
    </g>
    <g id="ytick_12">
     <g id="line2d_83">
      <path clip-path="url(#pc21825fec3)" d="M 54 246.564 
L 388.8 246.564 
" style="fill:none;stroke:#b0b0b0;stroke-linecap:square;stroke-width:0.1;"/>
     </g>
     <g id="line2d_84">
      <defs>
       <path d="M 0 0 
L -2 0 
" id="m45ed583c24" style="stroke:#000000;stroke-width:0.6;"/>
      </defs>
      <g>
       <use style="stroke:#000000;stroke-width:0.6;" x="54" xlink:href="#m45ed583c24" y="246.564"/>
      </g>
     </g>
    </g>
    <g id="ytick_13">
     <g id="line2d_85">
      <path clip-path="url(#pc21825fec3)" d="M 54 241.128 
L 388.8 241.128 
" style="fill:none;stroke:#b0b0b0;stroke-linecap:square;stroke-width:0.1;"/>
     </g>
     <g id="line2d_86">
      <g>
       <use style="stroke:#000000;stroke-width:0.6;" x="54" xlink:href="#m45ed583c24" y="241.128"/>
      </g>
     </g>
    </g>
    <g id="ytick_14">
     <g id="line2d_87">
      <path clip-path="url(#pc21825fec3)" d="M 54 235.692 
L 388.8 235.692 
" style="fill:none;stroke:#b0b0b0;stroke-linecap:square;stroke-width:0.1;"/>
     </g>
     <g id="line2d_88">
      <g>
       <use style="stroke:#000000;stroke-width:0.6;" x="54" xlink:href="#m45ed583c24" y="235.692"/>
      </g>
     </g>
    </g>
    <g id="ytick_15">
     <g id="line2d_89">
      <path clip-path="url(#pc21825fec3)" d="M 54 224.82 
L 388.8 224.82 
" style="fill:none;stroke:#b0b0b0;stroke-linecap:square;stroke-width:0.1;"/>
     </g>
     <g id="line2d_90">
      <g>
       <use style="stroke:#000000;stroke-width:0.6;" x="54" xlink:href="#m45ed583c24" y="224.82"/>
      </g>
     </g>
    </g>
    <g id="ytick_16">
     <g id="line2d_91">
      <path clip-path="url(#pc21825fec3)" d="M 54 219.384 
L 388.8 219.384 
" style="fill:none;stroke:#b0b0b0;stroke-linecap:square;stroke-width:0.1;"/>
     </g>
     <g id="line2d_92">
      <g>
       <use style="stroke:#000000;stroke-width:0.6;" x="54" xlink:href="#m45ed583c24" y="219.384"/>
      </g>
     </g>
    </g>
    <g id="ytick_17">
     <g id="line2d_93">
      <path clip-path="url(#pc21825fec3)" d="M 54 213.948 
L 388.8 213.948 
" style="fill:none;stroke:#b0b0b0;stroke-linecap:square;stroke-width:0.1;"/>
     </g>
     <g id="line2d_94">
      <g>
       <use style="stroke:#000000;stroke-width:0.6;" x="54" xlink:href="#m45ed583c24" y="213.948"/>
      </g>
     </g>
    </g>
    <g id="ytick_18">
     <g id="line2d_95">
      <path clip-path="url(#pc21825fec3)" d="M 54 203.076 
L 388.8 203.076 
" style="fill:none;stroke:#b0b0b0;stroke-linecap:square;stroke-width:0.1;"/>
     </g>
     <g id="line2d_96">
      <g>
       <use style="stroke:#000000;stroke-width:0.6;" x="54" xlink:href="#m45ed583c24" y="203.076"/>
      </g>
     </g>
    </g>
    <g id="ytick_19">
     <g id="line2d_97">
      <path clip-path="url(#pc21825fec3)" d="M 54 197.64 
L 388.8 197.64 
" style="fill:none;stroke:#b0b0b0;stroke-linecap:square;stroke-width:0.1;"/>
     </g>
     <g id="line2d_98">
      <g>
       <use style="stroke:#000000;stroke-width:0.6;" x="54" xlink:href="#m45ed583c24" y="197.64"/>
      </g>
     </g>
    </g>
    <g id="ytick_20">
     <g id="line2d_99">
      <path clip-path="url(#pc21825fec3)" d="M 54 192.204 
L 388.8 192.204 
" style="fill:none;stroke:#b0b0b0;stroke-linecap:square;stroke-width:0.1;"/>
     </g>
     <g id="line2d_100">
      <g>
       <use style="stroke:#000000;stroke-width:0.6;" x="54" xlink:href="#m45ed583c24" y="192.204"/>
      </g>
     </g>
    </g>
    <g id="ytick_21">
     <g id="line2d_101">
      <path clip-path="url(#pc21825fec3)" d="M 54 181.332 
L 388.8 181.332 
" style="fill:none;stroke:#b0b0b0;stroke-linecap:square;stroke-width:0.1;"/>
     </g>
     <g id="line2d_102">
      <g>
       <use style="stroke:#000000;stroke-width:0.6;" x="54" xlink:href="#m45ed583c24" y="181.332"/>
      </g>
     </g>
    </g>
    <g id="ytick_22">
     <g id="line2d_103">
      <path clip-path="url(#pc21825fec3)" d="M 54 175.896 
L 388.8 175.896 
" style="fill:none;stroke:#b0b0b0;stroke-linecap:square;stroke-width:0.1;"/>
     </g>
     <g id="line2d_104">
      <g>
       <use style="stroke:#000000;stroke-width:0.6;" x="54" xlink:href="#m45ed583c24" y="175.896"/>
      </g>
     </g>
    </g>
    <g id="ytick_23">
     <g id="line2d_105">
      <path clip-path="url(#pc21825fec3)" d="M 54 170.46 
L 388.8 170.46 
" style="fill:none;stroke:#b0b0b0;stroke-linecap:square;stroke-width:0.1;"/>
     </g>
     <g id="line2d_106">
      <g>
       <use style="stroke:#000000;stroke-width:0.6;" x="54" xlink:href="#m45ed583c24" y="170.46"/>
      </g>
     </g>
    </g>
    <g id="ytick_24">
     <g id="line2d_107">
      <path clip-path="url(#pc21825fec3)" d="M 54 159.588 
L 388.8 159.588 
" style="fill:none;stroke:#b0b0b0;stroke-linecap:square;stroke-width:0.1;"/>
     </g>
     <g id="line2d_108">
      <g>
       <use style="stroke:#000000;stroke-width:0.6;" x="54" xlink:href="#m45ed583c24" y="159.588"/>
      </g>
     </g>
    </g>
    <g id="ytick_25">
     <g id="line2d_109">
      <path clip-path="url(#pc21825fec3)" d="M 54 154.152 
L 388.8 154.152 
" style="fill:none;stroke:#b0b0b0;stroke-linecap:square;stroke-width:0.1;"/>
     </g>
     <g id="line2d_110">
      <g>
       <use style="stroke:#000000;stroke-width:0.6;" x="54" xlink:href="#m45ed583c24" y="154.152"/>
      </g>
     </g>
    </g>
    <g id="ytick_26">
     <g id="line2d_111">
      <path clip-path="url(#pc21825fec3)" d="M 54 148.716 
L 388.8 148.716 
" style="fill:none;stroke:#b0b0b0;stroke-linecap:square;stroke-width:0.1;"/>
     </g>
     <g id="line2d_112">
      <g>
       <use style="stroke:#000000;stroke-width:0.6;" x="54" xlink:href="#m45ed583c24" y="148.716"/>
      </g>
     </g>
    </g>
    <g id="ytick_27">
     <g id="line2d_113">
      <path clip-path="url(#pc21825fec3)" d="M 54 137.844 
L 388.8 137.844 
" style="fill:none;stroke:#b0b0b0;stroke-linecap:square;stroke-width:0.1;"/>
     </g>
     <g id="line2d_114">
      <g>
       <use style="stroke:#000000;stroke-width:0.6;" x="54" xlink:href="#m45ed583c24" y="137.844"/>
      </g>
     </g>
    </g>
    <g id="ytick_28">
     <g id="line2d_115">
      <path clip-path="url(#pc21825fec3)" d="M 54 132.408 
L 388.8 132.408 
" style="fill:none;stroke:#b0b0b0;stroke-linecap:square;stroke-width:0.1;"/>
     </g>
     <g id="line2d_116">
      <g>
       <use style="stroke:#000000;stroke-width:0.6;" x="54" xlink:href="#m45ed583c24" y="132.408"/>
      </g>
     </g>
    </g>
    <g id="ytick_29">
     <g id="line2d_117">
      <path clip-path="url(#pc21825fec3)" d="M 54 126.972 
L 388.8 126.972 
" style="fill:none;stroke:#b0b0b0;stroke-linecap:square;stroke-width:0.1;"/>
     </g>
     <g id="line2d_118">
      <g>
       <use style="stroke:#000000;stroke-width:0.6;" x="54" xlink:href="#m45ed583c24" y="126.972"/>
      </g>
     </g>
    </g>
    <g id="ytick_30">
     <g id="line2d_119">
      <path clip-path="url(#pc21825fec3)" d="M 54 116.1 
L 388.8 116.1 
" style="fill:none;stroke:#b0b0b0;stroke-linecap:square;stroke-width:0.1;"/>
     </g>
     <g id="line2d_120">
      <g>
       <use style="stroke:#000000;stroke-width:0.6;" x="54" xlink:href="#m45ed583c24" y="116.1"/>
      </g>
     </g>
    </g>
    <g id="ytick_31">
     <g id="line2d_121">
      <path clip-path="url(#pc21825fec3)" d="M 54 110.664 
L 388.8 110.664 
" style="fill:none;stroke:#b0b0b0;stroke-linecap:square;stroke-width:0.1;"/>
     </g>
     <g id="line2d_122">
      <g>
       <use style="stroke:#000000;stroke-width:0.6;" x="54" xlink:href="#m45ed583c24" y="110.664"/>
      </g>
     </g>
    </g>
    <g id="ytick_32">
     <g id="line2d_123">
      <path clip-path="url(#pc21825fec3)" d="M 54 105.228 
L 388.8 105.228 
" style="fill:none;stroke:#b0b0b0;stroke-linecap:square;stroke-width:0.1;"/>
     </g>
     <g id="line2d_124">
      <g>
       <use style="stroke:#000000;stroke-width:0.6;" x="54" xlink:href="#m45ed583c24" y="105.228"/>
      </g>
     </g>
    </g>
    <g id="ytick_33">
     <g id="line2d_125">
      <path clip-path="url(#pc21825fec3)" d="M 54 94.356 
L 388.8 94.356 
" style="fill:none;stroke:#b0b0b0;stroke-linecap:square;stroke-width:0.1;"/>
     </g>
     <g id="line2d_126">
      <g>
       <use style="stroke:#000000;stroke-width:0.6;" x="54" xlink:href="#m45ed583c24" y="94.356"/>
      </g>
     </g>
    </g>
    <g id="ytick_34">
     <g id="line2d_127">
      <path clip-path="url(#pc21825fec3)" d="M 54 88.92 
L 388.8 88.92 
" style="fill:none;stroke:#b0b0b0;stroke-linecap:square;stroke-width:0.1;"/>
     </g>
     <g id="line2d_128">
      <g>
       <use style="stroke:#000000;stroke-width:0.6;" x="54" xlink:href="#m45ed583c24" y="88.92"/>
      </g>
     </g>
    </g>
    <g id="ytick_35">
     <g id="line2d_129">
      <path clip-path="url(#pc21825fec3)" d="M 54 83.484 
L 388.8 83.484 
" style="fill:none;stroke:#b0b0b0;stroke-linecap:square;stroke-width:0.1;"/>
     </g>
     <g id="line2d_130">
      <g>
       <use style="stroke:#000000;stroke-width:0.6;" x="54" xlink:href="#m45ed583c24" y="83.484"/>
      </g>
     </g>
    </g>
    <g id="ytick_36">
     <g id="line2d_131">
      <path clip-path="url(#pc21825fec3)" d="M 54 72.612 
L 388.8 72.612 
" style="fill:none;stroke:#b0b0b0;stroke-linecap:square;stroke-width:0.1;"/>
     </g>
     <g id="line2d_132">
      <g>
       <use style="stroke:#000000;stroke-width:0.6;" x="54" xlink:href="#m45ed583c24" y="72.612"/>
      </g>
     </g>
    </g>
    <g id="ytick_37">
     <g id="line2d_133">
      <path clip-path="url(#pc21825fec3)" d="M 54 67.176 
L 388.8 67.176 
" style="fill:none;stroke:#b0b0b0;stroke-linecap:square;stroke-width:0.1;"/>
     </g>
     <g id="line2d_134">
      <g>
       <use style="stroke:#000000;stroke-width:0.6;" x="54" xlink:href="#m45ed583c24" y="67.176"/>
      </g>
     </g>
    </g>
    <g id="ytick_38">
     <g id="line2d_135">
      <path clip-path="url(#pc21825fec3)" d="M 54 61.74 
L 388.8 61.74 
" style="fill:none;stroke:#b0b0b0;stroke-linecap:square;stroke-width:0.1;"/>
     </g>
     <g id="line2d_136">
      <g>
       <use style="stroke:#000000;stroke-width:0.6;" x="54" xlink:href="#m45ed583c24" y="61.74"/>
      </g>
     </g>
    </g>
    <g id="ytick_39">
     <g id="line2d_137">
      <path clip-path="url(#pc21825fec3)" d="M 54 50.868 
L 388.8 50.868 
" style="fill:none;stroke:#b0b0b0;stroke-linecap:square;stroke-width:0.1;"/>
     </g>
     <g id="line2d_138">
      <g>
       <use style="stroke:#000000;stroke-width:0.6;" x="54" xlink:href="#m45ed583c24" y="50.868"/>
      </g>
     </g>
    </g>
    <g id="ytick_40">
     <g id="line2d_139">
      <path clip-path="url(#pc21825fec3)" d="M 54 45.432 
L 388.8 45.432 
" style="fill:none;stroke:#b0b0b0;stroke-linecap:square;stroke-width:0.1;"/>
     </g>
     <g id="line2d_140">
      <g>
       <use style="stroke:#000000;stroke-width:0.6;" x="54" xlink:href="#m45ed583c24" y="45.432"/>
      </g>
     </g>
    </g>
    <g id="ytick_41">
     <g id="line2d_141">
      <path clip-path="url(#pc21825fec3)" d="M 54 39.996 
L 388.8 39.996 
" style="fill:none;stroke:#b0b0b0;stroke-linecap:square;stroke-width:0.1;"/>
     </g>
     <g id="line2d_142">
      <g>
       <use style="stroke:#000000;stroke-width:0.6;" x="54" xlink:href="#m45ed583c24" y="39.996"/>
      </g>
     </g>
    </g>
    <g id="text_31">
     <!-- $F_{am}$ (dB above k$T_0$b) -->
     <defs>
      <path d="M 16.890625 72.90625 
L 58.6875 72.90625 
L 57.078125 64.59375 
L 25.09375 64.59375 
L 20.90625 43.109375 
L 49.8125 43.109375 
L 48.1875 34.8125 
L 19.28125 34.8125 
L 12.5 0 
L 2.6875 0 
z
" id="DejaVuSans-Oblique-70"/>
      <path d="M 53.71875 31.203125 
L 47.609375 0 
L 38.625 0 
L 40.28125 8.296875 
Q 36.328125 3.421875 31.265625 1 
Q 26.21875 -1.421875 20.015625 -1.421875 
Q 13.03125 -1.421875 8.5625 2.84375 
Q 4.109375 7.125 4.109375 13.8125 
Q 4.109375 23.390625 11.75 28.953125 
Q 19.390625 34.515625 32.8125 34.515625 
L 45.3125 34.515625 
L 45.796875 36.921875 
Q 45.90625 37.3125 45.953125 37.765625 
Q 46 38.234375 46 39.203125 
Q 46 43.5625 42.453125 45.96875 
Q 38.921875 48.390625 32.515625 48.390625 
Q 28.125 48.390625 23.5 47.265625 
Q 18.890625 46.140625 14.015625 43.890625 
L 15.578125 52.203125 
Q 20.65625 54.109375 25.515625 55.046875 
Q 30.375 56 34.90625 56 
Q 44.578125 56 49.625 51.796875 
Q 54.6875 47.609375 54.6875 39.59375 
Q 54.6875 37.984375 54.4375 35.8125 
Q 54.203125 33.640625 53.71875 31.203125 
z
M 44 27.484375 
L 35.015625 27.484375 
Q 23.96875 27.484375 18.671875 24.53125 
Q 13.375 21.578125 13.375 15.375 
Q 13.375 11.078125 16.078125 8.640625 
Q 18.796875 6.203125 23.578125 6.203125 
Q 30.90625 6.203125 36.375 11.453125 
Q 41.84375 16.703125 43.609375 25.484375 
z
" id="DejaVuSans-Oblique-97"/>
      <path d="M 89.796875 33.015625 
L 83.40625 0 
L 74.421875 0 
L 80.71875 32.71875 
Q 81.109375 34.8125 81.296875 36.328125 
Q 81.5 37.84375 81.5 38.921875 
Q 81.5 43.3125 79.046875 45.75 
Q 76.609375 48.1875 72.21875 48.1875 
Q 65.671875 48.1875 60.546875 43.28125 
Q 55.421875 38.375 53.90625 30.515625 
L 47.90625 0 
L 38.921875 0 
L 45.3125 32.71875 
Q 45.703125 34.515625 45.890625 36.046875 
Q 46.09375 37.59375 46.09375 38.8125 
Q 46.09375 43.265625 43.65625 45.71875 
Q 41.21875 48.1875 36.921875 48.1875 
Q 30.28125 48.1875 25.140625 43.28125 
Q 20.015625 38.375 18.5 30.515625 
L 12.5 0 
L 3.515625 0 
L 14.203125 54.6875 
L 23.1875 54.6875 
L 21.484375 46.1875 
Q 25.140625 50.984375 30.046875 53.484375 
Q 34.96875 56 40.578125 56 
Q 46.53125 56 50.359375 52.875 
Q 54.203125 49.75 54.984375 44.1875 
Q 59.078125 49.953125 64.46875 52.96875 
Q 69.875 56 75.875 56 
Q 82.90625 56 86.734375 51.953125 
Q 90.578125 47.90625 90.578125 40.484375 
Q 90.578125 38.875 90.375 36.9375 
Q 90.1875 35.015625 89.796875 33.015625 
z
" id="DejaVuSans-Oblique-109"/>
      <path d="M 45.40625 46.390625 
L 45.40625 75.984375 
L 54.390625 75.984375 
L 54.390625 0 
L 45.40625 0 
L 45.40625 8.203125 
Q 42.578125 3.328125 38.25 0.953125 
Q 33.9375 -1.421875 27.875 -1.421875 
Q 17.96875 -1.421875 11.734375 6.484375 
Q 5.515625 14.40625 5.515625 27.296875 
Q 5.515625 40.1875 11.734375 48.09375 
Q 17.96875 56 27.875 56 
Q 33.9375 56 38.25 53.625 
Q 42.578125 51.265625 45.40625 46.390625 
z
M 14.796875 27.296875 
Q 14.796875 17.390625 18.875 11.75 
Q 22.953125 6.109375 30.078125 6.109375 
Q 37.203125 6.109375 41.296875 11.75 
Q 45.40625 17.390625 45.40625 27.296875 
Q 45.40625 37.203125 41.296875 42.84375 
Q 37.203125 48.484375 30.078125 48.484375 
Q 22.953125 48.484375 18.875 42.84375 
Q 14.796875 37.203125 14.796875 27.296875 
z
" id="DejaVuSans-100"/>
      <path d="M 19.671875 34.8125 
L 19.671875 8.109375 
L 35.5 8.109375 
Q 43.453125 8.109375 47.28125 11.40625 
Q 51.125 14.703125 51.125 21.484375 
Q 51.125 28.328125 47.28125 31.5625 
Q 43.453125 34.8125 35.5 34.8125 
z
M 19.671875 64.796875 
L 19.671875 42.828125 
L 34.28125 42.828125 
Q 41.5 42.828125 45.03125 45.53125 
Q 48.578125 48.25 48.578125 53.8125 
Q 48.578125 59.328125 45.03125 62.0625 
Q 41.5 64.796875 34.28125 64.796875 
z
M 9.8125 72.90625 
L 35.015625 72.90625 
Q 46.296875 72.90625 52.390625 68.21875 
Q 58.5 63.53125 58.5 54.890625 
Q 58.5 48.1875 55.375 44.234375 
Q 52.25 40.28125 46.1875 39.3125 
Q 53.46875 37.75 57.5 32.78125 
Q 61.53125 27.828125 61.53125 20.40625 
Q 61.53125 10.640625 54.890625 5.3125 
Q 48.25 0 35.984375 0 
L 9.8125 0 
z
" id="DejaVuSans-66"/>
      <path d="M 34.28125 27.484375 
Q 23.390625 27.484375 19.1875 25 
Q 14.984375 22.515625 14.984375 16.5 
Q 14.984375 11.71875 18.140625 8.90625 
Q 21.296875 6.109375 26.703125 6.109375 
Q 34.1875 6.109375 38.703125 11.40625 
Q 43.21875 16.703125 43.21875 25.484375 
L 43.21875 27.484375 
z
M 52.203125 31.203125 
L 52.203125 0 
L 43.21875 0 
L 43.21875 8.296875 
Q 40.140625 3.328125 35.546875 0.953125 
Q 30.953125 -1.421875 24.3125 -1.421875 
Q 15.921875 -1.421875 10.953125 3.296875 
Q 6 8.015625 6 15.921875 
Q 6 25.140625 12.171875 29.828125 
Q 18.359375 34.515625 30.609375 34.515625 
L 43.21875 34.515625 
L 43.21875 35.40625 
Q 43.21875 41.609375 39.140625 45 
Q 35.0625 48.390625 27.6875 48.390625 
Q 23 48.390625 18.546875 47.265625 
Q 14.109375 46.140625 10.015625 43.890625 
L 10.015625 52.203125 
Q 14.9375 54.109375 19.578125 55.046875 
Q 24.21875 56 28.609375 56 
Q 40.484375 56 46.34375 49.84375 
Q 52.203125 43.703125 52.203125 31.203125 
z
" id="DejaVuSans-97"/>
      <path d="M 48.6875 27.296875 
Q 48.6875 37.203125 44.609375 42.84375 
Q 40.53125 48.484375 33.40625 48.484375 
Q 26.265625 48.484375 22.1875 42.84375 
Q 18.109375 37.203125 18.109375 27.296875 
Q 18.109375 17.390625 22.1875 11.75 
Q 26.265625 6.109375 33.40625 6.109375 
Q 40.53125 6.109375 44.609375 11.75 
Q 48.6875 17.390625 48.6875 27.296875 
z
M 18.109375 46.390625 
Q 20.953125 51.265625 25.265625 53.625 
Q 29.59375 56 35.59375 56 
Q 45.5625 56 51.78125 48.09375 
Q 58.015625 40.1875 58.015625 27.296875 
Q 58.015625 14.40625 51.78125 6.484375 
Q 45.5625 -1.421875 35.59375 -1.421875 
Q 29.59375 -1.421875 25.265625 0.953125 
Q 20.953125 3.328125 18.109375 8.203125 
L 18.109375 0 
L 9.078125 0 
L 9.078125 75.984375 
L 18.109375 75.984375 
z
" id="DejaVuSans-98"/>
      <path d="M 30.609375 48.390625 
Q 23.390625 48.390625 19.1875 42.75 
Q 14.984375 37.109375 14.984375 27.296875 
Q 14.984375 17.484375 19.15625 11.84375 
Q 23.34375 6.203125 30.609375 6.203125 
Q 37.796875 6.203125 41.984375 11.859375 
Q 46.1875 17.53125 46.1875 27.296875 
Q 46.1875 37.015625 41.984375 42.703125 
Q 37.796875 48.390625 30.609375 48.390625 
z
M 30.609375 56 
Q 42.328125 56 49.015625 48.375 
Q 55.71875 40.765625 55.71875 27.296875 
Q 55.71875 13.875 49.015625 6.21875 
Q 42.328125 -1.421875 30.609375 -1.421875 
Q 18.84375 -1.421875 12.171875 6.21875 
Q 5.515625 13.875 5.515625 27.296875 
Q 5.515625 40.765625 12.171875 48.375 
Q 18.84375 56 30.609375 56 
z
" id="DejaVuSans-111"/>
      <path d="M 2.984375 54.6875 
L 12.5 54.6875 
L 29.59375 8.796875 
L 46.6875 54.6875 
L 56.203125 54.6875 
L 35.6875 0 
L 23.484375 0 
z
" id="DejaVuSans-118"/>
      <path d="M 9.078125 75.984375 
L 18.109375 75.984375 
L 18.109375 31.109375 
L 44.921875 54.6875 
L 56.390625 54.6875 
L 27.390625 29.109375 
L 57.625 0 
L 45.90625 0 
L 18.109375 26.703125 
L 18.109375 0 
L 9.078125 0 
z
" id="DejaVuSans-107"/>
      <path d="M 5.90625 72.90625 
L 67.578125 72.90625 
L 66.015625 64.59375 
L 39.984375 64.59375 
L 27.484375 0 
L 17.578125 0 
L 30.078125 64.59375 
L 4.296875 64.59375 
z
" id="DejaVuSans-Oblique-84"/>
     </defs>
     <g transform="translate(29.089375 173.7)rotate(-90)scale(0.06 -0.06)">
      <use transform="translate(0 0.015625)" xlink:href="#DejaVuSans-Oblique-70"/>
      <use transform="translate(57.519531 -16.390625)scale(0.7)" xlink:href="#DejaVuSans-Oblique-97"/>
      <use transform="translate(100.415039 -16.390625)scale(0.7)" xlink:href="#DejaVuSans-Oblique-109"/>
      <use transform="translate(171.337891 0.015625)" xlink:href="#DejaVuSans-32"/>
      <use transform="translate(203.125 0.015625)" xlink:href="#DejaVuSans-40"/>
      <use transform="translate(242.138672 0.015625)" xlink:href="#DejaVuSans-100"/>
      <use transform="translate(305.615234 0.015625)" xlink:href="#DejaVuSans-66"/>
      <use transform="translate(374.21875 0.015625)" xlink:href="#DejaVuSans-32"/>
      <use transform="translate(406.005859 0.015625)" xlink:href="#DejaVuSans-97"/>
      <use transform="translate(467.285156 0.015625)" xlink:href="#DejaVuSans-98"/>
      <use transform="translate(530.761719 0.015625)" xlink:href="#DejaVuSans-111"/>
      <use transform="translate(591.943359 0.015625)" xlink:href="#DejaVuSans-118"/>
      <use transform="translate(651.123047 0.015625)" xlink:href="#DejaVuSans-101"/>
      <use transform="translate(712.646484 0.015625)" xlink:href="#DejaVuSans-32"/>
      <use transform="translate(744.433594 0.015625)" xlink:href="#DejaVuSans-107"/>
      <use transform="translate(802.34375 0.015625)" xlink:href="#DejaVuSans-Oblique-84"/>
      <use transform="translate(863.427734 -16.390625)scale(0.7)" xlink:href="#DejaVuSans-48"/>
      <use transform="translate(910.698242 0.015625)" xlink:href="#DejaVuSans-98"/>
      <use transform="translate(974.174805 0.015625)" xlink:href="#DejaVuSans-41"/>
     </g>
    </g>
   </g>
   <g id="line2d_143">
    <path clip-path="url(#pc21825fec3)" d="M 54 63.332096 
L 70.955219 74.742695 
L 82.985139 83.410723 
L 92.316269 90.458388 
L 99.940358 96.422985 
L 106.386433 101.606646 
L 111.970278 106.197674 
L 121.301408 114.068784 
L 128.925497 120.672328 
L 135.371572 126.365016 
L 140.955417 131.368963 
L 145.880716 135.832136 
L 150.286547 139.858364 
L 167.241767 155.552857 
L 179.271686 166.7321 
L 188.602817 175.308042 
L 196.226905 182.18056 
L 202.672981 187.849329 
L 208.256825 192.621594 
L 217.587956 200.227536 
L 225.212044 206.010896 
L 231.65812 210.528539 
L 237.241964 214.120212 
L 242.167264 217.008359 
L 246.573095 219.347144 
L 263.528314 225.841642 
L 275.558233 227.650416 
L 284.889364 227.267396 
L 292.513453 225.771191 
L 298.959528 223.709099 
L 304.543372 221.386949 
L 313.874503 216.618272 
L 321.498592 212.237182 
L 327.944667 208.54766 
L 333.528511 205.658861 
L 338.453811 203.590572 
L 342.859642 202.319418 
L 359.814861 206.110701 
L 371.844781 221.601236 
L 381.175911 242.629314 
L 388.8 264.427131 
" style="fill:none;stroke:#1f77b4;stroke-linecap:square;stroke-width:0.5;"/>
   </g>
   <g id="line2d_144">
    <path clip-path="url(#pc21825fec3)" d="M 54 61.076808 
L 70.955219 71.556111 
L 82.985139 79.531267 
L 92.316269 86.025765 
L 99.940358 91.529497 
L 106.386433 96.318722 
L 111.970278 100.565217 
L 121.301408 107.856741 
L 128.925497 113.985831 
L 135.371572 119.278755 
L 140.955417 123.938929 
L 145.880716 128.101927 
L 150.286547 131.862987 
L 167.241767 146.580087 
L 179.271686 157.128862 
L 188.602817 165.268076 
L 196.226905 171.826828 
L 202.672981 177.266198 
L 208.256825 181.870164 
L 217.587956 189.267473 
L 225.212044 194.957117 
L 231.65812 199.456602 
L 237.241964 203.082088 
L 242.167264 206.041338 
L 246.573095 208.478406 
L 263.528314 215.683497 
L 275.558233 218.33931 
L 284.889364 218.811807 
L 292.513453 218.13459 
L 298.959528 216.837995 
L 304.543372 215.221872 
L 313.874503 211.685102 
L 321.498592 208.309998 
L 327.944667 205.424026 
L 333.528511 203.16091 
L 338.453811 201.563052 
L 342.859642 200.626973 
L 359.814861 204.627434 
L 371.844781 218.947054 
L 381.175911 238.417828 
L 388.8 258.931878 
" style="fill:none;stroke:#ff7f0e;stroke-linecap:square;stroke-width:0.5;"/>
   </g>
   <g id="line2d_145">
    <path clip-path="url(#pc21825fec3)" d="M 54 58.821412 
L 70.955219 68.369528 
L 82.985139 75.65192 
L 92.316269 81.593033 
L 99.940358 86.636119 
L 106.386433 91.030799 
L 111.970278 94.93276 
L 121.301408 101.644806 
L 128.925497 107.299333 
L 135.371572 112.192603 
L 140.955417 116.509005 
L 145.880716 120.371718 
L 150.286547 123.8675 
L 167.241767 137.607317 
L 179.271686 147.525733 
L 188.602817 155.228111 
L 196.226905 161.472987 
L 202.672981 166.682958 
L 208.256825 171.118843 
L 217.587956 178.30741 
L 225.212044 183.903337 
L 231.65812 188.384558 
L 237.241964 192.043964 
L 242.167264 195.074317 
L 246.573095 197.609667 
L 263.528314 205.525462 
L 275.558233 209.028094 
L 284.889364 210.356109 
L 292.513453 210.497988 
L 298.959528 209.966891 
L 304.543372 209.056687 
L 313.874503 206.751932 
L 321.498592 204.382814 
L 327.944667 202.3005 
L 333.528511 200.663068 
L 338.453811 199.535533 
L 342.859642 198.934638 
L 359.814861 203.144059 
L 371.844781 216.292764 
L 381.175911 234.206341 
L 388.8 253.436517 
" style="fill:none;stroke:#2ca02c;stroke-linecap:square;stroke-width:0.5;"/>
   </g>
   <g id="line2d_146">
    <path clip-path="url(#pc21825fec3)" d="M 54 56.566124 
L 70.955219 65.182945 
L 82.985139 71.772464 
L 92.316269 77.16041 
L 99.940358 81.74274 
L 106.386433 85.742875 
L 111.970278 89.300194 
L 121.301408 95.432763 
L 128.925497 100.612836 
L 135.371572 105.106342 
L 140.955417 109.078971 
L 145.880716 112.641617 
L 150.286547 115.872014 
L 167.241767 128.634546 
L 179.271686 137.922605 
L 188.602817 145.188145 
L 196.226905 151.119256 
L 202.672981 156.099828 
L 208.256825 160.367414 
L 217.587956 167.347346 
L 225.212044 172.849557 
L 231.65812 177.312513 
L 237.241964 181.00584 
L 242.167264 184.107295 
L 246.573095 186.740929 
L 263.528314 195.367426 
L 275.558233 199.716987 
L 284.889364 201.900519 
L 292.513453 202.861387 
L 298.959528 203.095787 
L 304.543372 202.891611 
L 313.874503 201.818762 
L 321.498592 200.455522 
L 327.944667 199.176866 
L 333.528511 198.165226 
L 338.453811 197.508014 
L 342.859642 197.242302 
L 359.814861 201.660792 
L 371.844781 213.638583 
L 381.175911 229.994746 
L 388.8 247.941156 
" style="fill:none;stroke:#d62728;stroke-linecap:square;stroke-width:0.5;"/>
   </g>
   <g id="line2d_147">
    <path clip-path="url(#pc21825fec3)" d="M 54 54.310728 
L 70.955219 61.996362 
L 82.985139 67.893117 
L 92.316269 72.727787 
L 99.940358 76.849362 
L 106.386433 80.454952 
L 111.970278 83.667737 
L 121.301408 89.22072 
L 128.925497 93.926339 
L 135.371572 98.020081 
L 140.955417 101.648938 
L 145.880716 104.911407 
L 150.286547 107.876637 
L 167.241767 119.661776 
L 179.271686 128.319476 
L 188.602817 135.148288 
L 196.226905 140.765415 
L 202.672981 145.516588 
L 208.256825 149.615984 
L 217.587956 156.387283 
L 225.212044 161.795777 
L 231.65812 166.240577 
L 237.241964 169.967716 
L 242.167264 173.140274 
L 246.573095 175.87219 
L 263.528314 185.20939 
L 275.558233 190.40588 
L 284.889364 193.444821 
L 292.513453 195.224785 
L 298.959528 196.224683 
L 304.543372 196.726535 
L 313.874503 196.885592 
L 321.498592 196.528338 
L 327.944667 196.053232 
L 333.528511 195.667276 
L 338.453811 195.480495 
L 342.859642 195.549967 
L 359.814861 200.177525 
L 371.844781 210.984293 
L 381.175911 225.783259 
L 388.8 242.445904 
" style="fill:none;stroke:#9467bd;stroke-linecap:square;stroke-width:0.5;"/>
   </g>
   <g id="line2d_148">
    <path clip-path="url(#pc21825fec3)" d="M 54 52.05544 
L 70.955219 58.809779 
L 82.985139 64.01377 
L 92.316269 68.295055 
L 99.940358 71.955875 
L 106.386433 75.167029 
L 111.970278 78.035171 
L 121.301408 83.008676 
L 128.925497 87.239841 
L 135.371572 90.933821 
L 140.955417 94.219013 
L 145.880716 97.181198 
L 150.286547 99.88115 
L 167.241767 110.689114 
L 179.271686 118.716347 
L 188.602817 125.108322 
L 196.226905 130.411683 
L 202.672981 134.933457 
L 208.256825 138.864663 
L 217.587956 145.42722 
L 225.212044 150.741997 
L 231.65812 155.168532 
L 237.241964 158.929592 
L 242.167264 162.173253 
L 246.573095 165.003452 
L 263.528314 175.051246 
L 275.558233 181.094773 
L 284.889364 184.989232 
L 292.513453 187.588292 
L 298.959528 189.353688 
L 304.543372 190.561458 
L 313.874503 191.952531 
L 321.498592 192.601045 
L 327.944667 192.929706 
L 333.528511 193.169434 
L 338.453811 193.452975 
L 342.859642 193.857631 
L 359.814861 198.694149 
L 371.844781 208.330003 
L 381.175911 221.571773 
L 388.8 236.950543 
" style="fill:none;stroke:#8c564b;stroke-linecap:square;stroke-width:0.5;"/>
   </g>
   <g id="line2d_149">
    <path clip-path="url(#pc21825fec3)" d="M 54 49.800152 
L 70.955219 55.623195 
L 82.985139 60.134314 
L 92.316269 63.862432 
L 99.940358 67.062496 
L 106.386433 69.879105 
L 111.970278 72.402714 
L 121.301408 76.796633 
L 128.925497 80.553344 
L 135.371572 83.84756 
L 140.955417 86.788979 
L 145.880716 89.450988 
L 150.286547 91.885773 
L 167.241767 101.716344 
L 179.271686 109.113218 
L 188.602817 115.068356 
L 196.226905 120.057843 
L 202.672981 124.350217 
L 208.256825 128.113234 
L 217.587956 134.467157 
L 225.212044 139.688217 
L 231.65812 144.096596 
L 237.241964 147.891468 
L 242.167264 151.206232 
L 246.573095 154.134605 
L 263.528314 164.89321 
L 275.558233 171.783666 
L 284.889364 176.533534 
L 292.513453 179.951691 
L 298.959528 182.482584 
L 304.543372 184.396273 
L 313.874503 187.019361 
L 321.498592 188.673862 
L 327.944667 189.806072 
L 333.528511 190.671592 
L 338.453811 191.425456 
L 342.859642 192.165296 
L 359.814861 197.210882 
L 371.844781 205.675821 
L 381.175911 217.360286 
L 388.8 231.455182 
" style="fill:none;stroke:#e377c2;stroke-linecap:square;stroke-width:0.5;"/>
   </g>
   <g id="line2d_150">
    <path clip-path="url(#pc21825fec3)" d="M 54 47.544756 
L 70.955219 52.436612 
L 82.985139 56.254967 
L 92.316269 59.429809 
L 99.940358 62.169118 
L 106.386433 64.591182 
L 111.970278 66.770257 
L 121.301408 70.584589 
L 128.925497 73.866846 
L 135.371572 76.761299 
L 140.955417 79.358946 
L 145.880716 81.720888 
L 150.286547 83.890287 
L 167.241767 92.743574 
L 179.271686 99.510089 
L 188.602817 105.028499 
L 196.226905 109.704111 
L 202.672981 113.767086 
L 208.256825 117.361804 
L 217.587956 123.507094 
L 225.212044 128.634438 
L 231.65812 133.024551 
L 237.241964 136.853343 
L 242.167264 140.23921 
L 246.573095 143.265866 
L 263.528314 154.735174 
L 275.558233 162.472559 
L 284.889364 168.077945 
L 292.513453 172.315089 
L 298.959528 175.61148 
L 304.543372 178.231197 
L 313.874503 182.086191 
L 321.498592 184.746678 
L 327.944667 186.682437 
L 333.528511 188.173641 
L 338.453811 189.397937 
L 342.859642 190.47296 
L 359.814861 195.727615 
L 371.844781 203.021531 
L 381.175911 213.148799 
L 388.8 225.959929 
" style="fill:none;stroke:#7f7f7f;stroke-linecap:square;stroke-width:0.5;"/>
   </g>
   <g id="line2d_151">
    <path clip-path="url(#pc21825fec3)" d="M 54 45.289468 
L 70.955219 49.250029 
L 82.985139 52.37562 
L 92.316269 54.997077 
L 99.940358 57.275739 
L 106.386433 59.303259 
L 111.970278 61.137691 
L 121.301408 64.372546 
L 128.925497 67.180349 
L 135.371572 69.675038 
L 140.955417 71.929021 
L 145.880716 73.990678 
L 150.286547 75.8948 
L 167.241767 83.770803 
L 179.271686 89.906851 
L 188.602817 94.988533 
L 196.226905 99.350271 
L 202.672981 103.183955 
L 208.256825 106.610484 
L 217.587956 112.54703 
L 225.212044 117.580658 
L 231.65812 121.952506 
L 237.241964 125.815219 
L 242.167264 129.272189 
L 246.573095 132.397128 
L 263.528314 144.577138 
L 275.558233 153.161452 
L 284.889364 159.622356 
L 292.513453 164.678488 
L 298.959528 168.740376 
L 304.543372 172.066121 
L 313.874503 177.153021 
L 321.498592 180.819385 
L 327.944667 183.558912 
L 333.528511 185.675799 
L 338.453811 187.370418 
L 342.859642 188.780625 
L 359.814861 194.244348 
L 371.844781 200.36735 
L 381.175911 208.937204 
L 388.8 220.464568 
" style="fill:none;stroke:#bcbd22;stroke-linecap:square;stroke-width:0.5;"/>
   </g>
   <g id="line2d_152">
    <path clip-path="url(#pc21825fec3)" d="M 54 43.034072 
L 70.955219 46.063446 
L 82.985139 48.496164 
L 92.316269 50.564454 
L 99.940358 52.382252 
L 106.386433 54.015335 
L 111.970278 55.505234 
L 121.301408 58.160503 
L 128.925497 60.493851 
L 135.371572 62.588886 
L 140.955417 64.498987 
L 145.880716 66.260469 
L 150.286547 67.899423 
L 167.241767 74.798033 
L 179.271686 80.303723 
L 188.602817 84.948567 
L 196.226905 88.996539 
L 202.672981 92.600716 
L 208.256825 95.859054 
L 217.587956 101.586967 
L 225.212044 106.526878 
L 231.65812 110.88057 
L 237.241964 114.777095 
L 242.167264 118.305168 
L 246.573095 121.52839 
L 263.528314 134.418994 
L 275.558233 143.850345 
L 284.889364 151.166658 
L 292.513453 157.041886 
L 298.959528 161.869272 
L 304.543372 165.900936 
L 313.874503 172.219851 
L 321.498592 176.892201 
L 327.944667 180.435277 
L 333.528511 183.177957 
L 338.453811 185.342898 
L 342.859642 187.088289 
L 359.814861 192.760973 
L 371.844781 197.71306 
L 381.175911 204.725717 
L 388.8 214.969207 
" style="fill:none;stroke:#17becf;stroke-linecap:square;stroke-width:0.5;"/>
   </g>
   <g id="line2d_153">
    <path clip-path="url(#pc21825fec3)" style="fill:none;stroke:#1f77b4;stroke-linecap:square;stroke-width:0.5;"/>
   </g>
   <g id="line2d_154">
    <path clip-path="url(#pc21825fec3)" d="M 54 273.744 
L 388.8 273.744 
" style="fill:none;stroke:#1f77b4;stroke-linecap:square;stroke-width:0.5;"/>
   </g>
   <g id="line2d_155">
    <path clip-path="url(#pc21825fec3)" d="M 54 252 
L 388.8 252 
" style="fill:none;stroke:#1f77b4;stroke-linecap:square;stroke-width:0.5;"/>
   </g>
   <g id="line2d_156">
    <path clip-path="url(#pc21825fec3)" d="M 54 230.256 
L 388.8 230.256 
" style="fill:none;stroke:#1f77b4;stroke-linecap:square;stroke-width:0.5;"/>
   </g>
   <g id="line2d_157">
    <path clip-path="url(#pc21825fec3)" d="M 54 208.512 
L 388.8 208.512 
" style="fill:none;stroke:#1f77b4;stroke-linecap:square;stroke-width:0.5;"/>
   </g>
   <g id="line2d_158">
    <path clip-path="url(#pc21825fec3)" d="M 54 186.768 
L 388.8 186.768 
" style="fill:none;stroke:#1f77b4;stroke-linecap:square;stroke-width:0.5;"/>
   </g>
   <g id="line2d_159">
    <path clip-path="url(#pc21825fec3)" d="M 54 165.024 
L 388.8 165.024 
" style="fill:none;stroke:#1f77b4;stroke-linecap:square;stroke-width:0.5;"/>
   </g>
   <g id="line2d_160">
    <path clip-path="url(#pc21825fec3)" d="M 54 143.28 
L 388.8 143.28 
" style="fill:none;stroke:#1f77b4;stroke-linecap:square;stroke-width:0.5;"/>
   </g>
   <g id="line2d_161">
    <path clip-path="url(#pc21825fec3)" d="M 54 121.536 
L 388.8 121.536 
" style="fill:none;stroke:#1f77b4;stroke-linecap:square;stroke-width:0.5;"/>
   </g>
   <g id="line2d_162">
    <path clip-path="url(#pc21825fec3)" d="M 54 99.792 
L 388.8 99.792 
" style="fill:none;stroke:#1f77b4;stroke-linecap:square;stroke-width:0.5;"/>
   </g>
   <g id="line2d_163">
    <path clip-path="url(#pc21825fec3)" d="M 54 78.048 
L 388.8 78.048 
" style="fill:none;stroke:#1f77b4;stroke-linecap:square;stroke-width:0.5;"/>
   </g>
   <g id="line2d_164">
    <path clip-path="url(#pc21825fec3)" d="M 54 56.304 
L 388.8 56.304 
" style="fill:none;stroke:#1f77b4;stroke-linecap:square;stroke-width:0.5;"/>
   </g>
   <g id="line2d_165">
    <path clip-path="url(#pc21825fec3)" d="M 54 34.56 
L 388.8 34.56 
" style="fill:none;stroke:#1f77b4;stroke-linecap:square;stroke-width:0.5;"/>
   </g>
   <g id="line2d_166">
    <path clip-path="url(#pc21825fec3)" d="M 54 12.816 
L 388.8 12.816 
" style="fill:none;stroke:#1f77b4;stroke-linecap:square;stroke-width:0.5;"/>
   </g>
   <g id="line2d_167">
    <path clip-path="url(#pc21825fec3)" style="fill:none;stroke:#1f77b4;stroke-linecap:square;stroke-width:0.1;"/>
   </g>
   <g id="line2d_168">
    <path clip-path="url(#pc21825fec3)" style="fill:none;stroke:#1f77b4;stroke-linecap:square;stroke-width:0.1;"/>
   </g>
   <g id="line2d_169">
    <path clip-path="url(#pc21825fec3)" style="fill:none;stroke:#1f77b4;stroke-linecap:square;stroke-width:0.1;"/>
   </g>
   <g id="line2d_170">
    <path clip-path="url(#pc21825fec3)" style="fill:none;stroke:#1f77b4;stroke-linecap:square;stroke-width:0.1;"/>
   </g>
   <g id="line2d_171">
    <path clip-path="url(#pc21825fec3)" d="M 54 284.616 
L 388.8 284.616 
" style="fill:none;stroke:#1f77b4;stroke-linecap:square;stroke-width:0.1;"/>
   </g>
   <g id="line2d_172">
    <path clip-path="url(#pc21825fec3)" d="M 54 279.18 
L 388.8 279.18 
" style="fill:none;stroke:#1f77b4;stroke-linecap:square;stroke-width:0.1;"/>
   </g>
   <g id="line2d_173">
    <path clip-path="url(#pc21825fec3)" d="M 54 268.308 
L 388.8 268.308 
" style="fill:none;stroke:#1f77b4;stroke-linecap:square;stroke-width:0.1;"/>
   </g>
   <g id="line2d_174">
    <path clip-path="url(#pc21825fec3)" d="M 54 262.872 
L 388.8 262.872 
" style="fill:none;stroke:#1f77b4;stroke-linecap:square;stroke-width:0.1;"/>
   </g>
   <g id="line2d_175">
    <path clip-path="url(#pc21825fec3)" d="M 54 257.436 
L 388.8 257.436 
" style="fill:none;stroke:#1f77b4;stroke-linecap:square;stroke-width:0.1;"/>
   </g>
   <g id="line2d_176">
    <path clip-path="url(#pc21825fec3)" d="M 54 246.564 
L 388.8 246.564 
" style="fill:none;stroke:#1f77b4;stroke-linecap:square;stroke-width:0.1;"/>
   </g>
   <g id="line2d_177">
    <path clip-path="url(#pc21825fec3)" d="M 54 241.128 
L 388.8 241.128 
" style="fill:none;stroke:#1f77b4;stroke-linecap:square;stroke-width:0.1;"/>
   </g>
   <g id="line2d_178">
    <path clip-path="url(#pc21825fec3)" d="M 54 235.692 
L 388.8 235.692 
" style="fill:none;stroke:#1f77b4;stroke-linecap:square;stroke-width:0.1;"/>
   </g>
   <g id="line2d_179">
    <path clip-path="url(#pc21825fec3)" d="M 54 224.82 
L 388.8 224.82 
" style="fill:none;stroke:#1f77b4;stroke-linecap:square;stroke-width:0.1;"/>
   </g>
   <g id="line2d_180">
    <path clip-path="url(#pc21825fec3)" d="M 54 219.384 
L 388.8 219.384 
" style="fill:none;stroke:#1f77b4;stroke-linecap:square;stroke-width:0.1;"/>
   </g>
   <g id="line2d_181">
    <path clip-path="url(#pc21825fec3)" d="M 54 213.948 
L 388.8 213.948 
" style="fill:none;stroke:#1f77b4;stroke-linecap:square;stroke-width:0.1;"/>
   </g>
   <g id="line2d_182">
    <path clip-path="url(#pc21825fec3)" d="M 54 203.076 
L 388.8 203.076 
" style="fill:none;stroke:#1f77b4;stroke-linecap:square;stroke-width:0.1;"/>
   </g>
   <g id="line2d_183">
    <path clip-path="url(#pc21825fec3)" d="M 54 197.64 
L 388.8 197.64 
" style="fill:none;stroke:#1f77b4;stroke-linecap:square;stroke-width:0.1;"/>
   </g>
   <g id="line2d_184">
    <path clip-path="url(#pc21825fec3)" d="M 54 192.204 
L 388.8 192.204 
" style="fill:none;stroke:#1f77b4;stroke-linecap:square;stroke-width:0.1;"/>
   </g>
   <g id="line2d_185">
    <path clip-path="url(#pc21825fec3)" d="M 54 181.332 
L 388.8 181.332 
" style="fill:none;stroke:#1f77b4;stroke-linecap:square;stroke-width:0.1;"/>
   </g>
   <g id="line2d_186">
    <path clip-path="url(#pc21825fec3)" d="M 54 175.896 
L 388.8 175.896 
" style="fill:none;stroke:#1f77b4;stroke-linecap:square;stroke-width:0.1;"/>
   </g>
   <g id="line2d_187">
    <path clip-path="url(#pc21825fec3)" d="M 54 170.46 
L 388.8 170.46 
" style="fill:none;stroke:#1f77b4;stroke-linecap:square;stroke-width:0.1;"/>
   </g>
   <g id="line2d_188">
    <path clip-path="url(#pc21825fec3)" d="M 54 159.588 
L 388.8 159.588 
" style="fill:none;stroke:#1f77b4;stroke-linecap:square;stroke-width:0.1;"/>
   </g>
   <g id="line2d_189">
    <path clip-path="url(#pc21825fec3)" d="M 54 154.152 
L 388.8 154.152 
" style="fill:none;stroke:#1f77b4;stroke-linecap:square;stroke-width:0.1;"/>
   </g>
   <g id="line2d_190">
    <path clip-path="url(#pc21825fec3)" d="M 54 148.716 
L 388.8 148.716 
" style="fill:none;stroke:#1f77b4;stroke-linecap:square;stroke-width:0.1;"/>
   </g>
   <g id="line2d_191">
    <path clip-path="url(#pc21825fec3)" d="M 54 137.844 
L 388.8 137.844 
" style="fill:none;stroke:#1f77b4;stroke-linecap:square;stroke-width:0.1;"/>
   </g>
   <g id="line2d_192">
    <path clip-path="url(#pc21825fec3)" d="M 54 132.408 
L 388.8 132.408 
" style="fill:none;stroke:#1f77b4;stroke-linecap:square;stroke-width:0.1;"/>
   </g>
   <g id="line2d_193">
    <path clip-path="url(#pc21825fec3)" d="M 54 126.972 
L 388.8 126.972 
" style="fill:none;stroke:#1f77b4;stroke-linecap:square;stroke-width:0.1;"/>
   </g>
   <g id="line2d_194">
    <path clip-path="url(#pc21825fec3)" d="M 54 116.1 
L 388.8 116.1 
" style="fill:none;stroke:#1f77b4;stroke-linecap:square;stroke-width:0.1;"/>
   </g>
   <g id="line2d_195">
    <path clip-path="url(#pc21825fec3)" d="M 54 110.664 
L 388.8 110.664 
" style="fill:none;stroke:#1f77b4;stroke-linecap:square;stroke-width:0.1;"/>
   </g>
   <g id="line2d_196">
    <path clip-path="url(#pc21825fec3)" d="M 54 105.228 
L 388.8 105.228 
" style="fill:none;stroke:#1f77b4;stroke-linecap:square;stroke-width:0.1;"/>
   </g>
   <g id="line2d_197">
    <path clip-path="url(#pc21825fec3)" d="M 54 94.356 
L 388.8 94.356 
" style="fill:none;stroke:#1f77b4;stroke-linecap:square;stroke-width:0.1;"/>
   </g>
   <g id="line2d_198">
    <path clip-path="url(#pc21825fec3)" d="M 54 88.92 
L 388.8 88.92 
" style="fill:none;stroke:#1f77b4;stroke-linecap:square;stroke-width:0.1;"/>
   </g>
   <g id="line2d_199">
    <path clip-path="url(#pc21825fec3)" d="M 54 83.484 
L 388.8 83.484 
" style="fill:none;stroke:#1f77b4;stroke-linecap:square;stroke-width:0.1;"/>
   </g>
   <g id="line2d_200">
    <path clip-path="url(#pc21825fec3)" d="M 54 72.612 
L 388.8 72.612 
" style="fill:none;stroke:#1f77b4;stroke-linecap:square;stroke-width:0.1;"/>
   </g>
   <g id="line2d_201">
    <path clip-path="url(#pc21825fec3)" d="M 54 67.176 
L 388.8 67.176 
" style="fill:none;stroke:#1f77b4;stroke-linecap:square;stroke-width:0.1;"/>
   </g>
   <g id="line2d_202">
    <path clip-path="url(#pc21825fec3)" d="M 54 61.74 
L 388.8 61.74 
" style="fill:none;stroke:#1f77b4;stroke-linecap:square;stroke-width:0.1;"/>
   </g>
   <g id="line2d_203">
    <path clip-path="url(#pc21825fec3)" d="M 54 50.868 
L 388.8 50.868 
" style="fill:none;stroke:#1f77b4;stroke-linecap:square;stroke-width:0.1;"/>
   </g>
   <g id="line2d_204">
    <path clip-path="url(#pc21825fec3)" d="M 54 45.432 
L 388.8 45.432 
" style="fill:none;stroke:#1f77b4;stroke-linecap:square;stroke-width:0.1;"/>
   </g>
   <g id="line2d_205">
    <path clip-path="url(#pc21825fec3)" d="M 54 39.996 
L 388.8 39.996 
" style="fill:none;stroke:#1f77b4;stroke-linecap:square;stroke-width:0.1;"/>
   </g>
   <g id="line2d_206">
    <path clip-path="url(#pc21825fec3)" d="M 54 29.124 
L 388.8 29.124 
" style="fill:none;stroke:#1f77b4;stroke-linecap:square;stroke-width:0.1;"/>
   </g>
   <g id="line2d_207">
    <path clip-path="url(#pc21825fec3)" d="M 54 23.688 
L 388.8 23.688 
" style="fill:none;stroke:#1f77b4;stroke-linecap:square;stroke-width:0.1;"/>
   </g>
   <g id="line2d_208">
    <path clip-path="url(#pc21825fec3)" d="M 54 18.252 
L 388.8 18.252 
" style="fill:none;stroke:#1f77b4;stroke-linecap:square;stroke-width:0.1;"/>
   </g>
   <g id="line2d_209">
    <path clip-path="url(#pc21825fec3)" d="M 54 7.38 
L 388.8 7.38 
" style="fill:none;stroke:#1f77b4;stroke-linecap:square;stroke-width:0.1;"/>
   </g>
   <g id="line2d_210">
    <path clip-path="url(#pc21825fec3)" d="M 54 1.944 
L 388.8 1.944 
" style="fill:none;stroke:#1f77b4;stroke-linecap:square;stroke-width:0.1;"/>
   </g>
   <g id="line2d_211">
    <path clip-path="url(#pc21825fec3)" style="fill:none;stroke:#1f77b4;stroke-linecap:square;stroke-width:0.1;"/>
   </g>
   <g id="patch_3">
    <path d="M 54 252 
L 54 34.56 
" style="fill:none;stroke:#000000;stroke-linecap:square;stroke-linejoin:miter;stroke-width:0.8;"/>
   </g>
   <g id="patch_4">
    <path d="M 388.8 252 
L 388.8 34.56 
" style="fill:none;stroke:#000000;stroke-linecap:square;stroke-linejoin:miter;stroke-width:0.8;"/>
   </g>
   <g id="patch_5">
    <path d="M 54 252 
L 388.8 252 
" style="fill:none;stroke:#000000;stroke-linecap:square;stroke-linejoin:miter;stroke-width:0.8;"/>
   </g>
   <g id="patch_6">
    <path d="M 54 34.56 
L 388.8 34.56 
" style="fill:none;stroke:#000000;stroke-linecap:square;stroke-linejoin:miter;stroke-width:0.8;"/>
   </g>
   <g id="legend_1">
    <g id="patch_7">
     <path d="M 338.82 136.235625 
L 384.6 136.235625 
Q 385.8 136.235625 385.8 135.035625 
L 385.8 38.76 
Q 385.8 37.56 384.6 37.56 
L 338.82 37.56 
Q 337.62 37.56 337.62 38.76 
L 337.62 135.035625 
Q 337.62 136.235625 338.82 136.235625 
z
" style="fill:#ffffff;stroke:#cccccc;stroke-linejoin:miter;"/>
    </g>
    <g id="text_32">
     <!-- $F_{am}$ 1MHz (dB) -->
     <g transform="translate(340.02 44.519063)scale(0.06 -0.06)">
      <use transform="translate(0 0.015625)" xlink:href="#DejaVuSans-Oblique-70"/>
      <use transform="translate(57.519531 -16.390625)scale(0.7)" xlink:href="#DejaVuSans-Oblique-97"/>
      <use transform="translate(100.415039 -16.390625)scale(0.7)" xlink:href="#DejaVuSans-Oblique-109"/>
      <use transform="translate(171.337891 0.015625)" xlink:href="#DejaVuSans-32"/>
      <use transform="translate(203.125 0.015625)" xlink:href="#DejaVuSans-49"/>
      <use transform="translate(266.748047 0.015625)" xlink:href="#DejaVuSans-77"/>
      <use transform="translate(353.027344 0.015625)" xlink:href="#DejaVuSans-72"/>
      <use transform="translate(428.222656 0.015625)" xlink:href="#DejaVuSans-122"/>
      <use transform="translate(480.712891 0.015625)" xlink:href="#DejaVuSans-32"/>
      <use transform="translate(512.5 0.015625)" xlink:href="#DejaVuSans-40"/>
      <use transform="translate(551.513672 0.015625)" xlink:href="#DejaVuSans-100"/>
      <use transform="translate(614.990234 0.015625)" xlink:href="#DejaVuSans-66"/>
      <use transform="translate(683.59375 0.015625)" xlink:href="#DejaVuSans-41"/>
     </g>
    </g>
    <g id="line2d_212">
     <path d="M 347.58375 51.225938 
L 359.58375 51.225938 
" style="fill:none;stroke:#1f77b4;stroke-linecap:square;stroke-width:0.5;"/>
    </g>
    <g id="line2d_213"/>
    <g id="text_33">
     <!-- 10 -->
     <g transform="translate(364.38375 53.325938)scale(0.06 -0.06)">
      <use xlink:href="#DejaVuSans-49"/>
      <use x="63.623047" xlink:href="#DejaVuSans-48"/>
     </g>
    </g>
    <g id="line2d_214">
     <path d="M 347.58375 60.032812 
L 359.58375 60.032812 
" style="fill:none;stroke:#ff7f0e;stroke-linecap:square;stroke-width:0.5;"/>
    </g>
    <g id="line2d_215"/>
    <g id="text_34">
     <!-- 20 -->
     <g transform="translate(364.38375 62.132812)scale(0.06 -0.06)">
      <use xlink:href="#DejaVuSans-50"/>
      <use x="63.623047" xlink:href="#DejaVuSans-48"/>
     </g>
    </g>
    <g id="line2d_216">
     <path d="M 347.58375 68.839688 
L 359.58375 68.839688 
" style="fill:none;stroke:#2ca02c;stroke-linecap:square;stroke-width:0.5;"/>
    </g>
    <g id="line2d_217"/>
    <g id="text_35">
     <!-- 30 -->
     <g transform="translate(364.38375 70.939688)scale(0.06 -0.06)">
      <use xlink:href="#DejaVuSans-51"/>
      <use x="63.623047" xlink:href="#DejaVuSans-48"/>
     </g>
    </g>
    <g id="line2d_218">
     <path d="M 347.58375 77.646563 
L 359.58375 77.646563 
" style="fill:none;stroke:#d62728;stroke-linecap:square;stroke-width:0.5;"/>
    </g>
    <g id="line2d_219"/>
    <g id="text_36">
     <!-- 40 -->
     <g transform="translate(364.38375 79.746563)scale(0.06 -0.06)">
      <use xlink:href="#DejaVuSans-52"/>
      <use x="63.623047" xlink:href="#DejaVuSans-48"/>
     </g>
    </g>
    <g id="line2d_220">
     <path d="M 347.58375 86.453438 
L 359.58375 86.453438 
" style="fill:none;stroke:#9467bd;stroke-linecap:square;stroke-width:0.5;"/>
    </g>
    <g id="line2d_221"/>
    <g id="text_37">
     <!-- 50 -->
     <g transform="translate(364.38375 88.553438)scale(0.06 -0.06)">
      <use xlink:href="#DejaVuSans-53"/>
      <use x="63.623047" xlink:href="#DejaVuSans-48"/>
     </g>
    </g>
    <g id="line2d_222">
     <path d="M 347.58375 95.260313 
L 359.58375 95.260313 
" style="fill:none;stroke:#8c564b;stroke-linecap:square;stroke-width:0.5;"/>
    </g>
    <g id="line2d_223"/>
    <g id="text_38">
     <!-- 60 -->
     <g transform="translate(364.38375 97.360313)scale(0.06 -0.06)">
      <use xlink:href="#DejaVuSans-54"/>
      <use x="63.623047" xlink:href="#DejaVuSans-48"/>
     </g>
    </g>
    <g id="line2d_224">
     <path d="M 347.58375 104.067188 
L 359.58375 104.067188 
" style="fill:none;stroke:#e377c2;stroke-linecap:square;stroke-width:0.5;"/>
    </g>
    <g id="line2d_225"/>
    <g id="text_39">
     <!-- 70 -->
     <g transform="translate(364.38375 106.167188)scale(0.06 -0.06)">
      <use xlink:href="#DejaVuSans-55"/>
      <use x="63.623047" xlink:href="#DejaVuSans-48"/>
     </g>
    </g>
    <g id="line2d_226">
     <path d="M 347.58375 112.874063 
L 359.58375 112.874063 
" style="fill:none;stroke:#7f7f7f;stroke-linecap:square;stroke-width:0.5;"/>
    </g>
    <g id="line2d_227"/>
    <g id="text_40">
     <!-- 80 -->
     <g transform="translate(364.38375 114.974063)scale(0.06 -0.06)">
      <use xlink:href="#DejaVuSans-56"/>
      <use x="63.623047" xlink:href="#DejaVuSans-48"/>
     </g>
    </g>
    <g id="line2d_228">
     <path d="M 347.58375 121.680937 
L 359.58375 121.680937 
" style="fill:none;stroke:#bcbd22;stroke-linecap:square;stroke-width:0.5;"/>
    </g>
    <g id="line2d_229"/>
    <g id="text_41">
     <!-- 90 -->
     <defs>
      <path d="M 10.984375 1.515625 
L 10.984375 10.5 
Q 14.703125 8.734375 18.5 7.8125 
Q 22.3125 6.890625 25.984375 6.890625 
Q 35.75 6.890625 40.890625 13.453125 
Q 46.046875 20.015625 46.78125 33.40625 
Q 43.953125 29.203125 39.59375 26.953125 
Q 35.25 24.703125 29.984375 24.703125 
Q 19.046875 24.703125 12.671875 31.3125 
Q 6.296875 37.9375 6.296875 49.421875 
Q 6.296875 60.640625 12.9375 67.421875 
Q 19.578125 74.21875 30.609375 74.21875 
Q 43.265625 74.21875 49.921875 64.515625 
Q 56.59375 54.828125 56.59375 36.375 
Q 56.59375 19.140625 48.40625 8.859375 
Q 40.234375 -1.421875 26.421875 -1.421875 
Q 22.703125 -1.421875 18.890625 -0.6875 
Q 15.09375 0.046875 10.984375 1.515625 
z
M 30.609375 32.421875 
Q 37.25 32.421875 41.125 36.953125 
Q 45.015625 41.5 45.015625 49.421875 
Q 45.015625 57.28125 41.125 61.84375 
Q 37.25 66.40625 30.609375 66.40625 
Q 23.96875 66.40625 20.09375 61.84375 
Q 16.21875 57.28125 16.21875 49.421875 
Q 16.21875 41.5 20.09375 36.953125 
Q 23.96875 32.421875 30.609375 32.421875 
z
" id="DejaVuSans-57"/>
     </defs>
     <g transform="translate(364.38375 123.780937)scale(0.06 -0.06)">
      <use xlink:href="#DejaVuSans-57"/>
      <use x="63.623047" xlink:href="#DejaVuSans-48"/>
     </g>
    </g>
    <g id="line2d_230">
     <path d="M 347.58375 130.487813 
L 359.58375 130.487813 
" style="fill:none;stroke:#17becf;stroke-linecap:square;stroke-width:0.5;"/>
    </g>
    <g id="line2d_231"/>
    <g id="text_42">
     <!-- 100 -->
     <g transform="translate(364.38375 132.587813)scale(0.06 -0.06)">
      <use xlink:href="#DejaVuSans-49"/>
      <use x="63.623047" xlink:href="#DejaVuSans-48"/>
      <use x="127.246094" xlink:href="#DejaVuSans-48"/>
     </g>
    </g>
   </g>
  </g>
 </g>
 <defs>
  <clipPath id="pc21825fec3">
   <rect height="217.44" width="334.8" x="54" y="34.56"/>
  </clipPath>
 </defs>
</svg>
