<?xml version="1.0" encoding="utf-8" standalone="no"?>
<!DOCTYPE svg PUBLIC "-//W3C//DTD SVG 1.1//EN"
  "http://www.w3.org/Graphics/SVG/1.1/DTD/svg11.dtd">
<svg xmlns:xlink="http://www.w3.org/1999/xlink" width="382.487187pt" height="256.733281pt" viewBox="0 0 382.487187 256.733281" xmlns="http://www.w3.org/2000/svg" version="1.1">
 <metadata>
  <rdf:RDF xmlns:dc="http://purl.org/dc/elements/1.1/" xmlns:cc="http://creativecommons.org/ns#" xmlns:rdf="http://www.w3.org/1999/02/22-rdf-syntax-ns#">
   <cc:Work>
    <dc:type rdf:resource="http://purl.org/dc/dcmitype/StillImage"/>
    <dc:date>2022-01-06T16:24:19.850242</dc:date>
    <dc:format>image/svg+xml</dc:format>
    <dc:creator>
     <cc:Agent>
      <dc:title>Matplotlib v3.5.0, https://matplotlib.org/</dc:title>
     </cc:Agent>
    </dc:creator>
   </cc:Work>
  </rdf:RDF>
 </metadata>
 <defs>
  <style type="text/css">*{stroke-linejoin: round; stroke-linecap: butt}</style>
 </defs>
 <g id="figure_1">
  <g id="patch_1">
   <path d="M 0 256.733281 
L 382.487187 256.733281 
L 382.487187 0 
L 0 0 
z
" style="fill: #ffffff"/>
  </g>
  <g id="axes_1">
   <g id="patch_2">
    <path d="M 36.669688 226.919531 
L 371.469688 226.919531 
L 371.469688 9.479531 
L 36.669688 9.479531 
z
" style="fill: #ffffff"/>
   </g>
   <g id="matplotlib.axis_1">
    <g id="xtick_1">
     <g id="line2d_1">
      <path d="M 36.669688 226.919531 
L 36.669688 9.479531 
" clip-path="url(#p7b936150b6)" style="fill: none; stroke: #000000; stroke-width: 0.5; stroke-linecap: square"/>
     </g>
     <g id="line2d_2">
      <defs>
       <path id="mb72100a513" d="M 0 0 
L 0 3.5 
" style="stroke: #000000; stroke-width: 0.8"/>
      </defs>
      <g>
       <use xlink:href="#mb72100a513" x="36.669688" y="226.919531" style="stroke: #000000; stroke-width: 0.8"/>
      </g>
     </g>
     <g id="text_1">
      <!-- 0.01 -->
      <g transform="translate(29.99 238.478594)scale(0.06 -0.06)">
       <defs>
        <path id="DejaVuSans-30" d="M 2034 4250 
Q 1547 4250 1301 3770 
Q 1056 3291 1056 2328 
Q 1056 1369 1301 889 
Q 1547 409 2034 409 
Q 2525 409 2770 889 
Q 3016 1369 3016 2328 
Q 3016 3291 2770 3770 
Q 2525 4250 2034 4250 
z
M 2034 4750 
Q 2819 4750 3233 4129 
Q 3647 3509 3647 2328 
Q 3647 1150 3233 529 
Q 2819 -91 2034 -91 
Q 1250 -91 836 529 
Q 422 1150 422 2328 
Q 422 3509 836 4129 
Q 1250 4750 2034 4750 
z
" transform="scale(0.015625)"/>
        <path id="DejaVuSans-2e" d="M 684 794 
L 1344 794 
L 1344 0 
L 684 0 
L 684 794 
z
" transform="scale(0.015625)"/>
        <path id="DejaVuSans-31" d="M 794 531 
L 1825 531 
L 1825 4091 
L 703 3866 
L 703 4441 
L 1819 4666 
L 2450 4666 
L 2450 531 
L 3481 531 
L 3481 0 
L 794 0 
L 794 531 
z
" transform="scale(0.015625)"/>
       </defs>
       <use xlink:href="#DejaVuSans-30"/>
       <use xlink:href="#DejaVuSans-2e" x="63.623047"/>
       <use xlink:href="#DejaVuSans-30" x="95.410156"/>
       <use xlink:href="#DejaVuSans-31" x="159.033203"/>
      </g>
     </g>
    </g>
    <g id="xtick_2">
     <g id="line2d_3">
      <path d="M 65.654826 226.919531 
L 65.654826 9.479531 
" clip-path="url(#p7b936150b6)" style="fill: none; stroke: #000000; stroke-width: 0.5; stroke-linecap: square"/>
     </g>
     <g id="line2d_4">
      <g>
       <use xlink:href="#mb72100a513" x="65.654826" y="226.919531" style="stroke: #000000; stroke-width: 0.8"/>
      </g>
     </g>
     <g id="text_2">
      <!-- 0.02 -->
      <g transform="translate(58.975139 238.478594)scale(0.06 -0.06)">
       <defs>
        <path id="DejaVuSans-32" d="M 1228 531 
L 3431 531 
L 3431 0 
L 469 0 
L 469 531 
Q 828 903 1448 1529 
Q 2069 2156 2228 2338 
Q 2531 2678 2651 2914 
Q 2772 3150 2772 3378 
Q 2772 3750 2511 3984 
Q 2250 4219 1831 4219 
Q 1534 4219 1204 4116 
Q 875 4013 500 3803 
L 500 4441 
Q 881 4594 1212 4672 
Q 1544 4750 1819 4750 
Q 2544 4750 2975 4387 
Q 3406 4025 3406 3419 
Q 3406 3131 3298 2873 
Q 3191 2616 2906 2266 
Q 2828 2175 2409 1742 
Q 1991 1309 1228 531 
z
" transform="scale(0.015625)"/>
       </defs>
       <use xlink:href="#DejaVuSans-30"/>
       <use xlink:href="#DejaVuSans-2e" x="63.623047"/>
       <use xlink:href="#DejaVuSans-30" x="95.410156"/>
       <use xlink:href="#DejaVuSans-32" x="159.033203"/>
      </g>
     </g>
    </g>
    <g id="xtick_3">
     <g id="line2d_5">
      <path d="M 82.610046 226.919531 
L 82.610046 9.479531 
" clip-path="url(#p7b936150b6)" style="fill: none; stroke: #000000; stroke-width: 0.5; stroke-linecap: square"/>
     </g>
     <g id="line2d_6">
      <g>
       <use xlink:href="#mb72100a513" x="82.610046" y="226.919531" style="stroke: #000000; stroke-width: 0.8"/>
      </g>
     </g>
     <g id="text_3">
      <!-- 0.03 -->
      <g transform="translate(75.930358 238.478594)scale(0.06 -0.06)">
       <defs>
        <path id="DejaVuSans-33" d="M 2597 2516 
Q 3050 2419 3304 2112 
Q 3559 1806 3559 1356 
Q 3559 666 3084 287 
Q 2609 -91 1734 -91 
Q 1441 -91 1130 -33 
Q 819 25 488 141 
L 488 750 
Q 750 597 1062 519 
Q 1375 441 1716 441 
Q 2309 441 2620 675 
Q 2931 909 2931 1356 
Q 2931 1769 2642 2001 
Q 2353 2234 1838 2234 
L 1294 2234 
L 1294 2753 
L 1863 2753 
Q 2328 2753 2575 2939 
Q 2822 3125 2822 3475 
Q 2822 3834 2567 4026 
Q 2313 4219 1838 4219 
Q 1578 4219 1281 4162 
Q 984 4106 628 3988 
L 628 4550 
Q 988 4650 1302 4700 
Q 1616 4750 1894 4750 
Q 2613 4750 3031 4423 
Q 3450 4097 3450 3541 
Q 3450 3153 3228 2886 
Q 3006 2619 2597 2516 
z
" transform="scale(0.015625)"/>
       </defs>
       <use xlink:href="#DejaVuSans-30"/>
       <use xlink:href="#DejaVuSans-2e" x="63.623047"/>
       <use xlink:href="#DejaVuSans-30" x="95.410156"/>
       <use xlink:href="#DejaVuSans-33" x="159.033203"/>
      </g>
     </g>
    </g>
    <g id="xtick_4">
     <g id="line2d_7">
      <path d="M 103.971096 226.919531 
L 103.971096 9.479531 
" clip-path="url(#p7b936150b6)" style="fill: none; stroke: #000000; stroke-width: 0.5; stroke-linecap: square"/>
     </g>
     <g id="line2d_8">
      <g>
       <use xlink:href="#mb72100a513" x="103.971096" y="226.919531" style="stroke: #000000; stroke-width: 0.8"/>
      </g>
     </g>
     <g id="text_4">
      <!-- 0.05 -->
      <g transform="translate(97.291408 238.478594)scale(0.06 -0.06)">
       <defs>
        <path id="DejaVuSans-35" d="M 691 4666 
L 3169 4666 
L 3169 4134 
L 1269 4134 
L 1269 2991 
Q 1406 3038 1543 3061 
Q 1681 3084 1819 3084 
Q 2600 3084 3056 2656 
Q 3513 2228 3513 1497 
Q 3513 744 3044 326 
Q 2575 -91 1722 -91 
Q 1428 -91 1123 -41 
Q 819 9 494 109 
L 494 744 
Q 775 591 1075 516 
Q 1375 441 1709 441 
Q 2250 441 2565 725 
Q 2881 1009 2881 1497 
Q 2881 1984 2565 2268 
Q 2250 2553 1709 2553 
Q 1456 2553 1204 2497 
Q 953 2441 691 2322 
L 691 4666 
z
" transform="scale(0.015625)"/>
       </defs>
       <use xlink:href="#DejaVuSans-30"/>
       <use xlink:href="#DejaVuSans-2e" x="63.623047"/>
       <use xlink:href="#DejaVuSans-30" x="95.410156"/>
       <use xlink:href="#DejaVuSans-35" x="159.033203"/>
      </g>
     </g>
    </g>
    <g id="xtick_5">
     <g id="line2d_9">
      <path d="M 118.04126 226.919531 
L 118.04126 9.479531 
" clip-path="url(#p7b936150b6)" style="fill: none; stroke: #000000; stroke-width: 0.5; stroke-linecap: square"/>
     </g>
     <g id="line2d_10">
      <g>
       <use xlink:href="#mb72100a513" x="118.04126" y="226.919531" style="stroke: #000000; stroke-width: 0.8"/>
      </g>
     </g>
     <g id="text_5">
      <!-- 0.07 -->
      <g transform="translate(111.361572 238.478594)scale(0.06 -0.06)">
       <defs>
        <path id="DejaVuSans-37" d="M 525 4666 
L 3525 4666 
L 3525 4397 
L 1831 0 
L 1172 0 
L 2766 4134 
L 525 4134 
L 525 4666 
z
" transform="scale(0.015625)"/>
       </defs>
       <use xlink:href="#DejaVuSans-30"/>
       <use xlink:href="#DejaVuSans-2e" x="63.623047"/>
       <use xlink:href="#DejaVuSans-30" x="95.410156"/>
       <use xlink:href="#DejaVuSans-37" x="159.033203"/>
      </g>
     </g>
    </g>
    <g id="xtick_6">
     <g id="line2d_11">
      <path d="M 132.956235 226.919531 
L 132.956235 9.479531 
" clip-path="url(#p7b936150b6)" style="fill: none; stroke: #000000; stroke-width: 0.5; stroke-linecap: square"/>
     </g>
     <g id="line2d_12">
      <g>
       <use xlink:href="#mb72100a513" x="132.956235" y="226.919531" style="stroke: #000000; stroke-width: 0.8"/>
      </g>
     </g>
     <g id="text_6">
      <!-- 0.1 -->
      <g transform="translate(128.185297 238.478594)scale(0.06 -0.06)">
       <use xlink:href="#DejaVuSans-30"/>
       <use xlink:href="#DejaVuSans-2e" x="63.623047"/>
       <use xlink:href="#DejaVuSans-31" x="95.410156"/>
      </g>
     </g>
    </g>
    <g id="xtick_7">
     <g id="line2d_13">
      <path d="M 161.941374 226.919531 
L 161.941374 9.479531 
" clip-path="url(#p7b936150b6)" style="fill: none; stroke: #000000; stroke-width: 0.5; stroke-linecap: square"/>
     </g>
     <g id="line2d_14">
      <g>
       <use xlink:href="#mb72100a513" x="161.941374" y="226.919531" style="stroke: #000000; stroke-width: 0.8"/>
      </g>
     </g>
     <g id="text_7">
      <!-- 0.2 -->
      <g transform="translate(157.170436 238.478594)scale(0.06 -0.06)">
       <use xlink:href="#DejaVuSans-30"/>
       <use xlink:href="#DejaVuSans-2e" x="63.623047"/>
       <use xlink:href="#DejaVuSans-32" x="95.410156"/>
      </g>
     </g>
    </g>
    <g id="xtick_8">
     <g id="line2d_15">
      <path d="M 178.896593 226.919531 
L 178.896593 9.479531 
" clip-path="url(#p7b936150b6)" style="fill: none; stroke: #000000; stroke-width: 0.5; stroke-linecap: square"/>
     </g>
     <g id="line2d_16">
      <g>
       <use xlink:href="#mb72100a513" x="178.896593" y="226.919531" style="stroke: #000000; stroke-width: 0.8"/>
      </g>
     </g>
     <g id="text_8">
      <!-- 0.3 -->
      <g transform="translate(174.125655 238.478594)scale(0.06 -0.06)">
       <use xlink:href="#DejaVuSans-30"/>
       <use xlink:href="#DejaVuSans-2e" x="63.623047"/>
       <use xlink:href="#DejaVuSans-33" x="95.410156"/>
      </g>
     </g>
    </g>
    <g id="xtick_9">
     <g id="line2d_17">
      <path d="M 200.257643 226.919531 
L 200.257643 9.479531 
" clip-path="url(#p7b936150b6)" style="fill: none; stroke: #000000; stroke-width: 0.5; stroke-linecap: square"/>
     </g>
     <g id="line2d_18">
      <g>
       <use xlink:href="#mb72100a513" x="200.257643" y="226.919531" style="stroke: #000000; stroke-width: 0.8"/>
      </g>
     </g>
     <g id="text_9">
      <!-- 0.5 -->
      <g transform="translate(195.486706 238.478594)scale(0.06 -0.06)">
       <use xlink:href="#DejaVuSans-30"/>
       <use xlink:href="#DejaVuSans-2e" x="63.623047"/>
       <use xlink:href="#DejaVuSans-35" x="95.410156"/>
      </g>
     </g>
    </g>
    <g id="xtick_10">
     <g id="line2d_19">
      <path d="M 214.327807 226.919531 
L 214.327807 9.479531 
" clip-path="url(#p7b936150b6)" style="fill: none; stroke: #000000; stroke-width: 0.5; stroke-linecap: square"/>
     </g>
     <g id="line2d_20">
      <g>
       <use xlink:href="#mb72100a513" x="214.327807" y="226.919531" style="stroke: #000000; stroke-width: 0.8"/>
      </g>
     </g>
     <g id="text_10">
      <!-- 0.7 -->
      <g transform="translate(209.55687 238.478594)scale(0.06 -0.06)">
       <use xlink:href="#DejaVuSans-30"/>
       <use xlink:href="#DejaVuSans-2e" x="63.623047"/>
       <use xlink:href="#DejaVuSans-37" x="95.410156"/>
      </g>
     </g>
    </g>
    <g id="xtick_11">
     <g id="line2d_21">
      <path d="M 229.242782 226.919531 
L 229.242782 9.479531 
" clip-path="url(#p7b936150b6)" style="fill: none; stroke: #000000; stroke-width: 0.5; stroke-linecap: square"/>
     </g>
     <g id="line2d_22">
      <g>
       <use xlink:href="#mb72100a513" x="229.242782" y="226.919531" style="stroke: #000000; stroke-width: 0.8"/>
      </g>
     </g>
     <g id="text_11">
      <!-- 1 -->
      <g transform="translate(227.334032 238.478594)scale(0.06 -0.06)">
       <use xlink:href="#DejaVuSans-31"/>
      </g>
     </g>
    </g>
    <g id="xtick_12">
     <g id="line2d_23">
      <path d="M 258.227921 226.919531 
L 258.227921 9.479531 
" clip-path="url(#p7b936150b6)" style="fill: none; stroke: #000000; stroke-width: 0.5; stroke-linecap: square"/>
     </g>
     <g id="line2d_24">
      <g>
       <use xlink:href="#mb72100a513" x="258.227921" y="226.919531" style="stroke: #000000; stroke-width: 0.8"/>
      </g>
     </g>
     <g id="text_12">
      <!-- 2 -->
      <g transform="translate(256.319171 238.478594)scale(0.06 -0.06)">
       <use xlink:href="#DejaVuSans-32"/>
      </g>
     </g>
    </g>
    <g id="xtick_13">
     <g id="line2d_25">
      <path d="M 275.18314 226.919531 
L 275.18314 9.479531 
" clip-path="url(#p7b936150b6)" style="fill: none; stroke: #000000; stroke-width: 0.5; stroke-linecap: square"/>
     </g>
     <g id="line2d_26">
      <g>
       <use xlink:href="#mb72100a513" x="275.18314" y="226.919531" style="stroke: #000000; stroke-width: 0.8"/>
      </g>
     </g>
     <g id="text_13">
      <!-- 3 -->
      <g transform="translate(273.27439 238.478594)scale(0.06 -0.06)">
       <use xlink:href="#DejaVuSans-33"/>
      </g>
     </g>
    </g>
    <g id="xtick_14">
     <g id="line2d_27">
      <path d="M 296.54419 226.919531 
L 296.54419 9.479531 
" clip-path="url(#p7b936150b6)" style="fill: none; stroke: #000000; stroke-width: 0.5; stroke-linecap: square"/>
     </g>
     <g id="line2d_28">
      <g>
       <use xlink:href="#mb72100a513" x="296.54419" y="226.919531" style="stroke: #000000; stroke-width: 0.8"/>
      </g>
     </g>
     <g id="text_14">
      <!-- 5 -->
      <g transform="translate(294.63544 238.478594)scale(0.06 -0.06)">
       <use xlink:href="#DejaVuSans-35"/>
      </g>
     </g>
    </g>
    <g id="xtick_15">
     <g id="line2d_29">
      <path d="M 310.614354 226.919531 
L 310.614354 9.479531 
" clip-path="url(#p7b936150b6)" style="fill: none; stroke: #000000; stroke-width: 0.5; stroke-linecap: square"/>
     </g>
     <g id="line2d_30">
      <g>
       <use xlink:href="#mb72100a513" x="310.614354" y="226.919531" style="stroke: #000000; stroke-width: 0.8"/>
      </g>
     </g>
     <g id="text_15">
      <!-- 7 -->
      <g transform="translate(308.705604 238.478594)scale(0.06 -0.06)">
       <use xlink:href="#DejaVuSans-37"/>
      </g>
     </g>
    </g>
    <g id="xtick_16">
     <g id="line2d_31">
      <path d="M 325.529329 226.919531 
L 325.529329 9.479531 
" clip-path="url(#p7b936150b6)" style="fill: none; stroke: #000000; stroke-width: 0.5; stroke-linecap: square"/>
     </g>
     <g id="line2d_32">
      <g>
       <use xlink:href="#mb72100a513" x="325.529329" y="226.919531" style="stroke: #000000; stroke-width: 0.8"/>
      </g>
     </g>
     <g id="text_16">
      <!-- 10 -->
      <g transform="translate(321.711829 238.478594)scale(0.06 -0.06)">
       <use xlink:href="#DejaVuSans-31"/>
       <use xlink:href="#DejaVuSans-30" x="63.623047"/>
      </g>
     </g>
    </g>
    <g id="xtick_17">
     <g id="line2d_33">
      <path d="M 354.514468 226.919531 
L 354.514468 9.479531 
" clip-path="url(#p7b936150b6)" style="fill: none; stroke: #000000; stroke-width: 0.5; stroke-linecap: square"/>
     </g>
     <g id="line2d_34">
      <g>
       <use xlink:href="#mb72100a513" x="354.514468" y="226.919531" style="stroke: #000000; stroke-width: 0.8"/>
      </g>
     </g>
     <g id="text_17">
      <!-- 20 -->
      <g transform="translate(350.696968 238.478594)scale(0.06 -0.06)">
       <use xlink:href="#DejaVuSans-32"/>
       <use xlink:href="#DejaVuSans-30" x="63.623047"/>
      </g>
     </g>
    </g>
    <g id="xtick_18">
     <g id="line2d_35">
      <path d="M 371.469688 226.919531 
L 371.469688 9.479531 
" clip-path="url(#p7b936150b6)" style="fill: none; stroke: #000000; stroke-width: 0.5; stroke-linecap: square"/>
     </g>
     <g id="line2d_36">
      <g>
       <use xlink:href="#mb72100a513" x="371.469688" y="226.919531" style="stroke: #000000; stroke-width: 0.8"/>
      </g>
     </g>
     <g id="text_18">
      <!-- 30 -->
      <g transform="translate(367.652188 238.478594)scale(0.06 -0.06)">
       <use xlink:href="#DejaVuSans-33"/>
       <use xlink:href="#DejaVuSans-30" x="63.623047"/>
      </g>
     </g>
    </g>
    <g id="xtick_19">
     <g id="line2d_37">
      <path d="M 94.639965 226.919531 
L 94.639965 9.479531 
" clip-path="url(#p7b936150b6)" style="fill: none; stroke: #000000; stroke-width: 0.1; stroke-linecap: square"/>
     </g>
     <g id="line2d_38">
      <defs>
       <path id="m11182d77cf" d="M 0 0 
L 0 2 
" style="stroke: #000000; stroke-width: 0.6"/>
      </defs>
      <g>
       <use xlink:href="#m11182d77cf" x="94.639965" y="226.919531" style="stroke: #000000; stroke-width: 0.6"/>
      </g>
     </g>
    </g>
    <g id="xtick_20">
     <g id="line2d_39">
      <path d="M 111.595185 226.919531 
L 111.595185 9.479531 
" clip-path="url(#p7b936150b6)" style="fill: none; stroke: #000000; stroke-width: 0.1; stroke-linecap: square"/>
     </g>
     <g id="line2d_40">
      <g>
       <use xlink:href="#m11182d77cf" x="111.595185" y="226.919531" style="stroke: #000000; stroke-width: 0.6"/>
      </g>
     </g>
    </g>
    <g id="xtick_21">
     <g id="line2d_41">
      <path d="M 123.625104 226.919531 
L 123.625104 9.479531 
" clip-path="url(#p7b936150b6)" style="fill: none; stroke: #000000; stroke-width: 0.1; stroke-linecap: square"/>
     </g>
     <g id="line2d_42">
      <g>
       <use xlink:href="#m11182d77cf" x="123.625104" y="226.919531" style="stroke: #000000; stroke-width: 0.6"/>
      </g>
     </g>
    </g>
    <g id="xtick_22">
     <g id="line2d_43">
      <path d="M 128.550404 226.919531 
L 128.550404 9.479531 
" clip-path="url(#p7b936150b6)" style="fill: none; stroke: #000000; stroke-width: 0.1; stroke-linecap: square"/>
     </g>
     <g id="line2d_44">
      <g>
       <use xlink:href="#m11182d77cf" x="128.550404" y="226.919531" style="stroke: #000000; stroke-width: 0.6"/>
      </g>
     </g>
    </g>
    <g id="xtick_23">
     <g id="line2d_45">
      <path d="M 190.926513 226.919531 
L 190.926513 9.479531 
" clip-path="url(#p7b936150b6)" style="fill: none; stroke: #000000; stroke-width: 0.1; stroke-linecap: square"/>
     </g>
     <g id="line2d_46">
      <g>
       <use xlink:href="#m11182d77cf" x="190.926513" y="226.919531" style="stroke: #000000; stroke-width: 0.6"/>
      </g>
     </g>
    </g>
    <g id="xtick_24">
     <g id="line2d_47">
      <path d="M 207.881732 226.919531 
L 207.881732 9.479531 
" clip-path="url(#p7b936150b6)" style="fill: none; stroke: #000000; stroke-width: 0.1; stroke-linecap: square"/>
     </g>
     <g id="line2d_48">
      <g>
       <use xlink:href="#m11182d77cf" x="207.881732" y="226.919531" style="stroke: #000000; stroke-width: 0.6"/>
      </g>
     </g>
    </g>
    <g id="xtick_25">
     <g id="line2d_49">
      <path d="M 219.911651 226.919531 
L 219.911651 9.479531 
" clip-path="url(#p7b936150b6)" style="fill: none; stroke: #000000; stroke-width: 0.1; stroke-linecap: square"/>
     </g>
     <g id="line2d_50">
      <g>
       <use xlink:href="#m11182d77cf" x="219.911651" y="226.919531" style="stroke: #000000; stroke-width: 0.6"/>
      </g>
     </g>
    </g>
    <g id="xtick_26">
     <g id="line2d_51">
      <path d="M 224.836951 226.919531 
L 224.836951 9.479531 
" clip-path="url(#p7b936150b6)" style="fill: none; stroke: #000000; stroke-width: 0.1; stroke-linecap: square"/>
     </g>
     <g id="line2d_52">
      <g>
       <use xlink:href="#m11182d77cf" x="224.836951" y="226.919531" style="stroke: #000000; stroke-width: 0.6"/>
      </g>
     </g>
    </g>
    <g id="xtick_27">
     <g id="line2d_53">
      <path d="M 287.21306 226.919531 
L 287.21306 9.479531 
" clip-path="url(#p7b936150b6)" style="fill: none; stroke: #000000; stroke-width: 0.1; stroke-linecap: square"/>
     </g>
     <g id="line2d_54">
      <g>
       <use xlink:href="#m11182d77cf" x="287.21306" y="226.919531" style="stroke: #000000; stroke-width: 0.6"/>
      </g>
     </g>
    </g>
    <g id="xtick_28">
     <g id="line2d_55">
      <path d="M 304.168279 226.919531 
L 304.168279 9.479531 
" clip-path="url(#p7b936150b6)" style="fill: none; stroke: #000000; stroke-width: 0.1; stroke-linecap: square"/>
     </g>
     <g id="line2d_56">
      <g>
       <use xlink:href="#m11182d77cf" x="304.168279" y="226.919531" style="stroke: #000000; stroke-width: 0.6"/>
      </g>
     </g>
    </g>
    <g id="xtick_29">
     <g id="line2d_57">
      <path d="M 316.198199 226.919531 
L 316.198199 9.479531 
" clip-path="url(#p7b936150b6)" style="fill: none; stroke: #000000; stroke-width: 0.1; stroke-linecap: square"/>
     </g>
     <g id="line2d_58">
      <g>
       <use xlink:href="#m11182d77cf" x="316.198199" y="226.919531" style="stroke: #000000; stroke-width: 0.6"/>
      </g>
     </g>
    </g>
    <g id="xtick_30">
     <g id="line2d_59">
      <path d="M 321.123498 226.919531 
L 321.123498 9.479531 
" clip-path="url(#p7b936150b6)" style="fill: none; stroke: #000000; stroke-width: 0.1; stroke-linecap: square"/>
     </g>
     <g id="line2d_60">
      <g>
       <use xlink:href="#m11182d77cf" x="321.123498" y="226.919531" style="stroke: #000000; stroke-width: 0.6"/>
      </g>
     </g>
    </g>
    <g id="text_19">
     <!-- Frequency (MHz) -->
     <g transform="translate(178.858438 248.285469)scale(0.06 -0.06)">
      <defs>
       <path id="DejaVuSans-46" d="M 628 4666 
L 3309 4666 
L 3309 4134 
L 1259 4134 
L 1259 2759 
L 3109 2759 
L 3109 2228 
L 1259 2228 
L 1259 0 
L 628 0 
L 628 4666 
z
" transform="scale(0.015625)"/>
       <path id="DejaVuSans-72" d="M 2631 2963 
Q 2534 3019 2420 3045 
Q 2306 3072 2169 3072 
Q 1681 3072 1420 2755 
Q 1159 2438 1159 1844 
L 1159 0 
L 581 0 
L 581 3500 
L 1159 3500 
L 1159 2956 
Q 1341 3275 1631 3429 
Q 1922 3584 2338 3584 
Q 2397 3584 2469 3576 
Q 2541 3569 2628 3553 
L 2631 2963 
z
" transform="scale(0.015625)"/>
       <path id="DejaVuSans-65" d="M 3597 1894 
L 3597 1613 
L 953 1613 
Q 991 1019 1311 708 
Q 1631 397 2203 397 
Q 2534 397 2845 478 
Q 3156 559 3463 722 
L 3463 178 
Q 3153 47 2828 -22 
Q 2503 -91 2169 -91 
Q 1331 -91 842 396 
Q 353 884 353 1716 
Q 353 2575 817 3079 
Q 1281 3584 2069 3584 
Q 2775 3584 3186 3129 
Q 3597 2675 3597 1894 
z
M 3022 2063 
Q 3016 2534 2758 2815 
Q 2500 3097 2075 3097 
Q 1594 3097 1305 2825 
Q 1016 2553 972 2059 
L 3022 2063 
z
" transform="scale(0.015625)"/>
       <path id="DejaVuSans-71" d="M 947 1747 
Q 947 1113 1208 752 
Q 1469 391 1925 391 
Q 2381 391 2643 752 
Q 2906 1113 2906 1747 
Q 2906 2381 2643 2742 
Q 2381 3103 1925 3103 
Q 1469 3103 1208 2742 
Q 947 2381 947 1747 
z
M 2906 525 
Q 2725 213 2448 61 
Q 2172 -91 1784 -91 
Q 1150 -91 751 415 
Q 353 922 353 1747 
Q 353 2572 751 3078 
Q 1150 3584 1784 3584 
Q 2172 3584 2448 3432 
Q 2725 3281 2906 2969 
L 2906 3500 
L 3481 3500 
L 3481 -1331 
L 2906 -1331 
L 2906 525 
z
" transform="scale(0.015625)"/>
       <path id="DejaVuSans-75" d="M 544 1381 
L 544 3500 
L 1119 3500 
L 1119 1403 
Q 1119 906 1312 657 
Q 1506 409 1894 409 
Q 2359 409 2629 706 
Q 2900 1003 2900 1516 
L 2900 3500 
L 3475 3500 
L 3475 0 
L 2900 0 
L 2900 538 
Q 2691 219 2414 64 
Q 2138 -91 1772 -91 
Q 1169 -91 856 284 
Q 544 659 544 1381 
z
M 1991 3584 
L 1991 3584 
z
" transform="scale(0.015625)"/>
       <path id="DejaVuSans-6e" d="M 3513 2113 
L 3513 0 
L 2938 0 
L 2938 2094 
Q 2938 2591 2744 2837 
Q 2550 3084 2163 3084 
Q 1697 3084 1428 2787 
Q 1159 2491 1159 1978 
L 1159 0 
L 581 0 
L 581 3500 
L 1159 3500 
L 1159 2956 
Q 1366 3272 1645 3428 
Q 1925 3584 2291 3584 
Q 2894 3584 3203 3211 
Q 3513 2838 3513 2113 
z
" transform="scale(0.015625)"/>
       <path id="DejaVuSans-63" d="M 3122 3366 
L 3122 2828 
Q 2878 2963 2633 3030 
Q 2388 3097 2138 3097 
Q 1578 3097 1268 2742 
Q 959 2388 959 1747 
Q 959 1106 1268 751 
Q 1578 397 2138 397 
Q 2388 397 2633 464 
Q 2878 531 3122 666 
L 3122 134 
Q 2881 22 2623 -34 
Q 2366 -91 2075 -91 
Q 1284 -91 818 406 
Q 353 903 353 1747 
Q 353 2603 823 3093 
Q 1294 3584 2113 3584 
Q 2378 3584 2631 3529 
Q 2884 3475 3122 3366 
z
" transform="scale(0.015625)"/>
       <path id="DejaVuSans-79" d="M 2059 -325 
Q 1816 -950 1584 -1140 
Q 1353 -1331 966 -1331 
L 506 -1331 
L 506 -850 
L 844 -850 
Q 1081 -850 1212 -737 
Q 1344 -625 1503 -206 
L 1606 56 
L 191 3500 
L 800 3500 
L 1894 763 
L 2988 3500 
L 3597 3500 
L 2059 -325 
z
" transform="scale(0.015625)"/>
       <path id="DejaVuSans-20" transform="scale(0.015625)"/>
       <path id="DejaVuSans-28" d="M 1984 4856 
Q 1566 4138 1362 3434 
Q 1159 2731 1159 2009 
Q 1159 1288 1364 580 
Q 1569 -128 1984 -844 
L 1484 -844 
Q 1016 -109 783 600 
Q 550 1309 550 2009 
Q 550 2706 781 3412 
Q 1013 4119 1484 4856 
L 1984 4856 
z
" transform="scale(0.015625)"/>
       <path id="DejaVuSans-4d" d="M 628 4666 
L 1569 4666 
L 2759 1491 
L 3956 4666 
L 4897 4666 
L 4897 0 
L 4281 0 
L 4281 4097 
L 3078 897 
L 2444 897 
L 1241 4097 
L 1241 0 
L 628 0 
L 628 4666 
z
" transform="scale(0.015625)"/>
       <path id="DejaVuSans-48" d="M 628 4666 
L 1259 4666 
L 1259 2753 
L 3553 2753 
L 3553 4666 
L 4184 4666 
L 4184 0 
L 3553 0 
L 3553 2222 
L 1259 2222 
L 1259 0 
L 628 0 
L 628 4666 
z
" transform="scale(0.015625)"/>
       <path id="DejaVuSans-7a" d="M 353 3500 
L 3084 3500 
L 3084 2975 
L 922 459 
L 3084 459 
L 3084 0 
L 275 0 
L 275 525 
L 2438 3041 
L 353 3041 
L 353 3500 
z
" transform="scale(0.015625)"/>
       <path id="DejaVuSans-29" d="M 513 4856 
L 1013 4856 
Q 1481 4119 1714 3412 
Q 1947 2706 1947 2009 
Q 1947 1309 1714 600 
Q 1481 -109 1013 -844 
L 513 -844 
Q 928 -128 1133 580 
Q 1338 1288 1338 2009 
Q 1338 2731 1133 3434 
Q 928 4138 513 4856 
z
" transform="scale(0.015625)"/>
      </defs>
      <use xlink:href="#DejaVuSans-46"/>
      <use xlink:href="#DejaVuSans-72" x="50.269531"/>
      <use xlink:href="#DejaVuSans-65" x="89.132812"/>
      <use xlink:href="#DejaVuSans-71" x="150.65625"/>
      <use xlink:href="#DejaVuSans-75" x="214.132812"/>
      <use xlink:href="#DejaVuSans-65" x="277.511719"/>
      <use xlink:href="#DejaVuSans-6e" x="339.035156"/>
      <use xlink:href="#DejaVuSans-63" x="402.414062"/>
      <use xlink:href="#DejaVuSans-79" x="457.394531"/>
      <use xlink:href="#DejaVuSans-20" x="516.574219"/>
      <use xlink:href="#DejaVuSans-28" x="548.361328"/>
      <use xlink:href="#DejaVuSans-4d" x="587.375"/>
      <use xlink:href="#DejaVuSans-48" x="673.654297"/>
      <use xlink:href="#DejaVuSans-7a" x="748.849609"/>
      <use xlink:href="#DejaVuSans-29" x="801.339844"/>
     </g>
    </g>
   </g>
   <g id="matplotlib.axis_2">
    <g id="ytick_1">
     <g id="line2d_61">
      <path d="M 36.669688 226.919531 
L 371.469688 226.919531 
" clip-path="url(#p7b936150b6)" style="fill: none; stroke: #000000; stroke-width: 0.5; stroke-linecap: square"/>
     </g>
     <g id="line2d_62">
      <defs>
       <path id="meaa5e36234" d="M 0 0 
L -3.5 0 
" style="stroke: #000000; stroke-width: 0.8"/>
      </defs>
      <g>
       <use xlink:href="#meaa5e36234" x="36.669688" y="226.919531" style="stroke: #000000; stroke-width: 0.8"/>
      </g>
     </g>
     <g id="text_20">
      <!-- −20 -->
      <g transform="translate(17.006875 229.199062)scale(0.06 -0.06)">
       <defs>
        <path id="DejaVuSans-2212" d="M 678 2272 
L 4684 2272 
L 4684 1741 
L 678 1741 
L 678 2272 
z
" transform="scale(0.015625)"/>
       </defs>
       <use xlink:href="#DejaVuSans-2212"/>
       <use xlink:href="#DejaVuSans-32" x="83.789062"/>
       <use xlink:href="#DejaVuSans-30" x="147.412109"/>
      </g>
     </g>
    </g>
    <g id="ytick_2">
     <g id="line2d_63">
      <path d="M 36.669688 205.175531 
L 371.469688 205.175531 
" clip-path="url(#p7b936150b6)" style="fill: none; stroke: #000000; stroke-width: 0.5; stroke-linecap: square"/>
     </g>
     <g id="line2d_64">
      <g>
       <use xlink:href="#meaa5e36234" x="36.669688" y="205.175531" style="stroke: #000000; stroke-width: 0.8"/>
      </g>
     </g>
     <g id="text_21">
      <!-- 0 -->
      <g transform="translate(25.852188 207.455062)scale(0.06 -0.06)">
       <use xlink:href="#DejaVuSans-30"/>
      </g>
     </g>
    </g>
    <g id="ytick_3">
     <g id="line2d_65">
      <path d="M 36.669688 183.431531 
L 371.469688 183.431531 
" clip-path="url(#p7b936150b6)" style="fill: none; stroke: #000000; stroke-width: 0.5; stroke-linecap: square"/>
     </g>
     <g id="line2d_66">
      <g>
       <use xlink:href="#meaa5e36234" x="36.669688" y="183.431531" style="stroke: #000000; stroke-width: 0.8"/>
      </g>
     </g>
     <g id="text_22">
      <!-- 20 -->
      <g transform="translate(22.034688 185.711062)scale(0.06 -0.06)">
       <use xlink:href="#DejaVuSans-32"/>
       <use xlink:href="#DejaVuSans-30" x="63.623047"/>
      </g>
     </g>
    </g>
    <g id="ytick_4">
     <g id="line2d_67">
      <path d="M 36.669688 161.687531 
L 371.469688 161.687531 
" clip-path="url(#p7b936150b6)" style="fill: none; stroke: #000000; stroke-width: 0.5; stroke-linecap: square"/>
     </g>
     <g id="line2d_68">
      <g>
       <use xlink:href="#meaa5e36234" x="36.669688" y="161.687531" style="stroke: #000000; stroke-width: 0.8"/>
      </g>
     </g>
     <g id="text_23">
      <!-- 40 -->
      <g transform="translate(22.034688 163.967062)scale(0.06 -0.06)">
       <defs>
        <path id="DejaVuSans-34" d="M 2419 4116 
L 825 1625 
L 2419 1625 
L 2419 4116 
z
M 2253 4666 
L 3047 4666 
L 3047 1625 
L 3713 1625 
L 3713 1100 
L 3047 1100 
L 3047 0 
L 2419 0 
L 2419 1100 
L 313 1100 
L 313 1709 
L 2253 4666 
z
" transform="scale(0.015625)"/>
       </defs>
       <use xlink:href="#DejaVuSans-34"/>
       <use xlink:href="#DejaVuSans-30" x="63.623047"/>
      </g>
     </g>
    </g>
    <g id="ytick_5">
     <g id="line2d_69">
      <path d="M 36.669688 139.943531 
L 371.469688 139.943531 
" clip-path="url(#p7b936150b6)" style="fill: none; stroke: #000000; stroke-width: 0.5; stroke-linecap: square"/>
     </g>
     <g id="line2d_70">
      <g>
       <use xlink:href="#meaa5e36234" x="36.669688" y="139.943531" style="stroke: #000000; stroke-width: 0.8"/>
      </g>
     </g>
     <g id="text_24">
      <!-- 60 -->
      <g transform="translate(22.034688 142.223062)scale(0.06 -0.06)">
       <defs>
        <path id="DejaVuSans-36" d="M 2113 2584 
Q 1688 2584 1439 2293 
Q 1191 2003 1191 1497 
Q 1191 994 1439 701 
Q 1688 409 2113 409 
Q 2538 409 2786 701 
Q 3034 994 3034 1497 
Q 3034 2003 2786 2293 
Q 2538 2584 2113 2584 
z
M 3366 4563 
L 3366 3988 
Q 3128 4100 2886 4159 
Q 2644 4219 2406 4219 
Q 1781 4219 1451 3797 
Q 1122 3375 1075 2522 
Q 1259 2794 1537 2939 
Q 1816 3084 2150 3084 
Q 2853 3084 3261 2657 
Q 3669 2231 3669 1497 
Q 3669 778 3244 343 
Q 2819 -91 2113 -91 
Q 1303 -91 875 529 
Q 447 1150 447 2328 
Q 447 3434 972 4092 
Q 1497 4750 2381 4750 
Q 2619 4750 2861 4703 
Q 3103 4656 3366 4563 
z
" transform="scale(0.015625)"/>
       </defs>
       <use xlink:href="#DejaVuSans-36"/>
       <use xlink:href="#DejaVuSans-30" x="63.623047"/>
      </g>
     </g>
    </g>
    <g id="ytick_6">
     <g id="line2d_71">
      <path d="M 36.669688 118.199531 
L 371.469688 118.199531 
" clip-path="url(#p7b936150b6)" style="fill: none; stroke: #000000; stroke-width: 0.5; stroke-linecap: square"/>
     </g>
     <g id="line2d_72">
      <g>
       <use xlink:href="#meaa5e36234" x="36.669688" y="118.199531" style="stroke: #000000; stroke-width: 0.8"/>
      </g>
     </g>
     <g id="text_25">
      <!-- 80 -->
      <g transform="translate(22.034688 120.479062)scale(0.06 -0.06)">
       <defs>
        <path id="DejaVuSans-38" d="M 2034 2216 
Q 1584 2216 1326 1975 
Q 1069 1734 1069 1313 
Q 1069 891 1326 650 
Q 1584 409 2034 409 
Q 2484 409 2743 651 
Q 3003 894 3003 1313 
Q 3003 1734 2745 1975 
Q 2488 2216 2034 2216 
z
M 1403 2484 
Q 997 2584 770 2862 
Q 544 3141 544 3541 
Q 544 4100 942 4425 
Q 1341 4750 2034 4750 
Q 2731 4750 3128 4425 
Q 3525 4100 3525 3541 
Q 3525 3141 3298 2862 
Q 3072 2584 2669 2484 
Q 3125 2378 3379 2068 
Q 3634 1759 3634 1313 
Q 3634 634 3220 271 
Q 2806 -91 2034 -91 
Q 1263 -91 848 271 
Q 434 634 434 1313 
Q 434 1759 690 2068 
Q 947 2378 1403 2484 
z
M 1172 3481 
Q 1172 3119 1398 2916 
Q 1625 2713 2034 2713 
Q 2441 2713 2670 2916 
Q 2900 3119 2900 3481 
Q 2900 3844 2670 4047 
Q 2441 4250 2034 4250 
Q 1625 4250 1398 4047 
Q 1172 3844 1172 3481 
z
" transform="scale(0.015625)"/>
       </defs>
       <use xlink:href="#DejaVuSans-38"/>
       <use xlink:href="#DejaVuSans-30" x="63.623047"/>
      </g>
     </g>
    </g>
    <g id="ytick_7">
     <g id="line2d_73">
      <path d="M 36.669688 96.455531 
L 371.469688 96.455531 
" clip-path="url(#p7b936150b6)" style="fill: none; stroke: #000000; stroke-width: 0.5; stroke-linecap: square"/>
     </g>
     <g id="line2d_74">
      <g>
       <use xlink:href="#meaa5e36234" x="36.669688" y="96.455531" style="stroke: #000000; stroke-width: 0.8"/>
      </g>
     </g>
     <g id="text_26">
      <!-- 100 -->
      <g transform="translate(18.217188 98.735062)scale(0.06 -0.06)">
       <use xlink:href="#DejaVuSans-31"/>
       <use xlink:href="#DejaVuSans-30" x="63.623047"/>
       <use xlink:href="#DejaVuSans-30" x="127.246094"/>
      </g>
     </g>
    </g>
    <g id="ytick_8">
     <g id="line2d_75">
      <path d="M 36.669688 74.711531 
L 371.469688 74.711531 
" clip-path="url(#p7b936150b6)" style="fill: none; stroke: #000000; stroke-width: 0.5; stroke-linecap: square"/>
     </g>
     <g id="line2d_76">
      <g>
       <use xlink:href="#meaa5e36234" x="36.669688" y="74.711531" style="stroke: #000000; stroke-width: 0.8"/>
      </g>
     </g>
     <g id="text_27">
      <!-- 120 -->
      <g transform="translate(18.217188 76.991062)scale(0.06 -0.06)">
       <use xlink:href="#DejaVuSans-31"/>
       <use xlink:href="#DejaVuSans-32" x="63.623047"/>
       <use xlink:href="#DejaVuSans-30" x="127.246094"/>
      </g>
     </g>
    </g>
    <g id="ytick_9">
     <g id="line2d_77">
      <path d="M 36.669688 52.967531 
L 371.469688 52.967531 
" clip-path="url(#p7b936150b6)" style="fill: none; stroke: #000000; stroke-width: 0.5; stroke-linecap: square"/>
     </g>
     <g id="line2d_78">
      <g>
       <use xlink:href="#meaa5e36234" x="36.669688" y="52.967531" style="stroke: #000000; stroke-width: 0.8"/>
      </g>
     </g>
     <g id="text_28">
      <!-- 140 -->
      <g transform="translate(18.217188 55.247062)scale(0.06 -0.06)">
       <use xlink:href="#DejaVuSans-31"/>
       <use xlink:href="#DejaVuSans-34" x="63.623047"/>
       <use xlink:href="#DejaVuSans-30" x="127.246094"/>
      </g>
     </g>
    </g>
    <g id="ytick_10">
     <g id="line2d_79">
      <path d="M 36.669688 31.223531 
L 371.469688 31.223531 
" clip-path="url(#p7b936150b6)" style="fill: none; stroke: #000000; stroke-width: 0.5; stroke-linecap: square"/>
     </g>
     <g id="line2d_80">
      <g>
       <use xlink:href="#meaa5e36234" x="36.669688" y="31.223531" style="stroke: #000000; stroke-width: 0.8"/>
      </g>
     </g>
     <g id="text_29">
      <!-- 160 -->
      <g transform="translate(18.217188 33.503062)scale(0.06 -0.06)">
       <use xlink:href="#DejaVuSans-31"/>
       <use xlink:href="#DejaVuSans-36" x="63.623047"/>
       <use xlink:href="#DejaVuSans-30" x="127.246094"/>
      </g>
     </g>
    </g>
    <g id="ytick_11">
     <g id="line2d_81">
      <path d="M 36.669688 9.479531 
L 371.469688 9.479531 
" clip-path="url(#p7b936150b6)" style="fill: none; stroke: #000000; stroke-width: 0.5; stroke-linecap: square"/>
     </g>
     <g id="line2d_82">
      <g>
       <use xlink:href="#meaa5e36234" x="36.669688" y="9.479531" style="stroke: #000000; stroke-width: 0.8"/>
      </g>
     </g>
     <g id="text_30">
      <!-- 180 -->
      <g transform="translate(18.217188 11.759062)scale(0.06 -0.06)">
       <use xlink:href="#DejaVuSans-31"/>
       <use xlink:href="#DejaVuSans-38" x="63.623047"/>
       <use xlink:href="#DejaVuSans-30" x="127.246094"/>
      </g>
     </g>
    </g>
    <g id="ytick_12">
     <g id="line2d_83">
      <path d="M 36.669688 221.483531 
L 371.469688 221.483531 
" clip-path="url(#p7b936150b6)" style="fill: none; stroke: #000000; stroke-width: 0.1; stroke-linecap: square"/>
     </g>
     <g id="line2d_84">
      <defs>
       <path id="mc6a8e18f65" d="M 0 0 
L -2 0 
" style="stroke: #000000; stroke-width: 0.6"/>
      </defs>
      <g>
       <use xlink:href="#mc6a8e18f65" x="36.669688" y="221.483531" style="stroke: #000000; stroke-width: 0.6"/>
      </g>
     </g>
    </g>
    <g id="ytick_13">
     <g id="line2d_85">
      <path d="M 36.669688 216.047531 
L 371.469688 216.047531 
" clip-path="url(#p7b936150b6)" style="fill: none; stroke: #000000; stroke-width: 0.1; stroke-linecap: square"/>
     </g>
     <g id="line2d_86">
      <g>
       <use xlink:href="#mc6a8e18f65" x="36.669688" y="216.047531" style="stroke: #000000; stroke-width: 0.6"/>
      </g>
     </g>
    </g>
    <g id="ytick_14">
     <g id="line2d_87">
      <path d="M 36.669688 210.611531 
L 371.469688 210.611531 
" clip-path="url(#p7b936150b6)" style="fill: none; stroke: #000000; stroke-width: 0.1; stroke-linecap: square"/>
     </g>
     <g id="line2d_88">
      <g>
       <use xlink:href="#mc6a8e18f65" x="36.669688" y="210.611531" style="stroke: #000000; stroke-width: 0.6"/>
      </g>
     </g>
    </g>
    <g id="ytick_15">
     <g id="line2d_89">
      <path d="M 36.669688 199.739531 
L 371.469688 199.739531 
" clip-path="url(#p7b936150b6)" style="fill: none; stroke: #000000; stroke-width: 0.1; stroke-linecap: square"/>
     </g>
     <g id="line2d_90">
      <g>
       <use xlink:href="#mc6a8e18f65" x="36.669688" y="199.739531" style="stroke: #000000; stroke-width: 0.6"/>
      </g>
     </g>
    </g>
    <g id="ytick_16">
     <g id="line2d_91">
      <path d="M 36.669688 194.303531 
L 371.469688 194.303531 
" clip-path="url(#p7b936150b6)" style="fill: none; stroke: #000000; stroke-width: 0.1; stroke-linecap: square"/>
     </g>
     <g id="line2d_92">
      <g>
       <use xlink:href="#mc6a8e18f65" x="36.669688" y="194.303531" style="stroke: #000000; stroke-width: 0.6"/>
      </g>
     </g>
    </g>
    <g id="ytick_17">
     <g id="line2d_93">
      <path d="M 36.669688 188.867531 
L 371.469688 188.867531 
" clip-path="url(#p7b936150b6)" style="fill: none; stroke: #000000; stroke-width: 0.1; stroke-linecap: square"/>
     </g>
     <g id="line2d_94">
      <g>
       <use xlink:href="#mc6a8e18f65" x="36.669688" y="188.867531" style="stroke: #000000; stroke-width: 0.6"/>
      </g>
     </g>
    </g>
    <g id="ytick_18">
     <g id="line2d_95">
      <path d="M 36.669688 177.995531 
L 371.469688 177.995531 
" clip-path="url(#p7b936150b6)" style="fill: none; stroke: #000000; stroke-width: 0.1; stroke-linecap: square"/>
     </g>
     <g id="line2d_96">
      <g>
       <use xlink:href="#mc6a8e18f65" x="36.669688" y="177.995531" style="stroke: #000000; stroke-width: 0.6"/>
      </g>
     </g>
    </g>
    <g id="ytick_19">
     <g id="line2d_97">
      <path d="M 36.669688 172.559531 
L 371.469688 172.559531 
" clip-path="url(#p7b936150b6)" style="fill: none; stroke: #000000; stroke-width: 0.1; stroke-linecap: square"/>
     </g>
     <g id="line2d_98">
      <g>
       <use xlink:href="#mc6a8e18f65" x="36.669688" y="172.559531" style="stroke: #000000; stroke-width: 0.6"/>
      </g>
     </g>
    </g>
    <g id="ytick_20">
     <g id="line2d_99">
      <path d="M 36.669688 167.123531 
L 371.469688 167.123531 
" clip-path="url(#p7b936150b6)" style="fill: none; stroke: #000000; stroke-width: 0.1; stroke-linecap: square"/>
     </g>
     <g id="line2d_100">
      <g>
       <use xlink:href="#mc6a8e18f65" x="36.669688" y="167.123531" style="stroke: #000000; stroke-width: 0.6"/>
      </g>
     </g>
    </g>
    <g id="ytick_21">
     <g id="line2d_101">
      <path d="M 36.669688 156.251531 
L 371.469688 156.251531 
" clip-path="url(#p7b936150b6)" style="fill: none; stroke: #000000; stroke-width: 0.1; stroke-linecap: square"/>
     </g>
     <g id="line2d_102">
      <g>
       <use xlink:href="#mc6a8e18f65" x="36.669688" y="156.251531" style="stroke: #000000; stroke-width: 0.6"/>
      </g>
     </g>
    </g>
    <g id="ytick_22">
     <g id="line2d_103">
      <path d="M 36.669688 150.815531 
L 371.469688 150.815531 
" clip-path="url(#p7b936150b6)" style="fill: none; stroke: #000000; stroke-width: 0.1; stroke-linecap: square"/>
     </g>
     <g id="line2d_104">
      <g>
       <use xlink:href="#mc6a8e18f65" x="36.669688" y="150.815531" style="stroke: #000000; stroke-width: 0.6"/>
      </g>
     </g>
    </g>
    <g id="ytick_23">
     <g id="line2d_105">
      <path d="M 36.669688 145.379531 
L 371.469688 145.379531 
" clip-path="url(#p7b936150b6)" style="fill: none; stroke: #000000; stroke-width: 0.1; stroke-linecap: square"/>
     </g>
     <g id="line2d_106">
      <g>
       <use xlink:href="#mc6a8e18f65" x="36.669688" y="145.379531" style="stroke: #000000; stroke-width: 0.6"/>
      </g>
     </g>
    </g>
    <g id="ytick_24">
     <g id="line2d_107">
      <path d="M 36.669688 134.507531 
L 371.469688 134.507531 
" clip-path="url(#p7b936150b6)" style="fill: none; stroke: #000000; stroke-width: 0.1; stroke-linecap: square"/>
     </g>
     <g id="line2d_108">
      <g>
       <use xlink:href="#mc6a8e18f65" x="36.669688" y="134.507531" style="stroke: #000000; stroke-width: 0.6"/>
      </g>
     </g>
    </g>
    <g id="ytick_25">
     <g id="line2d_109">
      <path d="M 36.669688 129.071531 
L 371.469688 129.071531 
" clip-path="url(#p7b936150b6)" style="fill: none; stroke: #000000; stroke-width: 0.1; stroke-linecap: square"/>
     </g>
     <g id="line2d_110">
      <g>
       <use xlink:href="#mc6a8e18f65" x="36.669688" y="129.071531" style="stroke: #000000; stroke-width: 0.6"/>
      </g>
     </g>
    </g>
    <g id="ytick_26">
     <g id="line2d_111">
      <path d="M 36.669688 123.635531 
L 371.469688 123.635531 
" clip-path="url(#p7b936150b6)" style="fill: none; stroke: #000000; stroke-width: 0.1; stroke-linecap: square"/>
     </g>
     <g id="line2d_112">
      <g>
       <use xlink:href="#mc6a8e18f65" x="36.669688" y="123.635531" style="stroke: #000000; stroke-width: 0.6"/>
      </g>
     </g>
    </g>
    <g id="ytick_27">
     <g id="line2d_113">
      <path d="M 36.669688 112.763531 
L 371.469688 112.763531 
" clip-path="url(#p7b936150b6)" style="fill: none; stroke: #000000; stroke-width: 0.1; stroke-linecap: square"/>
     </g>
     <g id="line2d_114">
      <g>
       <use xlink:href="#mc6a8e18f65" x="36.669688" y="112.763531" style="stroke: #000000; stroke-width: 0.6"/>
      </g>
     </g>
    </g>
    <g id="ytick_28">
     <g id="line2d_115">
      <path d="M 36.669688 107.327531 
L 371.469688 107.327531 
" clip-path="url(#p7b936150b6)" style="fill: none; stroke: #000000; stroke-width: 0.1; stroke-linecap: square"/>
     </g>
     <g id="line2d_116">
      <g>
       <use xlink:href="#mc6a8e18f65" x="36.669688" y="107.327531" style="stroke: #000000; stroke-width: 0.6"/>
      </g>
     </g>
    </g>
    <g id="ytick_29">
     <g id="line2d_117">
      <path d="M 36.669688 101.891531 
L 371.469688 101.891531 
" clip-path="url(#p7b936150b6)" style="fill: none; stroke: #000000; stroke-width: 0.1; stroke-linecap: square"/>
     </g>
     <g id="line2d_118">
      <g>
       <use xlink:href="#mc6a8e18f65" x="36.669688" y="101.891531" style="stroke: #000000; stroke-width: 0.6"/>
      </g>
     </g>
    </g>
    <g id="ytick_30">
     <g id="line2d_119">
      <path d="M 36.669688 91.019531 
L 371.469688 91.019531 
" clip-path="url(#p7b936150b6)" style="fill: none; stroke: #000000; stroke-width: 0.1; stroke-linecap: square"/>
     </g>
     <g id="line2d_120">
      <g>
       <use xlink:href="#mc6a8e18f65" x="36.669688" y="91.019531" style="stroke: #000000; stroke-width: 0.6"/>
      </g>
     </g>
    </g>
    <g id="ytick_31">
     <g id="line2d_121">
      <path d="M 36.669688 85.583531 
L 371.469688 85.583531 
" clip-path="url(#p7b936150b6)" style="fill: none; stroke: #000000; stroke-width: 0.1; stroke-linecap: square"/>
     </g>
     <g id="line2d_122">
      <g>
       <use xlink:href="#mc6a8e18f65" x="36.669688" y="85.583531" style="stroke: #000000; stroke-width: 0.6"/>
      </g>
     </g>
    </g>
    <g id="ytick_32">
     <g id="line2d_123">
      <path d="M 36.669688 80.147531 
L 371.469688 80.147531 
" clip-path="url(#p7b936150b6)" style="fill: none; stroke: #000000; stroke-width: 0.1; stroke-linecap: square"/>
     </g>
     <g id="line2d_124">
      <g>
       <use xlink:href="#mc6a8e18f65" x="36.669688" y="80.147531" style="stroke: #000000; stroke-width: 0.6"/>
      </g>
     </g>
    </g>
    <g id="ytick_33">
     <g id="line2d_125">
      <path d="M 36.669688 69.275531 
L 371.469688 69.275531 
" clip-path="url(#p7b936150b6)" style="fill: none; stroke: #000000; stroke-width: 0.1; stroke-linecap: square"/>
     </g>
     <g id="line2d_126">
      <g>
       <use xlink:href="#mc6a8e18f65" x="36.669688" y="69.275531" style="stroke: #000000; stroke-width: 0.6"/>
      </g>
     </g>
    </g>
    <g id="ytick_34">
     <g id="line2d_127">
      <path d="M 36.669688 63.839531 
L 371.469688 63.839531 
" clip-path="url(#p7b936150b6)" style="fill: none; stroke: #000000; stroke-width: 0.1; stroke-linecap: square"/>
     </g>
     <g id="line2d_128">
      <g>
       <use xlink:href="#mc6a8e18f65" x="36.669688" y="63.839531" style="stroke: #000000; stroke-width: 0.6"/>
      </g>
     </g>
    </g>
    <g id="ytick_35">
     <g id="line2d_129">
      <path d="M 36.669688 58.403531 
L 371.469688 58.403531 
" clip-path="url(#p7b936150b6)" style="fill: none; stroke: #000000; stroke-width: 0.1; stroke-linecap: square"/>
     </g>
     <g id="line2d_130">
      <g>
       <use xlink:href="#mc6a8e18f65" x="36.669688" y="58.403531" style="stroke: #000000; stroke-width: 0.6"/>
      </g>
     </g>
    </g>
    <g id="ytick_36">
     <g id="line2d_131">
      <path d="M 36.669688 47.531531 
L 371.469688 47.531531 
" clip-path="url(#p7b936150b6)" style="fill: none; stroke: #000000; stroke-width: 0.1; stroke-linecap: square"/>
     </g>
     <g id="line2d_132">
      <g>
       <use xlink:href="#mc6a8e18f65" x="36.669688" y="47.531531" style="stroke: #000000; stroke-width: 0.6"/>
      </g>
     </g>
    </g>
    <g id="ytick_37">
     <g id="line2d_133">
      <path d="M 36.669688 42.095531 
L 371.469688 42.095531 
" clip-path="url(#p7b936150b6)" style="fill: none; stroke: #000000; stroke-width: 0.1; stroke-linecap: square"/>
     </g>
     <g id="line2d_134">
      <g>
       <use xlink:href="#mc6a8e18f65" x="36.669688" y="42.095531" style="stroke: #000000; stroke-width: 0.6"/>
      </g>
     </g>
    </g>
    <g id="ytick_38">
     <g id="line2d_135">
      <path d="M 36.669688 36.659531 
L 371.469688 36.659531 
" clip-path="url(#p7b936150b6)" style="fill: none; stroke: #000000; stroke-width: 0.1; stroke-linecap: square"/>
     </g>
     <g id="line2d_136">
      <g>
       <use xlink:href="#mc6a8e18f65" x="36.669688" y="36.659531" style="stroke: #000000; stroke-width: 0.6"/>
      </g>
     </g>
    </g>
    <g id="ytick_39">
     <g id="line2d_137">
      <path d="M 36.669688 25.787531 
L 371.469688 25.787531 
" clip-path="url(#p7b936150b6)" style="fill: none; stroke: #000000; stroke-width: 0.1; stroke-linecap: square"/>
     </g>
     <g id="line2d_138">
      <g>
       <use xlink:href="#mc6a8e18f65" x="36.669688" y="25.787531" style="stroke: #000000; stroke-width: 0.6"/>
      </g>
     </g>
    </g>
    <g id="ytick_40">
     <g id="line2d_139">
      <path d="M 36.669688 20.351531 
L 371.469688 20.351531 
" clip-path="url(#p7b936150b6)" style="fill: none; stroke: #000000; stroke-width: 0.1; stroke-linecap: square"/>
     </g>
     <g id="line2d_140">
      <g>
       <use xlink:href="#mc6a8e18f65" x="36.669688" y="20.351531" style="stroke: #000000; stroke-width: 0.6"/>
      </g>
     </g>
    </g>
    <g id="ytick_41">
     <g id="line2d_141">
      <path d="M 36.669688 14.915531 
L 371.469688 14.915531 
" clip-path="url(#p7b936150b6)" style="fill: none; stroke: #000000; stroke-width: 0.1; stroke-linecap: square"/>
     </g>
     <g id="line2d_142">
      <g>
       <use xlink:href="#mc6a8e18f65" x="36.669688" y="14.915531" style="stroke: #000000; stroke-width: 0.6"/>
      </g>
     </g>
    </g>
    <g id="text_31">
     <!-- $F_{am}$ (dB above $kT_0B$) -->
     <g transform="translate(11.759063 148.769531)rotate(-90)scale(0.06 -0.06)">
      <defs>
       <path id="DejaVuSans-Oblique-46" d="M 1081 4666 
L 3756 4666 
L 3653 4134 
L 1606 4134 
L 1338 2759 
L 3188 2759 
L 3084 2228 
L 1234 2228 
L 800 0 
L 172 0 
L 1081 4666 
z
" transform="scale(0.015625)"/>
       <path id="DejaVuSans-Oblique-61" d="M 3438 1997 
L 3047 0 
L 2472 0 
L 2578 531 
Q 2325 219 2001 64 
Q 1678 -91 1281 -91 
Q 834 -91 548 182 
Q 263 456 263 884 
Q 263 1497 752 1853 
Q 1241 2209 2100 2209 
L 2900 2209 
L 2931 2363 
Q 2938 2388 2941 2417 
Q 2944 2447 2944 2509 
Q 2944 2788 2717 2942 
Q 2491 3097 2081 3097 
Q 1800 3097 1504 3025 
Q 1209 2953 897 2809 
L 997 3341 
Q 1322 3463 1633 3523 
Q 1944 3584 2234 3584 
Q 2853 3584 3176 3315 
Q 3500 3047 3500 2534 
Q 3500 2431 3484 2292 
Q 3469 2153 3438 1997 
z
M 2816 1759 
L 2241 1759 
Q 1534 1759 1195 1570 
Q 856 1381 856 984 
Q 856 709 1029 553 
Q 1203 397 1509 397 
Q 1978 397 2328 733 
Q 2678 1069 2791 1631 
L 2816 1759 
z
" transform="scale(0.015625)"/>
       <path id="DejaVuSans-Oblique-6d" d="M 5747 2113 
L 5338 0 
L 4763 0 
L 5166 2094 
Q 5191 2228 5203 2325 
Q 5216 2422 5216 2491 
Q 5216 2772 5059 2928 
Q 4903 3084 4622 3084 
Q 4203 3084 3875 2770 
Q 3547 2456 3450 1953 
L 3066 0 
L 2491 0 
L 2900 2094 
Q 2925 2209 2937 2307 
Q 2950 2406 2950 2484 
Q 2950 2769 2794 2926 
Q 2638 3084 2363 3084 
Q 1938 3084 1609 2770 
Q 1281 2456 1184 1953 
L 800 0 
L 225 0 
L 909 3500 
L 1484 3500 
L 1375 2956 
Q 1609 3263 1923 3423 
Q 2238 3584 2597 3584 
Q 2978 3584 3223 3384 
Q 3469 3184 3519 2828 
Q 3781 3197 4126 3390 
Q 4472 3584 4856 3584 
Q 5306 3584 5551 3325 
Q 5797 3066 5797 2591 
Q 5797 2488 5784 2364 
Q 5772 2241 5747 2113 
z
" transform="scale(0.015625)"/>
       <path id="DejaVuSans-64" d="M 2906 2969 
L 2906 4863 
L 3481 4863 
L 3481 0 
L 2906 0 
L 2906 525 
Q 2725 213 2448 61 
Q 2172 -91 1784 -91 
Q 1150 -91 751 415 
Q 353 922 353 1747 
Q 353 2572 751 3078 
Q 1150 3584 1784 3584 
Q 2172 3584 2448 3432 
Q 2725 3281 2906 2969 
z
M 947 1747 
Q 947 1113 1208 752 
Q 1469 391 1925 391 
Q 2381 391 2643 752 
Q 2906 1113 2906 1747 
Q 2906 2381 2643 2742 
Q 2381 3103 1925 3103 
Q 1469 3103 1208 2742 
Q 947 2381 947 1747 
z
" transform="scale(0.015625)"/>
       <path id="DejaVuSans-42" d="M 1259 2228 
L 1259 519 
L 2272 519 
Q 2781 519 3026 730 
Q 3272 941 3272 1375 
Q 3272 1813 3026 2020 
Q 2781 2228 2272 2228 
L 1259 2228 
z
M 1259 4147 
L 1259 2741 
L 2194 2741 
Q 2656 2741 2882 2914 
Q 3109 3088 3109 3444 
Q 3109 3797 2882 3972 
Q 2656 4147 2194 4147 
L 1259 4147 
z
M 628 4666 
L 2241 4666 
Q 2963 4666 3353 4366 
Q 3744 4066 3744 3513 
Q 3744 3084 3544 2831 
Q 3344 2578 2956 2516 
Q 3422 2416 3680 2098 
Q 3938 1781 3938 1306 
Q 3938 681 3513 340 
Q 3088 0 2303 0 
L 628 0 
L 628 4666 
z
" transform="scale(0.015625)"/>
       <path id="DejaVuSans-61" d="M 2194 1759 
Q 1497 1759 1228 1600 
Q 959 1441 959 1056 
Q 959 750 1161 570 
Q 1363 391 1709 391 
Q 2188 391 2477 730 
Q 2766 1069 2766 1631 
L 2766 1759 
L 2194 1759 
z
M 3341 1997 
L 3341 0 
L 2766 0 
L 2766 531 
Q 2569 213 2275 61 
Q 1981 -91 1556 -91 
Q 1019 -91 701 211 
Q 384 513 384 1019 
Q 384 1609 779 1909 
Q 1175 2209 1959 2209 
L 2766 2209 
L 2766 2266 
Q 2766 2663 2505 2880 
Q 2244 3097 1772 3097 
Q 1472 3097 1187 3025 
Q 903 2953 641 2809 
L 641 3341 
Q 956 3463 1253 3523 
Q 1550 3584 1831 3584 
Q 2591 3584 2966 3190 
Q 3341 2797 3341 1997 
z
" transform="scale(0.015625)"/>
       <path id="DejaVuSans-62" d="M 3116 1747 
Q 3116 2381 2855 2742 
Q 2594 3103 2138 3103 
Q 1681 3103 1420 2742 
Q 1159 2381 1159 1747 
Q 1159 1113 1420 752 
Q 1681 391 2138 391 
Q 2594 391 2855 752 
Q 3116 1113 3116 1747 
z
M 1159 2969 
Q 1341 3281 1617 3432 
Q 1894 3584 2278 3584 
Q 2916 3584 3314 3078 
Q 3713 2572 3713 1747 
Q 3713 922 3314 415 
Q 2916 -91 2278 -91 
Q 1894 -91 1617 61 
Q 1341 213 1159 525 
L 1159 0 
L 581 0 
L 581 4863 
L 1159 4863 
L 1159 2969 
z
" transform="scale(0.015625)"/>
       <path id="DejaVuSans-6f" d="M 1959 3097 
Q 1497 3097 1228 2736 
Q 959 2375 959 1747 
Q 959 1119 1226 758 
Q 1494 397 1959 397 
Q 2419 397 2687 759 
Q 2956 1122 2956 1747 
Q 2956 2369 2687 2733 
Q 2419 3097 1959 3097 
z
M 1959 3584 
Q 2709 3584 3137 3096 
Q 3566 2609 3566 1747 
Q 3566 888 3137 398 
Q 2709 -91 1959 -91 
Q 1206 -91 779 398 
Q 353 888 353 1747 
Q 353 2609 779 3096 
Q 1206 3584 1959 3584 
z
" transform="scale(0.015625)"/>
       <path id="DejaVuSans-76" d="M 191 3500 
L 800 3500 
L 1894 563 
L 2988 3500 
L 3597 3500 
L 2284 0 
L 1503 0 
L 191 3500 
z
" transform="scale(0.015625)"/>
       <path id="DejaVuSans-Oblique-6b" d="M 1172 4863 
L 1747 4863 
L 1197 2028 
L 3169 3500 
L 3916 3500 
L 1716 1825 
L 3322 0 
L 2625 0 
L 1131 1709 
L 800 0 
L 225 0 
L 1172 4863 
z
" transform="scale(0.015625)"/>
       <path id="DejaVuSans-Oblique-54" d="M 378 4666 
L 4325 4666 
L 4225 4134 
L 2559 4134 
L 1759 0 
L 1125 0 
L 1925 4134 
L 275 4134 
L 378 4666 
z
" transform="scale(0.015625)"/>
       <path id="DejaVuSans-Oblique-42" d="M 1081 4666 
L 2694 4666 
Q 3350 4666 3675 4422 
Q 4000 4178 4000 3688 
Q 4000 3238 3720 2911 
Q 3441 2584 2988 2516 
Q 3375 2428 3569 2181 
Q 3763 1934 3763 1522 
Q 3763 819 3242 409 
Q 2722 0 1819 0 
L 172 0 
L 1081 4666 
z
M 1234 2228 
L 903 519 
L 1919 519 
Q 2491 519 2800 781 
Q 3109 1044 3109 1522 
Q 3109 1891 2904 2059 
Q 2700 2228 2247 2228 
L 1234 2228 
z
M 1606 4147 
L 1331 2741 
L 2272 2741 
Q 2775 2741 3058 2959 
Q 3341 3178 3341 3566 
Q 3341 3869 3150 4008 
Q 2959 4147 2541 4147 
L 1606 4147 
z
" transform="scale(0.015625)"/>
      </defs>
      <use xlink:href="#DejaVuSans-Oblique-46" transform="translate(0 0.015625)"/>
      <use xlink:href="#DejaVuSans-Oblique-61" transform="translate(57.519531 -16.390625)scale(0.7)"/>
      <use xlink:href="#DejaVuSans-Oblique-6d" transform="translate(100.415039 -16.390625)scale(0.7)"/>
      <use xlink:href="#DejaVuSans-20" transform="translate(171.337891 0.015625)"/>
      <use xlink:href="#DejaVuSans-28" transform="translate(203.125 0.015625)"/>
      <use xlink:href="#DejaVuSans-64" transform="translate(242.138672 0.015625)"/>
      <use xlink:href="#DejaVuSans-42" transform="translate(305.615234 0.015625)"/>
      <use xlink:href="#DejaVuSans-20" transform="translate(374.21875 0.015625)"/>
      <use xlink:href="#DejaVuSans-61" transform="translate(406.005859 0.015625)"/>
      <use xlink:href="#DejaVuSans-62" transform="translate(467.285156 0.015625)"/>
      <use xlink:href="#DejaVuSans-6f" transform="translate(530.761719 0.015625)"/>
      <use xlink:href="#DejaVuSans-76" transform="translate(591.943359 0.015625)"/>
      <use xlink:href="#DejaVuSans-65" transform="translate(651.123047 0.015625)"/>
      <use xlink:href="#DejaVuSans-20" transform="translate(712.646484 0.015625)"/>
      <use xlink:href="#DejaVuSans-Oblique-6b" transform="translate(744.433594 0.015625)"/>
      <use xlink:href="#DejaVuSans-Oblique-54" transform="translate(802.34375 0.015625)"/>
      <use xlink:href="#DejaVuSans-30" transform="translate(863.427734 -16.390625)scale(0.7)"/>
      <use xlink:href="#DejaVuSans-Oblique-42" transform="translate(910.698242 0.015625)"/>
      <use xlink:href="#DejaVuSans-29" transform="translate(979.301758 0.015625)"/>
     </g>
    </g>
   </g>
   <g id="line2d_143">
    <path d="M 36.669688 58.539649 
L 53.624907 69.265638 
L 65.654826 77.537925 
L 74.985957 84.326184 
L 82.610046 90.104326 
L 89.056121 95.144259 
L 94.639965 99.617435 
L 103.971096 107.294807 
L 111.595185 113.730596 
L 118.04126 119.264009 
L 123.625104 124.108789 
L 128.550404 128.409209 
L 132.956235 132.267573 
L 149.911454 147.037185 
L 161.941374 157.181413 
L 171.272504 164.661132 
L 178.896593 170.410789 
L 185.342668 174.951915 
L 190.926513 178.605994 
L 200.257643 184.037645 
L 207.881732 187.75837 
L 214.327807 190.340579 
L 219.911651 192.127935 
L 224.836951 193.341251 
L 229.242782 194.130014 
L 246.198001 194.535648 
L 258.227921 192.484537 
L 267.559051 189.87841 
L 275.18314 187.369261 
L 281.629215 185.196383 
L 287.21306 183.437402 
L 296.54419 181.167981 
L 304.168279 180.371607 
L 310.614354 180.756367 
L 316.198199 182.049591 
L 321.123498 184.021663 
L 325.529329 186.486672 
L 342.484549 201.943068 
L 354.514468 216.835425 
L 363.845599 228.385512 
L 371.469688 236.754995 
" clip-path="url(#p7b936150b6)" style="fill: none; stroke: #1f77b4; stroke-width: 0.5; stroke-linecap: square"/>
   </g>
   <g id="line2d_144">
    <path d="M 36.669688 53.964602 
L 53.624907 64.377913 
L 65.654826 72.347306 
L 74.985957 78.851263 
L 82.610046 84.364563 
L 89.056121 89.157593 
L 94.639965 93.400391 
L 103.971096 100.659625 
L 111.595185 106.725222 
L 118.04126 111.927801 
L 123.625104 116.474797 
L 128.550404 120.505265 
L 132.956235 124.117596 
L 149.911454 137.925362 
L 161.941374 147.409442 
L 171.272504 154.419164 
L 178.896593 159.829398 
L 185.342668 164.125251 
L 190.926513 167.604835 
L 200.257643 172.838833 
L 207.881732 176.50074 
L 214.327807 179.115347 
L 219.911651 180.996747 
L 224.836951 182.346832 
L 229.242782 183.301937 
L 246.198001 184.734649 
L 258.227921 183.746058 
L 267.559051 182.093623 
L 275.18314 180.396286 
L 281.629215 178.893558 
L 287.21306 177.674807 
L 296.54419 176.153814 
L 304.168279 175.756225 
L 310.614354 176.283952 
L 316.198199 177.537276 
L 321.123498 179.343333 
L 325.529329 181.559482 
L 342.484549 195.46477 
L 354.514468 209.472472 
L 363.845599 221.271092 
L 371.469688 230.865741 
" clip-path="url(#p7b936150b6)" style="fill: none; stroke: #ff7f0e; stroke-width: 0.5; stroke-linecap: square"/>
   </g>
   <g id="line2d_145">
    <path d="M 36.669688 49.389556 
L 53.624907 59.490296 
L 65.654826 67.156687 
L 74.985957 73.376341 
L 82.610046 78.624799 
L 89.056121 83.171034 
L 94.639965 87.183346 
L 103.971096 94.024552 
L 111.595185 99.719958 
L 118.04126 104.591701 
L 123.625104 108.840696 
L 128.550404 112.601212 
L 132.956235 115.967618 
L 149.911454 128.813647 
L 161.941374 137.637471 
L 171.272504 144.177305 
L 178.896593 149.248006 
L 185.342668 153.298587 
L 190.926513 156.603567 
L 200.257643 161.640129 
L 207.881732 165.243219 
L 214.327807 167.890007 
L 219.911651 169.865667 
L 224.836951 171.352522 
L 229.242782 172.473751 
L 246.198001 174.933759 
L 258.227921 175.007688 
L 267.559051 174.308836 
L 275.18314 173.423203 
L 281.629215 172.590843 
L 287.21306 171.912104 
L 296.54419 171.139648 
L 304.168279 171.140953 
L 310.614354 171.811429 
L 316.198199 173.024962 
L 321.123498 174.665003 
L 325.529329 176.632291 
L 342.484549 188.98658 
L 354.514468 202.10941 
L 363.845599 214.156782 
L 371.469688 224.976487 
" clip-path="url(#p7b936150b6)" style="fill: none; stroke: #2ca02c; stroke-width: 0.5; stroke-linecap: square"/>
   </g>
   <g id="line2d_146">
    <path d="M 36.669688 44.81451 
L 53.624907 54.60268 
L 65.654826 61.966177 
L 74.985957 67.901419 
L 82.610046 72.885035 
L 89.056121 77.184476 
L 94.639965 80.96641 
L 103.971096 87.38937 
L 111.595185 92.714585 
L 118.04126 97.255602 
L 123.625104 101.206704 
L 128.550404 104.69716 
L 132.956235 107.817641 
L 149.911454 119.701824 
L 161.941374 127.865392 
L 171.272504 133.935447 
L 178.896593 138.666615 
L 185.342668 142.471924 
L 190.926513 145.602299 
L 200.257643 150.441317 
L 207.881732 153.985589 
L 214.327807 156.664776 
L 219.911651 158.734479 
L 224.836951 160.358103 
L 229.242782 161.645674 
L 246.198001 165.132759 
L 258.227921 166.269209 
L 267.559051 166.524158 
L 275.18314 166.450228 
L 281.629215 166.288018 
L 287.21306 166.149509 
L 296.54419 166.125482 
L 304.168279 166.525571 
L 310.614354 167.339014 
L 316.198199 168.512647 
L 321.123498 169.986672 
L 325.529329 171.704992 
L 342.484549 182.508281 
L 354.514468 194.746348 
L 363.845599 207.042362 
L 371.469688 219.087234 
" clip-path="url(#p7b936150b6)" style="fill: none; stroke: #d62728; stroke-width: 0.5; stroke-linecap: square"/>
   </g>
   <g id="line2d_147">
    <path d="M 36.669688 40.239355 
L 53.624907 49.715064 
L 65.654826 56.775558 
L 74.985957 62.426606 
L 82.610046 67.145163 
L 89.056121 71.19781 
L 94.639965 74.749366 
L 103.971096 80.754298 
L 111.595185 85.709212 
L 118.04126 89.919394 
L 123.625104 93.572603 
L 128.550404 96.793216 
L 132.956235 99.667664 
L 149.911454 110.59011 
L 161.941374 118.093421 
L 171.272504 123.693479 
L 178.896593 128.085223 
L 185.342668 131.64526 
L 190.926513 134.601139 
L 200.257643 139.242613 
L 207.881732 142.727959 
L 214.327807 145.439436 
L 219.911651 147.60329 
L 224.836951 149.363684 
L 229.242782 150.817597 
L 246.198001 155.331869 
L 258.227921 157.530731 
L 267.559051 158.739371 
L 275.18314 159.477254 
L 281.629215 159.985193 
L 287.21306 160.386805 
L 296.54419 161.111315 
L 304.168279 161.910299 
L 310.614354 162.8666 
L 316.198199 164.000441 
L 321.123498 165.308342 
L 325.529329 166.777802 
L 342.484549 176.030091 
L 354.514468 187.383395 
L 363.845599 199.928052 
L 371.469688 213.19798 
" clip-path="url(#p7b936150b6)" style="fill: none; stroke: #9467bd; stroke-width: 0.5; stroke-linecap: square"/>
   </g>
   <g id="line2d_148">
    <path d="M 36.669688 35.664308 
L 53.624907 44.827447 
L 65.654826 51.584939 
L 74.985957 56.951684 
L 82.610046 61.405399 
L 89.056121 65.211251 
L 94.639965 68.532321 
L 103.971096 74.119116 
L 111.595185 78.703947 
L 118.04126 82.583294 
L 123.625104 85.938611 
L 128.550404 88.889163 
L 132.956235 91.517686 
L 149.911454 101.478287 
L 161.941374 108.321449 
L 171.272504 113.45162 
L 178.896593 117.503723 
L 185.342668 120.818596 
L 190.926513 123.599871 
L 200.257643 128.043801 
L 207.881732 131.470329 
L 214.327807 134.214205 
L 219.911651 136.47221 
L 224.836951 138.369266 
L 229.242782 139.989411 
L 246.198001 145.530869 
L 258.227921 148.792252 
L 267.559051 150.954693 
L 275.18314 152.50417 
L 281.629215 153.682369 
L 287.21306 154.624102 
L 296.54419 156.097149 
L 304.168279 157.294917 
L 310.614354 158.394076 
L 316.198199 159.488126 
L 321.123498 160.629903 
L 325.529329 161.850611 
L 342.484549 169.551792 
L 354.514468 180.020333 
L 363.845599 192.813632 
L 371.469688 207.308726 
" clip-path="url(#p7b936150b6)" style="fill: none; stroke: #8c564b; stroke-width: 0.5; stroke-linecap: square"/>
   </g>
   <g id="line2d_149">
    <path d="M 36.669688 31.089262 
L 53.624907 39.939831 
L 65.654826 46.39432 
L 74.985957 51.476763 
L 82.610046 55.665635 
L 89.056121 59.224693 
L 94.639965 62.315386 
L 103.971096 67.484043 
L 111.595185 71.698574 
L 118.04126 75.247086 
L 123.625104 78.304619 
L 128.550404 80.985219 
L 132.956235 83.367709 
L 149.911454 92.366572 
L 161.941374 98.549478 
L 171.272504 103.209761 
L 178.896593 106.922332 
L 185.342668 109.992041 
L 190.926513 112.598603 
L 200.257643 116.844989 
L 207.881732 120.212699 
L 214.327807 122.988865 
L 219.911651 125.341022 
L 224.836951 127.374847 
L 229.242782 129.161334 
L 246.198001 135.72987 
L 258.227921 140.053773 
L 267.559051 143.169906 
L 275.18314 145.531196 
L 281.629215 147.379544 
L 287.21306 148.861507 
L 296.54419 151.082982 
L 304.168279 152.679644 
L 310.614354 153.921662 
L 316.198199 154.975811 
L 321.123498 155.951573 
L 325.529329 156.923312 
L 342.484549 163.073603 
L 354.514468 172.657271 
L 363.845599 185.699322 
L 371.469688 201.419364 
" clip-path="url(#p7b936150b6)" style="fill: none; stroke: #e377c2; stroke-width: 0.5; stroke-linecap: square"/>
   </g>
   <g id="line2d_150">
    <path d="M 36.669688 26.514216 
L 53.624907 35.052215 
L 65.654826 41.203701 
L 74.985957 46.001841 
L 82.610046 49.925872 
L 89.056121 53.238135 
L 94.639965 56.098341 
L 103.971096 60.848861 
L 111.595185 64.693309 
L 118.04126 67.910987 
L 123.625104 70.670518 
L 128.550404 73.081166 
L 132.956235 75.217732 
L 149.911454 83.254749 
L 161.941374 88.777507 
L 171.272504 92.967794 
L 178.896593 96.34094 
L 185.342668 99.165377 
L 190.926513 101.597444 
L 200.257643 105.646285 
L 207.881732 108.955178 
L 214.327807 111.763633 
L 219.911651 114.209833 
L 224.836951 116.380428 
L 229.242782 118.333257 
L 246.198001 125.92898 
L 258.227921 131.315295 
L 267.559051 135.385228 
L 275.18314 138.558221 
L 281.629215 141.07672 
L 287.21306 143.098803 
L 296.54419 146.068816 
L 304.168279 148.064263 
L 310.614354 149.449138 
L 316.198199 150.463605 
L 321.123498 151.273242 
L 325.529329 151.996122 
L 342.484549 156.595304 
L 354.514468 165.294209 
L 363.845599 178.584902 
L 371.469688 195.53011 
" clip-path="url(#p7b936150b6)" style="fill: none; stroke: #7f7f7f; stroke-width: 0.5; stroke-linecap: square"/>
   </g>
   <g id="line2d_151">
    <path d="M 36.669688 21.939169 
L 53.624907 30.164598 
L 65.654826 36.013082 
L 74.985957 40.527028 
L 82.610046 44.186108 
L 89.056121 47.251469 
L 94.639965 49.881297 
L 103.971096 54.213789 
L 111.595185 57.687936 
L 118.04126 60.574887 
L 123.625104 63.036525 
L 128.550404 65.177113 
L 132.956235 67.067754 
L 149.911454 74.143034 
L 161.941374 79.005536 
L 171.272504 82.725935 
L 178.896593 85.759549 
L 185.342668 88.338713 
L 190.926513 90.596176 
L 200.257643 94.447473 
L 207.881732 97.697549 
L 214.327807 100.538293 
L 219.911651 103.078754 
L 224.836951 105.386118 
L 229.242782 107.50518 
L 246.198001 116.12798 
L 258.227921 122.576816 
L 267.559051 127.600441 
L 275.18314 131.585138 
L 281.629215 134.773895 
L 287.21306 137.336099 
L 296.54419 141.05465 
L 304.168279 143.44899 
L 310.614354 144.976724 
L 316.198199 145.95129 
L 321.123498 146.594912 
L 325.529329 147.068931 
L 342.484549 150.117114 
L 354.514468 157.931255 
L 363.845599 171.470592 
L 371.469688 189.640857 
" clip-path="url(#p7b936150b6)" style="fill: none; stroke: #bcbd22; stroke-width: 0.5; stroke-linecap: square"/>
   </g>
   <g id="line2d_152">
    <path d="M 36.669688 17.364014 
L 53.624907 25.276982 
L 65.654826 30.822463 
L 74.985957 35.052106 
L 82.610046 38.446236 
L 89.056121 41.26491 
L 94.639965 43.664361 
L 103.971096 47.578607 
L 111.595185 50.682563 
L 118.04126 53.238679 
L 123.625104 55.402424 
L 128.550404 57.273169 
L 132.956235 58.917777 
L 149.911454 65.031211 
L 161.941374 69.233565 
L 171.272504 72.484076 
L 178.896593 75.178157 
L 185.342668 77.51205 
L 190.926513 79.594907 
L 200.257643 83.248769 
L 207.881732 86.439919 
L 214.327807 89.313062 
L 219.911651 91.947565 
L 224.836951 94.391699 
L 229.242782 96.676994 
L 246.198001 106.32709 
L 258.227921 113.838337 
L 267.559051 119.815763 
L 275.18314 124.612163 
L 281.629215 128.471071 
L 287.21306 131.573505 
L 296.54419 136.040375 
L 304.168279 138.833609 
L 310.614354 140.504309 
L 316.198199 141.438975 
L 321.123498 141.916582 
L 325.529329 142.141741 
L 342.484549 143.638815 
L 354.514468 150.568193 
L 363.845599 164.356172 
L 371.469688 183.751603 
" clip-path="url(#p7b936150b6)" style="fill: none; stroke: #17becf; stroke-width: 0.5; stroke-linecap: square"/>
   </g>
   <g id="line2d_153">
    <path d="M 36.669688 248.663531 
L 371.469688 248.663531 
" clip-path="url(#p7b936150b6)" style="fill: none; stroke: #000000; stroke-width: 0.5; stroke-linecap: square"/>
   </g>
   <g id="line2d_154">
    <path d="M 36.669688 226.919531 
L 371.469688 226.919531 
" clip-path="url(#p7b936150b6)" style="fill: none; stroke: #000000; stroke-width: 0.5; stroke-linecap: square"/>
   </g>
   <g id="line2d_155">
    <path d="M 36.669688 205.175531 
L 371.469688 205.175531 
" clip-path="url(#p7b936150b6)" style="fill: none; stroke: #000000; stroke-width: 0.5; stroke-linecap: square"/>
   </g>
   <g id="line2d_156">
    <path d="M 36.669688 183.431531 
L 371.469688 183.431531 
" clip-path="url(#p7b936150b6)" style="fill: none; stroke: #000000; stroke-width: 0.5; stroke-linecap: square"/>
   </g>
   <g id="line2d_157">
    <path d="M 36.669688 161.687531 
L 371.469688 161.687531 
" clip-path="url(#p7b936150b6)" style="fill: none; stroke: #000000; stroke-width: 0.5; stroke-linecap: square"/>
   </g>
   <g id="line2d_158">
    <path d="M 36.669688 139.943531 
L 371.469688 139.943531 
" clip-path="url(#p7b936150b6)" style="fill: none; stroke: #000000; stroke-width: 0.5; stroke-linecap: square"/>
   </g>
   <g id="line2d_159">
    <path d="M 36.669688 118.199531 
L 371.469688 118.199531 
" clip-path="url(#p7b936150b6)" style="fill: none; stroke: #000000; stroke-width: 0.5; stroke-linecap: square"/>
   </g>
   <g id="line2d_160">
    <path d="M 36.669688 96.455531 
L 371.469688 96.455531 
" clip-path="url(#p7b936150b6)" style="fill: none; stroke: #000000; stroke-width: 0.5; stroke-linecap: square"/>
   </g>
   <g id="line2d_161">
    <path d="M 36.669688 74.711531 
L 371.469688 74.711531 
" clip-path="url(#p7b936150b6)" style="fill: none; stroke: #000000; stroke-width: 0.5; stroke-linecap: square"/>
   </g>
   <g id="line2d_162">
    <path d="M 36.669688 52.967531 
L 371.469688 52.967531 
" clip-path="url(#p7b936150b6)" style="fill: none; stroke: #000000; stroke-width: 0.5; stroke-linecap: square"/>
   </g>
   <g id="line2d_163">
    <path d="M 36.669688 31.223531 
L 371.469688 31.223531 
" clip-path="url(#p7b936150b6)" style="fill: none; stroke: #000000; stroke-width: 0.5; stroke-linecap: square"/>
   </g>
   <g id="line2d_164">
    <path d="M 36.669688 9.479531 
L 371.469688 9.479531 
" clip-path="url(#p7b936150b6)" style="fill: none; stroke: #000000; stroke-width: 0.5; stroke-linecap: square"/>
   </g>
   <g id="line2d_165">
    <path clip-path="url(#p7b936150b6)" style="fill: none; stroke: #000000; stroke-width: 0.5; stroke-linecap: square"/>
   </g>
   <g id="line2d_166">
    <path clip-path="url(#p7b936150b6)" style="fill: none; stroke: #000000; stroke-width: 0.1; stroke-linecap: square"/>
   </g>
   <g id="line2d_167">
    <path clip-path="url(#p7b936150b6)" style="fill: none; stroke: #000000; stroke-width: 0.1; stroke-linecap: square"/>
   </g>
   <g id="line2d_168">
    <path d="M 36.669688 254.099531 
L 371.469688 254.099531 
" clip-path="url(#p7b936150b6)" style="fill: none; stroke: #000000; stroke-width: 0.1; stroke-linecap: square"/>
   </g>
   <g id="line2d_169">
    <path d="M 36.669688 243.227531 
L 371.469688 243.227531 
" clip-path="url(#p7b936150b6)" style="fill: none; stroke: #000000; stroke-width: 0.1; stroke-linecap: square"/>
   </g>
   <g id="line2d_170">
    <path d="M 36.669688 237.791531 
L 371.469688 237.791531 
" clip-path="url(#p7b936150b6)" style="fill: none; stroke: #000000; stroke-width: 0.1; stroke-linecap: square"/>
   </g>
   <g id="line2d_171">
    <path d="M 36.669688 232.355531 
L 371.469688 232.355531 
" clip-path="url(#p7b936150b6)" style="fill: none; stroke: #000000; stroke-width: 0.1; stroke-linecap: square"/>
   </g>
   <g id="line2d_172">
    <path d="M 36.669688 221.483531 
L 371.469688 221.483531 
" clip-path="url(#p7b936150b6)" style="fill: none; stroke: #000000; stroke-width: 0.1; stroke-linecap: square"/>
   </g>
   <g id="line2d_173">
    <path d="M 36.669688 216.047531 
L 371.469688 216.047531 
" clip-path="url(#p7b936150b6)" style="fill: none; stroke: #000000; stroke-width: 0.1; stroke-linecap: square"/>
   </g>
   <g id="line2d_174">
    <path d="M 36.669688 210.611531 
L 371.469688 210.611531 
" clip-path="url(#p7b936150b6)" style="fill: none; stroke: #000000; stroke-width: 0.1; stroke-linecap: square"/>
   </g>
   <g id="line2d_175">
    <path d="M 36.669688 199.739531 
L 371.469688 199.739531 
" clip-path="url(#p7b936150b6)" style="fill: none; stroke: #000000; stroke-width: 0.1; stroke-linecap: square"/>
   </g>
   <g id="line2d_176">
    <path d="M 36.669688 194.303531 
L 371.469688 194.303531 
" clip-path="url(#p7b936150b6)" style="fill: none; stroke: #000000; stroke-width: 0.1; stroke-linecap: square"/>
   </g>
   <g id="line2d_177">
    <path d="M 36.669688 188.867531 
L 371.469688 188.867531 
" clip-path="url(#p7b936150b6)" style="fill: none; stroke: #000000; stroke-width: 0.1; stroke-linecap: square"/>
   </g>
   <g id="line2d_178">
    <path d="M 36.669688 177.995531 
L 371.469688 177.995531 
" clip-path="url(#p7b936150b6)" style="fill: none; stroke: #000000; stroke-width: 0.1; stroke-linecap: square"/>
   </g>
   <g id="line2d_179">
    <path d="M 36.669688 172.559531 
L 371.469688 172.559531 
" clip-path="url(#p7b936150b6)" style="fill: none; stroke: #000000; stroke-width: 0.1; stroke-linecap: square"/>
   </g>
   <g id="line2d_180">
    <path d="M 36.669688 167.123531 
L 371.469688 167.123531 
" clip-path="url(#p7b936150b6)" style="fill: none; stroke: #000000; stroke-width: 0.1; stroke-linecap: square"/>
   </g>
   <g id="line2d_181">
    <path d="M 36.669688 156.251531 
L 371.469688 156.251531 
" clip-path="url(#p7b936150b6)" style="fill: none; stroke: #000000; stroke-width: 0.1; stroke-linecap: square"/>
   </g>
   <g id="line2d_182">
    <path d="M 36.669688 150.815531 
L 371.469688 150.815531 
" clip-path="url(#p7b936150b6)" style="fill: none; stroke: #000000; stroke-width: 0.1; stroke-linecap: square"/>
   </g>
   <g id="line2d_183">
    <path d="M 36.669688 145.379531 
L 371.469688 145.379531 
" clip-path="url(#p7b936150b6)" style="fill: none; stroke: #000000; stroke-width: 0.1; stroke-linecap: square"/>
   </g>
   <g id="line2d_184">
    <path d="M 36.669688 134.507531 
L 371.469688 134.507531 
" clip-path="url(#p7b936150b6)" style="fill: none; stroke: #000000; stroke-width: 0.1; stroke-linecap: square"/>
   </g>
   <g id="line2d_185">
    <path d="M 36.669688 129.071531 
L 371.469688 129.071531 
" clip-path="url(#p7b936150b6)" style="fill: none; stroke: #000000; stroke-width: 0.1; stroke-linecap: square"/>
   </g>
   <g id="line2d_186">
    <path d="M 36.669688 123.635531 
L 371.469688 123.635531 
" clip-path="url(#p7b936150b6)" style="fill: none; stroke: #000000; stroke-width: 0.1; stroke-linecap: square"/>
   </g>
   <g id="line2d_187">
    <path d="M 36.669688 112.763531 
L 371.469688 112.763531 
" clip-path="url(#p7b936150b6)" style="fill: none; stroke: #000000; stroke-width: 0.1; stroke-linecap: square"/>
   </g>
   <g id="line2d_188">
    <path d="M 36.669688 107.327531 
L 371.469688 107.327531 
" clip-path="url(#p7b936150b6)" style="fill: none; stroke: #000000; stroke-width: 0.1; stroke-linecap: square"/>
   </g>
   <g id="line2d_189">
    <path d="M 36.669688 101.891531 
L 371.469688 101.891531 
" clip-path="url(#p7b936150b6)" style="fill: none; stroke: #000000; stroke-width: 0.1; stroke-linecap: square"/>
   </g>
   <g id="line2d_190">
    <path d="M 36.669688 91.019531 
L 371.469688 91.019531 
" clip-path="url(#p7b936150b6)" style="fill: none; stroke: #000000; stroke-width: 0.1; stroke-linecap: square"/>
   </g>
   <g id="line2d_191">
    <path d="M 36.669688 85.583531 
L 371.469688 85.583531 
" clip-path="url(#p7b936150b6)" style="fill: none; stroke: #000000; stroke-width: 0.1; stroke-linecap: square"/>
   </g>
   <g id="line2d_192">
    <path d="M 36.669688 80.147531 
L 371.469688 80.147531 
" clip-path="url(#p7b936150b6)" style="fill: none; stroke: #000000; stroke-width: 0.1; stroke-linecap: square"/>
   </g>
   <g id="line2d_193">
    <path d="M 36.669688 69.275531 
L 371.469688 69.275531 
" clip-path="url(#p7b936150b6)" style="fill: none; stroke: #000000; stroke-width: 0.1; stroke-linecap: square"/>
   </g>
   <g id="line2d_194">
    <path d="M 36.669688 63.839531 
L 371.469688 63.839531 
" clip-path="url(#p7b936150b6)" style="fill: none; stroke: #000000; stroke-width: 0.1; stroke-linecap: square"/>
   </g>
   <g id="line2d_195">
    <path d="M 36.669688 58.403531 
L 371.469688 58.403531 
" clip-path="url(#p7b936150b6)" style="fill: none; stroke: #000000; stroke-width: 0.1; stroke-linecap: square"/>
   </g>
   <g id="line2d_196">
    <path d="M 36.669688 47.531531 
L 371.469688 47.531531 
" clip-path="url(#p7b936150b6)" style="fill: none; stroke: #000000; stroke-width: 0.1; stroke-linecap: square"/>
   </g>
   <g id="line2d_197">
    <path d="M 36.669688 42.095531 
L 371.469688 42.095531 
" clip-path="url(#p7b936150b6)" style="fill: none; stroke: #000000; stroke-width: 0.1; stroke-linecap: square"/>
   </g>
   <g id="line2d_198">
    <path d="M 36.669688 36.659531 
L 371.469688 36.659531 
" clip-path="url(#p7b936150b6)" style="fill: none; stroke: #000000; stroke-width: 0.1; stroke-linecap: square"/>
   </g>
   <g id="line2d_199">
    <path d="M 36.669688 25.787531 
L 371.469688 25.787531 
" clip-path="url(#p7b936150b6)" style="fill: none; stroke: #000000; stroke-width: 0.1; stroke-linecap: square"/>
   </g>
   <g id="line2d_200">
    <path d="M 36.669688 20.351531 
L 371.469688 20.351531 
" clip-path="url(#p7b936150b6)" style="fill: none; stroke: #000000; stroke-width: 0.1; stroke-linecap: square"/>
   </g>
   <g id="line2d_201">
    <path d="M 36.669688 14.915531 
L 371.469688 14.915531 
" clip-path="url(#p7b936150b6)" style="fill: none; stroke: #000000; stroke-width: 0.1; stroke-linecap: square"/>
   </g>
   <g id="line2d_202">
    <path d="M 36.669688 4.043531 
L 371.469688 4.043531 
" clip-path="url(#p7b936150b6)" style="fill: none; stroke: #000000; stroke-width: 0.1; stroke-linecap: square"/>
   </g>
   <g id="line2d_203">
    <path clip-path="url(#p7b936150b6)" style="fill: none; stroke: #000000; stroke-width: 0.1; stroke-linecap: square"/>
   </g>
   <g id="line2d_204">
    <path clip-path="url(#p7b936150b6)" style="fill: none; stroke: #000000; stroke-width: 0.1; stroke-linecap: square"/>
   </g>
   <g id="line2d_205">
    <path clip-path="url(#p7b936150b6)" style="fill: none; stroke: #000000; stroke-width: 0.1; stroke-linecap: square"/>
   </g>
   <g id="line2d_206">
    <path clip-path="url(#p7b936150b6)" style="fill: none; stroke: #000000; stroke-width: 0.1; stroke-linecap: square"/>
   </g>
   <g id="line2d_207">
    <path clip-path="url(#p7b936150b6)" style="fill: none; stroke: #000000; stroke-width: 0.1; stroke-linecap: square"/>
   </g>
   <g id="patch_3">
    <path d="M 36.669688 226.919531 
L 36.669688 9.479531 
" style="fill: none; stroke: #000000; stroke-width: 0.8; stroke-linejoin: miter; stroke-linecap: square"/>
   </g>
   <g id="patch_4">
    <path d="M 371.469688 226.919531 
L 371.469688 9.479531 
" style="fill: none; stroke: #000000; stroke-width: 0.8; stroke-linejoin: miter; stroke-linecap: square"/>
   </g>
   <g id="patch_5">
    <path d="M 36.669688 226.919531 
L 371.469688 226.919531 
" style="fill: none; stroke: #000000; stroke-width: 0.8; stroke-linejoin: miter; stroke-linecap: square"/>
   </g>
   <g id="patch_6">
    <path d="M 36.669688 9.479531 
L 371.469688 9.479531 
" style="fill: none; stroke: #000000; stroke-width: 0.8; stroke-linejoin: miter; stroke-linecap: square"/>
   </g>
   <g id="legend_1">
    <g id="patch_7">
     <path d="M 319.569688 111.155156 
L 367.269688 111.155156 
Q 368.469688 111.155156 368.469688 109.955156 
L 368.469688 13.679531 
Q 368.469688 12.479531 367.269688 12.479531 
L 319.569688 12.479531 
Q 318.369688 12.479531 318.369688 13.679531 
L 318.369688 109.955156 
Q 318.369688 111.155156 319.569688 111.155156 
z
" style="fill: #ffffff; stroke: #cccccc; stroke-linejoin: miter"/>
    </g>
    <g id="text_32">
     <!-- $F_{am}$ 1 MHz (dB) -->
     <g transform="translate(320.769688 19.438594)scale(0.06 -0.06)">
      <use xlink:href="#DejaVuSans-Oblique-46" transform="translate(0 0.015625)"/>
      <use xlink:href="#DejaVuSans-Oblique-61" transform="translate(57.519531 -16.390625)scale(0.7)"/>
      <use xlink:href="#DejaVuSans-Oblique-6d" transform="translate(100.415039 -16.390625)scale(0.7)"/>
      <use xlink:href="#DejaVuSans-20" transform="translate(171.337891 0.015625)"/>
      <use xlink:href="#DejaVuSans-31" transform="translate(203.125 0.015625)"/>
      <use xlink:href="#DejaVuSans-20" transform="translate(266.748047 0.015625)"/>
      <use xlink:href="#DejaVuSans-4d" transform="translate(298.535156 0.015625)"/>
      <use xlink:href="#DejaVuSans-48" transform="translate(384.814453 0.015625)"/>
      <use xlink:href="#DejaVuSans-7a" transform="translate(460.009766 0.015625)"/>
      <use xlink:href="#DejaVuSans-20" transform="translate(512.5 0.015625)"/>
      <use xlink:href="#DejaVuSans-28" transform="translate(544.287109 0.015625)"/>
      <use xlink:href="#DejaVuSans-64" transform="translate(583.300781 0.015625)"/>
      <use xlink:href="#DejaVuSans-42" transform="translate(646.777344 0.015625)"/>
      <use xlink:href="#DejaVuSans-29" transform="translate(715.380859 0.015625)"/>
     </g>
    </g>
    <g id="line2d_208">
     <path d="M 329.293438 26.145469 
L 335.293438 26.145469 
L 341.293438 26.145469 
" style="fill: none; stroke: #1f77b4; stroke-width: 0.5; stroke-linecap: square"/>
    </g>
    <g id="text_33">
     <!-- 10 -->
     <g transform="translate(346.093438 28.245469)scale(0.06 -0.06)">
      <use xlink:href="#DejaVuSans-31"/>
      <use xlink:href="#DejaVuSans-30" x="63.623047"/>
     </g>
    </g>
    <g id="line2d_209">
     <path d="M 329.293438 34.952344 
L 335.293438 34.952344 
L 341.293438 34.952344 
" style="fill: none; stroke: #ff7f0e; stroke-width: 0.5; stroke-linecap: square"/>
    </g>
    <g id="text_34">
     <!-- 20 -->
     <g transform="translate(346.093438 37.052344)scale(0.06 -0.06)">
      <use xlink:href="#DejaVuSans-32"/>
      <use xlink:href="#DejaVuSans-30" x="63.623047"/>
     </g>
    </g>
    <g id="line2d_210">
     <path d="M 329.293438 43.759219 
L 335.293438 43.759219 
L 341.293438 43.759219 
" style="fill: none; stroke: #2ca02c; stroke-width: 0.5; stroke-linecap: square"/>
    </g>
    <g id="text_35">
     <!-- 30 -->
     <g transform="translate(346.093438 45.859219)scale(0.06 -0.06)">
      <use xlink:href="#DejaVuSans-33"/>
      <use xlink:href="#DejaVuSans-30" x="63.623047"/>
     </g>
    </g>
    <g id="line2d_211">
     <path d="M 329.293438 52.566094 
L 335.293438 52.566094 
L 341.293438 52.566094 
" style="fill: none; stroke: #d62728; stroke-width: 0.5; stroke-linecap: square"/>
    </g>
    <g id="text_36">
     <!-- 40 -->
     <g transform="translate(346.093438 54.666094)scale(0.06 -0.06)">
      <use xlink:href="#DejaVuSans-34"/>
      <use xlink:href="#DejaVuSans-30" x="63.623047"/>
     </g>
    </g>
    <g id="line2d_212">
     <path d="M 329.293438 61.372969 
L 335.293438 61.372969 
L 341.293438 61.372969 
" style="fill: none; stroke: #9467bd; stroke-width: 0.5; stroke-linecap: square"/>
    </g>
    <g id="text_37">
     <!-- 50 -->
     <g transform="translate(346.093438 63.472969)scale(0.06 -0.06)">
      <use xlink:href="#DejaVuSans-35"/>
      <use xlink:href="#DejaVuSans-30" x="63.623047"/>
     </g>
    </g>
    <g id="line2d_213">
     <path d="M 329.293438 70.179844 
L 335.293438 70.179844 
L 341.293438 70.179844 
" style="fill: none; stroke: #8c564b; stroke-width: 0.5; stroke-linecap: square"/>
    </g>
    <g id="text_38">
     <!-- 60 -->
     <g transform="translate(346.093438 72.279844)scale(0.06 -0.06)">
      <use xlink:href="#DejaVuSans-36"/>
      <use xlink:href="#DejaVuSans-30" x="63.623047"/>
     </g>
    </g>
    <g id="line2d_214">
     <path d="M 329.293438 78.986719 
L 335.293438 78.986719 
L 341.293438 78.986719 
" style="fill: none; stroke: #e377c2; stroke-width: 0.5; stroke-linecap: square"/>
    </g>
    <g id="text_39">
     <!-- 70 -->
     <g transform="translate(346.093438 81.086719)scale(0.06 -0.06)">
      <use xlink:href="#DejaVuSans-37"/>
      <use xlink:href="#DejaVuSans-30" x="63.623047"/>
     </g>
    </g>
    <g id="line2d_215">
     <path d="M 329.293438 87.793594 
L 335.293438 87.793594 
L 341.293438 87.793594 
" style="fill: none; stroke: #7f7f7f; stroke-width: 0.5; stroke-linecap: square"/>
    </g>
    <g id="text_40">
     <!-- 80 -->
     <g transform="translate(346.093438 89.893594)scale(0.06 -0.06)">
      <use xlink:href="#DejaVuSans-38"/>
      <use xlink:href="#DejaVuSans-30" x="63.623047"/>
     </g>
    </g>
    <g id="line2d_216">
     <path d="M 329.293438 96.600469 
L 335.293438 96.600469 
L 341.293438 96.600469 
" style="fill: none; stroke: #bcbd22; stroke-width: 0.5; stroke-linecap: square"/>
    </g>
    <g id="text_41">
     <!-- 90 -->
     <g transform="translate(346.093438 98.700469)scale(0.06 -0.06)">
      <defs>
       <path id="DejaVuSans-39" d="M 703 97 
L 703 672 
Q 941 559 1184 500 
Q 1428 441 1663 441 
Q 2288 441 2617 861 
Q 2947 1281 2994 2138 
Q 2813 1869 2534 1725 
Q 2256 1581 1919 1581 
Q 1219 1581 811 2004 
Q 403 2428 403 3163 
Q 403 3881 828 4315 
Q 1253 4750 1959 4750 
Q 2769 4750 3195 4129 
Q 3622 3509 3622 2328 
Q 3622 1225 3098 567 
Q 2575 -91 1691 -91 
Q 1453 -91 1209 -44 
Q 966 3 703 97 
z
M 1959 2075 
Q 2384 2075 2632 2365 
Q 2881 2656 2881 3163 
Q 2881 3666 2632 3958 
Q 2384 4250 1959 4250 
Q 1534 4250 1286 3958 
Q 1038 3666 1038 3163 
Q 1038 2656 1286 2365 
Q 1534 2075 1959 2075 
z
" transform="scale(0.015625)"/>
      </defs>
      <use xlink:href="#DejaVuSans-39"/>
      <use xlink:href="#DejaVuSans-30" x="63.623047"/>
     </g>
    </g>
    <g id="line2d_217">
     <path d="M 329.293438 105.407344 
L 335.293438 105.407344 
L 341.293438 105.407344 
" style="fill: none; stroke: #17becf; stroke-width: 0.5; stroke-linecap: square"/>
    </g>
    <g id="text_42">
     <!-- 100 -->
     <g transform="translate(346.093438 107.507344)scale(0.06 -0.06)">
      <use xlink:href="#DejaVuSans-31"/>
      <use xlink:href="#DejaVuSans-30" x="63.623047"/>
      <use xlink:href="#DejaVuSans-30" x="127.246094"/>
     </g>
    </g>
   </g>
  </g>
 </g>
 <defs>
  <clipPath id="p7b936150b6">
   <rect x="36.669688" y="9.479531" width="334.8" height="217.44"/>
  </clipPath>
 </defs>
</svg>
