<?xml version="1.0" encoding="utf-8" standalone="no"?>
<!DOCTYPE svg PUBLIC "-//W3C//DTD SVG 1.1//EN"
  "http://www.w3.org/Graphics/SVG/1.1/DTD/svg11.dtd">
<svg height="288pt" version="1.1" viewBox="0 0 432 288" width="432pt" xmlns="http://www.w3.org/2000/svg" xmlns:xlink="http://www.w3.org/1999/xlink">
 <metadata>
  <rdf:RDF xmlns:cc="http://creativecommons.org/ns#" xmlns:dc="http://purl.org/dc/elements/1.1/" xmlns:rdf="http://www.w3.org/1999/02/22-rdf-syntax-ns#">
   <cc:Work>
    <dc:type rdf:resource="http://purl.org/dc/dcmitype/StillImage"/>
    <dc:date>2021-11-29T13:35:38.013206</dc:date>
    <dc:format>image/svg+xml</dc:format>
    <dc:creator>
     <cc:Agent>
      <dc:title>Matplotlib v3.4.3, https://matplotlib.org/</dc:title>
     </cc:Agent>
    </dc:creator>
   </cc:Work>
  </rdf:RDF>
 </metadata>
 <defs>
  <style type="text/css">*{stroke-linecap:butt;stroke-linejoin:round;}</style>
 </defs>
 <g id="figure_1">
  <g id="patch_1">
   <path d="M 0 288 
L 432 288 
L 432 0 
L 0 0 
z
" style="fill:#ffffff;"/>
  </g>
  <g id="axes_1">
   <g id="patch_2">
    <path d="M 54 252 
L 388.8 252 
L 388.8 34.56 
L 54 34.56 
z
" style="fill:#ffffff;"/>
   </g>
   <g id="matplotlib.axis_1">
    <g id="xtick_1">
     <g id="line2d_1">
      <path clip-path="url(#pb2ca0d2c8a)" d="M 54 252 
L 54 34.56 
" style="fill:none;stroke:#b0b0b0;stroke-linecap:square;stroke-width:0.5;"/>
     </g>
     <g id="line2d_2">
      <defs>
       <path d="M 0 0 
L 0 3.5 
" id="m375195c077" style="stroke:#000000;stroke-width:0.8;"/>
      </defs>
      <g>
       <use style="stroke:#000000;stroke-width:0.8;" x="54" xlink:href="#m375195c077" y="252"/>
      </g>
     </g>
     <g id="text_1">
      <!-- 0.01 -->
      <g transform="translate(47.320312 263.559062)scale(0.06 -0.06)">
       <defs>
        <path d="M 2034 4250 
Q 1547 4250 1301 3770 
Q 1056 3291 1056 2328 
Q 1056 1369 1301 889 
Q 1547 409 2034 409 
Q 2525 409 2770 889 
Q 3016 1369 3016 2328 
Q 3016 3291 2770 3770 
Q 2525 4250 2034 4250 
z
M 2034 4750 
Q 2819 4750 3233 4129 
Q 3647 3509 3647 2328 
Q 3647 1150 3233 529 
Q 2819 -91 2034 -91 
Q 1250 -91 836 529 
Q 422 1150 422 2328 
Q 422 3509 836 4129 
Q 1250 4750 2034 4750 
z
" id="DejaVuSans-30" transform="scale(0.015625)"/>
        <path d="M 684 794 
L 1344 794 
L 1344 0 
L 684 0 
L 684 794 
z
" id="DejaVuSans-2e" transform="scale(0.015625)"/>
        <path d="M 794 531 
L 1825 531 
L 1825 4091 
L 703 3866 
L 703 4441 
L 1819 4666 
L 2450 4666 
L 2450 531 
L 3481 531 
L 3481 0 
L 794 0 
L 794 531 
z
" id="DejaVuSans-31" transform="scale(0.015625)"/>
       </defs>
       <use xlink:href="#DejaVuSans-30"/>
       <use x="63.623047" xlink:href="#DejaVuSans-2e"/>
       <use x="95.410156" xlink:href="#DejaVuSans-30"/>
       <use x="159.033203" xlink:href="#DejaVuSans-31"/>
      </g>
     </g>
    </g>
    <g id="xtick_2">
     <g id="line2d_3">
      <path clip-path="url(#pb2ca0d2c8a)" d="M 84.531332 252 
L 84.531332 34.56 
" style="fill:none;stroke:#b0b0b0;stroke-linecap:square;stroke-width:0.5;"/>
     </g>
     <g id="line2d_4">
      <g>
       <use style="stroke:#000000;stroke-width:0.8;" x="84.531332" xlink:href="#m375195c077" y="252"/>
      </g>
     </g>
     <g id="text_2">
      <!-- 0.02 -->
      <g transform="translate(77.851644 263.559062)scale(0.06 -0.06)">
       <defs>
        <path d="M 1228 531 
L 3431 531 
L 3431 0 
L 469 0 
L 469 531 
Q 828 903 1448 1529 
Q 2069 2156 2228 2338 
Q 2531 2678 2651 2914 
Q 2772 3150 2772 3378 
Q 2772 3750 2511 3984 
Q 2250 4219 1831 4219 
Q 1534 4219 1204 4116 
Q 875 4013 500 3803 
L 500 4441 
Q 881 4594 1212 4672 
Q 1544 4750 1819 4750 
Q 2544 4750 2975 4387 
Q 3406 4025 3406 3419 
Q 3406 3131 3298 2873 
Q 3191 2616 2906 2266 
Q 2828 2175 2409 1742 
Q 1991 1309 1228 531 
z
" id="DejaVuSans-32" transform="scale(0.015625)"/>
       </defs>
       <use xlink:href="#DejaVuSans-30"/>
       <use x="63.623047" xlink:href="#DejaVuSans-2e"/>
       <use x="95.410156" xlink:href="#DejaVuSans-30"/>
       <use x="159.033203" xlink:href="#DejaVuSans-32"/>
      </g>
     </g>
    </g>
    <g id="xtick_3">
     <g id="line2d_5">
      <path clip-path="url(#pb2ca0d2c8a)" d="M 102.391016 252 
L 102.391016 34.56 
" style="fill:none;stroke:#b0b0b0;stroke-linecap:square;stroke-width:0.5;"/>
     </g>
     <g id="line2d_6">
      <g>
       <use style="stroke:#000000;stroke-width:0.8;" x="102.391016" xlink:href="#m375195c077" y="252"/>
      </g>
     </g>
     <g id="text_3">
      <!-- 0.03 -->
      <g transform="translate(95.711329 263.559062)scale(0.06 -0.06)">
       <defs>
        <path d="M 2597 2516 
Q 3050 2419 3304 2112 
Q 3559 1806 3559 1356 
Q 3559 666 3084 287 
Q 2609 -91 1734 -91 
Q 1441 -91 1130 -33 
Q 819 25 488 141 
L 488 750 
Q 750 597 1062 519 
Q 1375 441 1716 441 
Q 2309 441 2620 675 
Q 2931 909 2931 1356 
Q 2931 1769 2642 2001 
Q 2353 2234 1838 2234 
L 1294 2234 
L 1294 2753 
L 1863 2753 
Q 2328 2753 2575 2939 
Q 2822 3125 2822 3475 
Q 2822 3834 2567 4026 
Q 2313 4219 1838 4219 
Q 1578 4219 1281 4162 
Q 984 4106 628 3988 
L 628 4550 
Q 988 4650 1302 4700 
Q 1616 4750 1894 4750 
Q 2613 4750 3031 4423 
Q 3450 4097 3450 3541 
Q 3450 3153 3228 2886 
Q 3006 2619 2597 2516 
z
" id="DejaVuSans-33" transform="scale(0.015625)"/>
       </defs>
       <use xlink:href="#DejaVuSans-30"/>
       <use x="63.623047" xlink:href="#DejaVuSans-2e"/>
       <use x="95.410156" xlink:href="#DejaVuSans-30"/>
       <use x="159.033203" xlink:href="#DejaVuSans-33"/>
      </g>
     </g>
    </g>
    <g id="xtick_4">
     <g id="line2d_7">
      <path clip-path="url(#pb2ca0d2c8a)" d="M 124.891557 252 
L 124.891557 34.56 
" style="fill:none;stroke:#b0b0b0;stroke-linecap:square;stroke-width:0.5;"/>
     </g>
     <g id="line2d_8">
      <g>
       <use style="stroke:#000000;stroke-width:0.8;" x="124.891557" xlink:href="#m375195c077" y="252"/>
      </g>
     </g>
     <g id="text_4">
      <!-- 0.05 -->
      <g transform="translate(118.21187 263.559062)scale(0.06 -0.06)">
       <defs>
        <path d="M 691 4666 
L 3169 4666 
L 3169 4134 
L 1269 4134 
L 1269 2991 
Q 1406 3038 1543 3061 
Q 1681 3084 1819 3084 
Q 2600 3084 3056 2656 
Q 3513 2228 3513 1497 
Q 3513 744 3044 326 
Q 2575 -91 1722 -91 
Q 1428 -91 1123 -41 
Q 819 9 494 109 
L 494 744 
Q 775 591 1075 516 
Q 1375 441 1709 441 
Q 2250 441 2565 725 
Q 2881 1009 2881 1497 
Q 2881 1984 2565 2268 
Q 2250 2553 1709 2553 
Q 1456 2553 1204 2497 
Q 953 2441 691 2322 
L 691 4666 
z
" id="DejaVuSans-35" transform="scale(0.015625)"/>
       </defs>
       <use xlink:href="#DejaVuSans-30"/>
       <use x="63.623047" xlink:href="#DejaVuSans-2e"/>
       <use x="95.410156" xlink:href="#DejaVuSans-30"/>
       <use x="159.033203" xlink:href="#DejaVuSans-35"/>
      </g>
     </g>
    </g>
    <g id="xtick_5">
     <g id="line2d_9">
      <path clip-path="url(#pb2ca0d2c8a)" d="M 139.712285 252 
L 139.712285 34.56 
" style="fill:none;stroke:#b0b0b0;stroke-linecap:square;stroke-width:0.5;"/>
     </g>
     <g id="line2d_10">
      <g>
       <use style="stroke:#000000;stroke-width:0.8;" x="139.712285" xlink:href="#m375195c077" y="252"/>
      </g>
     </g>
     <g id="text_5">
      <!-- 0.07 -->
      <g transform="translate(133.032598 263.559062)scale(0.06 -0.06)">
       <defs>
        <path d="M 525 4666 
L 3525 4666 
L 3525 4397 
L 1831 0 
L 1172 0 
L 2766 4134 
L 525 4134 
L 525 4666 
z
" id="DejaVuSans-37" transform="scale(0.015625)"/>
       </defs>
       <use xlink:href="#DejaVuSans-30"/>
       <use x="63.623047" xlink:href="#DejaVuSans-2e"/>
       <use x="95.410156" xlink:href="#DejaVuSans-30"/>
       <use x="159.033203" xlink:href="#DejaVuSans-37"/>
      </g>
     </g>
    </g>
    <g id="xtick_6">
     <g id="line2d_11">
      <path clip-path="url(#pb2ca0d2c8a)" d="M 155.422889 252 
L 155.422889 34.56 
" style="fill:none;stroke:#b0b0b0;stroke-linecap:square;stroke-width:0.5;"/>
     </g>
     <g id="line2d_12">
      <g>
       <use style="stroke:#000000;stroke-width:0.8;" x="155.422889" xlink:href="#m375195c077" y="252"/>
      </g>
     </g>
     <g id="text_6">
      <!-- 0.1 -->
      <g transform="translate(150.651952 263.559062)scale(0.06 -0.06)">
       <use xlink:href="#DejaVuSans-30"/>
       <use x="63.623047" xlink:href="#DejaVuSans-2e"/>
       <use x="95.410156" xlink:href="#DejaVuSans-31"/>
      </g>
     </g>
    </g>
    <g id="xtick_7">
     <g id="line2d_13">
      <path clip-path="url(#pb2ca0d2c8a)" d="M 185.954221 252 
L 185.954221 34.56 
" style="fill:none;stroke:#b0b0b0;stroke-linecap:square;stroke-width:0.5;"/>
     </g>
     <g id="line2d_14">
      <g>
       <use style="stroke:#000000;stroke-width:0.8;" x="185.954221" xlink:href="#m375195c077" y="252"/>
      </g>
     </g>
     <g id="text_7">
      <!-- 0.2 -->
      <g transform="translate(181.183284 263.559062)scale(0.06 -0.06)">
       <use xlink:href="#DejaVuSans-30"/>
       <use x="63.623047" xlink:href="#DejaVuSans-2e"/>
       <use x="95.410156" xlink:href="#DejaVuSans-32"/>
      </g>
     </g>
    </g>
    <g id="xtick_8">
     <g id="line2d_15">
      <path clip-path="url(#pb2ca0d2c8a)" d="M 203.813906 252 
L 203.813906 34.56 
" style="fill:none;stroke:#b0b0b0;stroke-linecap:square;stroke-width:0.5;"/>
     </g>
     <g id="line2d_16">
      <g>
       <use style="stroke:#000000;stroke-width:0.8;" x="203.813906" xlink:href="#m375195c077" y="252"/>
      </g>
     </g>
     <g id="text_8">
      <!-- 0.3 -->
      <g transform="translate(199.042968 263.559062)scale(0.06 -0.06)">
       <use xlink:href="#DejaVuSans-30"/>
       <use x="63.623047" xlink:href="#DejaVuSans-2e"/>
       <use x="95.410156" xlink:href="#DejaVuSans-33"/>
      </g>
     </g>
    </g>
    <g id="xtick_9">
     <g id="line2d_17">
      <path clip-path="url(#pb2ca0d2c8a)" d="M 226.314447 252 
L 226.314447 34.56 
" style="fill:none;stroke:#b0b0b0;stroke-linecap:square;stroke-width:0.5;"/>
     </g>
     <g id="line2d_18">
      <g>
       <use style="stroke:#000000;stroke-width:0.8;" x="226.314447" xlink:href="#m375195c077" y="252"/>
      </g>
     </g>
     <g id="text_9">
      <!-- 0.5 -->
      <g transform="translate(221.543509 263.559062)scale(0.06 -0.06)">
       <use xlink:href="#DejaVuSans-30"/>
       <use x="63.623047" xlink:href="#DejaVuSans-2e"/>
       <use x="95.410156" xlink:href="#DejaVuSans-35"/>
      </g>
     </g>
    </g>
    <g id="xtick_10">
     <g id="line2d_19">
      <path clip-path="url(#pb2ca0d2c8a)" d="M 241.135174 252 
L 241.135174 34.56 
" style="fill:none;stroke:#b0b0b0;stroke-linecap:square;stroke-width:0.5;"/>
     </g>
     <g id="line2d_20">
      <g>
       <use style="stroke:#000000;stroke-width:0.8;" x="241.135174" xlink:href="#m375195c077" y="252"/>
      </g>
     </g>
     <g id="text_10">
      <!-- 0.7 -->
      <g transform="translate(236.364237 263.559062)scale(0.06 -0.06)">
       <use xlink:href="#DejaVuSans-30"/>
       <use x="63.623047" xlink:href="#DejaVuSans-2e"/>
       <use x="95.410156" xlink:href="#DejaVuSans-37"/>
      </g>
     </g>
    </g>
    <g id="xtick_11">
     <g id="line2d_21">
      <path clip-path="url(#pb2ca0d2c8a)" d="M 256.845779 252 
L 256.845779 34.56 
" style="fill:none;stroke:#b0b0b0;stroke-linecap:square;stroke-width:0.5;"/>
     </g>
     <g id="line2d_22">
      <g>
       <use style="stroke:#000000;stroke-width:0.8;" x="256.845779" xlink:href="#m375195c077" y="252"/>
      </g>
     </g>
     <g id="text_11">
      <!-- 1 -->
      <g transform="translate(254.937029 263.559062)scale(0.06 -0.06)">
       <use xlink:href="#DejaVuSans-31"/>
      </g>
     </g>
    </g>
    <g id="xtick_12">
     <g id="line2d_23">
      <path clip-path="url(#pb2ca0d2c8a)" d="M 287.377111 252 
L 287.377111 34.56 
" style="fill:none;stroke:#b0b0b0;stroke-linecap:square;stroke-width:0.5;"/>
     </g>
     <g id="line2d_24">
      <g>
       <use style="stroke:#000000;stroke-width:0.8;" x="287.377111" xlink:href="#m375195c077" y="252"/>
      </g>
     </g>
     <g id="text_12">
      <!-- 2 -->
      <g transform="translate(285.468361 263.559062)scale(0.06 -0.06)">
       <use xlink:href="#DejaVuSans-32"/>
      </g>
     </g>
    </g>
    <g id="xtick_13">
     <g id="line2d_25">
      <path clip-path="url(#pb2ca0d2c8a)" d="M 305.236795 252 
L 305.236795 34.56 
" style="fill:none;stroke:#b0b0b0;stroke-linecap:square;stroke-width:0.5;"/>
     </g>
     <g id="line2d_26">
      <g>
       <use style="stroke:#000000;stroke-width:0.8;" x="305.236795" xlink:href="#m375195c077" y="252"/>
      </g>
     </g>
     <g id="text_13">
      <!-- 3 -->
      <g transform="translate(303.328045 263.559062)scale(0.06 -0.06)">
       <use xlink:href="#DejaVuSans-33"/>
      </g>
     </g>
    </g>
    <g id="xtick_14">
     <g id="line2d_27">
      <path clip-path="url(#pb2ca0d2c8a)" d="M 327.737336 252 
L 327.737336 34.56 
" style="fill:none;stroke:#b0b0b0;stroke-linecap:square;stroke-width:0.5;"/>
     </g>
     <g id="line2d_28">
      <g>
       <use style="stroke:#000000;stroke-width:0.8;" x="327.737336" xlink:href="#m375195c077" y="252"/>
      </g>
     </g>
     <g id="text_14">
      <!-- 5 -->
      <g transform="translate(325.828586 263.559062)scale(0.06 -0.06)">
       <use xlink:href="#DejaVuSans-35"/>
      </g>
     </g>
    </g>
    <g id="xtick_15">
     <g id="line2d_29">
      <path clip-path="url(#pb2ca0d2c8a)" d="M 342.558064 252 
L 342.558064 34.56 
" style="fill:none;stroke:#b0b0b0;stroke-linecap:square;stroke-width:0.5;"/>
     </g>
     <g id="line2d_30">
      <g>
       <use style="stroke:#000000;stroke-width:0.8;" x="342.558064" xlink:href="#m375195c077" y="252"/>
      </g>
     </g>
     <g id="text_15">
      <!-- 7 -->
      <g transform="translate(340.649314 263.559062)scale(0.06 -0.06)">
       <use xlink:href="#DejaVuSans-37"/>
      </g>
     </g>
    </g>
    <g id="xtick_16">
     <g id="line2d_31">
      <path clip-path="url(#pb2ca0d2c8a)" d="M 358.268668 252 
L 358.268668 34.56 
" style="fill:none;stroke:#b0b0b0;stroke-linecap:square;stroke-width:0.5;"/>
     </g>
     <g id="line2d_32">
      <g>
       <use style="stroke:#000000;stroke-width:0.8;" x="358.268668" xlink:href="#m375195c077" y="252"/>
      </g>
     </g>
     <g id="text_16">
      <!-- 10 -->
      <g transform="translate(354.451168 263.559062)scale(0.06 -0.06)">
       <use xlink:href="#DejaVuSans-31"/>
       <use x="63.623047" xlink:href="#DejaVuSans-30"/>
      </g>
     </g>
    </g>
    <g id="xtick_17">
     <g id="line2d_33">
      <path clip-path="url(#pb2ca0d2c8a)" d="M 388.8 252 
L 388.8 34.56 
" style="fill:none;stroke:#b0b0b0;stroke-linecap:square;stroke-width:0.5;"/>
     </g>
     <g id="line2d_34">
      <g>
       <use style="stroke:#000000;stroke-width:0.8;" x="388.8" xlink:href="#m375195c077" y="252"/>
      </g>
     </g>
     <g id="text_17">
      <!-- 20 -->
      <g transform="translate(384.9825 263.559062)scale(0.06 -0.06)">
       <use xlink:href="#DejaVuSans-32"/>
       <use x="63.623047" xlink:href="#DejaVuSans-30"/>
      </g>
     </g>
    </g>
    <g id="xtick_18">
     <g id="line2d_35">
      <path clip-path="url(#pb2ca0d2c8a)" d="M 115.062664 252 
L 115.062664 34.56 
" style="fill:none;stroke:#b0b0b0;stroke-linecap:square;stroke-width:0.1;"/>
     </g>
     <g id="line2d_36">
      <defs>
       <path d="M 0 0 
L 0 2 
" id="m37e048a2e3" style="stroke:#000000;stroke-width:0.6;"/>
      </defs>
      <g>
       <use style="stroke:#000000;stroke-width:0.6;" x="115.062664" xlink:href="#m37e048a2e3" y="252"/>
      </g>
     </g>
    </g>
    <g id="xtick_19">
     <g id="line2d_37">
      <path clip-path="url(#pb2ca0d2c8a)" d="M 132.922348 252 
L 132.922348 34.56 
" style="fill:none;stroke:#b0b0b0;stroke-linecap:square;stroke-width:0.1;"/>
     </g>
     <g id="line2d_38">
      <g>
       <use style="stroke:#000000;stroke-width:0.6;" x="132.922348" xlink:href="#m37e048a2e3" y="252"/>
      </g>
     </g>
    </g>
    <g id="xtick_20">
     <g id="line2d_39">
      <path clip-path="url(#pb2ca0d2c8a)" d="M 145.593996 252 
L 145.593996 34.56 
" style="fill:none;stroke:#b0b0b0;stroke-linecap:square;stroke-width:0.1;"/>
     </g>
     <g id="line2d_40">
      <g>
       <use style="stroke:#000000;stroke-width:0.6;" x="145.593996" xlink:href="#m37e048a2e3" y="252"/>
      </g>
     </g>
    </g>
    <g id="xtick_21">
     <g id="line2d_41">
      <path clip-path="url(#pb2ca0d2c8a)" d="M 150.782032 252 
L 150.782032 34.56 
" style="fill:none;stroke:#b0b0b0;stroke-linecap:square;stroke-width:0.1;"/>
     </g>
     <g id="line2d_42">
      <g>
       <use style="stroke:#000000;stroke-width:0.6;" x="150.782032" xlink:href="#m37e048a2e3" y="252"/>
      </g>
     </g>
    </g>
    <g id="xtick_22">
     <g id="line2d_43">
      <path clip-path="url(#pb2ca0d2c8a)" d="M 216.485553 252 
L 216.485553 34.56 
" style="fill:none;stroke:#b0b0b0;stroke-linecap:square;stroke-width:0.1;"/>
     </g>
     <g id="line2d_44">
      <g>
       <use style="stroke:#000000;stroke-width:0.6;" x="216.485553" xlink:href="#m37e048a2e3" y="252"/>
      </g>
     </g>
    </g>
    <g id="xtick_23">
     <g id="line2d_45">
      <path clip-path="url(#pb2ca0d2c8a)" d="M 234.345238 252 
L 234.345238 34.56 
" style="fill:none;stroke:#b0b0b0;stroke-linecap:square;stroke-width:0.1;"/>
     </g>
     <g id="line2d_46">
      <g>
       <use style="stroke:#000000;stroke-width:0.6;" x="234.345238" xlink:href="#m37e048a2e3" y="252"/>
      </g>
     </g>
    </g>
    <g id="xtick_24">
     <g id="line2d_47">
      <path clip-path="url(#pb2ca0d2c8a)" d="M 247.016885 252 
L 247.016885 34.56 
" style="fill:none;stroke:#b0b0b0;stroke-linecap:square;stroke-width:0.1;"/>
     </g>
     <g id="line2d_48">
      <g>
       <use style="stroke:#000000;stroke-width:0.6;" x="247.016885" xlink:href="#m37e048a2e3" y="252"/>
      </g>
     </g>
    </g>
    <g id="xtick_25">
     <g id="line2d_49">
      <path clip-path="url(#pb2ca0d2c8a)" d="M 252.204922 252 
L 252.204922 34.56 
" style="fill:none;stroke:#b0b0b0;stroke-linecap:square;stroke-width:0.1;"/>
     </g>
     <g id="line2d_50">
      <g>
       <use style="stroke:#000000;stroke-width:0.6;" x="252.204922" xlink:href="#m37e048a2e3" y="252"/>
      </g>
     </g>
    </g>
    <g id="xtick_26">
     <g id="line2d_51">
      <path clip-path="url(#pb2ca0d2c8a)" d="M 317.908443 252 
L 317.908443 34.56 
" style="fill:none;stroke:#b0b0b0;stroke-linecap:square;stroke-width:0.1;"/>
     </g>
     <g id="line2d_52">
      <g>
       <use style="stroke:#000000;stroke-width:0.6;" x="317.908443" xlink:href="#m37e048a2e3" y="252"/>
      </g>
     </g>
    </g>
    <g id="xtick_27">
     <g id="line2d_53">
      <path clip-path="url(#pb2ca0d2c8a)" d="M 335.768127 252 
L 335.768127 34.56 
" style="fill:none;stroke:#b0b0b0;stroke-linecap:square;stroke-width:0.1;"/>
     </g>
     <g id="line2d_54">
      <g>
       <use style="stroke:#000000;stroke-width:0.6;" x="335.768127" xlink:href="#m37e048a2e3" y="252"/>
      </g>
     </g>
    </g>
    <g id="xtick_28">
     <g id="line2d_55">
      <path clip-path="url(#pb2ca0d2c8a)" d="M 348.439775 252 
L 348.439775 34.56 
" style="fill:none;stroke:#b0b0b0;stroke-linecap:square;stroke-width:0.1;"/>
     </g>
     <g id="line2d_56">
      <g>
       <use style="stroke:#000000;stroke-width:0.6;" x="348.439775" xlink:href="#m37e048a2e3" y="252"/>
      </g>
     </g>
    </g>
    <g id="xtick_29">
     <g id="line2d_57">
      <path clip-path="url(#pb2ca0d2c8a)" d="M 353.627811 252 
L 353.627811 34.56 
" style="fill:none;stroke:#b0b0b0;stroke-linecap:square;stroke-width:0.1;"/>
     </g>
     <g id="line2d_58">
      <g>
       <use style="stroke:#000000;stroke-width:0.6;" x="353.627811" xlink:href="#m37e048a2e3" y="252"/>
      </g>
     </g>
    </g>
    <g id="text_18">
     <!-- Frequency (MHz) -->
     <g transform="translate(196.18875 273.365937)scale(0.06 -0.06)">
      <defs>
       <path d="M 628 4666 
L 3309 4666 
L 3309 4134 
L 1259 4134 
L 1259 2759 
L 3109 2759 
L 3109 2228 
L 1259 2228 
L 1259 0 
L 628 0 
L 628 4666 
z
" id="DejaVuSans-46" transform="scale(0.015625)"/>
       <path d="M 2631 2963 
Q 2534 3019 2420 3045 
Q 2306 3072 2169 3072 
Q 1681 3072 1420 2755 
Q 1159 2438 1159 1844 
L 1159 0 
L 581 0 
L 581 3500 
L 1159 3500 
L 1159 2956 
Q 1341 3275 1631 3429 
Q 1922 3584 2338 3584 
Q 2397 3584 2469 3576 
Q 2541 3569 2628 3553 
L 2631 2963 
z
" id="DejaVuSans-72" transform="scale(0.015625)"/>
       <path d="M 3597 1894 
L 3597 1613 
L 953 1613 
Q 991 1019 1311 708 
Q 1631 397 2203 397 
Q 2534 397 2845 478 
Q 3156 559 3463 722 
L 3463 178 
Q 3153 47 2828 -22 
Q 2503 -91 2169 -91 
Q 1331 -91 842 396 
Q 353 884 353 1716 
Q 353 2575 817 3079 
Q 1281 3584 2069 3584 
Q 2775 3584 3186 3129 
Q 3597 2675 3597 1894 
z
M 3022 2063 
Q 3016 2534 2758 2815 
Q 2500 3097 2075 3097 
Q 1594 3097 1305 2825 
Q 1016 2553 972 2059 
L 3022 2063 
z
" id="DejaVuSans-65" transform="scale(0.015625)"/>
       <path d="M 947 1747 
Q 947 1113 1208 752 
Q 1469 391 1925 391 
Q 2381 391 2643 752 
Q 2906 1113 2906 1747 
Q 2906 2381 2643 2742 
Q 2381 3103 1925 3103 
Q 1469 3103 1208 2742 
Q 947 2381 947 1747 
z
M 2906 525 
Q 2725 213 2448 61 
Q 2172 -91 1784 -91 
Q 1150 -91 751 415 
Q 353 922 353 1747 
Q 353 2572 751 3078 
Q 1150 3584 1784 3584 
Q 2172 3584 2448 3432 
Q 2725 3281 2906 2969 
L 2906 3500 
L 3481 3500 
L 3481 -1331 
L 2906 -1331 
L 2906 525 
z
" id="DejaVuSans-71" transform="scale(0.015625)"/>
       <path d="M 544 1381 
L 544 3500 
L 1119 3500 
L 1119 1403 
Q 1119 906 1312 657 
Q 1506 409 1894 409 
Q 2359 409 2629 706 
Q 2900 1003 2900 1516 
L 2900 3500 
L 3475 3500 
L 3475 0 
L 2900 0 
L 2900 538 
Q 2691 219 2414 64 
Q 2138 -91 1772 -91 
Q 1169 -91 856 284 
Q 544 659 544 1381 
z
M 1991 3584 
L 1991 3584 
z
" id="DejaVuSans-75" transform="scale(0.015625)"/>
       <path d="M 3513 2113 
L 3513 0 
L 2938 0 
L 2938 2094 
Q 2938 2591 2744 2837 
Q 2550 3084 2163 3084 
Q 1697 3084 1428 2787 
Q 1159 2491 1159 1978 
L 1159 0 
L 581 0 
L 581 3500 
L 1159 3500 
L 1159 2956 
Q 1366 3272 1645 3428 
Q 1925 3584 2291 3584 
Q 2894 3584 3203 3211 
Q 3513 2838 3513 2113 
z
" id="DejaVuSans-6e" transform="scale(0.015625)"/>
       <path d="M 3122 3366 
L 3122 2828 
Q 2878 2963 2633 3030 
Q 2388 3097 2138 3097 
Q 1578 3097 1268 2742 
Q 959 2388 959 1747 
Q 959 1106 1268 751 
Q 1578 397 2138 397 
Q 2388 397 2633 464 
Q 2878 531 3122 666 
L 3122 134 
Q 2881 22 2623 -34 
Q 2366 -91 2075 -91 
Q 1284 -91 818 406 
Q 353 903 353 1747 
Q 353 2603 823 3093 
Q 1294 3584 2113 3584 
Q 2378 3584 2631 3529 
Q 2884 3475 3122 3366 
z
" id="DejaVuSans-63" transform="scale(0.015625)"/>
       <path d="M 2059 -325 
Q 1816 -950 1584 -1140 
Q 1353 -1331 966 -1331 
L 506 -1331 
L 506 -850 
L 844 -850 
Q 1081 -850 1212 -737 
Q 1344 -625 1503 -206 
L 1606 56 
L 191 3500 
L 800 3500 
L 1894 763 
L 2988 3500 
L 3597 3500 
L 2059 -325 
z
" id="DejaVuSans-79" transform="scale(0.015625)"/>
       <path id="DejaVuSans-20" transform="scale(0.015625)"/>
       <path d="M 1984 4856 
Q 1566 4138 1362 3434 
Q 1159 2731 1159 2009 
Q 1159 1288 1364 580 
Q 1569 -128 1984 -844 
L 1484 -844 
Q 1016 -109 783 600 
Q 550 1309 550 2009 
Q 550 2706 781 3412 
Q 1013 4119 1484 4856 
L 1984 4856 
z
" id="DejaVuSans-28" transform="scale(0.015625)"/>
       <path d="M 628 4666 
L 1569 4666 
L 2759 1491 
L 3956 4666 
L 4897 4666 
L 4897 0 
L 4281 0 
L 4281 4097 
L 3078 897 
L 2444 897 
L 1241 4097 
L 1241 0 
L 628 0 
L 628 4666 
z
" id="DejaVuSans-4d" transform="scale(0.015625)"/>
       <path d="M 628 4666 
L 1259 4666 
L 1259 2753 
L 3553 2753 
L 3553 4666 
L 4184 4666 
L 4184 0 
L 3553 0 
L 3553 2222 
L 1259 2222 
L 1259 0 
L 628 0 
L 628 4666 
z
" id="DejaVuSans-48" transform="scale(0.015625)"/>
       <path d="M 353 3500 
L 3084 3500 
L 3084 2975 
L 922 459 
L 3084 459 
L 3084 0 
L 275 0 
L 275 525 
L 2438 3041 
L 353 3041 
L 353 3500 
z
" id="DejaVuSans-7a" transform="scale(0.015625)"/>
       <path d="M 513 4856 
L 1013 4856 
Q 1481 4119 1714 3412 
Q 1947 2706 1947 2009 
Q 1947 1309 1714 600 
Q 1481 -109 1013 -844 
L 513 -844 
Q 928 -128 1133 580 
Q 1338 1288 1338 2009 
Q 1338 2731 1133 3434 
Q 928 4138 513 4856 
z
" id="DejaVuSans-29" transform="scale(0.015625)"/>
      </defs>
      <use xlink:href="#DejaVuSans-46"/>
      <use x="50.269531" xlink:href="#DejaVuSans-72"/>
      <use x="89.132812" xlink:href="#DejaVuSans-65"/>
      <use x="150.65625" xlink:href="#DejaVuSans-71"/>
      <use x="214.132812" xlink:href="#DejaVuSans-75"/>
      <use x="277.511719" xlink:href="#DejaVuSans-65"/>
      <use x="339.035156" xlink:href="#DejaVuSans-6e"/>
      <use x="402.414062" xlink:href="#DejaVuSans-63"/>
      <use x="457.394531" xlink:href="#DejaVuSans-79"/>
      <use x="516.574219" xlink:href="#DejaVuSans-20"/>
      <use x="548.361328" xlink:href="#DejaVuSans-28"/>
      <use x="587.375" xlink:href="#DejaVuSans-4d"/>
      <use x="673.654297" xlink:href="#DejaVuSans-48"/>
      <use x="748.849609" xlink:href="#DejaVuSans-7a"/>
      <use x="801.339844" xlink:href="#DejaVuSans-29"/>
     </g>
    </g>
   </g>
   <g id="matplotlib.axis_2">
    <g id="ytick_1">
     <g id="line2d_59">
      <path clip-path="url(#pb2ca0d2c8a)" d="M 54 252 
L 388.8 252 
" style="fill:none;stroke:#b0b0b0;stroke-linecap:square;stroke-width:0.5;"/>
     </g>
     <g id="line2d_60">
      <defs>
       <path d="M 0 0 
L -3.5 0 
" id="m45b7ba0301" style="stroke:#000000;stroke-width:0.8;"/>
      </defs>
      <g>
       <use style="stroke:#000000;stroke-width:0.8;" x="54" xlink:href="#m45b7ba0301" y="252"/>
      </g>
     </g>
     <g id="text_19">
      <!-- 0 -->
      <g transform="translate(43.1825 254.279531)scale(0.06 -0.06)">
       <use xlink:href="#DejaVuSans-30"/>
      </g>
     </g>
    </g>
    <g id="ytick_2">
     <g id="line2d_61">
      <path clip-path="url(#pb2ca0d2c8a)" d="M 54 224.82 
L 388.8 224.82 
" style="fill:none;stroke:#b0b0b0;stroke-linecap:square;stroke-width:0.5;"/>
     </g>
     <g id="line2d_62">
      <g>
       <use style="stroke:#000000;stroke-width:0.8;" x="54" xlink:href="#m45b7ba0301" y="224.82"/>
      </g>
     </g>
     <g id="text_20">
      <!-- 2 -->
      <g transform="translate(43.1825 227.099531)scale(0.06 -0.06)">
       <use xlink:href="#DejaVuSans-32"/>
      </g>
     </g>
    </g>
    <g id="ytick_3">
     <g id="line2d_63">
      <path clip-path="url(#pb2ca0d2c8a)" d="M 54 197.64 
L 388.8 197.64 
" style="fill:none;stroke:#b0b0b0;stroke-linecap:square;stroke-width:0.5;"/>
     </g>
     <g id="line2d_64">
      <g>
       <use style="stroke:#000000;stroke-width:0.8;" x="54" xlink:href="#m45b7ba0301" y="197.64"/>
      </g>
     </g>
     <g id="text_21">
      <!-- 4 -->
      <g transform="translate(43.1825 199.919531)scale(0.06 -0.06)">
       <defs>
        <path d="M 2419 4116 
L 825 1625 
L 2419 1625 
L 2419 4116 
z
M 2253 4666 
L 3047 4666 
L 3047 1625 
L 3713 1625 
L 3713 1100 
L 3047 1100 
L 3047 0 
L 2419 0 
L 2419 1100 
L 313 1100 
L 313 1709 
L 2253 4666 
z
" id="DejaVuSans-34" transform="scale(0.015625)"/>
       </defs>
       <use xlink:href="#DejaVuSans-34"/>
      </g>
     </g>
    </g>
    <g id="ytick_4">
     <g id="line2d_65">
      <path clip-path="url(#pb2ca0d2c8a)" d="M 54 170.46 
L 388.8 170.46 
" style="fill:none;stroke:#b0b0b0;stroke-linecap:square;stroke-width:0.5;"/>
     </g>
     <g id="line2d_66">
      <g>
       <use style="stroke:#000000;stroke-width:0.8;" x="54" xlink:href="#m45b7ba0301" y="170.46"/>
      </g>
     </g>
     <g id="text_22">
      <!-- 6 -->
      <g transform="translate(43.1825 172.739531)scale(0.06 -0.06)">
       <defs>
        <path d="M 2113 2584 
Q 1688 2584 1439 2293 
Q 1191 2003 1191 1497 
Q 1191 994 1439 701 
Q 1688 409 2113 409 
Q 2538 409 2786 701 
Q 3034 994 3034 1497 
Q 3034 2003 2786 2293 
Q 2538 2584 2113 2584 
z
M 3366 4563 
L 3366 3988 
Q 3128 4100 2886 4159 
Q 2644 4219 2406 4219 
Q 1781 4219 1451 3797 
Q 1122 3375 1075 2522 
Q 1259 2794 1537 2939 
Q 1816 3084 2150 3084 
Q 2853 3084 3261 2657 
Q 3669 2231 3669 1497 
Q 3669 778 3244 343 
Q 2819 -91 2113 -91 
Q 1303 -91 875 529 
Q 447 1150 447 2328 
Q 447 3434 972 4092 
Q 1497 4750 2381 4750 
Q 2619 4750 2861 4703 
Q 3103 4656 3366 4563 
z
" id="DejaVuSans-36" transform="scale(0.015625)"/>
       </defs>
       <use xlink:href="#DejaVuSans-36"/>
      </g>
     </g>
    </g>
    <g id="ytick_5">
     <g id="line2d_67">
      <path clip-path="url(#pb2ca0d2c8a)" d="M 54 143.28 
L 388.8 143.28 
" style="fill:none;stroke:#b0b0b0;stroke-linecap:square;stroke-width:0.5;"/>
     </g>
     <g id="line2d_68">
      <g>
       <use style="stroke:#000000;stroke-width:0.8;" x="54" xlink:href="#m45b7ba0301" y="143.28"/>
      </g>
     </g>
     <g id="text_23">
      <!-- 8 -->
      <g transform="translate(43.1825 145.559531)scale(0.06 -0.06)">
       <defs>
        <path d="M 2034 2216 
Q 1584 2216 1326 1975 
Q 1069 1734 1069 1313 
Q 1069 891 1326 650 
Q 1584 409 2034 409 
Q 2484 409 2743 651 
Q 3003 894 3003 1313 
Q 3003 1734 2745 1975 
Q 2488 2216 2034 2216 
z
M 1403 2484 
Q 997 2584 770 2862 
Q 544 3141 544 3541 
Q 544 4100 942 4425 
Q 1341 4750 2034 4750 
Q 2731 4750 3128 4425 
Q 3525 4100 3525 3541 
Q 3525 3141 3298 2862 
Q 3072 2584 2669 2484 
Q 3125 2378 3379 2068 
Q 3634 1759 3634 1313 
Q 3634 634 3220 271 
Q 2806 -91 2034 -91 
Q 1263 -91 848 271 
Q 434 634 434 1313 
Q 434 1759 690 2068 
Q 947 2378 1403 2484 
z
M 1172 3481 
Q 1172 3119 1398 2916 
Q 1625 2713 2034 2713 
Q 2441 2713 2670 2916 
Q 2900 3119 2900 3481 
Q 2900 3844 2670 4047 
Q 2441 4250 2034 4250 
Q 1625 4250 1398 4047 
Q 1172 3844 1172 3481 
z
" id="DejaVuSans-38" transform="scale(0.015625)"/>
       </defs>
       <use xlink:href="#DejaVuSans-38"/>
      </g>
     </g>
    </g>
    <g id="ytick_6">
     <g id="line2d_69">
      <path clip-path="url(#pb2ca0d2c8a)" d="M 54 116.1 
L 388.8 116.1 
" style="fill:none;stroke:#b0b0b0;stroke-linecap:square;stroke-width:0.5;"/>
     </g>
     <g id="line2d_70">
      <g>
       <use style="stroke:#000000;stroke-width:0.8;" x="54" xlink:href="#m45b7ba0301" y="116.1"/>
      </g>
     </g>
     <g id="text_24">
      <!-- 10 -->
      <g transform="translate(39.365 118.379531)scale(0.06 -0.06)">
       <use xlink:href="#DejaVuSans-31"/>
       <use x="63.623047" xlink:href="#DejaVuSans-30"/>
      </g>
     </g>
    </g>
    <g id="ytick_7">
     <g id="line2d_71">
      <path clip-path="url(#pb2ca0d2c8a)" d="M 54 88.92 
L 388.8 88.92 
" style="fill:none;stroke:#b0b0b0;stroke-linecap:square;stroke-width:0.5;"/>
     </g>
     <g id="line2d_72">
      <g>
       <use style="stroke:#000000;stroke-width:0.8;" x="54" xlink:href="#m45b7ba0301" y="88.92"/>
      </g>
     </g>
     <g id="text_25">
      <!-- 12 -->
      <g transform="translate(39.365 91.199531)scale(0.06 -0.06)">
       <use xlink:href="#DejaVuSans-31"/>
       <use x="63.623047" xlink:href="#DejaVuSans-32"/>
      </g>
     </g>
    </g>
    <g id="ytick_8">
     <g id="line2d_73">
      <path clip-path="url(#pb2ca0d2c8a)" d="M 54 61.74 
L 388.8 61.74 
" style="fill:none;stroke:#b0b0b0;stroke-linecap:square;stroke-width:0.5;"/>
     </g>
     <g id="line2d_74">
      <g>
       <use style="stroke:#000000;stroke-width:0.8;" x="54" xlink:href="#m45b7ba0301" y="61.74"/>
      </g>
     </g>
     <g id="text_26">
      <!-- 14 -->
      <g transform="translate(39.365 64.019531)scale(0.06 -0.06)">
       <use xlink:href="#DejaVuSans-31"/>
       <use x="63.623047" xlink:href="#DejaVuSans-34"/>
      </g>
     </g>
    </g>
    <g id="ytick_9">
     <g id="line2d_75">
      <path clip-path="url(#pb2ca0d2c8a)" d="M 54 34.56 
L 388.8 34.56 
" style="fill:none;stroke:#b0b0b0;stroke-linecap:square;stroke-width:0.5;"/>
     </g>
     <g id="line2d_76">
      <g>
       <use style="stroke:#000000;stroke-width:0.8;" x="54" xlink:href="#m45b7ba0301" y="34.56"/>
      </g>
     </g>
     <g id="text_27">
      <!-- 16 -->
      <g transform="translate(39.365 36.839531)scale(0.06 -0.06)">
       <use xlink:href="#DejaVuSans-31"/>
       <use x="63.623047" xlink:href="#DejaVuSans-36"/>
      </g>
     </g>
    </g>
    <g id="ytick_10">
     <g id="line2d_77">
      <path clip-path="url(#pb2ca0d2c8a)" d="M 54 238.41 
L 388.8 238.41 
" style="fill:none;stroke:#b0b0b0;stroke-linecap:square;stroke-width:0.1;"/>
     </g>
     <g id="line2d_78">
      <defs>
       <path d="M 0 0 
L -2 0 
" id="mef49bfaeb4" style="stroke:#000000;stroke-width:0.6;"/>
      </defs>
      <g>
       <use style="stroke:#000000;stroke-width:0.6;" x="54" xlink:href="#mef49bfaeb4" y="238.41"/>
      </g>
     </g>
    </g>
    <g id="ytick_11">
     <g id="line2d_79">
      <path clip-path="url(#pb2ca0d2c8a)" d="M 54 211.23 
L 388.8 211.23 
" style="fill:none;stroke:#b0b0b0;stroke-linecap:square;stroke-width:0.1;"/>
     </g>
     <g id="line2d_80">
      <g>
       <use style="stroke:#000000;stroke-width:0.6;" x="54" xlink:href="#mef49bfaeb4" y="211.23"/>
      </g>
     </g>
    </g>
    <g id="ytick_12">
     <g id="line2d_81">
      <path clip-path="url(#pb2ca0d2c8a)" d="M 54 184.05 
L 388.8 184.05 
" style="fill:none;stroke:#b0b0b0;stroke-linecap:square;stroke-width:0.1;"/>
     </g>
     <g id="line2d_82">
      <g>
       <use style="stroke:#000000;stroke-width:0.6;" x="54" xlink:href="#mef49bfaeb4" y="184.05"/>
      </g>
     </g>
    </g>
    <g id="ytick_13">
     <g id="line2d_83">
      <path clip-path="url(#pb2ca0d2c8a)" d="M 54 156.87 
L 388.8 156.87 
" style="fill:none;stroke:#b0b0b0;stroke-linecap:square;stroke-width:0.1;"/>
     </g>
     <g id="line2d_84">
      <g>
       <use style="stroke:#000000;stroke-width:0.6;" x="54" xlink:href="#mef49bfaeb4" y="156.87"/>
      </g>
     </g>
    </g>
    <g id="ytick_14">
     <g id="line2d_85">
      <path clip-path="url(#pb2ca0d2c8a)" d="M 54 129.69 
L 388.8 129.69 
" style="fill:none;stroke:#b0b0b0;stroke-linecap:square;stroke-width:0.1;"/>
     </g>
     <g id="line2d_86">
      <g>
       <use style="stroke:#000000;stroke-width:0.6;" x="54" xlink:href="#mef49bfaeb4" y="129.69"/>
      </g>
     </g>
    </g>
    <g id="ytick_15">
     <g id="line2d_87">
      <path clip-path="url(#pb2ca0d2c8a)" d="M 54 102.51 
L 388.8 102.51 
" style="fill:none;stroke:#b0b0b0;stroke-linecap:square;stroke-width:0.1;"/>
     </g>
     <g id="line2d_88">
      <g>
       <use style="stroke:#000000;stroke-width:0.6;" x="54" xlink:href="#mef49bfaeb4" y="102.51"/>
      </g>
     </g>
    </g>
    <g id="ytick_16">
     <g id="line2d_89">
      <path clip-path="url(#pb2ca0d2c8a)" d="M 54 75.33 
L 388.8 75.33 
" style="fill:none;stroke:#b0b0b0;stroke-linecap:square;stroke-width:0.1;"/>
     </g>
     <g id="line2d_90">
      <g>
       <use style="stroke:#000000;stroke-width:0.6;" x="54" xlink:href="#mef49bfaeb4" y="75.33"/>
      </g>
     </g>
    </g>
    <g id="ytick_17">
     <g id="line2d_91">
      <path clip-path="url(#pb2ca0d2c8a)" d="M 54 48.15 
L 388.8 48.15 
" style="fill:none;stroke:#b0b0b0;stroke-linecap:square;stroke-width:0.1;"/>
     </g>
     <g id="line2d_92">
      <g>
       <use style="stroke:#000000;stroke-width:0.6;" x="54" xlink:href="#mef49bfaeb4" y="48.15"/>
      </g>
     </g>
    </g>
    <g id="text_28">
     <!-- (dB) -->
     <g transform="translate(34.117188 149.58375)rotate(-90)scale(0.06 -0.06)">
      <defs>
       <path d="M 2906 2969 
L 2906 4863 
L 3481 4863 
L 3481 0 
L 2906 0 
L 2906 525 
Q 2725 213 2448 61 
Q 2172 -91 1784 -91 
Q 1150 -91 751 415 
Q 353 922 353 1747 
Q 353 2572 751 3078 
Q 1150 3584 1784 3584 
Q 2172 3584 2448 3432 
Q 2725 3281 2906 2969 
z
M 947 1747 
Q 947 1113 1208 752 
Q 1469 391 1925 391 
Q 2381 391 2643 752 
Q 2906 1113 2906 1747 
Q 2906 2381 2643 2742 
Q 2381 3103 1925 3103 
Q 1469 3103 1208 2742 
Q 947 2381 947 1747 
z
" id="DejaVuSans-64" transform="scale(0.015625)"/>
       <path d="M 1259 2228 
L 1259 519 
L 2272 519 
Q 2781 519 3026 730 
Q 3272 941 3272 1375 
Q 3272 1813 3026 2020 
Q 2781 2228 2272 2228 
L 1259 2228 
z
M 1259 4147 
L 1259 2741 
L 2194 2741 
Q 2656 2741 2882 2914 
Q 3109 3088 3109 3444 
Q 3109 3797 2882 3972 
Q 2656 4147 2194 4147 
L 1259 4147 
z
M 628 4666 
L 2241 4666 
Q 2963 4666 3353 4366 
Q 3744 4066 3744 3513 
Q 3744 3084 3544 2831 
Q 3344 2578 2956 2516 
Q 3422 2416 3680 2098 
Q 3938 1781 3938 1306 
Q 3938 681 3513 340 
Q 3088 0 2303 0 
L 628 0 
L 628 4666 
z
" id="DejaVuSans-42" transform="scale(0.015625)"/>
      </defs>
      <use xlink:href="#DejaVuSans-28"/>
      <use x="39.013672" xlink:href="#DejaVuSans-64"/>
      <use x="102.490234" xlink:href="#DejaVuSans-42"/>
      <use x="171.09375" xlink:href="#DejaVuSans-29"/>
     </g>
    </g>
   </g>
   <g id="line2d_93">
    <path clip-path="url(#pb2ca0d2c8a)" d="M 54 224.279118 
L 71.859684 188.428698 
L 84.531332 165.263184 
L 94.360225 148.669794 
L 102.391016 136.035171 
L 109.180953 126.016623 
L 115.062664 117.838161 
L 124.891557 105.223923 
L 132.922348 95.907978 
L 139.712285 88.733817 
L 145.593996 83.042325 
L 150.782032 78.427161 
L 155.422889 74.621961 
L 173.282574 62.812251 
L 185.954221 57.149298 
L 195.783115 54.287244 
L 203.813906 52.924167 
L 210.603842 52.44444 
L 216.485553 52.519185 
L 226.314447 53.636283 
L 234.345238 55.445112 
L 241.135174 57.584178 
L 247.016885 59.874093 
L 252.204922 62.221086 
L 256.845779 64.572156 
L 274.705463 75.720033 
L 287.377111 85.48173 
L 297.206004 93.991788 
L 305.236795 101.488032 
L 312.026732 108.167517 
L 317.908443 114.179733 
L 327.737336 124.638597 
L 335.768127 133.500636 
L 342.558064 141.168114 
L 348.439775 147.910113 
L 353.627811 153.911457 
L 358.268668 159.306687 
L 376.128352 180.072207 
L 388.8 194.485761 
L 398.628894 194.485761 
L 406.659684 194.485761 
" style="fill:none;stroke:#1f77b4;stroke-linecap:square;stroke-width:0.5;"/>
   </g>
   <g id="line2d_94">
    <path clip-path="url(#pb2ca0d2c8a)" d="M 54 213.971103 
L 71.859684 189.312048 
L 84.531332 172.839609 
L 94.360225 160.759458 
L 102.391016 151.387794 
L 109.180953 143.841267 
L 115.062664 137.598021 
L 124.891557 127.805067 
L 132.922348 120.427056 
L 139.712285 114.644511 
L 145.593996 109.983141 
L 150.782032 106.146684 
L 155.422889 102.936726 
L 173.282574 92.598813 
L 185.954221 87.259302 
L 195.783115 84.28581 
L 203.813906 82.621035 
L 210.603842 81.753993 
L 216.485553 81.403371 
L 226.314447 81.646632 
L 234.345238 82.611522 
L 241.135174 83.961009 
L 247.016885 85.521141 
L 252.204922 87.196788 
L 256.845779 88.929513 
L 274.705463 97.6176 
L 287.377111 105.654726 
L 297.206004 112.904991 
L 305.236795 119.455371 
L 312.026732 125.411868 
L 317.908443 130.869612 
L 327.737336 140.570154 
L 335.768127 149.00139 
L 342.558064 156.456864 
L 348.439775 163.140426 
L 353.627811 169.194771 
L 358.268668 174.728619 
L 376.128352 196.915653 
L 388.8 213.317424 
L 398.628894 213.317424 
L 406.659684 213.317424 
" style="fill:none;stroke:#ff7f0e;stroke-linecap:square;stroke-width:0.5;"/>
   </g>
   <g id="line2d_95">
    <path clip-path="url(#pb2ca0d2c8a)" d="M 54 237.144771 
L 71.859684 211.136229 
L 84.531332 197.614179 
L 94.360225 189.552591 
L 102.391016 184.36257 
L 109.180953 180.854991 
L 115.062664 178.414227 
L 124.891557 175.444812 
L 132.922348 173.934963 
L 139.712285 173.220129 
L 145.593996 172.971432 
L 150.782032 173.008125 
L 155.422889 173.221488 
L 173.282574 175.364631 
L 185.954221 177.829857 
L 195.783115 180.089874 
L 203.813906 182.082168 
L 210.603842 183.825765 
L 216.485553 185.357358 
L 226.314447 187.914996 
L 234.345238 189.964368 
L 241.135174 191.641374 
L 247.016885 193.042503 
L 252.204922 194.231628 
L 256.845779 195.252237 
L 274.705463 198.773406 
L 287.377111 200.855394 
L 297.206004 202.242933 
L 305.236795 203.243157 
L 312.026732 204.009633 
L 317.908443 204.62526 
L 327.737336 205.59015 
L 335.768127 206.352549 
L 342.558064 207.008946 
L 348.439775 207.609624 
L 353.627811 208.179045 
L 358.268668 208.732158 
" style="fill:none;stroke:#2ca02c;stroke-linecap:square;stroke-width:0.5;"/>
   </g>
   <g id="line2d_96">
    <path clip-path="url(#pb2ca0d2c8a)" d="M 54 235.519407 
L 71.859684 234.069354 
L 84.531332 230.859396 
L 94.360225 227.518974 
L 102.391016 224.413659 
L 109.180953 221.615478 
L 115.062664 219.116277 
L 124.891557 214.892505 
L 132.922348 211.496364 
L 139.712285 208.726722 
L 145.593996 206.439525 
L 150.782032 204.53013 
L 155.422889 202.921074 
L 173.282574 197.779977 
L 185.954221 195.31611 
L 195.783115 194.156883 
L 203.813906 193.716567 
L 210.603842 193.701618 
L 216.485553 193.950315 
L 226.314447 194.893461 
L 234.345238 196.128792 
L 241.135174 197.475561 
L 247.016885 198.848151 
L 252.204922 200.198997 
L 256.845779 201.509073 
L 274.705463 207.22095 
L 287.377111 211.598289 
L 297.206004 214.935993 
L 305.236795 217.486836 
L 312.026732 219.432924 
L 317.908443 220.90608 
L 327.737336 222.782859 
L 335.768127 223.629516 
L 342.558064 223.749108 
L 348.439775 223.335972 
L 353.627811 222.521931 
L 358.268668 221.399397 
L 376.128352 212.979033 
L 388.8 202.251087 
L 398.628894 202.251087 
L 406.659684 202.251087 
" style="fill:none;stroke:#d62728;stroke-linecap:square;stroke-width:0.5;"/>
   </g>
   <g id="line2d_97">
    <path clip-path="url(#pb2ca0d2c8a)" d="M 54 226.400517 
L 71.859684 233.419752 
L 84.531332 234.826317 
L 94.360225 234.316692 
L 102.391016 233.063694 
L 109.180953 231.521229 
L 115.062664 229.891788 
L 124.891557 226.689984 
L 132.922348 223.751826 
L 139.712285 221.12352 
L 145.593996 218.787399 
L 150.782032 216.709488 
L 155.422889 214.85853 
L 173.282574 208.059453 
L 185.954221 203.838399 
L 195.783115 201.063321 
L 203.813906 199.182465 
L 210.603842 197.888697 
L 216.485553 196.999911 
L 226.314447 196.018713 
L 234.345238 195.69663 
L 241.135174 195.763221 
L 247.016885 196.070355 
L 252.204922 196.529697 
L 256.845779 197.086887 
L 274.705463 200.434104 
L 287.377111 203.819373 
L 297.206004 206.893431 
L 305.236795 209.615508 
L 312.026732 212.011425 
L 317.908443 214.121952 
L 327.737336 217.628172 
L 335.768127 220.377429 
L 342.558064 222.545034 
L 348.439775 224.254656 
L 353.627811 225.597348 
L 358.268668 226.639701 
L 376.128352 228.816819 
L 388.8 228.012291 
L 398.628894 228.012291 
L 406.659684 228.012291 
" style="fill:none;stroke:#9467bd;stroke-linecap:square;stroke-width:0.5;"/>
   </g>
   <g id="line2d_98">
    <path clip-path="url(#pb2ca0d2c8a)" d="M 54 252 
L 388.8 252 
" style="fill:none;stroke:#1f77b4;stroke-linecap:square;stroke-width:0.5;"/>
   </g>
   <g id="line2d_99">
    <path clip-path="url(#pb2ca0d2c8a)" d="M 54 224.82 
L 388.8 224.82 
" style="fill:none;stroke:#1f77b4;stroke-linecap:square;stroke-width:0.5;"/>
   </g>
   <g id="line2d_100">
    <path clip-path="url(#pb2ca0d2c8a)" d="M 54 197.64 
L 388.8 197.64 
" style="fill:none;stroke:#1f77b4;stroke-linecap:square;stroke-width:0.5;"/>
   </g>
   <g id="line2d_101">
    <path clip-path="url(#pb2ca0d2c8a)" d="M 54 170.46 
L 388.8 170.46 
" style="fill:none;stroke:#1f77b4;stroke-linecap:square;stroke-width:0.5;"/>
   </g>
   <g id="line2d_102">
    <path clip-path="url(#pb2ca0d2c8a)" d="M 54 143.28 
L 388.8 143.28 
" style="fill:none;stroke:#1f77b4;stroke-linecap:square;stroke-width:0.5;"/>
   </g>
   <g id="line2d_103">
    <path clip-path="url(#pb2ca0d2c8a)" d="M 54 116.1 
L 388.8 116.1 
" style="fill:none;stroke:#1f77b4;stroke-linecap:square;stroke-width:0.5;"/>
   </g>
   <g id="line2d_104">
    <path clip-path="url(#pb2ca0d2c8a)" d="M 54 88.92 
L 388.8 88.92 
" style="fill:none;stroke:#1f77b4;stroke-linecap:square;stroke-width:0.5;"/>
   </g>
   <g id="line2d_105">
    <path clip-path="url(#pb2ca0d2c8a)" d="M 54 61.74 
L 388.8 61.74 
" style="fill:none;stroke:#1f77b4;stroke-linecap:square;stroke-width:0.5;"/>
   </g>
   <g id="line2d_106">
    <path clip-path="url(#pb2ca0d2c8a)" d="M 54 34.56 
L 388.8 34.56 
" style="fill:none;stroke:#1f77b4;stroke-linecap:square;stroke-width:0.5;"/>
   </g>
   <g id="line2d_107">
    <path clip-path="url(#pb2ca0d2c8a)" d="M 54 265.59 
L 388.8 265.59 
" style="fill:none;stroke:#1f77b4;stroke-linecap:square;stroke-width:0.1;"/>
   </g>
   <g id="line2d_108">
    <path clip-path="url(#pb2ca0d2c8a)" d="M 54 238.41 
L 388.8 238.41 
" style="fill:none;stroke:#1f77b4;stroke-linecap:square;stroke-width:0.1;"/>
   </g>
   <g id="line2d_109">
    <path clip-path="url(#pb2ca0d2c8a)" d="M 54 211.23 
L 388.8 211.23 
" style="fill:none;stroke:#1f77b4;stroke-linecap:square;stroke-width:0.1;"/>
   </g>
   <g id="line2d_110">
    <path clip-path="url(#pb2ca0d2c8a)" d="M 54 184.05 
L 388.8 184.05 
" style="fill:none;stroke:#1f77b4;stroke-linecap:square;stroke-width:0.1;"/>
   </g>
   <g id="line2d_111">
    <path clip-path="url(#pb2ca0d2c8a)" d="M 54 156.87 
L 388.8 156.87 
" style="fill:none;stroke:#1f77b4;stroke-linecap:square;stroke-width:0.1;"/>
   </g>
   <g id="line2d_112">
    <path clip-path="url(#pb2ca0d2c8a)" d="M 54 129.69 
L 388.8 129.69 
" style="fill:none;stroke:#1f77b4;stroke-linecap:square;stroke-width:0.1;"/>
   </g>
   <g id="line2d_113">
    <path clip-path="url(#pb2ca0d2c8a)" d="M 54 102.51 
L 388.8 102.51 
" style="fill:none;stroke:#1f77b4;stroke-linecap:square;stroke-width:0.1;"/>
   </g>
   <g id="line2d_114">
    <path clip-path="url(#pb2ca0d2c8a)" d="M 54 75.33 
L 388.8 75.33 
" style="fill:none;stroke:#1f77b4;stroke-linecap:square;stroke-width:0.1;"/>
   </g>
   <g id="line2d_115">
    <path clip-path="url(#pb2ca0d2c8a)" d="M 54 48.15 
L 388.8 48.15 
" style="fill:none;stroke:#1f77b4;stroke-linecap:square;stroke-width:0.1;"/>
   </g>
   <g id="line2d_116">
    <path clip-path="url(#pb2ca0d2c8a)" d="M 54 20.97 
L 388.8 20.97 
" style="fill:none;stroke:#1f77b4;stroke-linecap:square;stroke-width:0.1;"/>
   </g>
   <g id="patch_3">
    <path d="M 54 252 
L 54 34.56 
" style="fill:none;stroke:#000000;stroke-linecap:square;stroke-linejoin:miter;stroke-width:0.8;"/>
   </g>
   <g id="patch_4">
    <path d="M 388.8 252 
L 388.8 34.56 
" style="fill:none;stroke:#000000;stroke-linecap:square;stroke-linejoin:miter;stroke-width:0.8;"/>
   </g>
   <g id="patch_5">
    <path d="M 54 252 
L 388.8 252 
" style="fill:none;stroke:#000000;stroke-linecap:square;stroke-linejoin:miter;stroke-width:0.8;"/>
   </g>
   <g id="patch_6">
    <path d="M 54 34.56 
L 388.8 34.56 
" style="fill:none;stroke:#000000;stroke-linecap:square;stroke-linejoin:miter;stroke-width:0.8;"/>
   </g>
   <g id="legend_1">
    <g id="patch_7">
     <path d="M 208.725 169.436875 
L 234.075 169.436875 
Q 235.075 169.436875 235.075 168.436875 
L 235.075 118.123125 
Q 235.075 117.123125 234.075 117.123125 
L 208.725 117.123125 
Q 207.725 117.123125 207.725 118.123125 
L 207.725 168.436875 
Q 207.725 169.436875 208.725 169.436875 
z
" style="fill:#ffffff;stroke:#cccccc;stroke-linejoin:miter;"/>
    </g>
    <g id="text_29">
     <!-- $F_{am}$ -->
     <g transform="translate(209.972266 122.922344)scale(0.05 -0.05)">
      <defs>
       <path d="M 1081 4666 
L 3756 4666 
L 3653 4134 
L 1606 4134 
L 1338 2759 
L 3188 2759 
L 3084 2228 
L 1234 2228 
L 800 0 
L 172 0 
L 1081 4666 
z
" id="DejaVuSans-Oblique-46" transform="scale(0.015625)"/>
       <path d="M 3438 1997 
L 3047 0 
L 2472 0 
L 2578 531 
Q 2325 219 2001 64 
Q 1678 -91 1281 -91 
Q 834 -91 548 182 
Q 263 456 263 884 
Q 263 1497 752 1853 
Q 1241 2209 2100 2209 
L 2900 2209 
L 2931 2363 
Q 2938 2388 2941 2417 
Q 2944 2447 2944 2509 
Q 2944 2788 2717 2942 
Q 2491 3097 2081 3097 
Q 1800 3097 1504 3025 
Q 1209 2953 897 2809 
L 997 3341 
Q 1322 3463 1633 3523 
Q 1944 3584 2234 3584 
Q 2853 3584 3176 3315 
Q 3500 3047 3500 2534 
Q 3500 2431 3484 2292 
Q 3469 2153 3438 1997 
z
M 2816 1759 
L 2241 1759 
Q 1534 1759 1195 1570 
Q 856 1381 856 984 
Q 856 709 1029 553 
Q 1203 397 1509 397 
Q 1978 397 2328 733 
Q 2678 1069 2791 1631 
L 2816 1759 
z
" id="DejaVuSans-Oblique-61" transform="scale(0.015625)"/>
       <path d="M 5747 2113 
L 5338 0 
L 4763 0 
L 5166 2094 
Q 5191 2228 5203 2325 
Q 5216 2422 5216 2491 
Q 5216 2772 5059 2928 
Q 4903 3084 4622 3084 
Q 4203 3084 3875 2770 
Q 3547 2456 3450 1953 
L 3066 0 
L 2491 0 
L 2900 2094 
Q 2925 2209 2937 2307 
Q 2950 2406 2950 2484 
Q 2950 2769 2794 2926 
Q 2638 3084 2363 3084 
Q 1938 3084 1609 2770 
Q 1281 2456 1184 1953 
L 800 0 
L 225 0 
L 909 3500 
L 1484 3500 
L 1375 2956 
Q 1609 3263 1923 3423 
Q 2238 3584 2597 3584 
Q 2978 3584 3223 3384 
Q 3469 3184 3519 2828 
Q 3781 3197 4126 3390 
Q 4472 3584 4856 3584 
Q 5306 3584 5551 3325 
Q 5797 3066 5797 2591 
Q 5797 2488 5784 2364 
Q 5772 2241 5747 2113 
z
" id="DejaVuSans-Oblique-6d" transform="scale(0.015625)"/>
      </defs>
      <use transform="translate(0 0.09375)" xlink:href="#DejaVuSans-Oblique-46"/>
      <use transform="translate(57.519531 -16.3125)scale(0.7)" xlink:href="#DejaVuSans-Oblique-61"/>
      <use transform="translate(100.415039 -16.3125)scale(0.7)" xlink:href="#DejaVuSans-Oblique-6d"/>
     </g>
     <!-- Statistics -->
     <g transform="translate(209.972266 128.52125)scale(0.05 -0.05)">
      <defs>
       <path d="M 3425 4513 
L 3425 3897 
Q 3066 4069 2747 4153 
Q 2428 4238 2131 4238 
Q 1616 4238 1336 4038 
Q 1056 3838 1056 3469 
Q 1056 3159 1242 3001 
Q 1428 2844 1947 2747 
L 2328 2669 
Q 3034 2534 3370 2195 
Q 3706 1856 3706 1288 
Q 3706 609 3251 259 
Q 2797 -91 1919 -91 
Q 1588 -91 1214 -16 
Q 841 59 441 206 
L 441 856 
Q 825 641 1194 531 
Q 1563 422 1919 422 
Q 2459 422 2753 634 
Q 3047 847 3047 1241 
Q 3047 1584 2836 1778 
Q 2625 1972 2144 2069 
L 1759 2144 
Q 1053 2284 737 2584 
Q 422 2884 422 3419 
Q 422 4038 858 4394 
Q 1294 4750 2059 4750 
Q 2388 4750 2728 4690 
Q 3069 4631 3425 4513 
z
" id="DejaVuSans-53" transform="scale(0.015625)"/>
       <path d="M 1172 4494 
L 1172 3500 
L 2356 3500 
L 2356 3053 
L 1172 3053 
L 1172 1153 
Q 1172 725 1289 603 
Q 1406 481 1766 481 
L 2356 481 
L 2356 0 
L 1766 0 
Q 1100 0 847 248 
Q 594 497 594 1153 
L 594 3053 
L 172 3053 
L 172 3500 
L 594 3500 
L 594 4494 
L 1172 4494 
z
" id="DejaVuSans-74" transform="scale(0.015625)"/>
       <path d="M 2194 1759 
Q 1497 1759 1228 1600 
Q 959 1441 959 1056 
Q 959 750 1161 570 
Q 1363 391 1709 391 
Q 2188 391 2477 730 
Q 2766 1069 2766 1631 
L 2766 1759 
L 2194 1759 
z
M 3341 1997 
L 3341 0 
L 2766 0 
L 2766 531 
Q 2569 213 2275 61 
Q 1981 -91 1556 -91 
Q 1019 -91 701 211 
Q 384 513 384 1019 
Q 384 1609 779 1909 
Q 1175 2209 1959 2209 
L 2766 2209 
L 2766 2266 
Q 2766 2663 2505 2880 
Q 2244 3097 1772 3097 
Q 1472 3097 1187 3025 
Q 903 2953 641 2809 
L 641 3341 
Q 956 3463 1253 3523 
Q 1550 3584 1831 3584 
Q 2591 3584 2966 3190 
Q 3341 2797 3341 1997 
z
" id="DejaVuSans-61" transform="scale(0.015625)"/>
       <path d="M 603 3500 
L 1178 3500 
L 1178 0 
L 603 0 
L 603 3500 
z
M 603 4863 
L 1178 4863 
L 1178 4134 
L 603 4134 
L 603 4863 
z
" id="DejaVuSans-69" transform="scale(0.015625)"/>
       <path d="M 2834 3397 
L 2834 2853 
Q 2591 2978 2328 3040 
Q 2066 3103 1784 3103 
Q 1356 3103 1142 2972 
Q 928 2841 928 2578 
Q 928 2378 1081 2264 
Q 1234 2150 1697 2047 
L 1894 2003 
Q 2506 1872 2764 1633 
Q 3022 1394 3022 966 
Q 3022 478 2636 193 
Q 2250 -91 1575 -91 
Q 1294 -91 989 -36 
Q 684 19 347 128 
L 347 722 
Q 666 556 975 473 
Q 1284 391 1588 391 
Q 1994 391 2212 530 
Q 2431 669 2431 922 
Q 2431 1156 2273 1281 
Q 2116 1406 1581 1522 
L 1381 1569 
Q 847 1681 609 1914 
Q 372 2147 372 2553 
Q 372 3047 722 3315 
Q 1072 3584 1716 3584 
Q 2034 3584 2315 3537 
Q 2597 3491 2834 3397 
z
" id="DejaVuSans-73" transform="scale(0.015625)"/>
      </defs>
      <use xlink:href="#DejaVuSans-53"/>
      <use x="63.476562" xlink:href="#DejaVuSans-74"/>
      <use x="102.685547" xlink:href="#DejaVuSans-61"/>
      <use x="163.964844" xlink:href="#DejaVuSans-74"/>
      <use x="203.173828" xlink:href="#DejaVuSans-69"/>
      <use x="230.957031" xlink:href="#DejaVuSans-73"/>
      <use x="283.056641" xlink:href="#DejaVuSans-74"/>
      <use x="322.265625" xlink:href="#DejaVuSans-69"/>
      <use x="350.048828" xlink:href="#DejaVuSans-63"/>
      <use x="405.029297" xlink:href="#DejaVuSans-73"/>
     </g>
    </g>
    <g id="line2d_117">
     <path d="M 209.725 134.110313 
L 219.725 134.110313 
" style="fill:none;stroke:#1f77b4;stroke-linecap:square;stroke-width:0.5;"/>
    </g>
    <g id="line2d_118"/>
    <g id="text_30">
     <!-- $D_u$ -->
     <g transform="translate(223.725 135.860313)scale(0.05 -0.05)">
      <defs>
       <path d="M 1081 4666 
L 2438 4666 
Q 3519 4666 4070 4208 
Q 4622 3750 4622 2847 
Q 4622 2250 4412 1698 
Q 4203 1147 3834 769 
Q 3463 381 2891 190 
Q 2319 0 1538 0 
L 172 0 
L 1081 4666 
z
M 1613 4147 
L 909 519 
L 1734 519 
Q 2794 519 3375 1128 
Q 3956 1738 3956 2847 
Q 3956 3519 3581 3833 
Q 3206 4147 2406 4147 
L 1613 4147 
z
" id="DejaVuSans-Oblique-44" transform="scale(0.015625)"/>
       <path d="M 428 1388 
L 838 3500 
L 1416 3500 
L 1006 1409 
Q 975 1256 961 1147 
Q 947 1038 947 966 
Q 947 700 1109 554 
Q 1272 409 1569 409 
Q 2031 409 2368 721 
Q 2706 1034 2809 1563 
L 3194 3500 
L 3769 3500 
L 3091 0 
L 2516 0 
L 2631 550 
Q 2388 244 2052 76 
Q 1716 -91 1338 -91 
Q 878 -91 622 161 
Q 366 413 366 863 
Q 366 956 381 1097 
Q 397 1238 428 1388 
z
" id="DejaVuSans-Oblique-75" transform="scale(0.015625)"/>
      </defs>
      <use transform="translate(0 0.09375)" xlink:href="#DejaVuSans-Oblique-44"/>
      <use transform="translate(77.001953 -16.3125)scale(0.7)" xlink:href="#DejaVuSans-Oblique-75"/>
     </g>
    </g>
    <g id="line2d_119">
     <path d="M 209.725 141.449375 
L 219.725 141.449375 
" style="fill:none;stroke:#ff7f0e;stroke-linecap:square;stroke-width:0.5;"/>
    </g>
    <g id="line2d_120"/>
    <g id="text_31">
     <!-- $D_l$ -->
     <g transform="translate(223.725 143.199375)scale(0.05 -0.05)">
      <defs>
       <path d="M 1172 4863 
L 1747 4863 
L 800 0 
L 225 0 
L 1172 4863 
z
" id="DejaVuSans-Oblique-6c" transform="scale(0.015625)"/>
      </defs>
      <use transform="translate(0 0.09375)" xlink:href="#DejaVuSans-Oblique-44"/>
      <use transform="translate(77.001953 -16.3125)scale(0.7)" xlink:href="#DejaVuSans-Oblique-6c"/>
     </g>
    </g>
    <g id="line2d_121">
     <path d="M 209.725 148.788438 
L 219.725 148.788438 
" style="fill:none;stroke:#2ca02c;stroke-linecap:square;stroke-width:0.5;"/>
    </g>
    <g id="line2d_122"/>
    <g id="text_32">
     <!-- $\sigma_{F_{am}}$ -->
     <g transform="translate(223.725 150.538438)scale(0.05 -0.05)">
      <defs>
       <path d="M 2219 3044 
Q 1744 3044 1422 2700 
Q 1081 2341 969 1747 
Q 844 1119 1044 756 
Q 1241 397 1706 397 
Q 2166 397 2503 759 
Q 2844 1122 2966 1747 
Q 3075 2319 2881 2700 
Q 2700 3044 2219 3044 
z
M 2309 3503 
L 4219 3500 
L 4106 2925 
L 3463 2925 
Q 3706 2438 3575 1747 
Q 3406 888 2884 400 
Q 2359 -91 1609 -91 
Q 856 -91 525 400 
Q 194 888 363 1747 
Q 528 2609 1050 3097 
Q 1484 3503 2309 3503 
z
" id="DejaVuSans-Oblique-3c3" transform="scale(0.015625)"/>
      </defs>
      <use transform="translate(0 0.265625)" xlink:href="#DejaVuSans-Oblique-3c3"/>
      <use transform="translate(63.378906 -16.140625)scale(0.7)" xlink:href="#DejaVuSans-Oblique-46"/>
      <use transform="translate(103.642578 -27.625)scale(0.49)" xlink:href="#DejaVuSans-Oblique-61"/>
      <use transform="translate(133.669434 -27.625)scale(0.49)" xlink:href="#DejaVuSans-Oblique-6d"/>
     </g>
    </g>
    <g id="line2d_123">
     <path d="M 209.725 156.537656 
L 219.725 156.537656 
" style="fill:none;stroke:#d62728;stroke-linecap:square;stroke-width:0.5;"/>
    </g>
    <g id="line2d_124"/>
    <g id="text_33">
     <!-- $\sigma_{D_u}$ -->
     <g transform="translate(223.725 158.287656)scale(0.05 -0.05)">
      <use transform="translate(0 0.265625)" xlink:href="#DejaVuSans-Oblique-3c3"/>
      <use transform="translate(63.378906 -16.140625)scale(0.7)" xlink:href="#DejaVuSans-Oblique-44"/>
      <use transform="translate(117.280273 -27.625)scale(0.49)" xlink:href="#DejaVuSans-Oblique-75"/>
     </g>
    </g>
    <g id="line2d_125">
     <path d="M 209.725 164.286875 
L 219.725 164.286875 
" style="fill:none;stroke:#9467bd;stroke-linecap:square;stroke-width:0.5;"/>
    </g>
    <g id="line2d_126"/>
    <g id="text_34">
     <!-- $\sigma_{D_l}$ -->
     <g transform="translate(223.725 166.036875)scale(0.05 -0.05)">
      <use transform="translate(0 0.265625)" xlink:href="#DejaVuSans-Oblique-3c3"/>
      <use transform="translate(63.378906 -16.140625)scale(0.7)" xlink:href="#DejaVuSans-Oblique-44"/>
      <use transform="translate(117.280273 -27.625)scale(0.49)" xlink:href="#DejaVuSans-Oblique-6c"/>
     </g>
    </g>
   </g>
  </g>
 </g>
 <defs>
  <clipPath id="pb2ca0d2c8a">
   <rect height="217.44" width="334.8" x="54" y="34.56"/>
  </clipPath>
 </defs>
</svg>
