<?xml version="1.0" encoding="utf-8" standalone="no"?>
<!DOCTYPE svg PUBLIC "-//W3C//DTD SVG 1.1//EN"
  "http://www.w3.org/Graphics/SVG/1.1/DTD/svg11.dtd">
<svg xmlns:xlink="http://www.w3.org/1999/xlink" width="377.459375pt" height="256.733281pt" viewBox="0 0 377.459375 256.733281" xmlns="http://www.w3.org/2000/svg" version="1.1">
 <metadata>
  <rdf:RDF xmlns:dc="http://purl.org/dc/elements/1.1/" xmlns:cc="http://creativecommons.org/ns#" xmlns:rdf="http://www.w3.org/1999/02/22-rdf-syntax-ns#">
   <cc:Work>
    <dc:type rdf:resource="http://purl.org/dc/dcmitype/StillImage"/>
    <dc:date>2022-01-06T16:25:01.553940</dc:date>
    <dc:format>image/svg+xml</dc:format>
    <dc:creator>
     <cc:Agent>
      <dc:title>Matplotlib v3.5.0, https://matplotlib.org/</dc:title>
     </cc:Agent>
    </dc:creator>
   </cc:Work>
  </rdf:RDF>
 </metadata>
 <defs>
  <style type="text/css">*{stroke-linejoin: round; stroke-linecap: butt}</style>
 </defs>
 <g id="figure_1">
  <g id="patch_1">
   <path d="M 0 256.733281 
L 377.459375 256.733281 
L 377.459375 0 
L 0 0 
z
" style="fill: #ffffff"/>
  </g>
  <g id="axes_1">
   <g id="patch_2">
    <path d="M 31.641875 226.919531 
L 366.441875 226.919531 
L 366.441875 9.479531 
L 31.641875 9.479531 
z
" style="fill: #ffffff"/>
   </g>
   <g id="matplotlib.axis_1">
    <g id="xtick_1">
     <g id="line2d_1">
      <path d="M 31.641875 226.919531 
L 31.641875 9.479531 
" clip-path="url(#p5ee688d46c)" style="fill: none; stroke: #000000; stroke-width: 0.5; stroke-linecap: square"/>
     </g>
     <g id="line2d_2">
      <defs>
       <path id="m696cee2d2b" d="M 0 0 
L 0 3.5 
" style="stroke: #000000; stroke-width: 0.8"/>
      </defs>
      <g>
       <use xlink:href="#m696cee2d2b" x="31.641875" y="226.919531" style="stroke: #000000; stroke-width: 0.8"/>
      </g>
     </g>
     <g id="text_1">
      <!-- 0.01 -->
      <g transform="translate(24.962187 238.478594)scale(0.06 -0.06)">
       <defs>
        <path id="DejaVuSans-30" d="M 2034 4250 
Q 1547 4250 1301 3770 
Q 1056 3291 1056 2328 
Q 1056 1369 1301 889 
Q 1547 409 2034 409 
Q 2525 409 2770 889 
Q 3016 1369 3016 2328 
Q 3016 3291 2770 3770 
Q 2525 4250 2034 4250 
z
M 2034 4750 
Q 2819 4750 3233 4129 
Q 3647 3509 3647 2328 
Q 3647 1150 3233 529 
Q 2819 -91 2034 -91 
Q 1250 -91 836 529 
Q 422 1150 422 2328 
Q 422 3509 836 4129 
Q 1250 4750 2034 4750 
z
" transform="scale(0.015625)"/>
        <path id="DejaVuSans-2e" d="M 684 794 
L 1344 794 
L 1344 0 
L 684 0 
L 684 794 
z
" transform="scale(0.015625)"/>
        <path id="DejaVuSans-31" d="M 794 531 
L 1825 531 
L 1825 4091 
L 703 3866 
L 703 4441 
L 1819 4666 
L 2450 4666 
L 2450 531 
L 3481 531 
L 3481 0 
L 794 0 
L 794 531 
z
" transform="scale(0.015625)"/>
       </defs>
       <use xlink:href="#DejaVuSans-30"/>
       <use xlink:href="#DejaVuSans-2e" x="63.623047"/>
       <use xlink:href="#DejaVuSans-30" x="95.410156"/>
       <use xlink:href="#DejaVuSans-31" x="159.033203"/>
      </g>
     </g>
    </g>
    <g id="xtick_2">
     <g id="line2d_3">
      <path d="M 62.173207 226.919531 
L 62.173207 9.479531 
" clip-path="url(#p5ee688d46c)" style="fill: none; stroke: #000000; stroke-width: 0.5; stroke-linecap: square"/>
     </g>
     <g id="line2d_4">
      <g>
       <use xlink:href="#m696cee2d2b" x="62.173207" y="226.919531" style="stroke: #000000; stroke-width: 0.8"/>
      </g>
     </g>
     <g id="text_2">
      <!-- 0.02 -->
      <g transform="translate(55.493519 238.478594)scale(0.06 -0.06)">
       <defs>
        <path id="DejaVuSans-32" d="M 1228 531 
L 3431 531 
L 3431 0 
L 469 0 
L 469 531 
Q 828 903 1448 1529 
Q 2069 2156 2228 2338 
Q 2531 2678 2651 2914 
Q 2772 3150 2772 3378 
Q 2772 3750 2511 3984 
Q 2250 4219 1831 4219 
Q 1534 4219 1204 4116 
Q 875 4013 500 3803 
L 500 4441 
Q 881 4594 1212 4672 
Q 1544 4750 1819 4750 
Q 2544 4750 2975 4387 
Q 3406 4025 3406 3419 
Q 3406 3131 3298 2873 
Q 3191 2616 2906 2266 
Q 2828 2175 2409 1742 
Q 1991 1309 1228 531 
z
" transform="scale(0.015625)"/>
       </defs>
       <use xlink:href="#DejaVuSans-30"/>
       <use xlink:href="#DejaVuSans-2e" x="63.623047"/>
       <use xlink:href="#DejaVuSans-30" x="95.410156"/>
       <use xlink:href="#DejaVuSans-32" x="159.033203"/>
      </g>
     </g>
    </g>
    <g id="xtick_3">
     <g id="line2d_5">
      <path d="M 80.032891 226.919531 
L 80.032891 9.479531 
" clip-path="url(#p5ee688d46c)" style="fill: none; stroke: #000000; stroke-width: 0.5; stroke-linecap: square"/>
     </g>
     <g id="line2d_6">
      <g>
       <use xlink:href="#m696cee2d2b" x="80.032891" y="226.919531" style="stroke: #000000; stroke-width: 0.8"/>
      </g>
     </g>
     <g id="text_3">
      <!-- 0.03 -->
      <g transform="translate(73.353204 238.478594)scale(0.06 -0.06)">
       <defs>
        <path id="DejaVuSans-33" d="M 2597 2516 
Q 3050 2419 3304 2112 
Q 3559 1806 3559 1356 
Q 3559 666 3084 287 
Q 2609 -91 1734 -91 
Q 1441 -91 1130 -33 
Q 819 25 488 141 
L 488 750 
Q 750 597 1062 519 
Q 1375 441 1716 441 
Q 2309 441 2620 675 
Q 2931 909 2931 1356 
Q 2931 1769 2642 2001 
Q 2353 2234 1838 2234 
L 1294 2234 
L 1294 2753 
L 1863 2753 
Q 2328 2753 2575 2939 
Q 2822 3125 2822 3475 
Q 2822 3834 2567 4026 
Q 2313 4219 1838 4219 
Q 1578 4219 1281 4162 
Q 984 4106 628 3988 
L 628 4550 
Q 988 4650 1302 4700 
Q 1616 4750 1894 4750 
Q 2613 4750 3031 4423 
Q 3450 4097 3450 3541 
Q 3450 3153 3228 2886 
Q 3006 2619 2597 2516 
z
" transform="scale(0.015625)"/>
       </defs>
       <use xlink:href="#DejaVuSans-30"/>
       <use xlink:href="#DejaVuSans-2e" x="63.623047"/>
       <use xlink:href="#DejaVuSans-30" x="95.410156"/>
       <use xlink:href="#DejaVuSans-33" x="159.033203"/>
      </g>
     </g>
    </g>
    <g id="xtick_4">
     <g id="line2d_7">
      <path d="M 102.533432 226.919531 
L 102.533432 9.479531 
" clip-path="url(#p5ee688d46c)" style="fill: none; stroke: #000000; stroke-width: 0.5; stroke-linecap: square"/>
     </g>
     <g id="line2d_8">
      <g>
       <use xlink:href="#m696cee2d2b" x="102.533432" y="226.919531" style="stroke: #000000; stroke-width: 0.8"/>
      </g>
     </g>
     <g id="text_4">
      <!-- 0.05 -->
      <g transform="translate(95.853745 238.478594)scale(0.06 -0.06)">
       <defs>
        <path id="DejaVuSans-35" d="M 691 4666 
L 3169 4666 
L 3169 4134 
L 1269 4134 
L 1269 2991 
Q 1406 3038 1543 3061 
Q 1681 3084 1819 3084 
Q 2600 3084 3056 2656 
Q 3513 2228 3513 1497 
Q 3513 744 3044 326 
Q 2575 -91 1722 -91 
Q 1428 -91 1123 -41 
Q 819 9 494 109 
L 494 744 
Q 775 591 1075 516 
Q 1375 441 1709 441 
Q 2250 441 2565 725 
Q 2881 1009 2881 1497 
Q 2881 1984 2565 2268 
Q 2250 2553 1709 2553 
Q 1456 2553 1204 2497 
Q 953 2441 691 2322 
L 691 4666 
z
" transform="scale(0.015625)"/>
       </defs>
       <use xlink:href="#DejaVuSans-30"/>
       <use xlink:href="#DejaVuSans-2e" x="63.623047"/>
       <use xlink:href="#DejaVuSans-30" x="95.410156"/>
       <use xlink:href="#DejaVuSans-35" x="159.033203"/>
      </g>
     </g>
    </g>
    <g id="xtick_5">
     <g id="line2d_9">
      <path d="M 117.35416 226.919531 
L 117.35416 9.479531 
" clip-path="url(#p5ee688d46c)" style="fill: none; stroke: #000000; stroke-width: 0.5; stroke-linecap: square"/>
     </g>
     <g id="line2d_10">
      <g>
       <use xlink:href="#m696cee2d2b" x="117.35416" y="226.919531" style="stroke: #000000; stroke-width: 0.8"/>
      </g>
     </g>
     <g id="text_5">
      <!-- 0.07 -->
      <g transform="translate(110.674473 238.478594)scale(0.06 -0.06)">
       <defs>
        <path id="DejaVuSans-37" d="M 525 4666 
L 3525 4666 
L 3525 4397 
L 1831 0 
L 1172 0 
L 2766 4134 
L 525 4134 
L 525 4666 
z
" transform="scale(0.015625)"/>
       </defs>
       <use xlink:href="#DejaVuSans-30"/>
       <use xlink:href="#DejaVuSans-2e" x="63.623047"/>
       <use xlink:href="#DejaVuSans-30" x="95.410156"/>
       <use xlink:href="#DejaVuSans-37" x="159.033203"/>
      </g>
     </g>
    </g>
    <g id="xtick_6">
     <g id="line2d_11">
      <path d="M 133.064764 226.919531 
L 133.064764 9.479531 
" clip-path="url(#p5ee688d46c)" style="fill: none; stroke: #000000; stroke-width: 0.5; stroke-linecap: square"/>
     </g>
     <g id="line2d_12">
      <g>
       <use xlink:href="#m696cee2d2b" x="133.064764" y="226.919531" style="stroke: #000000; stroke-width: 0.8"/>
      </g>
     </g>
     <g id="text_6">
      <!-- 0.1 -->
      <g transform="translate(128.293827 238.478594)scale(0.06 -0.06)">
       <use xlink:href="#DejaVuSans-30"/>
       <use xlink:href="#DejaVuSans-2e" x="63.623047"/>
       <use xlink:href="#DejaVuSans-31" x="95.410156"/>
      </g>
     </g>
    </g>
    <g id="xtick_7">
     <g id="line2d_13">
      <path d="M 163.596096 226.919531 
L 163.596096 9.479531 
" clip-path="url(#p5ee688d46c)" style="fill: none; stroke: #000000; stroke-width: 0.5; stroke-linecap: square"/>
     </g>
     <g id="line2d_14">
      <g>
       <use xlink:href="#m696cee2d2b" x="163.596096" y="226.919531" style="stroke: #000000; stroke-width: 0.8"/>
      </g>
     </g>
     <g id="text_7">
      <!-- 0.2 -->
      <g transform="translate(158.825159 238.478594)scale(0.06 -0.06)">
       <use xlink:href="#DejaVuSans-30"/>
       <use xlink:href="#DejaVuSans-2e" x="63.623047"/>
       <use xlink:href="#DejaVuSans-32" x="95.410156"/>
      </g>
     </g>
    </g>
    <g id="xtick_8">
     <g id="line2d_15">
      <path d="M 181.455781 226.919531 
L 181.455781 9.479531 
" clip-path="url(#p5ee688d46c)" style="fill: none; stroke: #000000; stroke-width: 0.5; stroke-linecap: square"/>
     </g>
     <g id="line2d_16">
      <g>
       <use xlink:href="#m696cee2d2b" x="181.455781" y="226.919531" style="stroke: #000000; stroke-width: 0.8"/>
      </g>
     </g>
     <g id="text_8">
      <!-- 0.3 -->
      <g transform="translate(176.684843 238.478594)scale(0.06 -0.06)">
       <use xlink:href="#DejaVuSans-30"/>
       <use xlink:href="#DejaVuSans-2e" x="63.623047"/>
       <use xlink:href="#DejaVuSans-33" x="95.410156"/>
      </g>
     </g>
    </g>
    <g id="xtick_9">
     <g id="line2d_17">
      <path d="M 203.956322 226.919531 
L 203.956322 9.479531 
" clip-path="url(#p5ee688d46c)" style="fill: none; stroke: #000000; stroke-width: 0.5; stroke-linecap: square"/>
     </g>
     <g id="line2d_18">
      <g>
       <use xlink:href="#m696cee2d2b" x="203.956322" y="226.919531" style="stroke: #000000; stroke-width: 0.8"/>
      </g>
     </g>
     <g id="text_9">
      <!-- 0.5 -->
      <g transform="translate(199.185384 238.478594)scale(0.06 -0.06)">
       <use xlink:href="#DejaVuSans-30"/>
       <use xlink:href="#DejaVuSans-2e" x="63.623047"/>
       <use xlink:href="#DejaVuSans-35" x="95.410156"/>
      </g>
     </g>
    </g>
    <g id="xtick_10">
     <g id="line2d_19">
      <path d="M 218.777049 226.919531 
L 218.777049 9.479531 
" clip-path="url(#p5ee688d46c)" style="fill: none; stroke: #000000; stroke-width: 0.5; stroke-linecap: square"/>
     </g>
     <g id="line2d_20">
      <g>
       <use xlink:href="#m696cee2d2b" x="218.777049" y="226.919531" style="stroke: #000000; stroke-width: 0.8"/>
      </g>
     </g>
     <g id="text_10">
      <!-- 0.7 -->
      <g transform="translate(214.006112 238.478594)scale(0.06 -0.06)">
       <use xlink:href="#DejaVuSans-30"/>
       <use xlink:href="#DejaVuSans-2e" x="63.623047"/>
       <use xlink:href="#DejaVuSans-37" x="95.410156"/>
      </g>
     </g>
    </g>
    <g id="xtick_11">
     <g id="line2d_21">
      <path d="M 234.487654 226.919531 
L 234.487654 9.479531 
" clip-path="url(#p5ee688d46c)" style="fill: none; stroke: #000000; stroke-width: 0.5; stroke-linecap: square"/>
     </g>
     <g id="line2d_22">
      <g>
       <use xlink:href="#m696cee2d2b" x="234.487654" y="226.919531" style="stroke: #000000; stroke-width: 0.8"/>
      </g>
     </g>
     <g id="text_11">
      <!-- 1 -->
      <g transform="translate(232.578904 238.478594)scale(0.06 -0.06)">
       <use xlink:href="#DejaVuSans-31"/>
      </g>
     </g>
    </g>
    <g id="xtick_12">
     <g id="line2d_23">
      <path d="M 265.018986 226.919531 
L 265.018986 9.479531 
" clip-path="url(#p5ee688d46c)" style="fill: none; stroke: #000000; stroke-width: 0.5; stroke-linecap: square"/>
     </g>
     <g id="line2d_24">
      <g>
       <use xlink:href="#m696cee2d2b" x="265.018986" y="226.919531" style="stroke: #000000; stroke-width: 0.8"/>
      </g>
     </g>
     <g id="text_12">
      <!-- 2 -->
      <g transform="translate(263.110236 238.478594)scale(0.06 -0.06)">
       <use xlink:href="#DejaVuSans-32"/>
      </g>
     </g>
    </g>
    <g id="xtick_13">
     <g id="line2d_25">
      <path d="M 282.87867 226.919531 
L 282.87867 9.479531 
" clip-path="url(#p5ee688d46c)" style="fill: none; stroke: #000000; stroke-width: 0.5; stroke-linecap: square"/>
     </g>
     <g id="line2d_26">
      <g>
       <use xlink:href="#m696cee2d2b" x="282.87867" y="226.919531" style="stroke: #000000; stroke-width: 0.8"/>
      </g>
     </g>
     <g id="text_13">
      <!-- 3 -->
      <g transform="translate(280.96992 238.478594)scale(0.06 -0.06)">
       <use xlink:href="#DejaVuSans-33"/>
      </g>
     </g>
    </g>
    <g id="xtick_14">
     <g id="line2d_27">
      <path d="M 305.379211 226.919531 
L 305.379211 9.479531 
" clip-path="url(#p5ee688d46c)" style="fill: none; stroke: #000000; stroke-width: 0.5; stroke-linecap: square"/>
     </g>
     <g id="line2d_28">
      <g>
       <use xlink:href="#m696cee2d2b" x="305.379211" y="226.919531" style="stroke: #000000; stroke-width: 0.8"/>
      </g>
     </g>
     <g id="text_14">
      <!-- 5 -->
      <g transform="translate(303.470461 238.478594)scale(0.06 -0.06)">
       <use xlink:href="#DejaVuSans-35"/>
      </g>
     </g>
    </g>
    <g id="xtick_15">
     <g id="line2d_29">
      <path d="M 320.199939 226.919531 
L 320.199939 9.479531 
" clip-path="url(#p5ee688d46c)" style="fill: none; stroke: #000000; stroke-width: 0.5; stroke-linecap: square"/>
     </g>
     <g id="line2d_30">
      <g>
       <use xlink:href="#m696cee2d2b" x="320.199939" y="226.919531" style="stroke: #000000; stroke-width: 0.8"/>
      </g>
     </g>
     <g id="text_15">
      <!-- 7 -->
      <g transform="translate(318.291189 238.478594)scale(0.06 -0.06)">
       <use xlink:href="#DejaVuSans-37"/>
      </g>
     </g>
    </g>
    <g id="xtick_16">
     <g id="line2d_31">
      <path d="M 335.910543 226.919531 
L 335.910543 9.479531 
" clip-path="url(#p5ee688d46c)" style="fill: none; stroke: #000000; stroke-width: 0.5; stroke-linecap: square"/>
     </g>
     <g id="line2d_32">
      <g>
       <use xlink:href="#m696cee2d2b" x="335.910543" y="226.919531" style="stroke: #000000; stroke-width: 0.8"/>
      </g>
     </g>
     <g id="text_16">
      <!-- 10 -->
      <g transform="translate(332.093043 238.478594)scale(0.06 -0.06)">
       <use xlink:href="#DejaVuSans-31"/>
       <use xlink:href="#DejaVuSans-30" x="63.623047"/>
      </g>
     </g>
    </g>
    <g id="xtick_17">
     <g id="line2d_33">
      <path d="M 366.441875 226.919531 
L 366.441875 9.479531 
" clip-path="url(#p5ee688d46c)" style="fill: none; stroke: #000000; stroke-width: 0.5; stroke-linecap: square"/>
     </g>
     <g id="line2d_34">
      <g>
       <use xlink:href="#m696cee2d2b" x="366.441875" y="226.919531" style="stroke: #000000; stroke-width: 0.8"/>
      </g>
     </g>
     <g id="text_17">
      <!-- 20 -->
      <g transform="translate(362.624375 238.478594)scale(0.06 -0.06)">
       <use xlink:href="#DejaVuSans-32"/>
       <use xlink:href="#DejaVuSans-30" x="63.623047"/>
      </g>
     </g>
    </g>
    <g id="xtick_18">
     <g id="line2d_35">
      <path d="M 92.704539 226.919531 
L 92.704539 9.479531 
" clip-path="url(#p5ee688d46c)" style="fill: none; stroke: #000000; stroke-width: 0.1; stroke-linecap: square"/>
     </g>
     <g id="line2d_36">
      <defs>
       <path id="mf966908151" d="M 0 0 
L 0 2 
" style="stroke: #000000; stroke-width: 0.6"/>
      </defs>
      <g>
       <use xlink:href="#mf966908151" x="92.704539" y="226.919531" style="stroke: #000000; stroke-width: 0.6"/>
      </g>
     </g>
    </g>
    <g id="xtick_19">
     <g id="line2d_37">
      <path d="M 110.564223 226.919531 
L 110.564223 9.479531 
" clip-path="url(#p5ee688d46c)" style="fill: none; stroke: #000000; stroke-width: 0.1; stroke-linecap: square"/>
     </g>
     <g id="line2d_38">
      <g>
       <use xlink:href="#mf966908151" x="110.564223" y="226.919531" style="stroke: #000000; stroke-width: 0.6"/>
      </g>
     </g>
    </g>
    <g id="xtick_20">
     <g id="line2d_39">
      <path d="M 123.235871 226.919531 
L 123.235871 9.479531 
" clip-path="url(#p5ee688d46c)" style="fill: none; stroke: #000000; stroke-width: 0.1; stroke-linecap: square"/>
     </g>
     <g id="line2d_40">
      <g>
       <use xlink:href="#mf966908151" x="123.235871" y="226.919531" style="stroke: #000000; stroke-width: 0.6"/>
      </g>
     </g>
    </g>
    <g id="xtick_21">
     <g id="line2d_41">
      <path d="M 128.423907 226.919531 
L 128.423907 9.479531 
" clip-path="url(#p5ee688d46c)" style="fill: none; stroke: #000000; stroke-width: 0.1; stroke-linecap: square"/>
     </g>
     <g id="line2d_42">
      <g>
       <use xlink:href="#mf966908151" x="128.423907" y="226.919531" style="stroke: #000000; stroke-width: 0.6"/>
      </g>
     </g>
    </g>
    <g id="xtick_22">
     <g id="line2d_43">
      <path d="M 194.127428 226.919531 
L 194.127428 9.479531 
" clip-path="url(#p5ee688d46c)" style="fill: none; stroke: #000000; stroke-width: 0.1; stroke-linecap: square"/>
     </g>
     <g id="line2d_44">
      <g>
       <use xlink:href="#mf966908151" x="194.127428" y="226.919531" style="stroke: #000000; stroke-width: 0.6"/>
      </g>
     </g>
    </g>
    <g id="xtick_23">
     <g id="line2d_45">
      <path d="M 211.987113 226.919531 
L 211.987113 9.479531 
" clip-path="url(#p5ee688d46c)" style="fill: none; stroke: #000000; stroke-width: 0.1; stroke-linecap: square"/>
     </g>
     <g id="line2d_46">
      <g>
       <use xlink:href="#mf966908151" x="211.987113" y="226.919531" style="stroke: #000000; stroke-width: 0.6"/>
      </g>
     </g>
    </g>
    <g id="xtick_24">
     <g id="line2d_47">
      <path d="M 224.65876 226.919531 
L 224.65876 9.479531 
" clip-path="url(#p5ee688d46c)" style="fill: none; stroke: #000000; stroke-width: 0.1; stroke-linecap: square"/>
     </g>
     <g id="line2d_48">
      <g>
       <use xlink:href="#mf966908151" x="224.65876" y="226.919531" style="stroke: #000000; stroke-width: 0.6"/>
      </g>
     </g>
    </g>
    <g id="xtick_25">
     <g id="line2d_49">
      <path d="M 229.846797 226.919531 
L 229.846797 9.479531 
" clip-path="url(#p5ee688d46c)" style="fill: none; stroke: #000000; stroke-width: 0.1; stroke-linecap: square"/>
     </g>
     <g id="line2d_50">
      <g>
       <use xlink:href="#mf966908151" x="229.846797" y="226.919531" style="stroke: #000000; stroke-width: 0.6"/>
      </g>
     </g>
    </g>
    <g id="xtick_26">
     <g id="line2d_51">
      <path d="M 295.550318 226.919531 
L 295.550318 9.479531 
" clip-path="url(#p5ee688d46c)" style="fill: none; stroke: #000000; stroke-width: 0.1; stroke-linecap: square"/>
     </g>
     <g id="line2d_52">
      <g>
       <use xlink:href="#mf966908151" x="295.550318" y="226.919531" style="stroke: #000000; stroke-width: 0.6"/>
      </g>
     </g>
    </g>
    <g id="xtick_27">
     <g id="line2d_53">
      <path d="M 313.410002 226.919531 
L 313.410002 9.479531 
" clip-path="url(#p5ee688d46c)" style="fill: none; stroke: #000000; stroke-width: 0.1; stroke-linecap: square"/>
     </g>
     <g id="line2d_54">
      <g>
       <use xlink:href="#mf966908151" x="313.410002" y="226.919531" style="stroke: #000000; stroke-width: 0.6"/>
      </g>
     </g>
    </g>
    <g id="xtick_28">
     <g id="line2d_55">
      <path d="M 326.08165 226.919531 
L 326.08165 9.479531 
" clip-path="url(#p5ee688d46c)" style="fill: none; stroke: #000000; stroke-width: 0.1; stroke-linecap: square"/>
     </g>
     <g id="line2d_56">
      <g>
       <use xlink:href="#mf966908151" x="326.08165" y="226.919531" style="stroke: #000000; stroke-width: 0.6"/>
      </g>
     </g>
    </g>
    <g id="xtick_29">
     <g id="line2d_57">
      <path d="M 331.269686 226.919531 
L 331.269686 9.479531 
" clip-path="url(#p5ee688d46c)" style="fill: none; stroke: #000000; stroke-width: 0.1; stroke-linecap: square"/>
     </g>
     <g id="line2d_58">
      <g>
       <use xlink:href="#mf966908151" x="331.269686" y="226.919531" style="stroke: #000000; stroke-width: 0.6"/>
      </g>
     </g>
    </g>
    <g id="text_18">
     <!-- Frequency (MHz) -->
     <g transform="translate(173.830625 248.285469)scale(0.06 -0.06)">
      <defs>
       <path id="DejaVuSans-46" d="M 628 4666 
L 3309 4666 
L 3309 4134 
L 1259 4134 
L 1259 2759 
L 3109 2759 
L 3109 2228 
L 1259 2228 
L 1259 0 
L 628 0 
L 628 4666 
z
" transform="scale(0.015625)"/>
       <path id="DejaVuSans-72" d="M 2631 2963 
Q 2534 3019 2420 3045 
Q 2306 3072 2169 3072 
Q 1681 3072 1420 2755 
Q 1159 2438 1159 1844 
L 1159 0 
L 581 0 
L 581 3500 
L 1159 3500 
L 1159 2956 
Q 1341 3275 1631 3429 
Q 1922 3584 2338 3584 
Q 2397 3584 2469 3576 
Q 2541 3569 2628 3553 
L 2631 2963 
z
" transform="scale(0.015625)"/>
       <path id="DejaVuSans-65" d="M 3597 1894 
L 3597 1613 
L 953 1613 
Q 991 1019 1311 708 
Q 1631 397 2203 397 
Q 2534 397 2845 478 
Q 3156 559 3463 722 
L 3463 178 
Q 3153 47 2828 -22 
Q 2503 -91 2169 -91 
Q 1331 -91 842 396 
Q 353 884 353 1716 
Q 353 2575 817 3079 
Q 1281 3584 2069 3584 
Q 2775 3584 3186 3129 
Q 3597 2675 3597 1894 
z
M 3022 2063 
Q 3016 2534 2758 2815 
Q 2500 3097 2075 3097 
Q 1594 3097 1305 2825 
Q 1016 2553 972 2059 
L 3022 2063 
z
" transform="scale(0.015625)"/>
       <path id="DejaVuSans-71" d="M 947 1747 
Q 947 1113 1208 752 
Q 1469 391 1925 391 
Q 2381 391 2643 752 
Q 2906 1113 2906 1747 
Q 2906 2381 2643 2742 
Q 2381 3103 1925 3103 
Q 1469 3103 1208 2742 
Q 947 2381 947 1747 
z
M 2906 525 
Q 2725 213 2448 61 
Q 2172 -91 1784 -91 
Q 1150 -91 751 415 
Q 353 922 353 1747 
Q 353 2572 751 3078 
Q 1150 3584 1784 3584 
Q 2172 3584 2448 3432 
Q 2725 3281 2906 2969 
L 2906 3500 
L 3481 3500 
L 3481 -1331 
L 2906 -1331 
L 2906 525 
z
" transform="scale(0.015625)"/>
       <path id="DejaVuSans-75" d="M 544 1381 
L 544 3500 
L 1119 3500 
L 1119 1403 
Q 1119 906 1312 657 
Q 1506 409 1894 409 
Q 2359 409 2629 706 
Q 2900 1003 2900 1516 
L 2900 3500 
L 3475 3500 
L 3475 0 
L 2900 0 
L 2900 538 
Q 2691 219 2414 64 
Q 2138 -91 1772 -91 
Q 1169 -91 856 284 
Q 544 659 544 1381 
z
M 1991 3584 
L 1991 3584 
z
" transform="scale(0.015625)"/>
       <path id="DejaVuSans-6e" d="M 3513 2113 
L 3513 0 
L 2938 0 
L 2938 2094 
Q 2938 2591 2744 2837 
Q 2550 3084 2163 3084 
Q 1697 3084 1428 2787 
Q 1159 2491 1159 1978 
L 1159 0 
L 581 0 
L 581 3500 
L 1159 3500 
L 1159 2956 
Q 1366 3272 1645 3428 
Q 1925 3584 2291 3584 
Q 2894 3584 3203 3211 
Q 3513 2838 3513 2113 
z
" transform="scale(0.015625)"/>
       <path id="DejaVuSans-63" d="M 3122 3366 
L 3122 2828 
Q 2878 2963 2633 3030 
Q 2388 3097 2138 3097 
Q 1578 3097 1268 2742 
Q 959 2388 959 1747 
Q 959 1106 1268 751 
Q 1578 397 2138 397 
Q 2388 397 2633 464 
Q 2878 531 3122 666 
L 3122 134 
Q 2881 22 2623 -34 
Q 2366 -91 2075 -91 
Q 1284 -91 818 406 
Q 353 903 353 1747 
Q 353 2603 823 3093 
Q 1294 3584 2113 3584 
Q 2378 3584 2631 3529 
Q 2884 3475 3122 3366 
z
" transform="scale(0.015625)"/>
       <path id="DejaVuSans-79" d="M 2059 -325 
Q 1816 -950 1584 -1140 
Q 1353 -1331 966 -1331 
L 506 -1331 
L 506 -850 
L 844 -850 
Q 1081 -850 1212 -737 
Q 1344 -625 1503 -206 
L 1606 56 
L 191 3500 
L 800 3500 
L 1894 763 
L 2988 3500 
L 3597 3500 
L 2059 -325 
z
" transform="scale(0.015625)"/>
       <path id="DejaVuSans-20" transform="scale(0.015625)"/>
       <path id="DejaVuSans-28" d="M 1984 4856 
Q 1566 4138 1362 3434 
Q 1159 2731 1159 2009 
Q 1159 1288 1364 580 
Q 1569 -128 1984 -844 
L 1484 -844 
Q 1016 -109 783 600 
Q 550 1309 550 2009 
Q 550 2706 781 3412 
Q 1013 4119 1484 4856 
L 1984 4856 
z
" transform="scale(0.015625)"/>
       <path id="DejaVuSans-4d" d="M 628 4666 
L 1569 4666 
L 2759 1491 
L 3956 4666 
L 4897 4666 
L 4897 0 
L 4281 0 
L 4281 4097 
L 3078 897 
L 2444 897 
L 1241 4097 
L 1241 0 
L 628 0 
L 628 4666 
z
" transform="scale(0.015625)"/>
       <path id="DejaVuSans-48" d="M 628 4666 
L 1259 4666 
L 1259 2753 
L 3553 2753 
L 3553 4666 
L 4184 4666 
L 4184 0 
L 3553 0 
L 3553 2222 
L 1259 2222 
L 1259 0 
L 628 0 
L 628 4666 
z
" transform="scale(0.015625)"/>
       <path id="DejaVuSans-7a" d="M 353 3500 
L 3084 3500 
L 3084 2975 
L 922 459 
L 3084 459 
L 3084 0 
L 275 0 
L 275 525 
L 2438 3041 
L 353 3041 
L 353 3500 
z
" transform="scale(0.015625)"/>
       <path id="DejaVuSans-29" d="M 513 4856 
L 1013 4856 
Q 1481 4119 1714 3412 
Q 1947 2706 1947 2009 
Q 1947 1309 1714 600 
Q 1481 -109 1013 -844 
L 513 -844 
Q 928 -128 1133 580 
Q 1338 1288 1338 2009 
Q 1338 2731 1133 3434 
Q 928 4138 513 4856 
z
" transform="scale(0.015625)"/>
      </defs>
      <use xlink:href="#DejaVuSans-46"/>
      <use xlink:href="#DejaVuSans-72" x="50.269531"/>
      <use xlink:href="#DejaVuSans-65" x="89.132812"/>
      <use xlink:href="#DejaVuSans-71" x="150.65625"/>
      <use xlink:href="#DejaVuSans-75" x="214.132812"/>
      <use xlink:href="#DejaVuSans-65" x="277.511719"/>
      <use xlink:href="#DejaVuSans-6e" x="339.035156"/>
      <use xlink:href="#DejaVuSans-63" x="402.414062"/>
      <use xlink:href="#DejaVuSans-79" x="457.394531"/>
      <use xlink:href="#DejaVuSans-20" x="516.574219"/>
      <use xlink:href="#DejaVuSans-28" x="548.361328"/>
      <use xlink:href="#DejaVuSans-4d" x="587.375"/>
      <use xlink:href="#DejaVuSans-48" x="673.654297"/>
      <use xlink:href="#DejaVuSans-7a" x="748.849609"/>
      <use xlink:href="#DejaVuSans-29" x="801.339844"/>
     </g>
    </g>
   </g>
   <g id="matplotlib.axis_2">
    <g id="ytick_1">
     <g id="line2d_59">
      <path d="M 31.641875 226.919531 
L 366.441875 226.919531 
" clip-path="url(#p5ee688d46c)" style="fill: none; stroke: #000000; stroke-width: 0.5; stroke-linecap: square"/>
     </g>
     <g id="line2d_60">
      <defs>
       <path id="m1b893429c5" d="M 0 0 
L -3.5 0 
" style="stroke: #000000; stroke-width: 0.8"/>
      </defs>
      <g>
       <use xlink:href="#m1b893429c5" x="31.641875" y="226.919531" style="stroke: #000000; stroke-width: 0.8"/>
      </g>
     </g>
     <g id="text_19">
      <!-- 0 -->
      <g transform="translate(20.824375 229.199062)scale(0.06 -0.06)">
       <use xlink:href="#DejaVuSans-30"/>
      </g>
     </g>
    </g>
    <g id="ytick_2">
     <g id="line2d_61">
      <path d="M 31.641875 190.679531 
L 366.441875 190.679531 
" clip-path="url(#p5ee688d46c)" style="fill: none; stroke: #000000; stroke-width: 0.5; stroke-linecap: square"/>
     </g>
     <g id="line2d_62">
      <g>
       <use xlink:href="#m1b893429c5" x="31.641875" y="190.679531" style="stroke: #000000; stroke-width: 0.8"/>
      </g>
     </g>
     <g id="text_20">
      <!-- 2 -->
      <g transform="translate(20.824375 192.959062)scale(0.06 -0.06)">
       <use xlink:href="#DejaVuSans-32"/>
      </g>
     </g>
    </g>
    <g id="ytick_3">
     <g id="line2d_63">
      <path d="M 31.641875 154.439531 
L 366.441875 154.439531 
" clip-path="url(#p5ee688d46c)" style="fill: none; stroke: #000000; stroke-width: 0.5; stroke-linecap: square"/>
     </g>
     <g id="line2d_64">
      <g>
       <use xlink:href="#m1b893429c5" x="31.641875" y="154.439531" style="stroke: #000000; stroke-width: 0.8"/>
      </g>
     </g>
     <g id="text_21">
      <!-- 4 -->
      <g transform="translate(20.824375 156.719062)scale(0.06 -0.06)">
       <defs>
        <path id="DejaVuSans-34" d="M 2419 4116 
L 825 1625 
L 2419 1625 
L 2419 4116 
z
M 2253 4666 
L 3047 4666 
L 3047 1625 
L 3713 1625 
L 3713 1100 
L 3047 1100 
L 3047 0 
L 2419 0 
L 2419 1100 
L 313 1100 
L 313 1709 
L 2253 4666 
z
" transform="scale(0.015625)"/>
       </defs>
       <use xlink:href="#DejaVuSans-34"/>
      </g>
     </g>
    </g>
    <g id="ytick_4">
     <g id="line2d_65">
      <path d="M 31.641875 118.199531 
L 366.441875 118.199531 
" clip-path="url(#p5ee688d46c)" style="fill: none; stroke: #000000; stroke-width: 0.5; stroke-linecap: square"/>
     </g>
     <g id="line2d_66">
      <g>
       <use xlink:href="#m1b893429c5" x="31.641875" y="118.199531" style="stroke: #000000; stroke-width: 0.8"/>
      </g>
     </g>
     <g id="text_22">
      <!-- 6 -->
      <g transform="translate(20.824375 120.479062)scale(0.06 -0.06)">
       <defs>
        <path id="DejaVuSans-36" d="M 2113 2584 
Q 1688 2584 1439 2293 
Q 1191 2003 1191 1497 
Q 1191 994 1439 701 
Q 1688 409 2113 409 
Q 2538 409 2786 701 
Q 3034 994 3034 1497 
Q 3034 2003 2786 2293 
Q 2538 2584 2113 2584 
z
M 3366 4563 
L 3366 3988 
Q 3128 4100 2886 4159 
Q 2644 4219 2406 4219 
Q 1781 4219 1451 3797 
Q 1122 3375 1075 2522 
Q 1259 2794 1537 2939 
Q 1816 3084 2150 3084 
Q 2853 3084 3261 2657 
Q 3669 2231 3669 1497 
Q 3669 778 3244 343 
Q 2819 -91 2113 -91 
Q 1303 -91 875 529 
Q 447 1150 447 2328 
Q 447 3434 972 4092 
Q 1497 4750 2381 4750 
Q 2619 4750 2861 4703 
Q 3103 4656 3366 4563 
z
" transform="scale(0.015625)"/>
       </defs>
       <use xlink:href="#DejaVuSans-36"/>
      </g>
     </g>
    </g>
    <g id="ytick_5">
     <g id="line2d_67">
      <path d="M 31.641875 81.959531 
L 366.441875 81.959531 
" clip-path="url(#p5ee688d46c)" style="fill: none; stroke: #000000; stroke-width: 0.5; stroke-linecap: square"/>
     </g>
     <g id="line2d_68">
      <g>
       <use xlink:href="#m1b893429c5" x="31.641875" y="81.959531" style="stroke: #000000; stroke-width: 0.8"/>
      </g>
     </g>
     <g id="text_23">
      <!-- 8 -->
      <g transform="translate(20.824375 84.239062)scale(0.06 -0.06)">
       <defs>
        <path id="DejaVuSans-38" d="M 2034 2216 
Q 1584 2216 1326 1975 
Q 1069 1734 1069 1313 
Q 1069 891 1326 650 
Q 1584 409 2034 409 
Q 2484 409 2743 651 
Q 3003 894 3003 1313 
Q 3003 1734 2745 1975 
Q 2488 2216 2034 2216 
z
M 1403 2484 
Q 997 2584 770 2862 
Q 544 3141 544 3541 
Q 544 4100 942 4425 
Q 1341 4750 2034 4750 
Q 2731 4750 3128 4425 
Q 3525 4100 3525 3541 
Q 3525 3141 3298 2862 
Q 3072 2584 2669 2484 
Q 3125 2378 3379 2068 
Q 3634 1759 3634 1313 
Q 3634 634 3220 271 
Q 2806 -91 2034 -91 
Q 1263 -91 848 271 
Q 434 634 434 1313 
Q 434 1759 690 2068 
Q 947 2378 1403 2484 
z
M 1172 3481 
Q 1172 3119 1398 2916 
Q 1625 2713 2034 2713 
Q 2441 2713 2670 2916 
Q 2900 3119 2900 3481 
Q 2900 3844 2670 4047 
Q 2441 4250 2034 4250 
Q 1625 4250 1398 4047 
Q 1172 3844 1172 3481 
z
" transform="scale(0.015625)"/>
       </defs>
       <use xlink:href="#DejaVuSans-38"/>
      </g>
     </g>
    </g>
    <g id="ytick_6">
     <g id="line2d_69">
      <path d="M 31.641875 45.719531 
L 366.441875 45.719531 
" clip-path="url(#p5ee688d46c)" style="fill: none; stroke: #000000; stroke-width: 0.5; stroke-linecap: square"/>
     </g>
     <g id="line2d_70">
      <g>
       <use xlink:href="#m1b893429c5" x="31.641875" y="45.719531" style="stroke: #000000; stroke-width: 0.8"/>
      </g>
     </g>
     <g id="text_24">
      <!-- 10 -->
      <g transform="translate(17.006875 47.999062)scale(0.06 -0.06)">
       <use xlink:href="#DejaVuSans-31"/>
       <use xlink:href="#DejaVuSans-30" x="63.623047"/>
      </g>
     </g>
    </g>
    <g id="ytick_7">
     <g id="line2d_71">
      <path d="M 31.641875 9.479531 
L 366.441875 9.479531 
" clip-path="url(#p5ee688d46c)" style="fill: none; stroke: #000000; stroke-width: 0.5; stroke-linecap: square"/>
     </g>
     <g id="line2d_72">
      <g>
       <use xlink:href="#m1b893429c5" x="31.641875" y="9.479531" style="stroke: #000000; stroke-width: 0.8"/>
      </g>
     </g>
     <g id="text_25">
      <!-- 12 -->
      <g transform="translate(17.006875 11.759062)scale(0.06 -0.06)">
       <use xlink:href="#DejaVuSans-31"/>
       <use xlink:href="#DejaVuSans-32" x="63.623047"/>
      </g>
     </g>
    </g>
    <g id="ytick_8">
     <g id="line2d_73">
      <path d="M 31.641875 208.799531 
L 366.441875 208.799531 
" clip-path="url(#p5ee688d46c)" style="fill: none; stroke: #000000; stroke-width: 0.1; stroke-linecap: square"/>
     </g>
     <g id="line2d_74">
      <defs>
       <path id="ma1f9f8deb7" d="M 0 0 
L -2 0 
" style="stroke: #000000; stroke-width: 0.6"/>
      </defs>
      <g>
       <use xlink:href="#ma1f9f8deb7" x="31.641875" y="208.799531" style="stroke: #000000; stroke-width: 0.6"/>
      </g>
     </g>
    </g>
    <g id="ytick_9">
     <g id="line2d_75">
      <path d="M 31.641875 172.559531 
L 366.441875 172.559531 
" clip-path="url(#p5ee688d46c)" style="fill: none; stroke: #000000; stroke-width: 0.1; stroke-linecap: square"/>
     </g>
     <g id="line2d_76">
      <g>
       <use xlink:href="#ma1f9f8deb7" x="31.641875" y="172.559531" style="stroke: #000000; stroke-width: 0.6"/>
      </g>
     </g>
    </g>
    <g id="ytick_10">
     <g id="line2d_77">
      <path d="M 31.641875 136.319531 
L 366.441875 136.319531 
" clip-path="url(#p5ee688d46c)" style="fill: none; stroke: #000000; stroke-width: 0.1; stroke-linecap: square"/>
     </g>
     <g id="line2d_78">
      <g>
       <use xlink:href="#ma1f9f8deb7" x="31.641875" y="136.319531" style="stroke: #000000; stroke-width: 0.6"/>
      </g>
     </g>
    </g>
    <g id="ytick_11">
     <g id="line2d_79">
      <path d="M 31.641875 100.079531 
L 366.441875 100.079531 
" clip-path="url(#p5ee688d46c)" style="fill: none; stroke: #000000; stroke-width: 0.1; stroke-linecap: square"/>
     </g>
     <g id="line2d_80">
      <g>
       <use xlink:href="#ma1f9f8deb7" x="31.641875" y="100.079531" style="stroke: #000000; stroke-width: 0.6"/>
      </g>
     </g>
    </g>
    <g id="ytick_12">
     <g id="line2d_81">
      <path d="M 31.641875 63.839531 
L 366.441875 63.839531 
" clip-path="url(#p5ee688d46c)" style="fill: none; stroke: #000000; stroke-width: 0.1; stroke-linecap: square"/>
     </g>
     <g id="line2d_82">
      <g>
       <use xlink:href="#ma1f9f8deb7" x="31.641875" y="63.839531" style="stroke: #000000; stroke-width: 0.6"/>
      </g>
     </g>
    </g>
    <g id="ytick_13">
     <g id="line2d_83">
      <path d="M 31.641875 27.599531 
L 366.441875 27.599531 
" clip-path="url(#p5ee688d46c)" style="fill: none; stroke: #000000; stroke-width: 0.1; stroke-linecap: square"/>
     </g>
     <g id="line2d_84">
      <g>
       <use xlink:href="#ma1f9f8deb7" x="31.641875" y="27.599531" style="stroke: #000000; stroke-width: 0.6"/>
      </g>
     </g>
    </g>
    <g id="text_26">
     <!-- (dB) -->
     <g transform="translate(11.759062 124.503281)rotate(-90)scale(0.06 -0.06)">
      <defs>
       <path id="DejaVuSans-64" d="M 2906 2969 
L 2906 4863 
L 3481 4863 
L 3481 0 
L 2906 0 
L 2906 525 
Q 2725 213 2448 61 
Q 2172 -91 1784 -91 
Q 1150 -91 751 415 
Q 353 922 353 1747 
Q 353 2572 751 3078 
Q 1150 3584 1784 3584 
Q 2172 3584 2448 3432 
Q 2725 3281 2906 2969 
z
M 947 1747 
Q 947 1113 1208 752 
Q 1469 391 1925 391 
Q 2381 391 2643 752 
Q 2906 1113 2906 1747 
Q 2906 2381 2643 2742 
Q 2381 3103 1925 3103 
Q 1469 3103 1208 2742 
Q 947 2381 947 1747 
z
" transform="scale(0.015625)"/>
       <path id="DejaVuSans-42" d="M 1259 2228 
L 1259 519 
L 2272 519 
Q 2781 519 3026 730 
Q 3272 941 3272 1375 
Q 3272 1813 3026 2020 
Q 2781 2228 2272 2228 
L 1259 2228 
z
M 1259 4147 
L 1259 2741 
L 2194 2741 
Q 2656 2741 2882 2914 
Q 3109 3088 3109 3444 
Q 3109 3797 2882 3972 
Q 2656 4147 2194 4147 
L 1259 4147 
z
M 628 4666 
L 2241 4666 
Q 2963 4666 3353 4366 
Q 3744 4066 3744 3513 
Q 3744 3084 3544 2831 
Q 3344 2578 2956 2516 
Q 3422 2416 3680 2098 
Q 3938 1781 3938 1306 
Q 3938 681 3513 340 
Q 3088 0 2303 0 
L 628 0 
L 628 4666 
z
" transform="scale(0.015625)"/>
      </defs>
      <use xlink:href="#DejaVuSans-28"/>
      <use xlink:href="#DejaVuSans-64" x="39.013672"/>
      <use xlink:href="#DejaVuSans-42" x="102.490234"/>
      <use xlink:href="#DejaVuSans-29" x="171.09375"/>
     </g>
    </g>
   </g>
   <g id="line2d_85">
    <path d="M 31.641875 161.923091 
L 49.501559 150.661511 
L 62.173207 139.592003 
L 72.0021 129.807203 
L 80.032891 121.290803 
L 86.822828 113.857979 
L 92.704539 107.325719 
L 102.533432 96.384863 
L 110.564223 87.574919 
L 117.35416 80.317859 
L 123.235871 74.236787 
L 128.423907 69.063527 
L 133.064764 64.613255 
L 150.924449 49.387019 
L 163.596096 40.760087 
L 173.42499 35.503475 
L 181.455781 32.209259 
L 188.245717 30.158075 
L 194.127428 28.940411 
L 203.956322 28.079711 
L 211.987113 28.478351 
L 218.777049 29.589107 
L 224.65876 31.120247 
L 229.846797 32.901443 
L 234.487654 34.831223 
L 252.347338 45.092579 
L 265.018986 54.882815 
L 274.847879 63.730811 
L 282.87867 71.660123 
L 289.668607 78.781283 
L 295.550318 85.210259 
L 305.379211 96.368555 
L 313.410002 105.736595 
L 320.199939 113.729327 
L 326.08165 120.636671 
L 331.269686 126.668819 
L 335.910543 131.979791 
L 353.770227 151.076459 
L 366.441875 162.546419 
L 376.270769 162.546419 
L 378.459375 162.546419 
" clip-path="url(#p5ee688d46c)" style="fill: none; stroke: #1f77b4; stroke-width: 0.5; stroke-linecap: square"/>
   </g>
   <g id="line2d_86">
    <path d="M 31.641875 166.023647 
L 49.501559 157.635899 
L 62.173207 149.717459 
L 72.0021 142.815551 
L 80.032891 136.848635 
L 86.822828 131.660879 
L 92.704539 127.114571 
L 102.533432 119.515043 
L 110.564223 113.404979 
L 117.35416 108.378491 
L 123.235871 104.165591 
L 128.423907 100.583267 
L 133.064764 97.501055 
L 150.924449 86.942531 
L 163.596096 80.950247 
L 173.42499 77.290007 
L 181.455781 74.992391 
L 188.245717 73.559099 
L 194.127428 72.707459 
L 203.956322 72.105875 
L 211.987113 72.390359 
L 218.777049 73.182203 
L 224.65876 74.273027 
L 229.846797 75.545051 
L 234.487654 76.927607 
L 252.347338 84.338687 
L 265.018986 91.492463 
L 274.847879 98.028347 
L 282.87867 103.942715 
L 289.668607 109.306235 
L 295.550318 114.193199 
L 305.379211 122.785703 
L 313.410002 130.124303 
L 320.199939 136.491671 
L 326.08165 142.087127 
L 331.269686 147.053819 
L 335.910543 151.502279 
L 353.770227 168.308579 
L 366.441875 179.465063 
L 376.270769 179.465063 
L 378.459375 179.465063 
" clip-path="url(#p5ee688d46c)" style="fill: none; stroke: #ff7f0e; stroke-width: 0.5; stroke-linecap: square"/>
   </g>
   <g id="line2d_87">
    <path d="M 31.641875 189.461867 
L 49.501559 186.709439 
L 62.173207 182.005487 
L 72.0021 177.317843 
L 80.032891 173.052395 
L 86.822828 169.258067 
L 92.704539 165.904055 
L 102.533432 160.303163 
L 110.564223 155.854703 
L 117.35416 152.268755 
L 123.235871 149.335127 
L 128.423907 146.910671 
L 133.064764 144.884855 
L 150.924449 138.580907 
L 163.596096 135.730631 
L 173.42499 134.522027 
L 181.455781 134.192243 
L 188.245717 134.369819 
L 194.127428 134.849999 
L 203.956322 136.294163 
L 211.987113 138.022811 
L 218.777049 139.822127 
L 224.65876 141.597887 
L 229.846797 143.306603 
L 234.487654 144.924719 
L 252.347338 151.603751 
L 265.018986 156.258779 
L 274.847879 159.435215 
L 282.87867 161.533511 
L 289.668607 162.821843 
L 295.550318 163.488659 
L 305.379211 163.457855 
L 313.410002 162.144155 
L 320.199939 159.957071 
L 326.08165 157.150283 
L 331.269686 153.892307 
L 335.910543 150.300923 
" clip-path="url(#p5ee688d46c)" style="fill: none; stroke: #2ca02c; stroke-width: 0.5; stroke-linecap: square"/>
   </g>
   <g id="line2d_88">
    <path d="M 31.641875 199.844627 
L 49.501559 205.925699 
L 62.173207 206.509163 
L 72.0021 205.334987 
L 80.032891 203.548355 
L 86.822828 201.576899 
L 92.704539 199.598195 
L 102.533432 195.874535 
L 110.564223 192.578507 
L 117.35416 189.701051 
L 123.235871 187.195055 
L 128.423907 185.002535 
L 133.064764 183.078191 
L 150.924449 176.254199 
L 163.596096 172.256927 
L 173.42499 169.781735 
L 181.455781 168.214355 
L 188.245717 167.226815 
L 194.127428 166.627043 
L 203.956322 166.161359 
L 211.987113 166.273703 
L 218.777049 166.701335 
L 224.65876 167.306543 
L 229.846797 168.011411 
L 234.487654 168.767015 
L 252.347338 172.603019 
L 265.018986 175.944347 
L 274.847879 178.671407 
L 282.87867 180.854867 
L 289.668607 182.588951 
L 295.550318 183.949763 
L 305.379211 185.798003 
L 313.410002 186.767423 
L 320.199939 187.095395 
L 326.08165 186.937751 
L 331.269686 186.406835 
L 335.910543 185.582375 
L 353.770227 178.696775 
L 366.441875 169.408463 
L 376.270769 169.408463 
L 378.459375 169.408463 
" clip-path="url(#p5ee688d46c)" style="fill: none; stroke: #d62728; stroke-width: 0.5; stroke-linecap: square"/>
   </g>
   <g id="line2d_89">
    <path d="M 31.641875 205.684703 
L 49.501559 206.608823 
L 62.173207 206.132267 
L 72.0021 205.248011 
L 80.032891 204.256847 
L 86.822828 203.262059 
L 92.704539 202.303511 
L 102.533432 200.545871 
L 110.564223 199.002047 
L 117.35416 197.648483 
L 123.235871 196.454375 
L 128.423907 195.396167 
L 133.064764 194.450303 
L 150.924449 190.916903 
L 163.596096 188.612039 
L 173.42499 186.997547 
L 181.455781 185.814311 
L 188.245717 184.920995 
L 194.127428 184.230623 
L 203.956322 183.266639 
L 211.987113 182.661431 
L 218.777049 182.282723 
L 224.65876 182.054411 
L 229.846797 181.931195 
L 234.487654 181.882271 
L 252.347338 182.239235 
L 265.018986 182.993027 
L 274.847879 183.842855 
L 282.87867 184.694495 
L 289.668607 185.515331 
L 295.550318 186.290867 
L 305.379211 187.706039 
L 313.410002 188.949071 
L 320.199939 190.045331 
L 326.08165 191.016563 
L 331.269686 191.882699 
L 335.910543 192.656423 
L 353.770227 195.532067 
L 366.441875 197.333195 
L 376.270769 197.333195 
L 378.459375 197.333195 
" clip-path="url(#p5ee688d46c)" style="fill: none; stroke: #9467bd; stroke-width: 0.5; stroke-linecap: square"/>
   </g>
   <g id="line2d_90">
    <path d="M 31.641875 226.919531 
L 366.441875 226.919531 
" clip-path="url(#p5ee688d46c)" style="fill: none; stroke: #000000; stroke-width: 0.5; stroke-linecap: square"/>
   </g>
   <g id="line2d_91">
    <path d="M 31.641875 190.679531 
L 366.441875 190.679531 
" clip-path="url(#p5ee688d46c)" style="fill: none; stroke: #000000; stroke-width: 0.5; stroke-linecap: square"/>
   </g>
   <g id="line2d_92">
    <path d="M 31.641875 154.439531 
L 366.441875 154.439531 
" clip-path="url(#p5ee688d46c)" style="fill: none; stroke: #000000; stroke-width: 0.5; stroke-linecap: square"/>
   </g>
   <g id="line2d_93">
    <path d="M 31.641875 118.199531 
L 366.441875 118.199531 
" clip-path="url(#p5ee688d46c)" style="fill: none; stroke: #000000; stroke-width: 0.5; stroke-linecap: square"/>
   </g>
   <g id="line2d_94">
    <path d="M 31.641875 81.959531 
L 366.441875 81.959531 
" clip-path="url(#p5ee688d46c)" style="fill: none; stroke: #000000; stroke-width: 0.5; stroke-linecap: square"/>
   </g>
   <g id="line2d_95">
    <path d="M 31.641875 45.719531 
L 366.441875 45.719531 
" clip-path="url(#p5ee688d46c)" style="fill: none; stroke: #000000; stroke-width: 0.5; stroke-linecap: square"/>
   </g>
   <g id="line2d_96">
    <path d="M 31.641875 9.479531 
L 366.441875 9.479531 
" clip-path="url(#p5ee688d46c)" style="fill: none; stroke: #000000; stroke-width: 0.5; stroke-linecap: square"/>
   </g>
   <g id="line2d_97">
    <path d="M 31.641875 245.039531 
L 366.441875 245.039531 
" clip-path="url(#p5ee688d46c)" style="fill: none; stroke: #000000; stroke-width: 0.1; stroke-linecap: square"/>
   </g>
   <g id="line2d_98">
    <path d="M 31.641875 208.799531 
L 366.441875 208.799531 
" clip-path="url(#p5ee688d46c)" style="fill: none; stroke: #000000; stroke-width: 0.1; stroke-linecap: square"/>
   </g>
   <g id="line2d_99">
    <path d="M 31.641875 172.559531 
L 366.441875 172.559531 
" clip-path="url(#p5ee688d46c)" style="fill: none; stroke: #000000; stroke-width: 0.1; stroke-linecap: square"/>
   </g>
   <g id="line2d_100">
    <path d="M 31.641875 136.319531 
L 366.441875 136.319531 
" clip-path="url(#p5ee688d46c)" style="fill: none; stroke: #000000; stroke-width: 0.1; stroke-linecap: square"/>
   </g>
   <g id="line2d_101">
    <path d="M 31.641875 100.079531 
L 366.441875 100.079531 
" clip-path="url(#p5ee688d46c)" style="fill: none; stroke: #000000; stroke-width: 0.1; stroke-linecap: square"/>
   </g>
   <g id="line2d_102">
    <path d="M 31.641875 63.839531 
L 366.441875 63.839531 
" clip-path="url(#p5ee688d46c)" style="fill: none; stroke: #000000; stroke-width: 0.1; stroke-linecap: square"/>
   </g>
   <g id="line2d_103">
    <path d="M 31.641875 27.599531 
L 366.441875 27.599531 
" clip-path="url(#p5ee688d46c)" style="fill: none; stroke: #000000; stroke-width: 0.1; stroke-linecap: square"/>
   </g>
   <g id="line2d_104">
    <path clip-path="url(#p5ee688d46c)" style="fill: none; stroke: #000000; stroke-width: 0.1; stroke-linecap: square"/>
   </g>
   <g id="patch_3">
    <path d="M 31.641875 226.919531 
L 31.641875 9.479531 
" style="fill: none; stroke: #000000; stroke-width: 0.8; stroke-linejoin: miter; stroke-linecap: square"/>
   </g>
   <g id="patch_4">
    <path d="M 366.441875 226.919531 
L 366.441875 9.479531 
" style="fill: none; stroke: #000000; stroke-width: 0.8; stroke-linejoin: miter; stroke-linecap: square"/>
   </g>
   <g id="patch_5">
    <path d="M 31.641875 226.919531 
L 366.441875 226.919531 
" style="fill: none; stroke: #000000; stroke-width: 0.8; stroke-linejoin: miter; stroke-linecap: square"/>
   </g>
   <g id="patch_6">
    <path d="M 31.641875 9.479531 
L 366.441875 9.479531 
" style="fill: none; stroke: #000000; stroke-width: 0.8; stroke-linejoin: miter; stroke-linecap: square"/>
   </g>
   <g id="legend_1">
    <g id="patch_7">
     <path d="M 337.591875 64.293281 
L 362.941875 64.293281 
Q 363.941875 64.293281 363.941875 63.293281 
L 363.941875 12.979531 
Q 363.941875 11.979531 362.941875 11.979531 
L 337.591875 11.979531 
Q 336.591875 11.979531 336.591875 12.979531 
L 336.591875 63.293281 
Q 336.591875 64.293281 337.591875 64.293281 
z
" style="fill: #ffffff; stroke: #cccccc; stroke-linejoin: miter"/>
    </g>
    <g id="text_27">
     <!-- $F_{am}$ -->
     <g transform="translate(338.839141 17.77875)scale(0.05 -0.05)">
      <defs>
       <path id="DejaVuSans-Oblique-46" d="M 1081 4666 
L 3756 4666 
L 3653 4134 
L 1606 4134 
L 1338 2759 
L 3188 2759 
L 3084 2228 
L 1234 2228 
L 800 0 
L 172 0 
L 1081 4666 
z
" transform="scale(0.015625)"/>
       <path id="DejaVuSans-Oblique-61" d="M 3438 1997 
L 3047 0 
L 2472 0 
L 2578 531 
Q 2325 219 2001 64 
Q 1678 -91 1281 -91 
Q 834 -91 548 182 
Q 263 456 263 884 
Q 263 1497 752 1853 
Q 1241 2209 2100 2209 
L 2900 2209 
L 2931 2363 
Q 2938 2388 2941 2417 
Q 2944 2447 2944 2509 
Q 2944 2788 2717 2942 
Q 2491 3097 2081 3097 
Q 1800 3097 1504 3025 
Q 1209 2953 897 2809 
L 997 3341 
Q 1322 3463 1633 3523 
Q 1944 3584 2234 3584 
Q 2853 3584 3176 3315 
Q 3500 3047 3500 2534 
Q 3500 2431 3484 2292 
Q 3469 2153 3438 1997 
z
M 2816 1759 
L 2241 1759 
Q 1534 1759 1195 1570 
Q 856 1381 856 984 
Q 856 709 1029 553 
Q 1203 397 1509 397 
Q 1978 397 2328 733 
Q 2678 1069 2791 1631 
L 2816 1759 
z
" transform="scale(0.015625)"/>
       <path id="DejaVuSans-Oblique-6d" d="M 5747 2113 
L 5338 0 
L 4763 0 
L 5166 2094 
Q 5191 2228 5203 2325 
Q 5216 2422 5216 2491 
Q 5216 2772 5059 2928 
Q 4903 3084 4622 3084 
Q 4203 3084 3875 2770 
Q 3547 2456 3450 1953 
L 3066 0 
L 2491 0 
L 2900 2094 
Q 2925 2209 2937 2307 
Q 2950 2406 2950 2484 
Q 2950 2769 2794 2926 
Q 2638 3084 2363 3084 
Q 1938 3084 1609 2770 
Q 1281 2456 1184 1953 
L 800 0 
L 225 0 
L 909 3500 
L 1484 3500 
L 1375 2956 
Q 1609 3263 1923 3423 
Q 2238 3584 2597 3584 
Q 2978 3584 3223 3384 
Q 3469 3184 3519 2828 
Q 3781 3197 4126 3390 
Q 4472 3584 4856 3584 
Q 5306 3584 5551 3325 
Q 5797 3066 5797 2591 
Q 5797 2488 5784 2364 
Q 5772 2241 5747 2113 
z
" transform="scale(0.015625)"/>
      </defs>
      <use xlink:href="#DejaVuSans-Oblique-46" transform="translate(0 0.09375)"/>
      <use xlink:href="#DejaVuSans-Oblique-61" transform="translate(57.519531 -16.3125)scale(0.7)"/>
      <use xlink:href="#DejaVuSans-Oblique-6d" transform="translate(100.415039 -16.3125)scale(0.7)"/>
     </g>
     <!-- Statistics -->
     <g transform="translate(338.839141 23.377656)scale(0.05 -0.05)">
      <defs>
       <path id="DejaVuSans-53" d="M 3425 4513 
L 3425 3897 
Q 3066 4069 2747 4153 
Q 2428 4238 2131 4238 
Q 1616 4238 1336 4038 
Q 1056 3838 1056 3469 
Q 1056 3159 1242 3001 
Q 1428 2844 1947 2747 
L 2328 2669 
Q 3034 2534 3370 2195 
Q 3706 1856 3706 1288 
Q 3706 609 3251 259 
Q 2797 -91 1919 -91 
Q 1588 -91 1214 -16 
Q 841 59 441 206 
L 441 856 
Q 825 641 1194 531 
Q 1563 422 1919 422 
Q 2459 422 2753 634 
Q 3047 847 3047 1241 
Q 3047 1584 2836 1778 
Q 2625 1972 2144 2069 
L 1759 2144 
Q 1053 2284 737 2584 
Q 422 2884 422 3419 
Q 422 4038 858 4394 
Q 1294 4750 2059 4750 
Q 2388 4750 2728 4690 
Q 3069 4631 3425 4513 
z
" transform="scale(0.015625)"/>
       <path id="DejaVuSans-74" d="M 1172 4494 
L 1172 3500 
L 2356 3500 
L 2356 3053 
L 1172 3053 
L 1172 1153 
Q 1172 725 1289 603 
Q 1406 481 1766 481 
L 2356 481 
L 2356 0 
L 1766 0 
Q 1100 0 847 248 
Q 594 497 594 1153 
L 594 3053 
L 172 3053 
L 172 3500 
L 594 3500 
L 594 4494 
L 1172 4494 
z
" transform="scale(0.015625)"/>
       <path id="DejaVuSans-61" d="M 2194 1759 
Q 1497 1759 1228 1600 
Q 959 1441 959 1056 
Q 959 750 1161 570 
Q 1363 391 1709 391 
Q 2188 391 2477 730 
Q 2766 1069 2766 1631 
L 2766 1759 
L 2194 1759 
z
M 3341 1997 
L 3341 0 
L 2766 0 
L 2766 531 
Q 2569 213 2275 61 
Q 1981 -91 1556 -91 
Q 1019 -91 701 211 
Q 384 513 384 1019 
Q 384 1609 779 1909 
Q 1175 2209 1959 2209 
L 2766 2209 
L 2766 2266 
Q 2766 2663 2505 2880 
Q 2244 3097 1772 3097 
Q 1472 3097 1187 3025 
Q 903 2953 641 2809 
L 641 3341 
Q 956 3463 1253 3523 
Q 1550 3584 1831 3584 
Q 2591 3584 2966 3190 
Q 3341 2797 3341 1997 
z
" transform="scale(0.015625)"/>
       <path id="DejaVuSans-69" d="M 603 3500 
L 1178 3500 
L 1178 0 
L 603 0 
L 603 3500 
z
M 603 4863 
L 1178 4863 
L 1178 4134 
L 603 4134 
L 603 4863 
z
" transform="scale(0.015625)"/>
       <path id="DejaVuSans-73" d="M 2834 3397 
L 2834 2853 
Q 2591 2978 2328 3040 
Q 2066 3103 1784 3103 
Q 1356 3103 1142 2972 
Q 928 2841 928 2578 
Q 928 2378 1081 2264 
Q 1234 2150 1697 2047 
L 1894 2003 
Q 2506 1872 2764 1633 
Q 3022 1394 3022 966 
Q 3022 478 2636 193 
Q 2250 -91 1575 -91 
Q 1294 -91 989 -36 
Q 684 19 347 128 
L 347 722 
Q 666 556 975 473 
Q 1284 391 1588 391 
Q 1994 391 2212 530 
Q 2431 669 2431 922 
Q 2431 1156 2273 1281 
Q 2116 1406 1581 1522 
L 1381 1569 
Q 847 1681 609 1914 
Q 372 2147 372 2553 
Q 372 3047 722 3315 
Q 1072 3584 1716 3584 
Q 2034 3584 2315 3537 
Q 2597 3491 2834 3397 
z
" transform="scale(0.015625)"/>
      </defs>
      <use xlink:href="#DejaVuSans-53"/>
      <use xlink:href="#DejaVuSans-74" x="63.476562"/>
      <use xlink:href="#DejaVuSans-61" x="102.685547"/>
      <use xlink:href="#DejaVuSans-74" x="163.964844"/>
      <use xlink:href="#DejaVuSans-69" x="203.173828"/>
      <use xlink:href="#DejaVuSans-73" x="230.957031"/>
      <use xlink:href="#DejaVuSans-74" x="283.056641"/>
      <use xlink:href="#DejaVuSans-69" x="322.265625"/>
      <use xlink:href="#DejaVuSans-63" x="350.048828"/>
      <use xlink:href="#DejaVuSans-73" x="405.029297"/>
     </g>
    </g>
    <g id="line2d_105">
     <path d="M 338.591875 28.966719 
L 343.591875 28.966719 
L 348.591875 28.966719 
" style="fill: none; stroke: #1f77b4; stroke-width: 0.5; stroke-linecap: square"/>
    </g>
    <g id="text_28">
     <!-- $D_u$ -->
     <g transform="translate(352.591875 30.716719)scale(0.05 -0.05)">
      <defs>
       <path id="DejaVuSans-Oblique-44" d="M 1081 4666 
L 2438 4666 
Q 3519 4666 4070 4208 
Q 4622 3750 4622 2847 
Q 4622 2250 4412 1698 
Q 4203 1147 3834 769 
Q 3463 381 2891 190 
Q 2319 0 1538 0 
L 172 0 
L 1081 4666 
z
M 1613 4147 
L 909 519 
L 1734 519 
Q 2794 519 3375 1128 
Q 3956 1738 3956 2847 
Q 3956 3519 3581 3833 
Q 3206 4147 2406 4147 
L 1613 4147 
z
" transform="scale(0.015625)"/>
       <path id="DejaVuSans-Oblique-75" d="M 428 1388 
L 838 3500 
L 1416 3500 
L 1006 1409 
Q 975 1256 961 1147 
Q 947 1038 947 966 
Q 947 700 1109 554 
Q 1272 409 1569 409 
Q 2031 409 2368 721 
Q 2706 1034 2809 1563 
L 3194 3500 
L 3769 3500 
L 3091 0 
L 2516 0 
L 2631 550 
Q 2388 244 2052 76 
Q 1716 -91 1338 -91 
Q 878 -91 622 161 
Q 366 413 366 863 
Q 366 956 381 1097 
Q 397 1238 428 1388 
z
" transform="scale(0.015625)"/>
      </defs>
      <use xlink:href="#DejaVuSans-Oblique-44" transform="translate(0 0.09375)"/>
      <use xlink:href="#DejaVuSans-Oblique-75" transform="translate(77.001953 -16.3125)scale(0.7)"/>
     </g>
    </g>
    <g id="line2d_106">
     <path d="M 338.591875 36.305781 
L 343.591875 36.305781 
L 348.591875 36.305781 
" style="fill: none; stroke: #ff7f0e; stroke-width: 0.5; stroke-linecap: square"/>
    </g>
    <g id="text_29">
     <!-- $D_l$ -->
     <g transform="translate(352.591875 38.055781)scale(0.05 -0.05)">
      <defs>
       <path id="DejaVuSans-Oblique-6c" d="M 1172 4863 
L 1747 4863 
L 800 0 
L 225 0 
L 1172 4863 
z
" transform="scale(0.015625)"/>
      </defs>
      <use xlink:href="#DejaVuSans-Oblique-44" transform="translate(0 0.09375)"/>
      <use xlink:href="#DejaVuSans-Oblique-6c" transform="translate(77.001953 -16.3125)scale(0.7)"/>
     </g>
    </g>
    <g id="line2d_107">
     <path d="M 338.591875 43.644844 
L 343.591875 43.644844 
L 348.591875 43.644844 
" style="fill: none; stroke: #2ca02c; stroke-width: 0.5; stroke-linecap: square"/>
    </g>
    <g id="text_30">
     <!-- $\sigma_{F_{am}}$ -->
     <g transform="translate(352.591875 45.394844)scale(0.05 -0.05)">
      <defs>
       <path id="DejaVuSans-Oblique-3c3" d="M 2219 3044 
Q 1744 3044 1422 2700 
Q 1081 2341 969 1747 
Q 844 1119 1044 756 
Q 1241 397 1706 397 
Q 2166 397 2503 759 
Q 2844 1122 2966 1747 
Q 3075 2319 2881 2700 
Q 2700 3044 2219 3044 
z
M 2309 3503 
L 4219 3500 
L 4106 2925 
L 3463 2925 
Q 3706 2438 3575 1747 
Q 3406 888 2884 400 
Q 2359 -91 1609 -91 
Q 856 -91 525 400 
Q 194 888 363 1747 
Q 528 2609 1050 3097 
Q 1484 3503 2309 3503 
z
" transform="scale(0.015625)"/>
      </defs>
      <use xlink:href="#DejaVuSans-Oblique-3c3" transform="translate(0 0.265625)"/>
      <use xlink:href="#DejaVuSans-Oblique-46" transform="translate(63.378906 -16.140625)scale(0.7)"/>
      <use xlink:href="#DejaVuSans-Oblique-61" transform="translate(103.642578 -27.625)scale(0.49)"/>
      <use xlink:href="#DejaVuSans-Oblique-6d" transform="translate(133.669434 -27.625)scale(0.49)"/>
     </g>
    </g>
    <g id="line2d_108">
     <path d="M 338.591875 51.394062 
L 343.591875 51.394062 
L 348.591875 51.394062 
" style="fill: none; stroke: #d62728; stroke-width: 0.5; stroke-linecap: square"/>
    </g>
    <g id="text_31">
     <!-- $\sigma_{D_u}$ -->
     <g transform="translate(352.591875 53.144062)scale(0.05 -0.05)">
      <use xlink:href="#DejaVuSans-Oblique-3c3" transform="translate(0 0.265625)"/>
      <use xlink:href="#DejaVuSans-Oblique-44" transform="translate(63.378906 -16.140625)scale(0.7)"/>
      <use xlink:href="#DejaVuSans-Oblique-75" transform="translate(117.280273 -27.625)scale(0.49)"/>
     </g>
    </g>
    <g id="line2d_109">
     <path d="M 338.591875 59.143281 
L 343.591875 59.143281 
L 348.591875 59.143281 
" style="fill: none; stroke: #9467bd; stroke-width: 0.5; stroke-linecap: square"/>
    </g>
    <g id="text_32">
     <!-- $\sigma_{D_l}$ -->
     <g transform="translate(352.591875 60.893281)scale(0.05 -0.05)">
      <use xlink:href="#DejaVuSans-Oblique-3c3" transform="translate(0 0.265625)"/>
      <use xlink:href="#DejaVuSans-Oblique-44" transform="translate(63.378906 -16.140625)scale(0.7)"/>
      <use xlink:href="#DejaVuSans-Oblique-6c" transform="translate(117.280273 -27.625)scale(0.49)"/>
     </g>
    </g>
   </g>
  </g>
 </g>
 <defs>
  <clipPath id="p5ee688d46c">
   <rect x="31.641875" y="9.479531" width="334.8" height="217.44"/>
  </clipPath>
 </defs>
</svg>
