<?xml version="1.0" encoding="utf-8" standalone="no"?>
<!DOCTYPE svg PUBLIC "-//W3C//DTD SVG 1.1//EN"
  "http://www.w3.org/Graphics/SVG/1.1/DTD/svg11.dtd">
<svg xmlns:xlink="http://www.w3.org/1999/xlink" width="382.487187pt" height="256.733281pt" viewBox="0 0 382.487187 256.733281" xmlns="http://www.w3.org/2000/svg" version="1.1">
 <metadata>
  <rdf:RDF xmlns:dc="http://purl.org/dc/elements/1.1/" xmlns:cc="http://creativecommons.org/ns#" xmlns:rdf="http://www.w3.org/1999/02/22-rdf-syntax-ns#">
   <cc:Work>
    <dc:type rdf:resource="http://purl.org/dc/dcmitype/StillImage"/>
    <dc:date>2022-01-06T15:35:00.511961</dc:date>
    <dc:format>image/svg+xml</dc:format>
    <dc:creator>
     <cc:Agent>
      <dc:title>Matplotlib v3.5.0, https://matplotlib.org/</dc:title>
     </cc:Agent>
    </dc:creator>
   </cc:Work>
  </rdf:RDF>
 </metadata>
 <defs>
  <style type="text/css">*{stroke-linejoin: round; stroke-linecap: butt}</style>
 </defs>
 <g id="figure_1">
  <g id="patch_1">
   <path d="M 0 256.733281 
L 382.487187 256.733281 
L 382.487187 0 
L 0 0 
z
" style="fill: #ffffff"/>
  </g>
  <g id="axes_1">
   <g id="patch_2">
    <path d="M 36.669688 226.919531 
L 371.469688 226.919531 
L 371.469688 9.479531 
L 36.669688 9.479531 
z
" style="fill: #ffffff"/>
   </g>
   <g id="matplotlib.axis_1">
    <g id="xtick_1">
     <g id="line2d_1">
      <path d="M 36.669688 226.919531 
L 36.669688 9.479531 
" clip-path="url(#p286b3d300f)" style="fill: none; stroke: #000000; stroke-width: 0.5; stroke-linecap: square"/>
     </g>
     <g id="line2d_2">
      <defs>
       <path id="ma7f08d10ee" d="M 0 0 
L 0 3.5 
" style="stroke: #000000; stroke-width: 0.8"/>
      </defs>
      <g>
       <use xlink:href="#ma7f08d10ee" x="36.669688" y="226.919531" style="stroke: #000000; stroke-width: 0.8"/>
      </g>
     </g>
     <g id="text_1">
      <!-- 0.01 -->
      <g transform="translate(29.99 238.478594)scale(0.06 -0.06)">
       <defs>
        <path id="DejaVuSans-30" d="M 2034 4250 
Q 1547 4250 1301 3770 
Q 1056 3291 1056 2328 
Q 1056 1369 1301 889 
Q 1547 409 2034 409 
Q 2525 409 2770 889 
Q 3016 1369 3016 2328 
Q 3016 3291 2770 3770 
Q 2525 4250 2034 4250 
z
M 2034 4750 
Q 2819 4750 3233 4129 
Q 3647 3509 3647 2328 
Q 3647 1150 3233 529 
Q 2819 -91 2034 -91 
Q 1250 -91 836 529 
Q 422 1150 422 2328 
Q 422 3509 836 4129 
Q 1250 4750 2034 4750 
z
" transform="scale(0.015625)"/>
        <path id="DejaVuSans-2e" d="M 684 794 
L 1344 794 
L 1344 0 
L 684 0 
L 684 794 
z
" transform="scale(0.015625)"/>
        <path id="DejaVuSans-31" d="M 794 531 
L 1825 531 
L 1825 4091 
L 703 3866 
L 703 4441 
L 1819 4666 
L 2450 4666 
L 2450 531 
L 3481 531 
L 3481 0 
L 794 0 
L 794 531 
z
" transform="scale(0.015625)"/>
       </defs>
       <use xlink:href="#DejaVuSans-30"/>
       <use xlink:href="#DejaVuSans-2e" x="63.623047"/>
       <use xlink:href="#DejaVuSans-30" x="95.410156"/>
       <use xlink:href="#DejaVuSans-31" x="159.033203"/>
      </g>
     </g>
    </g>
    <g id="xtick_2">
     <g id="line2d_3">
      <path d="M 65.654826 226.919531 
L 65.654826 9.479531 
" clip-path="url(#p286b3d300f)" style="fill: none; stroke: #000000; stroke-width: 0.5; stroke-linecap: square"/>
     </g>
     <g id="line2d_4">
      <g>
       <use xlink:href="#ma7f08d10ee" x="65.654826" y="226.919531" style="stroke: #000000; stroke-width: 0.8"/>
      </g>
     </g>
     <g id="text_2">
      <!-- 0.02 -->
      <g transform="translate(58.975139 238.478594)scale(0.06 -0.06)">
       <defs>
        <path id="DejaVuSans-32" d="M 1228 531 
L 3431 531 
L 3431 0 
L 469 0 
L 469 531 
Q 828 903 1448 1529 
Q 2069 2156 2228 2338 
Q 2531 2678 2651 2914 
Q 2772 3150 2772 3378 
Q 2772 3750 2511 3984 
Q 2250 4219 1831 4219 
Q 1534 4219 1204 4116 
Q 875 4013 500 3803 
L 500 4441 
Q 881 4594 1212 4672 
Q 1544 4750 1819 4750 
Q 2544 4750 2975 4387 
Q 3406 4025 3406 3419 
Q 3406 3131 3298 2873 
Q 3191 2616 2906 2266 
Q 2828 2175 2409 1742 
Q 1991 1309 1228 531 
z
" transform="scale(0.015625)"/>
       </defs>
       <use xlink:href="#DejaVuSans-30"/>
       <use xlink:href="#DejaVuSans-2e" x="63.623047"/>
       <use xlink:href="#DejaVuSans-30" x="95.410156"/>
       <use xlink:href="#DejaVuSans-32" x="159.033203"/>
      </g>
     </g>
    </g>
    <g id="xtick_3">
     <g id="line2d_5">
      <path d="M 82.610046 226.919531 
L 82.610046 9.479531 
" clip-path="url(#p286b3d300f)" style="fill: none; stroke: #000000; stroke-width: 0.5; stroke-linecap: square"/>
     </g>
     <g id="line2d_6">
      <g>
       <use xlink:href="#ma7f08d10ee" x="82.610046" y="226.919531" style="stroke: #000000; stroke-width: 0.8"/>
      </g>
     </g>
     <g id="text_3">
      <!-- 0.03 -->
      <g transform="translate(75.930358 238.478594)scale(0.06 -0.06)">
       <defs>
        <path id="DejaVuSans-33" d="M 2597 2516 
Q 3050 2419 3304 2112 
Q 3559 1806 3559 1356 
Q 3559 666 3084 287 
Q 2609 -91 1734 -91 
Q 1441 -91 1130 -33 
Q 819 25 488 141 
L 488 750 
Q 750 597 1062 519 
Q 1375 441 1716 441 
Q 2309 441 2620 675 
Q 2931 909 2931 1356 
Q 2931 1769 2642 2001 
Q 2353 2234 1838 2234 
L 1294 2234 
L 1294 2753 
L 1863 2753 
Q 2328 2753 2575 2939 
Q 2822 3125 2822 3475 
Q 2822 3834 2567 4026 
Q 2313 4219 1838 4219 
Q 1578 4219 1281 4162 
Q 984 4106 628 3988 
L 628 4550 
Q 988 4650 1302 4700 
Q 1616 4750 1894 4750 
Q 2613 4750 3031 4423 
Q 3450 4097 3450 3541 
Q 3450 3153 3228 2886 
Q 3006 2619 2597 2516 
z
" transform="scale(0.015625)"/>
       </defs>
       <use xlink:href="#DejaVuSans-30"/>
       <use xlink:href="#DejaVuSans-2e" x="63.623047"/>
       <use xlink:href="#DejaVuSans-30" x="95.410156"/>
       <use xlink:href="#DejaVuSans-33" x="159.033203"/>
      </g>
     </g>
    </g>
    <g id="xtick_4">
     <g id="line2d_7">
      <path d="M 103.971096 226.919531 
L 103.971096 9.479531 
" clip-path="url(#p286b3d300f)" style="fill: none; stroke: #000000; stroke-width: 0.5; stroke-linecap: square"/>
     </g>
     <g id="line2d_8">
      <g>
       <use xlink:href="#ma7f08d10ee" x="103.971096" y="226.919531" style="stroke: #000000; stroke-width: 0.8"/>
      </g>
     </g>
     <g id="text_4">
      <!-- 0.05 -->
      <g transform="translate(97.291408 238.478594)scale(0.06 -0.06)">
       <defs>
        <path id="DejaVuSans-35" d="M 691 4666 
L 3169 4666 
L 3169 4134 
L 1269 4134 
L 1269 2991 
Q 1406 3038 1543 3061 
Q 1681 3084 1819 3084 
Q 2600 3084 3056 2656 
Q 3513 2228 3513 1497 
Q 3513 744 3044 326 
Q 2575 -91 1722 -91 
Q 1428 -91 1123 -41 
Q 819 9 494 109 
L 494 744 
Q 775 591 1075 516 
Q 1375 441 1709 441 
Q 2250 441 2565 725 
Q 2881 1009 2881 1497 
Q 2881 1984 2565 2268 
Q 2250 2553 1709 2553 
Q 1456 2553 1204 2497 
Q 953 2441 691 2322 
L 691 4666 
z
" transform="scale(0.015625)"/>
       </defs>
       <use xlink:href="#DejaVuSans-30"/>
       <use xlink:href="#DejaVuSans-2e" x="63.623047"/>
       <use xlink:href="#DejaVuSans-30" x="95.410156"/>
       <use xlink:href="#DejaVuSans-35" x="159.033203"/>
      </g>
     </g>
    </g>
    <g id="xtick_5">
     <g id="line2d_9">
      <path d="M 118.04126 226.919531 
L 118.04126 9.479531 
" clip-path="url(#p286b3d300f)" style="fill: none; stroke: #000000; stroke-width: 0.5; stroke-linecap: square"/>
     </g>
     <g id="line2d_10">
      <g>
       <use xlink:href="#ma7f08d10ee" x="118.04126" y="226.919531" style="stroke: #000000; stroke-width: 0.8"/>
      </g>
     </g>
     <g id="text_5">
      <!-- 0.07 -->
      <g transform="translate(111.361572 238.478594)scale(0.06 -0.06)">
       <defs>
        <path id="DejaVuSans-37" d="M 525 4666 
L 3525 4666 
L 3525 4397 
L 1831 0 
L 1172 0 
L 2766 4134 
L 525 4134 
L 525 4666 
z
" transform="scale(0.015625)"/>
       </defs>
       <use xlink:href="#DejaVuSans-30"/>
       <use xlink:href="#DejaVuSans-2e" x="63.623047"/>
       <use xlink:href="#DejaVuSans-30" x="95.410156"/>
       <use xlink:href="#DejaVuSans-37" x="159.033203"/>
      </g>
     </g>
    </g>
    <g id="xtick_6">
     <g id="line2d_11">
      <path d="M 132.956235 226.919531 
L 132.956235 9.479531 
" clip-path="url(#p286b3d300f)" style="fill: none; stroke: #000000; stroke-width: 0.5; stroke-linecap: square"/>
     </g>
     <g id="line2d_12">
      <g>
       <use xlink:href="#ma7f08d10ee" x="132.956235" y="226.919531" style="stroke: #000000; stroke-width: 0.8"/>
      </g>
     </g>
     <g id="text_6">
      <!-- 0.1 -->
      <g transform="translate(128.185297 238.478594)scale(0.06 -0.06)">
       <use xlink:href="#DejaVuSans-30"/>
       <use xlink:href="#DejaVuSans-2e" x="63.623047"/>
       <use xlink:href="#DejaVuSans-31" x="95.410156"/>
      </g>
     </g>
    </g>
    <g id="xtick_7">
     <g id="line2d_13">
      <path d="M 161.941374 226.919531 
L 161.941374 9.479531 
" clip-path="url(#p286b3d300f)" style="fill: none; stroke: #000000; stroke-width: 0.5; stroke-linecap: square"/>
     </g>
     <g id="line2d_14">
      <g>
       <use xlink:href="#ma7f08d10ee" x="161.941374" y="226.919531" style="stroke: #000000; stroke-width: 0.8"/>
      </g>
     </g>
     <g id="text_7">
      <!-- 0.2 -->
      <g transform="translate(157.170436 238.478594)scale(0.06 -0.06)">
       <use xlink:href="#DejaVuSans-30"/>
       <use xlink:href="#DejaVuSans-2e" x="63.623047"/>
       <use xlink:href="#DejaVuSans-32" x="95.410156"/>
      </g>
     </g>
    </g>
    <g id="xtick_8">
     <g id="line2d_15">
      <path d="M 178.896593 226.919531 
L 178.896593 9.479531 
" clip-path="url(#p286b3d300f)" style="fill: none; stroke: #000000; stroke-width: 0.5; stroke-linecap: square"/>
     </g>
     <g id="line2d_16">
      <g>
       <use xlink:href="#ma7f08d10ee" x="178.896593" y="226.919531" style="stroke: #000000; stroke-width: 0.8"/>
      </g>
     </g>
     <g id="text_8">
      <!-- 0.3 -->
      <g transform="translate(174.125655 238.478594)scale(0.06 -0.06)">
       <use xlink:href="#DejaVuSans-30"/>
       <use xlink:href="#DejaVuSans-2e" x="63.623047"/>
       <use xlink:href="#DejaVuSans-33" x="95.410156"/>
      </g>
     </g>
    </g>
    <g id="xtick_9">
     <g id="line2d_17">
      <path d="M 200.257643 226.919531 
L 200.257643 9.479531 
" clip-path="url(#p286b3d300f)" style="fill: none; stroke: #000000; stroke-width: 0.5; stroke-linecap: square"/>
     </g>
     <g id="line2d_18">
      <g>
       <use xlink:href="#ma7f08d10ee" x="200.257643" y="226.919531" style="stroke: #000000; stroke-width: 0.8"/>
      </g>
     </g>
     <g id="text_9">
      <!-- 0.5 -->
      <g transform="translate(195.486706 238.478594)scale(0.06 -0.06)">
       <use xlink:href="#DejaVuSans-30"/>
       <use xlink:href="#DejaVuSans-2e" x="63.623047"/>
       <use xlink:href="#DejaVuSans-35" x="95.410156"/>
      </g>
     </g>
    </g>
    <g id="xtick_10">
     <g id="line2d_19">
      <path d="M 214.327807 226.919531 
L 214.327807 9.479531 
" clip-path="url(#p286b3d300f)" style="fill: none; stroke: #000000; stroke-width: 0.5; stroke-linecap: square"/>
     </g>
     <g id="line2d_20">
      <g>
       <use xlink:href="#ma7f08d10ee" x="214.327807" y="226.919531" style="stroke: #000000; stroke-width: 0.8"/>
      </g>
     </g>
     <g id="text_10">
      <!-- 0.7 -->
      <g transform="translate(209.55687 238.478594)scale(0.06 -0.06)">
       <use xlink:href="#DejaVuSans-30"/>
       <use xlink:href="#DejaVuSans-2e" x="63.623047"/>
       <use xlink:href="#DejaVuSans-37" x="95.410156"/>
      </g>
     </g>
    </g>
    <g id="xtick_11">
     <g id="line2d_21">
      <path d="M 229.242782 226.919531 
L 229.242782 9.479531 
" clip-path="url(#p286b3d300f)" style="fill: none; stroke: #000000; stroke-width: 0.5; stroke-linecap: square"/>
     </g>
     <g id="line2d_22">
      <g>
       <use xlink:href="#ma7f08d10ee" x="229.242782" y="226.919531" style="stroke: #000000; stroke-width: 0.8"/>
      </g>
     </g>
     <g id="text_11">
      <!-- 1 -->
      <g transform="translate(227.334032 238.478594)scale(0.06 -0.06)">
       <use xlink:href="#DejaVuSans-31"/>
      </g>
     </g>
    </g>
    <g id="xtick_12">
     <g id="line2d_23">
      <path d="M 258.227921 226.919531 
L 258.227921 9.479531 
" clip-path="url(#p286b3d300f)" style="fill: none; stroke: #000000; stroke-width: 0.5; stroke-linecap: square"/>
     </g>
     <g id="line2d_24">
      <g>
       <use xlink:href="#ma7f08d10ee" x="258.227921" y="226.919531" style="stroke: #000000; stroke-width: 0.8"/>
      </g>
     </g>
     <g id="text_12">
      <!-- 2 -->
      <g transform="translate(256.319171 238.478594)scale(0.06 -0.06)">
       <use xlink:href="#DejaVuSans-32"/>
      </g>
     </g>
    </g>
    <g id="xtick_13">
     <g id="line2d_25">
      <path d="M 275.18314 226.919531 
L 275.18314 9.479531 
" clip-path="url(#p286b3d300f)" style="fill: none; stroke: #000000; stroke-width: 0.5; stroke-linecap: square"/>
     </g>
     <g id="line2d_26">
      <g>
       <use xlink:href="#ma7f08d10ee" x="275.18314" y="226.919531" style="stroke: #000000; stroke-width: 0.8"/>
      </g>
     </g>
     <g id="text_13">
      <!-- 3 -->
      <g transform="translate(273.27439 238.478594)scale(0.06 -0.06)">
       <use xlink:href="#DejaVuSans-33"/>
      </g>
     </g>
    </g>
    <g id="xtick_14">
     <g id="line2d_27">
      <path d="M 296.54419 226.919531 
L 296.54419 9.479531 
" clip-path="url(#p286b3d300f)" style="fill: none; stroke: #000000; stroke-width: 0.5; stroke-linecap: square"/>
     </g>
     <g id="line2d_28">
      <g>
       <use xlink:href="#ma7f08d10ee" x="296.54419" y="226.919531" style="stroke: #000000; stroke-width: 0.8"/>
      </g>
     </g>
     <g id="text_14">
      <!-- 5 -->
      <g transform="translate(294.63544 238.478594)scale(0.06 -0.06)">
       <use xlink:href="#DejaVuSans-35"/>
      </g>
     </g>
    </g>
    <g id="xtick_15">
     <g id="line2d_29">
      <path d="M 310.614354 226.919531 
L 310.614354 9.479531 
" clip-path="url(#p286b3d300f)" style="fill: none; stroke: #000000; stroke-width: 0.5; stroke-linecap: square"/>
     </g>
     <g id="line2d_30">
      <g>
       <use xlink:href="#ma7f08d10ee" x="310.614354" y="226.919531" style="stroke: #000000; stroke-width: 0.8"/>
      </g>
     </g>
     <g id="text_15">
      <!-- 7 -->
      <g transform="translate(308.705604 238.478594)scale(0.06 -0.06)">
       <use xlink:href="#DejaVuSans-37"/>
      </g>
     </g>
    </g>
    <g id="xtick_16">
     <g id="line2d_31">
      <path d="M 325.529329 226.919531 
L 325.529329 9.479531 
" clip-path="url(#p286b3d300f)" style="fill: none; stroke: #000000; stroke-width: 0.5; stroke-linecap: square"/>
     </g>
     <g id="line2d_32">
      <g>
       <use xlink:href="#ma7f08d10ee" x="325.529329" y="226.919531" style="stroke: #000000; stroke-width: 0.8"/>
      </g>
     </g>
     <g id="text_16">
      <!-- 10 -->
      <g transform="translate(321.711829 238.478594)scale(0.06 -0.06)">
       <use xlink:href="#DejaVuSans-31"/>
       <use xlink:href="#DejaVuSans-30" x="63.623047"/>
      </g>
     </g>
    </g>
    <g id="xtick_17">
     <g id="line2d_33">
      <path d="M 354.514468 226.919531 
L 354.514468 9.479531 
" clip-path="url(#p286b3d300f)" style="fill: none; stroke: #000000; stroke-width: 0.5; stroke-linecap: square"/>
     </g>
     <g id="line2d_34">
      <g>
       <use xlink:href="#ma7f08d10ee" x="354.514468" y="226.919531" style="stroke: #000000; stroke-width: 0.8"/>
      </g>
     </g>
     <g id="text_17">
      <!-- 20 -->
      <g transform="translate(350.696968 238.478594)scale(0.06 -0.06)">
       <use xlink:href="#DejaVuSans-32"/>
       <use xlink:href="#DejaVuSans-30" x="63.623047"/>
      </g>
     </g>
    </g>
    <g id="xtick_18">
     <g id="line2d_35">
      <path d="M 371.469688 226.919531 
L 371.469688 9.479531 
" clip-path="url(#p286b3d300f)" style="fill: none; stroke: #000000; stroke-width: 0.5; stroke-linecap: square"/>
     </g>
     <g id="line2d_36">
      <g>
       <use xlink:href="#ma7f08d10ee" x="371.469688" y="226.919531" style="stroke: #000000; stroke-width: 0.8"/>
      </g>
     </g>
     <g id="text_18">
      <!-- 30 -->
      <g transform="translate(367.652188 238.478594)scale(0.06 -0.06)">
       <use xlink:href="#DejaVuSans-33"/>
       <use xlink:href="#DejaVuSans-30" x="63.623047"/>
      </g>
     </g>
    </g>
    <g id="xtick_19">
     <g id="line2d_37">
      <path d="M 94.639965 226.919531 
L 94.639965 9.479531 
" clip-path="url(#p286b3d300f)" style="fill: none; stroke: #000000; stroke-width: 0.1; stroke-linecap: square"/>
     </g>
     <g id="line2d_38">
      <defs>
       <path id="m08dc24f7a6" d="M 0 0 
L 0 2 
" style="stroke: #000000; stroke-width: 0.6"/>
      </defs>
      <g>
       <use xlink:href="#m08dc24f7a6" x="94.639965" y="226.919531" style="stroke: #000000; stroke-width: 0.6"/>
      </g>
     </g>
    </g>
    <g id="xtick_20">
     <g id="line2d_39">
      <path d="M 111.595185 226.919531 
L 111.595185 9.479531 
" clip-path="url(#p286b3d300f)" style="fill: none; stroke: #000000; stroke-width: 0.1; stroke-linecap: square"/>
     </g>
     <g id="line2d_40">
      <g>
       <use xlink:href="#m08dc24f7a6" x="111.595185" y="226.919531" style="stroke: #000000; stroke-width: 0.6"/>
      </g>
     </g>
    </g>
    <g id="xtick_21">
     <g id="line2d_41">
      <path d="M 123.625104 226.919531 
L 123.625104 9.479531 
" clip-path="url(#p286b3d300f)" style="fill: none; stroke: #000000; stroke-width: 0.1; stroke-linecap: square"/>
     </g>
     <g id="line2d_42">
      <g>
       <use xlink:href="#m08dc24f7a6" x="123.625104" y="226.919531" style="stroke: #000000; stroke-width: 0.6"/>
      </g>
     </g>
    </g>
    <g id="xtick_22">
     <g id="line2d_43">
      <path d="M 128.550404 226.919531 
L 128.550404 9.479531 
" clip-path="url(#p286b3d300f)" style="fill: none; stroke: #000000; stroke-width: 0.1; stroke-linecap: square"/>
     </g>
     <g id="line2d_44">
      <g>
       <use xlink:href="#m08dc24f7a6" x="128.550404" y="226.919531" style="stroke: #000000; stroke-width: 0.6"/>
      </g>
     </g>
    </g>
    <g id="xtick_23">
     <g id="line2d_45">
      <path d="M 190.926513 226.919531 
L 190.926513 9.479531 
" clip-path="url(#p286b3d300f)" style="fill: none; stroke: #000000; stroke-width: 0.1; stroke-linecap: square"/>
     </g>
     <g id="line2d_46">
      <g>
       <use xlink:href="#m08dc24f7a6" x="190.926513" y="226.919531" style="stroke: #000000; stroke-width: 0.6"/>
      </g>
     </g>
    </g>
    <g id="xtick_24">
     <g id="line2d_47">
      <path d="M 207.881732 226.919531 
L 207.881732 9.479531 
" clip-path="url(#p286b3d300f)" style="fill: none; stroke: #000000; stroke-width: 0.1; stroke-linecap: square"/>
     </g>
     <g id="line2d_48">
      <g>
       <use xlink:href="#m08dc24f7a6" x="207.881732" y="226.919531" style="stroke: #000000; stroke-width: 0.6"/>
      </g>
     </g>
    </g>
    <g id="xtick_25">
     <g id="line2d_49">
      <path d="M 219.911651 226.919531 
L 219.911651 9.479531 
" clip-path="url(#p286b3d300f)" style="fill: none; stroke: #000000; stroke-width: 0.1; stroke-linecap: square"/>
     </g>
     <g id="line2d_50">
      <g>
       <use xlink:href="#m08dc24f7a6" x="219.911651" y="226.919531" style="stroke: #000000; stroke-width: 0.6"/>
      </g>
     </g>
    </g>
    <g id="xtick_26">
     <g id="line2d_51">
      <path d="M 224.836951 226.919531 
L 224.836951 9.479531 
" clip-path="url(#p286b3d300f)" style="fill: none; stroke: #000000; stroke-width: 0.1; stroke-linecap: square"/>
     </g>
     <g id="line2d_52">
      <g>
       <use xlink:href="#m08dc24f7a6" x="224.836951" y="226.919531" style="stroke: #000000; stroke-width: 0.6"/>
      </g>
     </g>
    </g>
    <g id="xtick_27">
     <g id="line2d_53">
      <path d="M 287.21306 226.919531 
L 287.21306 9.479531 
" clip-path="url(#p286b3d300f)" style="fill: none; stroke: #000000; stroke-width: 0.1; stroke-linecap: square"/>
     </g>
     <g id="line2d_54">
      <g>
       <use xlink:href="#m08dc24f7a6" x="287.21306" y="226.919531" style="stroke: #000000; stroke-width: 0.6"/>
      </g>
     </g>
    </g>
    <g id="xtick_28">
     <g id="line2d_55">
      <path d="M 304.168279 226.919531 
L 304.168279 9.479531 
" clip-path="url(#p286b3d300f)" style="fill: none; stroke: #000000; stroke-width: 0.1; stroke-linecap: square"/>
     </g>
     <g id="line2d_56">
      <g>
       <use xlink:href="#m08dc24f7a6" x="304.168279" y="226.919531" style="stroke: #000000; stroke-width: 0.6"/>
      </g>
     </g>
    </g>
    <g id="xtick_29">
     <g id="line2d_57">
      <path d="M 316.198199 226.919531 
L 316.198199 9.479531 
" clip-path="url(#p286b3d300f)" style="fill: none; stroke: #000000; stroke-width: 0.1; stroke-linecap: square"/>
     </g>
     <g id="line2d_58">
      <g>
       <use xlink:href="#m08dc24f7a6" x="316.198199" y="226.919531" style="stroke: #000000; stroke-width: 0.6"/>
      </g>
     </g>
    </g>
    <g id="xtick_30">
     <g id="line2d_59">
      <path d="M 321.123498 226.919531 
L 321.123498 9.479531 
" clip-path="url(#p286b3d300f)" style="fill: none; stroke: #000000; stroke-width: 0.1; stroke-linecap: square"/>
     </g>
     <g id="line2d_60">
      <g>
       <use xlink:href="#m08dc24f7a6" x="321.123498" y="226.919531" style="stroke: #000000; stroke-width: 0.6"/>
      </g>
     </g>
    </g>
    <g id="text_19">
     <!-- Frequency (MHz) -->
     <g transform="translate(178.858438 248.285469)scale(0.06 -0.06)">
      <defs>
       <path id="DejaVuSans-46" d="M 628 4666 
L 3309 4666 
L 3309 4134 
L 1259 4134 
L 1259 2759 
L 3109 2759 
L 3109 2228 
L 1259 2228 
L 1259 0 
L 628 0 
L 628 4666 
z
" transform="scale(0.015625)"/>
       <path id="DejaVuSans-72" d="M 2631 2963 
Q 2534 3019 2420 3045 
Q 2306 3072 2169 3072 
Q 1681 3072 1420 2755 
Q 1159 2438 1159 1844 
L 1159 0 
L 581 0 
L 581 3500 
L 1159 3500 
L 1159 2956 
Q 1341 3275 1631 3429 
Q 1922 3584 2338 3584 
Q 2397 3584 2469 3576 
Q 2541 3569 2628 3553 
L 2631 2963 
z
" transform="scale(0.015625)"/>
       <path id="DejaVuSans-65" d="M 3597 1894 
L 3597 1613 
L 953 1613 
Q 991 1019 1311 708 
Q 1631 397 2203 397 
Q 2534 397 2845 478 
Q 3156 559 3463 722 
L 3463 178 
Q 3153 47 2828 -22 
Q 2503 -91 2169 -91 
Q 1331 -91 842 396 
Q 353 884 353 1716 
Q 353 2575 817 3079 
Q 1281 3584 2069 3584 
Q 2775 3584 3186 3129 
Q 3597 2675 3597 1894 
z
M 3022 2063 
Q 3016 2534 2758 2815 
Q 2500 3097 2075 3097 
Q 1594 3097 1305 2825 
Q 1016 2553 972 2059 
L 3022 2063 
z
" transform="scale(0.015625)"/>
       <path id="DejaVuSans-71" d="M 947 1747 
Q 947 1113 1208 752 
Q 1469 391 1925 391 
Q 2381 391 2643 752 
Q 2906 1113 2906 1747 
Q 2906 2381 2643 2742 
Q 2381 3103 1925 3103 
Q 1469 3103 1208 2742 
Q 947 2381 947 1747 
z
M 2906 525 
Q 2725 213 2448 61 
Q 2172 -91 1784 -91 
Q 1150 -91 751 415 
Q 353 922 353 1747 
Q 353 2572 751 3078 
Q 1150 3584 1784 3584 
Q 2172 3584 2448 3432 
Q 2725 3281 2906 2969 
L 2906 3500 
L 3481 3500 
L 3481 -1331 
L 2906 -1331 
L 2906 525 
z
" transform="scale(0.015625)"/>
       <path id="DejaVuSans-75" d="M 544 1381 
L 544 3500 
L 1119 3500 
L 1119 1403 
Q 1119 906 1312 657 
Q 1506 409 1894 409 
Q 2359 409 2629 706 
Q 2900 1003 2900 1516 
L 2900 3500 
L 3475 3500 
L 3475 0 
L 2900 0 
L 2900 538 
Q 2691 219 2414 64 
Q 2138 -91 1772 -91 
Q 1169 -91 856 284 
Q 544 659 544 1381 
z
M 1991 3584 
L 1991 3584 
z
" transform="scale(0.015625)"/>
       <path id="DejaVuSans-6e" d="M 3513 2113 
L 3513 0 
L 2938 0 
L 2938 2094 
Q 2938 2591 2744 2837 
Q 2550 3084 2163 3084 
Q 1697 3084 1428 2787 
Q 1159 2491 1159 1978 
L 1159 0 
L 581 0 
L 581 3500 
L 1159 3500 
L 1159 2956 
Q 1366 3272 1645 3428 
Q 1925 3584 2291 3584 
Q 2894 3584 3203 3211 
Q 3513 2838 3513 2113 
z
" transform="scale(0.015625)"/>
       <path id="DejaVuSans-63" d="M 3122 3366 
L 3122 2828 
Q 2878 2963 2633 3030 
Q 2388 3097 2138 3097 
Q 1578 3097 1268 2742 
Q 959 2388 959 1747 
Q 959 1106 1268 751 
Q 1578 397 2138 397 
Q 2388 397 2633 464 
Q 2878 531 3122 666 
L 3122 134 
Q 2881 22 2623 -34 
Q 2366 -91 2075 -91 
Q 1284 -91 818 406 
Q 353 903 353 1747 
Q 353 2603 823 3093 
Q 1294 3584 2113 3584 
Q 2378 3584 2631 3529 
Q 2884 3475 3122 3366 
z
" transform="scale(0.015625)"/>
       <path id="DejaVuSans-79" d="M 2059 -325 
Q 1816 -950 1584 -1140 
Q 1353 -1331 966 -1331 
L 506 -1331 
L 506 -850 
L 844 -850 
Q 1081 -850 1212 -737 
Q 1344 -625 1503 -206 
L 1606 56 
L 191 3500 
L 800 3500 
L 1894 763 
L 2988 3500 
L 3597 3500 
L 2059 -325 
z
" transform="scale(0.015625)"/>
       <path id="DejaVuSans-20" transform="scale(0.015625)"/>
       <path id="DejaVuSans-28" d="M 1984 4856 
Q 1566 4138 1362 3434 
Q 1159 2731 1159 2009 
Q 1159 1288 1364 580 
Q 1569 -128 1984 -844 
L 1484 -844 
Q 1016 -109 783 600 
Q 550 1309 550 2009 
Q 550 2706 781 3412 
Q 1013 4119 1484 4856 
L 1984 4856 
z
" transform="scale(0.015625)"/>
       <path id="DejaVuSans-4d" d="M 628 4666 
L 1569 4666 
L 2759 1491 
L 3956 4666 
L 4897 4666 
L 4897 0 
L 4281 0 
L 4281 4097 
L 3078 897 
L 2444 897 
L 1241 4097 
L 1241 0 
L 628 0 
L 628 4666 
z
" transform="scale(0.015625)"/>
       <path id="DejaVuSans-48" d="M 628 4666 
L 1259 4666 
L 1259 2753 
L 3553 2753 
L 3553 4666 
L 4184 4666 
L 4184 0 
L 3553 0 
L 3553 2222 
L 1259 2222 
L 1259 0 
L 628 0 
L 628 4666 
z
" transform="scale(0.015625)"/>
       <path id="DejaVuSans-7a" d="M 353 3500 
L 3084 3500 
L 3084 2975 
L 922 459 
L 3084 459 
L 3084 0 
L 275 0 
L 275 525 
L 2438 3041 
L 353 3041 
L 353 3500 
z
" transform="scale(0.015625)"/>
       <path id="DejaVuSans-29" d="M 513 4856 
L 1013 4856 
Q 1481 4119 1714 3412 
Q 1947 2706 1947 2009 
Q 1947 1309 1714 600 
Q 1481 -109 1013 -844 
L 513 -844 
Q 928 -128 1133 580 
Q 1338 1288 1338 2009 
Q 1338 2731 1133 3434 
Q 928 4138 513 4856 
z
" transform="scale(0.015625)"/>
      </defs>
      <use xlink:href="#DejaVuSans-46"/>
      <use xlink:href="#DejaVuSans-72" x="50.269531"/>
      <use xlink:href="#DejaVuSans-65" x="89.132812"/>
      <use xlink:href="#DejaVuSans-71" x="150.65625"/>
      <use xlink:href="#DejaVuSans-75" x="214.132812"/>
      <use xlink:href="#DejaVuSans-65" x="277.511719"/>
      <use xlink:href="#DejaVuSans-6e" x="339.035156"/>
      <use xlink:href="#DejaVuSans-63" x="402.414062"/>
      <use xlink:href="#DejaVuSans-79" x="457.394531"/>
      <use xlink:href="#DejaVuSans-20" x="516.574219"/>
      <use xlink:href="#DejaVuSans-28" x="548.361328"/>
      <use xlink:href="#DejaVuSans-4d" x="587.375"/>
      <use xlink:href="#DejaVuSans-48" x="673.654297"/>
      <use xlink:href="#DejaVuSans-7a" x="748.849609"/>
      <use xlink:href="#DejaVuSans-29" x="801.339844"/>
     </g>
    </g>
   </g>
   <g id="matplotlib.axis_2">
    <g id="ytick_1">
     <g id="line2d_61">
      <path d="M 36.669688 226.919531 
L 371.469688 226.919531 
" clip-path="url(#p286b3d300f)" style="fill: none; stroke: #000000; stroke-width: 0.5; stroke-linecap: square"/>
     </g>
     <g id="line2d_62">
      <defs>
       <path id="m0144387115" d="M 0 0 
L -3.5 0 
" style="stroke: #000000; stroke-width: 0.8"/>
      </defs>
      <g>
       <use xlink:href="#m0144387115" x="36.669688" y="226.919531" style="stroke: #000000; stroke-width: 0.8"/>
      </g>
     </g>
     <g id="text_20">
      <!-- −20 -->
      <g transform="translate(17.006875 229.199062)scale(0.06 -0.06)">
       <defs>
        <path id="DejaVuSans-2212" d="M 678 2272 
L 4684 2272 
L 4684 1741 
L 678 1741 
L 678 2272 
z
" transform="scale(0.015625)"/>
       </defs>
       <use xlink:href="#DejaVuSans-2212"/>
       <use xlink:href="#DejaVuSans-32" x="83.789062"/>
       <use xlink:href="#DejaVuSans-30" x="147.412109"/>
      </g>
     </g>
    </g>
    <g id="ytick_2">
     <g id="line2d_63">
      <path d="M 36.669688 205.175531 
L 371.469688 205.175531 
" clip-path="url(#p286b3d300f)" style="fill: none; stroke: #000000; stroke-width: 0.5; stroke-linecap: square"/>
     </g>
     <g id="line2d_64">
      <g>
       <use xlink:href="#m0144387115" x="36.669688" y="205.175531" style="stroke: #000000; stroke-width: 0.8"/>
      </g>
     </g>
     <g id="text_21">
      <!-- 0 -->
      <g transform="translate(25.852188 207.455062)scale(0.06 -0.06)">
       <use xlink:href="#DejaVuSans-30"/>
      </g>
     </g>
    </g>
    <g id="ytick_3">
     <g id="line2d_65">
      <path d="M 36.669688 183.431531 
L 371.469688 183.431531 
" clip-path="url(#p286b3d300f)" style="fill: none; stroke: #000000; stroke-width: 0.5; stroke-linecap: square"/>
     </g>
     <g id="line2d_66">
      <g>
       <use xlink:href="#m0144387115" x="36.669688" y="183.431531" style="stroke: #000000; stroke-width: 0.8"/>
      </g>
     </g>
     <g id="text_22">
      <!-- 20 -->
      <g transform="translate(22.034688 185.711062)scale(0.06 -0.06)">
       <use xlink:href="#DejaVuSans-32"/>
       <use xlink:href="#DejaVuSans-30" x="63.623047"/>
      </g>
     </g>
    </g>
    <g id="ytick_4">
     <g id="line2d_67">
      <path d="M 36.669688 161.687531 
L 371.469688 161.687531 
" clip-path="url(#p286b3d300f)" style="fill: none; stroke: #000000; stroke-width: 0.5; stroke-linecap: square"/>
     </g>
     <g id="line2d_68">
      <g>
       <use xlink:href="#m0144387115" x="36.669688" y="161.687531" style="stroke: #000000; stroke-width: 0.8"/>
      </g>
     </g>
     <g id="text_23">
      <!-- 40 -->
      <g transform="translate(22.034688 163.967062)scale(0.06 -0.06)">
       <defs>
        <path id="DejaVuSans-34" d="M 2419 4116 
L 825 1625 
L 2419 1625 
L 2419 4116 
z
M 2253 4666 
L 3047 4666 
L 3047 1625 
L 3713 1625 
L 3713 1100 
L 3047 1100 
L 3047 0 
L 2419 0 
L 2419 1100 
L 313 1100 
L 313 1709 
L 2253 4666 
z
" transform="scale(0.015625)"/>
       </defs>
       <use xlink:href="#DejaVuSans-34"/>
       <use xlink:href="#DejaVuSans-30" x="63.623047"/>
      </g>
     </g>
    </g>
    <g id="ytick_5">
     <g id="line2d_69">
      <path d="M 36.669688 139.943531 
L 371.469688 139.943531 
" clip-path="url(#p286b3d300f)" style="fill: none; stroke: #000000; stroke-width: 0.5; stroke-linecap: square"/>
     </g>
     <g id="line2d_70">
      <g>
       <use xlink:href="#m0144387115" x="36.669688" y="139.943531" style="stroke: #000000; stroke-width: 0.8"/>
      </g>
     </g>
     <g id="text_24">
      <!-- 60 -->
      <g transform="translate(22.034688 142.223062)scale(0.06 -0.06)">
       <defs>
        <path id="DejaVuSans-36" d="M 2113 2584 
Q 1688 2584 1439 2293 
Q 1191 2003 1191 1497 
Q 1191 994 1439 701 
Q 1688 409 2113 409 
Q 2538 409 2786 701 
Q 3034 994 3034 1497 
Q 3034 2003 2786 2293 
Q 2538 2584 2113 2584 
z
M 3366 4563 
L 3366 3988 
Q 3128 4100 2886 4159 
Q 2644 4219 2406 4219 
Q 1781 4219 1451 3797 
Q 1122 3375 1075 2522 
Q 1259 2794 1537 2939 
Q 1816 3084 2150 3084 
Q 2853 3084 3261 2657 
Q 3669 2231 3669 1497 
Q 3669 778 3244 343 
Q 2819 -91 2113 -91 
Q 1303 -91 875 529 
Q 447 1150 447 2328 
Q 447 3434 972 4092 
Q 1497 4750 2381 4750 
Q 2619 4750 2861 4703 
Q 3103 4656 3366 4563 
z
" transform="scale(0.015625)"/>
       </defs>
       <use xlink:href="#DejaVuSans-36"/>
       <use xlink:href="#DejaVuSans-30" x="63.623047"/>
      </g>
     </g>
    </g>
    <g id="ytick_6">
     <g id="line2d_71">
      <path d="M 36.669688 118.199531 
L 371.469688 118.199531 
" clip-path="url(#p286b3d300f)" style="fill: none; stroke: #000000; stroke-width: 0.5; stroke-linecap: square"/>
     </g>
     <g id="line2d_72">
      <g>
       <use xlink:href="#m0144387115" x="36.669688" y="118.199531" style="stroke: #000000; stroke-width: 0.8"/>
      </g>
     </g>
     <g id="text_25">
      <!-- 80 -->
      <g transform="translate(22.034688 120.479062)scale(0.06 -0.06)">
       <defs>
        <path id="DejaVuSans-38" d="M 2034 2216 
Q 1584 2216 1326 1975 
Q 1069 1734 1069 1313 
Q 1069 891 1326 650 
Q 1584 409 2034 409 
Q 2484 409 2743 651 
Q 3003 894 3003 1313 
Q 3003 1734 2745 1975 
Q 2488 2216 2034 2216 
z
M 1403 2484 
Q 997 2584 770 2862 
Q 544 3141 544 3541 
Q 544 4100 942 4425 
Q 1341 4750 2034 4750 
Q 2731 4750 3128 4425 
Q 3525 4100 3525 3541 
Q 3525 3141 3298 2862 
Q 3072 2584 2669 2484 
Q 3125 2378 3379 2068 
Q 3634 1759 3634 1313 
Q 3634 634 3220 271 
Q 2806 -91 2034 -91 
Q 1263 -91 848 271 
Q 434 634 434 1313 
Q 434 1759 690 2068 
Q 947 2378 1403 2484 
z
M 1172 3481 
Q 1172 3119 1398 2916 
Q 1625 2713 2034 2713 
Q 2441 2713 2670 2916 
Q 2900 3119 2900 3481 
Q 2900 3844 2670 4047 
Q 2441 4250 2034 4250 
Q 1625 4250 1398 4047 
Q 1172 3844 1172 3481 
z
" transform="scale(0.015625)"/>
       </defs>
       <use xlink:href="#DejaVuSans-38"/>
       <use xlink:href="#DejaVuSans-30" x="63.623047"/>
      </g>
     </g>
    </g>
    <g id="ytick_7">
     <g id="line2d_73">
      <path d="M 36.669688 96.455531 
L 371.469688 96.455531 
" clip-path="url(#p286b3d300f)" style="fill: none; stroke: #000000; stroke-width: 0.5; stroke-linecap: square"/>
     </g>
     <g id="line2d_74">
      <g>
       <use xlink:href="#m0144387115" x="36.669688" y="96.455531" style="stroke: #000000; stroke-width: 0.8"/>
      </g>
     </g>
     <g id="text_26">
      <!-- 100 -->
      <g transform="translate(18.217188 98.735062)scale(0.06 -0.06)">
       <use xlink:href="#DejaVuSans-31"/>
       <use xlink:href="#DejaVuSans-30" x="63.623047"/>
       <use xlink:href="#DejaVuSans-30" x="127.246094"/>
      </g>
     </g>
    </g>
    <g id="ytick_8">
     <g id="line2d_75">
      <path d="M 36.669688 74.711531 
L 371.469688 74.711531 
" clip-path="url(#p286b3d300f)" style="fill: none; stroke: #000000; stroke-width: 0.5; stroke-linecap: square"/>
     </g>
     <g id="line2d_76">
      <g>
       <use xlink:href="#m0144387115" x="36.669688" y="74.711531" style="stroke: #000000; stroke-width: 0.8"/>
      </g>
     </g>
     <g id="text_27">
      <!-- 120 -->
      <g transform="translate(18.217188 76.991062)scale(0.06 -0.06)">
       <use xlink:href="#DejaVuSans-31"/>
       <use xlink:href="#DejaVuSans-32" x="63.623047"/>
       <use xlink:href="#DejaVuSans-30" x="127.246094"/>
      </g>
     </g>
    </g>
    <g id="ytick_9">
     <g id="line2d_77">
      <path d="M 36.669688 52.967531 
L 371.469688 52.967531 
" clip-path="url(#p286b3d300f)" style="fill: none; stroke: #000000; stroke-width: 0.5; stroke-linecap: square"/>
     </g>
     <g id="line2d_78">
      <g>
       <use xlink:href="#m0144387115" x="36.669688" y="52.967531" style="stroke: #000000; stroke-width: 0.8"/>
      </g>
     </g>
     <g id="text_28">
      <!-- 140 -->
      <g transform="translate(18.217188 55.247062)scale(0.06 -0.06)">
       <use xlink:href="#DejaVuSans-31"/>
       <use xlink:href="#DejaVuSans-34" x="63.623047"/>
       <use xlink:href="#DejaVuSans-30" x="127.246094"/>
      </g>
     </g>
    </g>
    <g id="ytick_10">
     <g id="line2d_79">
      <path d="M 36.669688 31.223531 
L 371.469688 31.223531 
" clip-path="url(#p286b3d300f)" style="fill: none; stroke: #000000; stroke-width: 0.5; stroke-linecap: square"/>
     </g>
     <g id="line2d_80">
      <g>
       <use xlink:href="#m0144387115" x="36.669688" y="31.223531" style="stroke: #000000; stroke-width: 0.8"/>
      </g>
     </g>
     <g id="text_29">
      <!-- 160 -->
      <g transform="translate(18.217188 33.503062)scale(0.06 -0.06)">
       <use xlink:href="#DejaVuSans-31"/>
       <use xlink:href="#DejaVuSans-36" x="63.623047"/>
       <use xlink:href="#DejaVuSans-30" x="127.246094"/>
      </g>
     </g>
    </g>
    <g id="ytick_11">
     <g id="line2d_81">
      <path d="M 36.669688 9.479531 
L 371.469688 9.479531 
" clip-path="url(#p286b3d300f)" style="fill: none; stroke: #000000; stroke-width: 0.5; stroke-linecap: square"/>
     </g>
     <g id="line2d_82">
      <g>
       <use xlink:href="#m0144387115" x="36.669688" y="9.479531" style="stroke: #000000; stroke-width: 0.8"/>
      </g>
     </g>
     <g id="text_30">
      <!-- 180 -->
      <g transform="translate(18.217188 11.759062)scale(0.06 -0.06)">
       <use xlink:href="#DejaVuSans-31"/>
       <use xlink:href="#DejaVuSans-38" x="63.623047"/>
       <use xlink:href="#DejaVuSans-30" x="127.246094"/>
      </g>
     </g>
    </g>
    <g id="ytick_12">
     <g id="line2d_83">
      <path d="M 36.669688 221.483531 
L 371.469688 221.483531 
" clip-path="url(#p286b3d300f)" style="fill: none; stroke: #000000; stroke-width: 0.1; stroke-linecap: square"/>
     </g>
     <g id="line2d_84">
      <defs>
       <path id="mb5537bd1cb" d="M 0 0 
L -2 0 
" style="stroke: #000000; stroke-width: 0.6"/>
      </defs>
      <g>
       <use xlink:href="#mb5537bd1cb" x="36.669688" y="221.483531" style="stroke: #000000; stroke-width: 0.6"/>
      </g>
     </g>
    </g>
    <g id="ytick_13">
     <g id="line2d_85">
      <path d="M 36.669688 216.047531 
L 371.469688 216.047531 
" clip-path="url(#p286b3d300f)" style="fill: none; stroke: #000000; stroke-width: 0.1; stroke-linecap: square"/>
     </g>
     <g id="line2d_86">
      <g>
       <use xlink:href="#mb5537bd1cb" x="36.669688" y="216.047531" style="stroke: #000000; stroke-width: 0.6"/>
      </g>
     </g>
    </g>
    <g id="ytick_14">
     <g id="line2d_87">
      <path d="M 36.669688 210.611531 
L 371.469688 210.611531 
" clip-path="url(#p286b3d300f)" style="fill: none; stroke: #000000; stroke-width: 0.1; stroke-linecap: square"/>
     </g>
     <g id="line2d_88">
      <g>
       <use xlink:href="#mb5537bd1cb" x="36.669688" y="210.611531" style="stroke: #000000; stroke-width: 0.6"/>
      </g>
     </g>
    </g>
    <g id="ytick_15">
     <g id="line2d_89">
      <path d="M 36.669688 199.739531 
L 371.469688 199.739531 
" clip-path="url(#p286b3d300f)" style="fill: none; stroke: #000000; stroke-width: 0.1; stroke-linecap: square"/>
     </g>
     <g id="line2d_90">
      <g>
       <use xlink:href="#mb5537bd1cb" x="36.669688" y="199.739531" style="stroke: #000000; stroke-width: 0.6"/>
      </g>
     </g>
    </g>
    <g id="ytick_16">
     <g id="line2d_91">
      <path d="M 36.669688 194.303531 
L 371.469688 194.303531 
" clip-path="url(#p286b3d300f)" style="fill: none; stroke: #000000; stroke-width: 0.1; stroke-linecap: square"/>
     </g>
     <g id="line2d_92">
      <g>
       <use xlink:href="#mb5537bd1cb" x="36.669688" y="194.303531" style="stroke: #000000; stroke-width: 0.6"/>
      </g>
     </g>
    </g>
    <g id="ytick_17">
     <g id="line2d_93">
      <path d="M 36.669688 188.867531 
L 371.469688 188.867531 
" clip-path="url(#p286b3d300f)" style="fill: none; stroke: #000000; stroke-width: 0.1; stroke-linecap: square"/>
     </g>
     <g id="line2d_94">
      <g>
       <use xlink:href="#mb5537bd1cb" x="36.669688" y="188.867531" style="stroke: #000000; stroke-width: 0.6"/>
      </g>
     </g>
    </g>
    <g id="ytick_18">
     <g id="line2d_95">
      <path d="M 36.669688 177.995531 
L 371.469688 177.995531 
" clip-path="url(#p286b3d300f)" style="fill: none; stroke: #000000; stroke-width: 0.1; stroke-linecap: square"/>
     </g>
     <g id="line2d_96">
      <g>
       <use xlink:href="#mb5537bd1cb" x="36.669688" y="177.995531" style="stroke: #000000; stroke-width: 0.6"/>
      </g>
     </g>
    </g>
    <g id="ytick_19">
     <g id="line2d_97">
      <path d="M 36.669688 172.559531 
L 371.469688 172.559531 
" clip-path="url(#p286b3d300f)" style="fill: none; stroke: #000000; stroke-width: 0.1; stroke-linecap: square"/>
     </g>
     <g id="line2d_98">
      <g>
       <use xlink:href="#mb5537bd1cb" x="36.669688" y="172.559531" style="stroke: #000000; stroke-width: 0.6"/>
      </g>
     </g>
    </g>
    <g id="ytick_20">
     <g id="line2d_99">
      <path d="M 36.669688 167.123531 
L 371.469688 167.123531 
" clip-path="url(#p286b3d300f)" style="fill: none; stroke: #000000; stroke-width: 0.1; stroke-linecap: square"/>
     </g>
     <g id="line2d_100">
      <g>
       <use xlink:href="#mb5537bd1cb" x="36.669688" y="167.123531" style="stroke: #000000; stroke-width: 0.6"/>
      </g>
     </g>
    </g>
    <g id="ytick_21">
     <g id="line2d_101">
      <path d="M 36.669688 156.251531 
L 371.469688 156.251531 
" clip-path="url(#p286b3d300f)" style="fill: none; stroke: #000000; stroke-width: 0.1; stroke-linecap: square"/>
     </g>
     <g id="line2d_102">
      <g>
       <use xlink:href="#mb5537bd1cb" x="36.669688" y="156.251531" style="stroke: #000000; stroke-width: 0.6"/>
      </g>
     </g>
    </g>
    <g id="ytick_22">
     <g id="line2d_103">
      <path d="M 36.669688 150.815531 
L 371.469688 150.815531 
" clip-path="url(#p286b3d300f)" style="fill: none; stroke: #000000; stroke-width: 0.1; stroke-linecap: square"/>
     </g>
     <g id="line2d_104">
      <g>
       <use xlink:href="#mb5537bd1cb" x="36.669688" y="150.815531" style="stroke: #000000; stroke-width: 0.6"/>
      </g>
     </g>
    </g>
    <g id="ytick_23">
     <g id="line2d_105">
      <path d="M 36.669688 145.379531 
L 371.469688 145.379531 
" clip-path="url(#p286b3d300f)" style="fill: none; stroke: #000000; stroke-width: 0.1; stroke-linecap: square"/>
     </g>
     <g id="line2d_106">
      <g>
       <use xlink:href="#mb5537bd1cb" x="36.669688" y="145.379531" style="stroke: #000000; stroke-width: 0.6"/>
      </g>
     </g>
    </g>
    <g id="ytick_24">
     <g id="line2d_107">
      <path d="M 36.669688 134.507531 
L 371.469688 134.507531 
" clip-path="url(#p286b3d300f)" style="fill: none; stroke: #000000; stroke-width: 0.1; stroke-linecap: square"/>
     </g>
     <g id="line2d_108">
      <g>
       <use xlink:href="#mb5537bd1cb" x="36.669688" y="134.507531" style="stroke: #000000; stroke-width: 0.6"/>
      </g>
     </g>
    </g>
    <g id="ytick_25">
     <g id="line2d_109">
      <path d="M 36.669688 129.071531 
L 371.469688 129.071531 
" clip-path="url(#p286b3d300f)" style="fill: none; stroke: #000000; stroke-width: 0.1; stroke-linecap: square"/>
     </g>
     <g id="line2d_110">
      <g>
       <use xlink:href="#mb5537bd1cb" x="36.669688" y="129.071531" style="stroke: #000000; stroke-width: 0.6"/>
      </g>
     </g>
    </g>
    <g id="ytick_26">
     <g id="line2d_111">
      <path d="M 36.669688 123.635531 
L 371.469688 123.635531 
" clip-path="url(#p286b3d300f)" style="fill: none; stroke: #000000; stroke-width: 0.1; stroke-linecap: square"/>
     </g>
     <g id="line2d_112">
      <g>
       <use xlink:href="#mb5537bd1cb" x="36.669688" y="123.635531" style="stroke: #000000; stroke-width: 0.6"/>
      </g>
     </g>
    </g>
    <g id="ytick_27">
     <g id="line2d_113">
      <path d="M 36.669688 112.763531 
L 371.469688 112.763531 
" clip-path="url(#p286b3d300f)" style="fill: none; stroke: #000000; stroke-width: 0.1; stroke-linecap: square"/>
     </g>
     <g id="line2d_114">
      <g>
       <use xlink:href="#mb5537bd1cb" x="36.669688" y="112.763531" style="stroke: #000000; stroke-width: 0.6"/>
      </g>
     </g>
    </g>
    <g id="ytick_28">
     <g id="line2d_115">
      <path d="M 36.669688 107.327531 
L 371.469688 107.327531 
" clip-path="url(#p286b3d300f)" style="fill: none; stroke: #000000; stroke-width: 0.1; stroke-linecap: square"/>
     </g>
     <g id="line2d_116">
      <g>
       <use xlink:href="#mb5537bd1cb" x="36.669688" y="107.327531" style="stroke: #000000; stroke-width: 0.6"/>
      </g>
     </g>
    </g>
    <g id="ytick_29">
     <g id="line2d_117">
      <path d="M 36.669688 101.891531 
L 371.469688 101.891531 
" clip-path="url(#p286b3d300f)" style="fill: none; stroke: #000000; stroke-width: 0.1; stroke-linecap: square"/>
     </g>
     <g id="line2d_118">
      <g>
       <use xlink:href="#mb5537bd1cb" x="36.669688" y="101.891531" style="stroke: #000000; stroke-width: 0.6"/>
      </g>
     </g>
    </g>
    <g id="ytick_30">
     <g id="line2d_119">
      <path d="M 36.669688 91.019531 
L 371.469688 91.019531 
" clip-path="url(#p286b3d300f)" style="fill: none; stroke: #000000; stroke-width: 0.1; stroke-linecap: square"/>
     </g>
     <g id="line2d_120">
      <g>
       <use xlink:href="#mb5537bd1cb" x="36.669688" y="91.019531" style="stroke: #000000; stroke-width: 0.6"/>
      </g>
     </g>
    </g>
    <g id="ytick_31">
     <g id="line2d_121">
      <path d="M 36.669688 85.583531 
L 371.469688 85.583531 
" clip-path="url(#p286b3d300f)" style="fill: none; stroke: #000000; stroke-width: 0.1; stroke-linecap: square"/>
     </g>
     <g id="line2d_122">
      <g>
       <use xlink:href="#mb5537bd1cb" x="36.669688" y="85.583531" style="stroke: #000000; stroke-width: 0.6"/>
      </g>
     </g>
    </g>
    <g id="ytick_32">
     <g id="line2d_123">
      <path d="M 36.669688 80.147531 
L 371.469688 80.147531 
" clip-path="url(#p286b3d300f)" style="fill: none; stroke: #000000; stroke-width: 0.1; stroke-linecap: square"/>
     </g>
     <g id="line2d_124">
      <g>
       <use xlink:href="#mb5537bd1cb" x="36.669688" y="80.147531" style="stroke: #000000; stroke-width: 0.6"/>
      </g>
     </g>
    </g>
    <g id="ytick_33">
     <g id="line2d_125">
      <path d="M 36.669688 69.275531 
L 371.469688 69.275531 
" clip-path="url(#p286b3d300f)" style="fill: none; stroke: #000000; stroke-width: 0.1; stroke-linecap: square"/>
     </g>
     <g id="line2d_126">
      <g>
       <use xlink:href="#mb5537bd1cb" x="36.669688" y="69.275531" style="stroke: #000000; stroke-width: 0.6"/>
      </g>
     </g>
    </g>
    <g id="ytick_34">
     <g id="line2d_127">
      <path d="M 36.669688 63.839531 
L 371.469688 63.839531 
" clip-path="url(#p286b3d300f)" style="fill: none; stroke: #000000; stroke-width: 0.1; stroke-linecap: square"/>
     </g>
     <g id="line2d_128">
      <g>
       <use xlink:href="#mb5537bd1cb" x="36.669688" y="63.839531" style="stroke: #000000; stroke-width: 0.6"/>
      </g>
     </g>
    </g>
    <g id="ytick_35">
     <g id="line2d_129">
      <path d="M 36.669688 58.403531 
L 371.469688 58.403531 
" clip-path="url(#p286b3d300f)" style="fill: none; stroke: #000000; stroke-width: 0.1; stroke-linecap: square"/>
     </g>
     <g id="line2d_130">
      <g>
       <use xlink:href="#mb5537bd1cb" x="36.669688" y="58.403531" style="stroke: #000000; stroke-width: 0.6"/>
      </g>
     </g>
    </g>
    <g id="ytick_36">
     <g id="line2d_131">
      <path d="M 36.669688 47.531531 
L 371.469688 47.531531 
" clip-path="url(#p286b3d300f)" style="fill: none; stroke: #000000; stroke-width: 0.1; stroke-linecap: square"/>
     </g>
     <g id="line2d_132">
      <g>
       <use xlink:href="#mb5537bd1cb" x="36.669688" y="47.531531" style="stroke: #000000; stroke-width: 0.6"/>
      </g>
     </g>
    </g>
    <g id="ytick_37">
     <g id="line2d_133">
      <path d="M 36.669688 42.095531 
L 371.469688 42.095531 
" clip-path="url(#p286b3d300f)" style="fill: none; stroke: #000000; stroke-width: 0.1; stroke-linecap: square"/>
     </g>
     <g id="line2d_134">
      <g>
       <use xlink:href="#mb5537bd1cb" x="36.669688" y="42.095531" style="stroke: #000000; stroke-width: 0.6"/>
      </g>
     </g>
    </g>
    <g id="ytick_38">
     <g id="line2d_135">
      <path d="M 36.669688 36.659531 
L 371.469688 36.659531 
" clip-path="url(#p286b3d300f)" style="fill: none; stroke: #000000; stroke-width: 0.1; stroke-linecap: square"/>
     </g>
     <g id="line2d_136">
      <g>
       <use xlink:href="#mb5537bd1cb" x="36.669688" y="36.659531" style="stroke: #000000; stroke-width: 0.6"/>
      </g>
     </g>
    </g>
    <g id="ytick_39">
     <g id="line2d_137">
      <path d="M 36.669688 25.787531 
L 371.469688 25.787531 
" clip-path="url(#p286b3d300f)" style="fill: none; stroke: #000000; stroke-width: 0.1; stroke-linecap: square"/>
     </g>
     <g id="line2d_138">
      <g>
       <use xlink:href="#mb5537bd1cb" x="36.669688" y="25.787531" style="stroke: #000000; stroke-width: 0.6"/>
      </g>
     </g>
    </g>
    <g id="ytick_40">
     <g id="line2d_139">
      <path d="M 36.669688 20.351531 
L 371.469688 20.351531 
" clip-path="url(#p286b3d300f)" style="fill: none; stroke: #000000; stroke-width: 0.1; stroke-linecap: square"/>
     </g>
     <g id="line2d_140">
      <g>
       <use xlink:href="#mb5537bd1cb" x="36.669688" y="20.351531" style="stroke: #000000; stroke-width: 0.6"/>
      </g>
     </g>
    </g>
    <g id="ytick_41">
     <g id="line2d_141">
      <path d="M 36.669688 14.915531 
L 371.469688 14.915531 
" clip-path="url(#p286b3d300f)" style="fill: none; stroke: #000000; stroke-width: 0.1; stroke-linecap: square"/>
     </g>
     <g id="line2d_142">
      <g>
       <use xlink:href="#mb5537bd1cb" x="36.669688" y="14.915531" style="stroke: #000000; stroke-width: 0.6"/>
      </g>
     </g>
    </g>
    <g id="text_31">
     <!-- $F_{am}$ (dB above $kT_0B$) -->
     <g transform="translate(11.759063 148.769531)rotate(-90)scale(0.06 -0.06)">
      <defs>
       <path id="DejaVuSans-Oblique-46" d="M 1081 4666 
L 3756 4666 
L 3653 4134 
L 1606 4134 
L 1338 2759 
L 3188 2759 
L 3084 2228 
L 1234 2228 
L 800 0 
L 172 0 
L 1081 4666 
z
" transform="scale(0.015625)"/>
       <path id="DejaVuSans-Oblique-61" d="M 3438 1997 
L 3047 0 
L 2472 0 
L 2578 531 
Q 2325 219 2001 64 
Q 1678 -91 1281 -91 
Q 834 -91 548 182 
Q 263 456 263 884 
Q 263 1497 752 1853 
Q 1241 2209 2100 2209 
L 2900 2209 
L 2931 2363 
Q 2938 2388 2941 2417 
Q 2944 2447 2944 2509 
Q 2944 2788 2717 2942 
Q 2491 3097 2081 3097 
Q 1800 3097 1504 3025 
Q 1209 2953 897 2809 
L 997 3341 
Q 1322 3463 1633 3523 
Q 1944 3584 2234 3584 
Q 2853 3584 3176 3315 
Q 3500 3047 3500 2534 
Q 3500 2431 3484 2292 
Q 3469 2153 3438 1997 
z
M 2816 1759 
L 2241 1759 
Q 1534 1759 1195 1570 
Q 856 1381 856 984 
Q 856 709 1029 553 
Q 1203 397 1509 397 
Q 1978 397 2328 733 
Q 2678 1069 2791 1631 
L 2816 1759 
z
" transform="scale(0.015625)"/>
       <path id="DejaVuSans-Oblique-6d" d="M 5747 2113 
L 5338 0 
L 4763 0 
L 5166 2094 
Q 5191 2228 5203 2325 
Q 5216 2422 5216 2491 
Q 5216 2772 5059 2928 
Q 4903 3084 4622 3084 
Q 4203 3084 3875 2770 
Q 3547 2456 3450 1953 
L 3066 0 
L 2491 0 
L 2900 2094 
Q 2925 2209 2937 2307 
Q 2950 2406 2950 2484 
Q 2950 2769 2794 2926 
Q 2638 3084 2363 3084 
Q 1938 3084 1609 2770 
Q 1281 2456 1184 1953 
L 800 0 
L 225 0 
L 909 3500 
L 1484 3500 
L 1375 2956 
Q 1609 3263 1923 3423 
Q 2238 3584 2597 3584 
Q 2978 3584 3223 3384 
Q 3469 3184 3519 2828 
Q 3781 3197 4126 3390 
Q 4472 3584 4856 3584 
Q 5306 3584 5551 3325 
Q 5797 3066 5797 2591 
Q 5797 2488 5784 2364 
Q 5772 2241 5747 2113 
z
" transform="scale(0.015625)"/>
       <path id="DejaVuSans-64" d="M 2906 2969 
L 2906 4863 
L 3481 4863 
L 3481 0 
L 2906 0 
L 2906 525 
Q 2725 213 2448 61 
Q 2172 -91 1784 -91 
Q 1150 -91 751 415 
Q 353 922 353 1747 
Q 353 2572 751 3078 
Q 1150 3584 1784 3584 
Q 2172 3584 2448 3432 
Q 2725 3281 2906 2969 
z
M 947 1747 
Q 947 1113 1208 752 
Q 1469 391 1925 391 
Q 2381 391 2643 752 
Q 2906 1113 2906 1747 
Q 2906 2381 2643 2742 
Q 2381 3103 1925 3103 
Q 1469 3103 1208 2742 
Q 947 2381 947 1747 
z
" transform="scale(0.015625)"/>
       <path id="DejaVuSans-42" d="M 1259 2228 
L 1259 519 
L 2272 519 
Q 2781 519 3026 730 
Q 3272 941 3272 1375 
Q 3272 1813 3026 2020 
Q 2781 2228 2272 2228 
L 1259 2228 
z
M 1259 4147 
L 1259 2741 
L 2194 2741 
Q 2656 2741 2882 2914 
Q 3109 3088 3109 3444 
Q 3109 3797 2882 3972 
Q 2656 4147 2194 4147 
L 1259 4147 
z
M 628 4666 
L 2241 4666 
Q 2963 4666 3353 4366 
Q 3744 4066 3744 3513 
Q 3744 3084 3544 2831 
Q 3344 2578 2956 2516 
Q 3422 2416 3680 2098 
Q 3938 1781 3938 1306 
Q 3938 681 3513 340 
Q 3088 0 2303 0 
L 628 0 
L 628 4666 
z
" transform="scale(0.015625)"/>
       <path id="DejaVuSans-61" d="M 2194 1759 
Q 1497 1759 1228 1600 
Q 959 1441 959 1056 
Q 959 750 1161 570 
Q 1363 391 1709 391 
Q 2188 391 2477 730 
Q 2766 1069 2766 1631 
L 2766 1759 
L 2194 1759 
z
M 3341 1997 
L 3341 0 
L 2766 0 
L 2766 531 
Q 2569 213 2275 61 
Q 1981 -91 1556 -91 
Q 1019 -91 701 211 
Q 384 513 384 1019 
Q 384 1609 779 1909 
Q 1175 2209 1959 2209 
L 2766 2209 
L 2766 2266 
Q 2766 2663 2505 2880 
Q 2244 3097 1772 3097 
Q 1472 3097 1187 3025 
Q 903 2953 641 2809 
L 641 3341 
Q 956 3463 1253 3523 
Q 1550 3584 1831 3584 
Q 2591 3584 2966 3190 
Q 3341 2797 3341 1997 
z
" transform="scale(0.015625)"/>
       <path id="DejaVuSans-62" d="M 3116 1747 
Q 3116 2381 2855 2742 
Q 2594 3103 2138 3103 
Q 1681 3103 1420 2742 
Q 1159 2381 1159 1747 
Q 1159 1113 1420 752 
Q 1681 391 2138 391 
Q 2594 391 2855 752 
Q 3116 1113 3116 1747 
z
M 1159 2969 
Q 1341 3281 1617 3432 
Q 1894 3584 2278 3584 
Q 2916 3584 3314 3078 
Q 3713 2572 3713 1747 
Q 3713 922 3314 415 
Q 2916 -91 2278 -91 
Q 1894 -91 1617 61 
Q 1341 213 1159 525 
L 1159 0 
L 581 0 
L 581 4863 
L 1159 4863 
L 1159 2969 
z
" transform="scale(0.015625)"/>
       <path id="DejaVuSans-6f" d="M 1959 3097 
Q 1497 3097 1228 2736 
Q 959 2375 959 1747 
Q 959 1119 1226 758 
Q 1494 397 1959 397 
Q 2419 397 2687 759 
Q 2956 1122 2956 1747 
Q 2956 2369 2687 2733 
Q 2419 3097 1959 3097 
z
M 1959 3584 
Q 2709 3584 3137 3096 
Q 3566 2609 3566 1747 
Q 3566 888 3137 398 
Q 2709 -91 1959 -91 
Q 1206 -91 779 398 
Q 353 888 353 1747 
Q 353 2609 779 3096 
Q 1206 3584 1959 3584 
z
" transform="scale(0.015625)"/>
       <path id="DejaVuSans-76" d="M 191 3500 
L 800 3500 
L 1894 563 
L 2988 3500 
L 3597 3500 
L 2284 0 
L 1503 0 
L 191 3500 
z
" transform="scale(0.015625)"/>
       <path id="DejaVuSans-Oblique-6b" d="M 1172 4863 
L 1747 4863 
L 1197 2028 
L 3169 3500 
L 3916 3500 
L 1716 1825 
L 3322 0 
L 2625 0 
L 1131 1709 
L 800 0 
L 225 0 
L 1172 4863 
z
" transform="scale(0.015625)"/>
       <path id="DejaVuSans-Oblique-54" d="M 378 4666 
L 4325 4666 
L 4225 4134 
L 2559 4134 
L 1759 0 
L 1125 0 
L 1925 4134 
L 275 4134 
L 378 4666 
z
" transform="scale(0.015625)"/>
       <path id="DejaVuSans-Oblique-42" d="M 1081 4666 
L 2694 4666 
Q 3350 4666 3675 4422 
Q 4000 4178 4000 3688 
Q 4000 3238 3720 2911 
Q 3441 2584 2988 2516 
Q 3375 2428 3569 2181 
Q 3763 1934 3763 1522 
Q 3763 819 3242 409 
Q 2722 0 1819 0 
L 172 0 
L 1081 4666 
z
M 1234 2228 
L 903 519 
L 1919 519 
Q 2491 519 2800 781 
Q 3109 1044 3109 1522 
Q 3109 1891 2904 2059 
Q 2700 2228 2247 2228 
L 1234 2228 
z
M 1606 4147 
L 1331 2741 
L 2272 2741 
Q 2775 2741 3058 2959 
Q 3341 3178 3341 3566 
Q 3341 3869 3150 4008 
Q 2959 4147 2541 4147 
L 1606 4147 
z
" transform="scale(0.015625)"/>
      </defs>
      <use xlink:href="#DejaVuSans-Oblique-46" transform="translate(0 0.015625)"/>
      <use xlink:href="#DejaVuSans-Oblique-61" transform="translate(57.519531 -16.390625)scale(0.7)"/>
      <use xlink:href="#DejaVuSans-Oblique-6d" transform="translate(100.415039 -16.390625)scale(0.7)"/>
      <use xlink:href="#DejaVuSans-20" transform="translate(171.337891 0.015625)"/>
      <use xlink:href="#DejaVuSans-28" transform="translate(203.125 0.015625)"/>
      <use xlink:href="#DejaVuSans-64" transform="translate(242.138672 0.015625)"/>
      <use xlink:href="#DejaVuSans-42" transform="translate(305.615234 0.015625)"/>
      <use xlink:href="#DejaVuSans-20" transform="translate(374.21875 0.015625)"/>
      <use xlink:href="#DejaVuSans-61" transform="translate(406.005859 0.015625)"/>
      <use xlink:href="#DejaVuSans-62" transform="translate(467.285156 0.015625)"/>
      <use xlink:href="#DejaVuSans-6f" transform="translate(530.761719 0.015625)"/>
      <use xlink:href="#DejaVuSans-76" transform="translate(591.943359 0.015625)"/>
      <use xlink:href="#DejaVuSans-65" transform="translate(651.123047 0.015625)"/>
      <use xlink:href="#DejaVuSans-20" transform="translate(712.646484 0.015625)"/>
      <use xlink:href="#DejaVuSans-Oblique-6b" transform="translate(744.433594 0.015625)"/>
      <use xlink:href="#DejaVuSans-Oblique-54" transform="translate(802.34375 0.015625)"/>
      <use xlink:href="#DejaVuSans-30" transform="translate(863.427734 -16.390625)scale(0.7)"/>
      <use xlink:href="#DejaVuSans-Oblique-42" transform="translate(910.698242 0.015625)"/>
      <use xlink:href="#DejaVuSans-29" transform="translate(979.301758 0.015625)"/>
     </g>
    </g>
   </g>
   <g id="line2d_143">
    <path d="M 36.669688 41.472348 
L 53.624907 54.050491 
L 65.654826 63.45738 
L 74.985957 71.012659 
L 82.610046 77.342012 
L 89.056121 82.794646 
L 94.639965 87.586915 
L 103.971096 95.722432 
L 111.595185 102.469704 
L 118.04126 108.229581 
L 123.625104 113.249292 
L 128.550404 117.692352 
L 132.956235 121.673027 
L 149.911454 136.94025 
L 161.941374 147.570892 
L 171.272504 155.585186 
L 178.896593 161.916061 
L 185.342668 167.073846 
L 190.926513 171.368504 
L 200.257643 178.115232 
L 207.881732 183.154078 
L 214.327807 187.023966 
L 219.911651 190.049318 
L 224.836951 192.440179 
L 229.242782 194.339952 
L 246.198001 199.270839 
L 258.227921 200.1805 
L 267.559051 199.27584 
L 275.18314 197.490223 
L 281.629215 195.289948 
L 287.21306 192.931811 
L 296.54419 188.283379 
L 304.168279 184.172567 
L 310.614354 180.834319 
L 316.198199 178.342022 
L 321.123498 176.696436 
L 325.529329 175.862771 
L 342.484549 181.904885 
L 354.514468 199.559273 
L 363.845599 222.448856 
L 371.469688 245.54979 
" clip-path="url(#p286b3d300f)" style="fill: none; stroke: #1f77b4; stroke-width: 0.5; stroke-linecap: square"/>
   </g>
   <g id="line2d_144">
    <path d="M 36.669688 38.481135 
L 53.624907 50.112435 
L 65.654826 58.805795 
L 74.985957 65.786598 
L 82.610046 71.634755 
L 89.056121 76.673927 
L 94.639965 81.104267 
L 103.971096 88.630083 
L 111.595185 94.878113 
L 118.04126 100.218222 
L 123.625104 104.87807 
L 128.550404 109.008342 
L 132.956235 112.713955 
L 149.911454 126.987151 
L 161.941374 137.005373 
L 171.272504 144.620557 
L 178.896593 150.687242 
L 185.342668 155.672815 
L 190.926513 159.860818 
L 200.257643 166.529268 
L 207.881732 171.607144 
L 214.327807 175.589666 
L 219.911651 178.77538 
L 224.836951 181.35835 
L 229.242782 183.471323 
L 246.198001 189.592259 
L 258.227921 191.685445 
L 267.559051 191.857984 
L 275.18314 191.023775 
L 281.629215 189.651294 
L 287.21306 188.006795 
L 296.54419 184.487202 
L 304.168279 181.175048 
L 310.614354 178.373659 
L 316.198199 176.210892 
L 321.123498 174.730343 
L 325.529329 173.931795 
L 342.484549 179.009563 
L 354.514468 195.058157 
L 363.845599 216.604286 
L 371.469688 239.038767 
" clip-path="url(#p286b3d300f)" style="fill: none; stroke: #ff7f0e; stroke-width: 0.5; stroke-linecap: square"/>
   </g>
   <g id="line2d_145">
    <path d="M 36.669688 35.49003 
L 53.624907 46.174488 
L 65.654826 54.15421 
L 74.985957 60.560427 
L 82.610046 65.927499 
L 89.056121 70.553317 
L 94.639965 74.621729 
L 103.971096 81.537734 
L 111.595185 87.286521 
L 118.04126 92.206862 
L 123.625104 96.506847 
L 128.550404 100.324224 
L 132.956235 103.754883 
L 149.911454 117.034162 
L 161.941374 126.439855 
L 171.272504 133.655927 
L 178.896593 139.458423 
L 185.342668 144.271674 
L 190.926513 148.353132 
L 200.257643 154.943303 
L 207.881732 160.06021 
L 214.327807 164.155258 
L 219.911651 167.501442 
L 224.836951 170.27652 
L 229.242782 172.602693 
L 246.198001 179.913787 
L 258.227921 183.190282 
L 267.559051 184.440235 
L 275.18314 184.557218 
L 281.629215 184.01264 
L 287.21306 183.081888 
L 296.54419 180.691135 
L 304.168279 178.177529 
L 310.614354 175.913 
L 316.198199 174.079654 
L 321.123498 172.764251 
L 325.529329 172.000819 
L 342.484549 176.11424 
L 354.514468 190.55704 
L 363.845599 210.759825 
L 371.469688 232.527744 
" clip-path="url(#p286b3d300f)" style="fill: none; stroke: #2ca02c; stroke-width: 0.5; stroke-linecap: square"/>
   </g>
   <g id="line2d_146">
    <path d="M 36.669688 32.498817 
L 53.624907 42.236432 
L 65.654826 49.502734 
L 74.985957 55.334257 
L 82.610046 60.220351 
L 89.056121 64.432708 
L 94.639965 68.139081 
L 103.971096 74.445385 
L 111.595185 79.695039 
L 118.04126 84.195394 
L 123.625104 88.135625 
L 128.550404 91.640105 
L 132.956235 94.795703 
L 149.911454 107.081172 
L 161.941374 115.874337 
L 171.272504 122.691189 
L 178.896593 128.229604 
L 185.342668 132.870534 
L 190.926513 136.845555 
L 200.257643 143.357231 
L 207.881732 148.513277 
L 214.327807 152.720958 
L 219.911651 156.227613 
L 224.836951 159.19469 
L 229.242782 161.733955 
L 246.198001 170.235206 
L 258.227921 174.695118 
L 267.559051 177.022379 
L 275.18314 178.09077 
L 281.629215 178.374094 
L 287.21306 178.15698 
L 296.54419 176.894959 
L 304.168279 175.180009 
L 310.614354 173.45234 
L 316.198199 171.948525 
L 321.123498 170.798159 
L 325.529329 170.069843 
L 342.484549 173.218918 
L 354.514468 186.055923 
L 363.845599 204.915256 
L 371.469688 226.01672 
" clip-path="url(#p286b3d300f)" style="fill: none; stroke: #d62728; stroke-width: 0.5; stroke-linecap: square"/>
   </g>
   <g id="line2d_147">
    <path d="M 36.669688 29.507603 
L 53.624907 38.298485 
L 65.654826 44.851148 
L 74.985957 50.108195 
L 82.610046 54.513095 
L 89.056121 58.311989 
L 94.639965 61.656542 
L 103.971096 67.353035 
L 111.595185 72.103447 
L 118.04126 76.184035 
L 123.625104 79.764402 
L 128.550404 82.955986 
L 132.956235 85.836631 
L 149.911454 97.128182 
L 161.941374 105.308818 
L 171.272504 111.72656 
L 178.896593 117.000785 
L 185.342668 121.469394 
L 190.926513 125.337869 
L 200.257643 131.771266 
L 207.881732 136.966343 
L 214.327807 141.286658 
L 219.911651 144.953675 
L 224.836951 148.112861 
L 229.242782 150.865325 
L 246.198001 160.556735 
L 258.227921 166.200064 
L 267.559051 169.60463 
L 275.18314 171.624322 
L 281.629215 172.73544 
L 287.21306 173.231964 
L 296.54419 173.098891 
L 304.168279 172.18249 
L 310.614354 170.99168 
L 316.198199 169.817395 
L 321.123498 168.832175 
L 325.529329 168.138867 
L 342.484549 170.323596 
L 354.514468 181.554915 
L 363.845599 199.070686 
L 371.469688 219.505588 
" clip-path="url(#p286b3d300f)" style="fill: none; stroke: #9467bd; stroke-width: 0.5; stroke-linecap: square"/>
   </g>
   <g id="line2d_148">
    <path d="M 36.669688 26.516499 
L 53.624907 34.360429 
L 65.654826 40.199563 
L 74.985957 44.882025 
L 82.610046 48.805838 
L 89.056121 52.191379 
L 94.639965 55.173895 
L 103.971096 60.260686 
L 111.595185 64.511856 
L 118.04126 68.172676 
L 123.625104 71.393179 
L 128.550404 74.271976 
L 132.956235 76.87756 
L 149.911454 87.175083 
L 161.941374 94.7433 
L 171.272504 100.76193 
L 178.896593 105.771965 
L 185.342668 110.068254 
L 190.926513 113.830292 
L 200.257643 120.185193 
L 207.881732 125.419409 
L 214.327807 129.852358 
L 219.911651 133.679737 
L 224.836951 137.031031 
L 229.242782 139.996695 
L 246.198001 150.878154 
L 258.227921 157.7049 
L 267.559051 162.186882 
L 275.18314 165.157874 
L 281.629215 167.096786 
L 287.21306 168.307057 
L 296.54419 169.302715 
L 304.168279 169.184971 
L 310.614354 168.53102 
L 316.198199 167.686157 
L 321.123498 166.866082 
L 325.529329 166.207783 
L 342.484549 167.428273 
L 354.514468 177.053799 
L 363.845599 193.226225 
L 371.469688 212.994565 
" clip-path="url(#p286b3d300f)" style="fill: none; stroke: #8c564b; stroke-width: 0.5; stroke-linecap: square"/>
   </g>
   <g id="line2d_149">
    <path d="M 36.669688 23.525285 
L 53.624907 30.422482 
L 65.654826 35.547978 
L 74.985957 39.655963 
L 82.610046 43.098691 
L 89.056121 46.070769 
L 94.639965 48.691356 
L 103.971096 53.168337 
L 111.595185 56.920264 
L 118.04126 60.161207 
L 123.625104 63.021848 
L 128.550404 65.587858 
L 132.956235 67.918379 
L 149.911454 77.222093 
L 161.941374 84.177782 
L 171.272504 89.797301 
L 178.896593 94.543146 
L 185.342668 98.667113 
L 190.926513 102.322606 
L 200.257643 108.599229 
L 207.881732 113.872475 
L 214.327807 118.41795 
L 219.911651 122.405799 
L 224.836951 125.949202 
L 229.242782 129.127957 
L 246.198001 141.199573 
L 258.227921 149.209737 
L 267.559051 154.769025 
L 275.18314 158.691317 
L 281.629215 161.458132 
L 287.21306 163.38215 
L 296.54419 165.506539 
L 304.168279 166.187452 
L 310.614354 166.070361 
L 316.198199 165.555028 
L 321.123498 164.89999 
L 325.529329 164.276807 
L 342.484549 164.532951 
L 354.514468 172.552682 
L 363.845599 187.381655 
L 371.469688 206.483542 
" clip-path="url(#p286b3d300f)" style="fill: none; stroke: #e377c2; stroke-width: 0.5; stroke-linecap: square"/>
   </g>
   <g id="line2d_150">
    <path d="M 36.669688 20.534072 
L 53.624907 26.484426 
L 65.654826 30.896393 
L 74.985957 34.429793 
L 82.610046 37.391434 
L 89.056121 39.950051 
L 94.639965 42.208709 
L 103.971096 46.075988 
L 111.595185 49.328673 
L 118.04126 52.149848 
L 123.625104 54.650626 
L 128.550404 56.903739 
L 132.956235 58.959308 
L 149.911454 67.269104 
L 161.941374 73.612263 
L 171.272504 78.832672 
L 178.896593 83.314327 
L 185.342668 87.266082 
L 190.926513 90.815029 
L 200.257643 97.013156 
L 207.881732 102.325541 
L 214.327807 106.98365 
L 219.911651 111.131861 
L 224.836951 114.867372 
L 229.242782 118.259327 
L 246.198001 131.521102 
L 258.227921 140.714682 
L 267.559051 147.351277 
L 275.18314 152.224869 
L 281.629215 155.819478 
L 287.21306 158.457134 
L 296.54419 161.710471 
L 304.168279 163.189933 
L 310.614354 163.609701 
L 316.198199 163.42379 
L 321.123498 162.933897 
L 325.529329 162.345831 
L 342.484549 161.637629 
L 354.514468 168.051565 
L 363.845599 181.537085 
L 371.469688 199.972518 
" clip-path="url(#p286b3d300f)" style="fill: none; stroke: #7f7f7f; stroke-width: 0.5; stroke-linecap: square"/>
   </g>
   <g id="line2d_151">
    <path d="M 36.669688 17.542967 
L 53.624907 22.546479 
L 65.654826 26.244808 
L 74.985957 29.203622 
L 82.610046 31.684287 
L 89.056121 33.829441 
L 94.639965 35.726061 
L 103.971096 38.983639 
L 111.595185 41.737081 
L 118.04126 44.138489 
L 123.625104 46.279403 
L 128.550404 48.21962 
L 132.956235 50.000236 
L 149.911454 57.316114 
L 161.941374 63.046745 
L 171.272504 67.868042 
L 178.896593 72.0854 
L 185.342668 75.864942 
L 190.926513 79.307343 
L 200.257643 85.427192 
L 207.881732 90.778608 
L 214.327807 95.54935 
L 219.911651 99.857924 
L 224.836951 103.785542 
L 229.242782 107.390698 
L 246.198001 121.842521 
L 258.227921 132.219519 
L 267.559051 139.93342 
L 275.18314 145.75842 
L 281.629215 150.180824 
L 287.21306 153.532227 
L 296.54419 157.914295 
L 304.168279 160.192414 
L 310.614354 161.149041 
L 316.198199 161.29266 
L 321.123498 160.967914 
L 325.529329 160.414855 
L 342.484549 158.742306 
L 354.514468 163.550448 
L 363.845599 175.692624 
L 371.469688 193.461495 
" clip-path="url(#p286b3d300f)" style="fill: none; stroke: #bcbd22; stroke-width: 0.5; stroke-linecap: square"/>
   </g>
   <g id="line2d_152">
    <path d="M 36.669688 14.551754 
L 53.624907 18.608423 
L 65.654826 21.593222 
L 74.985957 23.977561 
L 82.610046 25.97703 
L 89.056121 27.708831 
L 94.639965 29.243523 
L 103.971096 31.891289 
L 111.595185 34.145599 
L 118.04126 36.127021 
L 123.625104 37.90818 
L 128.550404 39.53561 
L 132.956235 41.041165 
L 149.911454 47.363015 
L 161.941374 52.481227 
L 171.272504 56.903413 
L 178.896593 60.856581 
L 185.342668 64.463801 
L 190.926513 67.799766 
L 200.257643 73.841119 
L 207.881732 79.231674 
L 214.327807 84.114941 
L 219.911651 88.584095 
L 224.836951 92.703713 
L 229.242782 96.521959 
L 246.198001 112.16394 
L 258.227921 123.724355 
L 267.559051 132.515672 
L 275.18314 139.291864 
L 281.629215 144.54217 
L 287.21306 148.607319 
L 296.54419 154.118227 
L 304.168279 157.194895 
L 310.614354 158.688381 
L 316.198199 159.161531 
L 321.123498 159.001821 
L 325.529329 158.483879 
L 342.484549 155.846875 
L 354.514468 159.04944 
L 363.845599 169.848054 
L 371.469688 186.950363 
" clip-path="url(#p286b3d300f)" style="fill: none; stroke: #17becf; stroke-width: 0.5; stroke-linecap: square"/>
   </g>
   <g id="line2d_153">
    <path clip-path="url(#p286b3d300f)" style="fill: none; stroke: #000000; stroke-width: 0.5; stroke-linecap: square"/>
   </g>
   <g id="line2d_154">
    <path d="M 36.669688 248.663531 
L 371.469688 248.663531 
" clip-path="url(#p286b3d300f)" style="fill: none; stroke: #000000; stroke-width: 0.5; stroke-linecap: square"/>
   </g>
   <g id="line2d_155">
    <path d="M 36.669688 226.919531 
L 371.469688 226.919531 
" clip-path="url(#p286b3d300f)" style="fill: none; stroke: #000000; stroke-width: 0.5; stroke-linecap: square"/>
   </g>
   <g id="line2d_156">
    <path d="M 36.669688 205.175531 
L 371.469688 205.175531 
" clip-path="url(#p286b3d300f)" style="fill: none; stroke: #000000; stroke-width: 0.5; stroke-linecap: square"/>
   </g>
   <g id="line2d_157">
    <path d="M 36.669688 183.431531 
L 371.469688 183.431531 
" clip-path="url(#p286b3d300f)" style="fill: none; stroke: #000000; stroke-width: 0.5; stroke-linecap: square"/>
   </g>
   <g id="line2d_158">
    <path d="M 36.669688 161.687531 
L 371.469688 161.687531 
" clip-path="url(#p286b3d300f)" style="fill: none; stroke: #000000; stroke-width: 0.5; stroke-linecap: square"/>
   </g>
   <g id="line2d_159">
    <path d="M 36.669688 139.943531 
L 371.469688 139.943531 
" clip-path="url(#p286b3d300f)" style="fill: none; stroke: #000000; stroke-width: 0.5; stroke-linecap: square"/>
   </g>
   <g id="line2d_160">
    <path d="M 36.669688 118.199531 
L 371.469688 118.199531 
" clip-path="url(#p286b3d300f)" style="fill: none; stroke: #000000; stroke-width: 0.5; stroke-linecap: square"/>
   </g>
   <g id="line2d_161">
    <path d="M 36.669688 96.455531 
L 371.469688 96.455531 
" clip-path="url(#p286b3d300f)" style="fill: none; stroke: #000000; stroke-width: 0.5; stroke-linecap: square"/>
   </g>
   <g id="line2d_162">
    <path d="M 36.669688 74.711531 
L 371.469688 74.711531 
" clip-path="url(#p286b3d300f)" style="fill: none; stroke: #000000; stroke-width: 0.5; stroke-linecap: square"/>
   </g>
   <g id="line2d_163">
    <path d="M 36.669688 52.967531 
L 371.469688 52.967531 
" clip-path="url(#p286b3d300f)" style="fill: none; stroke: #000000; stroke-width: 0.5; stroke-linecap: square"/>
   </g>
   <g id="line2d_164">
    <path d="M 36.669688 31.223531 
L 371.469688 31.223531 
" clip-path="url(#p286b3d300f)" style="fill: none; stroke: #000000; stroke-width: 0.5; stroke-linecap: square"/>
   </g>
   <g id="line2d_165">
    <path d="M 36.669688 9.479531 
L 371.469688 9.479531 
" clip-path="url(#p286b3d300f)" style="fill: none; stroke: #000000; stroke-width: 0.5; stroke-linecap: square"/>
   </g>
   <g id="line2d_166">
    <path clip-path="url(#p286b3d300f)" style="fill: none; stroke: #000000; stroke-width: 0.5; stroke-linecap: square"/>
   </g>
   <g id="line2d_167">
    <path clip-path="url(#p286b3d300f)" style="fill: none; stroke: #000000; stroke-width: 0.1; stroke-linecap: square"/>
   </g>
   <g id="line2d_168">
    <path clip-path="url(#p286b3d300f)" style="fill: none; stroke: #000000; stroke-width: 0.1; stroke-linecap: square"/>
   </g>
   <g id="line2d_169">
    <path clip-path="url(#p286b3d300f)" style="fill: none; stroke: #000000; stroke-width: 0.1; stroke-linecap: square"/>
   </g>
   <g id="line2d_170">
    <path clip-path="url(#p286b3d300f)" style="fill: none; stroke: #000000; stroke-width: 0.1; stroke-linecap: square"/>
   </g>
   <g id="line2d_171">
    <path clip-path="url(#p286b3d300f)" style="fill: none; stroke: #000000; stroke-width: 0.1; stroke-linecap: square"/>
   </g>
   <g id="line2d_172">
    <path d="M 36.669688 254.099531 
L 371.469688 254.099531 
" clip-path="url(#p286b3d300f)" style="fill: none; stroke: #000000; stroke-width: 0.1; stroke-linecap: square"/>
   </g>
   <g id="line2d_173">
    <path d="M 36.669688 243.227531 
L 371.469688 243.227531 
" clip-path="url(#p286b3d300f)" style="fill: none; stroke: #000000; stroke-width: 0.1; stroke-linecap: square"/>
   </g>
   <g id="line2d_174">
    <path d="M 36.669688 237.791531 
L 371.469688 237.791531 
" clip-path="url(#p286b3d300f)" style="fill: none; stroke: #000000; stroke-width: 0.1; stroke-linecap: square"/>
   </g>
   <g id="line2d_175">
    <path d="M 36.669688 232.355531 
L 371.469688 232.355531 
" clip-path="url(#p286b3d300f)" style="fill: none; stroke: #000000; stroke-width: 0.1; stroke-linecap: square"/>
   </g>
   <g id="line2d_176">
    <path d="M 36.669688 221.483531 
L 371.469688 221.483531 
" clip-path="url(#p286b3d300f)" style="fill: none; stroke: #000000; stroke-width: 0.1; stroke-linecap: square"/>
   </g>
   <g id="line2d_177">
    <path d="M 36.669688 216.047531 
L 371.469688 216.047531 
" clip-path="url(#p286b3d300f)" style="fill: none; stroke: #000000; stroke-width: 0.1; stroke-linecap: square"/>
   </g>
   <g id="line2d_178">
    <path d="M 36.669688 210.611531 
L 371.469688 210.611531 
" clip-path="url(#p286b3d300f)" style="fill: none; stroke: #000000; stroke-width: 0.1; stroke-linecap: square"/>
   </g>
   <g id="line2d_179">
    <path d="M 36.669688 199.739531 
L 371.469688 199.739531 
" clip-path="url(#p286b3d300f)" style="fill: none; stroke: #000000; stroke-width: 0.1; stroke-linecap: square"/>
   </g>
   <g id="line2d_180">
    <path d="M 36.669688 194.303531 
L 371.469688 194.303531 
" clip-path="url(#p286b3d300f)" style="fill: none; stroke: #000000; stroke-width: 0.1; stroke-linecap: square"/>
   </g>
   <g id="line2d_181">
    <path d="M 36.669688 188.867531 
L 371.469688 188.867531 
" clip-path="url(#p286b3d300f)" style="fill: none; stroke: #000000; stroke-width: 0.1; stroke-linecap: square"/>
   </g>
   <g id="line2d_182">
    <path d="M 36.669688 177.995531 
L 371.469688 177.995531 
" clip-path="url(#p286b3d300f)" style="fill: none; stroke: #000000; stroke-width: 0.1; stroke-linecap: square"/>
   </g>
   <g id="line2d_183">
    <path d="M 36.669688 172.559531 
L 371.469688 172.559531 
" clip-path="url(#p286b3d300f)" style="fill: none; stroke: #000000; stroke-width: 0.1; stroke-linecap: square"/>
   </g>
   <g id="line2d_184">
    <path d="M 36.669688 167.123531 
L 371.469688 167.123531 
" clip-path="url(#p286b3d300f)" style="fill: none; stroke: #000000; stroke-width: 0.1; stroke-linecap: square"/>
   </g>
   <g id="line2d_185">
    <path d="M 36.669688 156.251531 
L 371.469688 156.251531 
" clip-path="url(#p286b3d300f)" style="fill: none; stroke: #000000; stroke-width: 0.1; stroke-linecap: square"/>
   </g>
   <g id="line2d_186">
    <path d="M 36.669688 150.815531 
L 371.469688 150.815531 
" clip-path="url(#p286b3d300f)" style="fill: none; stroke: #000000; stroke-width: 0.1; stroke-linecap: square"/>
   </g>
   <g id="line2d_187">
    <path d="M 36.669688 145.379531 
L 371.469688 145.379531 
" clip-path="url(#p286b3d300f)" style="fill: none; stroke: #000000; stroke-width: 0.1; stroke-linecap: square"/>
   </g>
   <g id="line2d_188">
    <path d="M 36.669688 134.507531 
L 371.469688 134.507531 
" clip-path="url(#p286b3d300f)" style="fill: none; stroke: #000000; stroke-width: 0.1; stroke-linecap: square"/>
   </g>
   <g id="line2d_189">
    <path d="M 36.669688 129.071531 
L 371.469688 129.071531 
" clip-path="url(#p286b3d300f)" style="fill: none; stroke: #000000; stroke-width: 0.1; stroke-linecap: square"/>
   </g>
   <g id="line2d_190">
    <path d="M 36.669688 123.635531 
L 371.469688 123.635531 
" clip-path="url(#p286b3d300f)" style="fill: none; stroke: #000000; stroke-width: 0.1; stroke-linecap: square"/>
   </g>
   <g id="line2d_191">
    <path d="M 36.669688 112.763531 
L 371.469688 112.763531 
" clip-path="url(#p286b3d300f)" style="fill: none; stroke: #000000; stroke-width: 0.1; stroke-linecap: square"/>
   </g>
   <g id="line2d_192">
    <path d="M 36.669688 107.327531 
L 371.469688 107.327531 
" clip-path="url(#p286b3d300f)" style="fill: none; stroke: #000000; stroke-width: 0.1; stroke-linecap: square"/>
   </g>
   <g id="line2d_193">
    <path d="M 36.669688 101.891531 
L 371.469688 101.891531 
" clip-path="url(#p286b3d300f)" style="fill: none; stroke: #000000; stroke-width: 0.1; stroke-linecap: square"/>
   </g>
   <g id="line2d_194">
    <path d="M 36.669688 91.019531 
L 371.469688 91.019531 
" clip-path="url(#p286b3d300f)" style="fill: none; stroke: #000000; stroke-width: 0.1; stroke-linecap: square"/>
   </g>
   <g id="line2d_195">
    <path d="M 36.669688 85.583531 
L 371.469688 85.583531 
" clip-path="url(#p286b3d300f)" style="fill: none; stroke: #000000; stroke-width: 0.1; stroke-linecap: square"/>
   </g>
   <g id="line2d_196">
    <path d="M 36.669688 80.147531 
L 371.469688 80.147531 
" clip-path="url(#p286b3d300f)" style="fill: none; stroke: #000000; stroke-width: 0.1; stroke-linecap: square"/>
   </g>
   <g id="line2d_197">
    <path d="M 36.669688 69.275531 
L 371.469688 69.275531 
" clip-path="url(#p286b3d300f)" style="fill: none; stroke: #000000; stroke-width: 0.1; stroke-linecap: square"/>
   </g>
   <g id="line2d_198">
    <path d="M 36.669688 63.839531 
L 371.469688 63.839531 
" clip-path="url(#p286b3d300f)" style="fill: none; stroke: #000000; stroke-width: 0.1; stroke-linecap: square"/>
   </g>
   <g id="line2d_199">
    <path d="M 36.669688 58.403531 
L 371.469688 58.403531 
" clip-path="url(#p286b3d300f)" style="fill: none; stroke: #000000; stroke-width: 0.1; stroke-linecap: square"/>
   </g>
   <g id="line2d_200">
    <path d="M 36.669688 47.531531 
L 371.469688 47.531531 
" clip-path="url(#p286b3d300f)" style="fill: none; stroke: #000000; stroke-width: 0.1; stroke-linecap: square"/>
   </g>
   <g id="line2d_201">
    <path d="M 36.669688 42.095531 
L 371.469688 42.095531 
" clip-path="url(#p286b3d300f)" style="fill: none; stroke: #000000; stroke-width: 0.1; stroke-linecap: square"/>
   </g>
   <g id="line2d_202">
    <path d="M 36.669688 36.659531 
L 371.469688 36.659531 
" clip-path="url(#p286b3d300f)" style="fill: none; stroke: #000000; stroke-width: 0.1; stroke-linecap: square"/>
   </g>
   <g id="line2d_203">
    <path d="M 36.669688 25.787531 
L 371.469688 25.787531 
" clip-path="url(#p286b3d300f)" style="fill: none; stroke: #000000; stroke-width: 0.1; stroke-linecap: square"/>
   </g>
   <g id="line2d_204">
    <path d="M 36.669688 20.351531 
L 371.469688 20.351531 
" clip-path="url(#p286b3d300f)" style="fill: none; stroke: #000000; stroke-width: 0.1; stroke-linecap: square"/>
   </g>
   <g id="line2d_205">
    <path d="M 36.669688 14.915531 
L 371.469688 14.915531 
" clip-path="url(#p286b3d300f)" style="fill: none; stroke: #000000; stroke-width: 0.1; stroke-linecap: square"/>
   </g>
   <g id="line2d_206">
    <path d="M 36.669688 4.043531 
L 371.469688 4.043531 
" clip-path="url(#p286b3d300f)" style="fill: none; stroke: #000000; stroke-width: 0.1; stroke-linecap: square"/>
   </g>
   <g id="line2d_207">
    <path clip-path="url(#p286b3d300f)" style="fill: none; stroke: #000000; stroke-width: 0.1; stroke-linecap: square"/>
   </g>
   <g id="line2d_208">
    <path clip-path="url(#p286b3d300f)" style="fill: none; stroke: #000000; stroke-width: 0.1; stroke-linecap: square"/>
   </g>
   <g id="line2d_209">
    <path clip-path="url(#p286b3d300f)" style="fill: none; stroke: #000000; stroke-width: 0.1; stroke-linecap: square"/>
   </g>
   <g id="line2d_210">
    <path clip-path="url(#p286b3d300f)" style="fill: none; stroke: #000000; stroke-width: 0.1; stroke-linecap: square"/>
   </g>
   <g id="line2d_211">
    <path clip-path="url(#p286b3d300f)" style="fill: none; stroke: #000000; stroke-width: 0.1; stroke-linecap: square"/>
   </g>
   <g id="patch_3">
    <path d="M 36.669688 226.919531 
L 36.669688 9.479531 
" style="fill: none; stroke: #000000; stroke-width: 0.8; stroke-linejoin: miter; stroke-linecap: square"/>
   </g>
   <g id="patch_4">
    <path d="M 371.469688 226.919531 
L 371.469688 9.479531 
" style="fill: none; stroke: #000000; stroke-width: 0.8; stroke-linejoin: miter; stroke-linecap: square"/>
   </g>
   <g id="patch_5">
    <path d="M 36.669688 226.919531 
L 371.469688 226.919531 
" style="fill: none; stroke: #000000; stroke-width: 0.8; stroke-linejoin: miter; stroke-linecap: square"/>
   </g>
   <g id="patch_6">
    <path d="M 36.669688 9.479531 
L 371.469688 9.479531 
" style="fill: none; stroke: #000000; stroke-width: 0.8; stroke-linejoin: miter; stroke-linecap: square"/>
   </g>
   <g id="legend_1">
    <g id="patch_7">
     <path d="M 319.569688 111.155156 
L 367.269688 111.155156 
Q 368.469688 111.155156 368.469688 109.955156 
L 368.469688 13.679531 
Q 368.469688 12.479531 367.269688 12.479531 
L 319.569688 12.479531 
Q 318.369688 12.479531 318.369688 13.679531 
L 318.369688 109.955156 
Q 318.369688 111.155156 319.569688 111.155156 
z
" style="fill: #ffffff; stroke: #cccccc; stroke-linejoin: miter"/>
    </g>
    <g id="text_32">
     <!-- $F_{am}$ 1 MHz (dB) -->
     <g transform="translate(320.769688 19.438594)scale(0.06 -0.06)">
      <use xlink:href="#DejaVuSans-Oblique-46" transform="translate(0 0.015625)"/>
      <use xlink:href="#DejaVuSans-Oblique-61" transform="translate(57.519531 -16.390625)scale(0.7)"/>
      <use xlink:href="#DejaVuSans-Oblique-6d" transform="translate(100.415039 -16.390625)scale(0.7)"/>
      <use xlink:href="#DejaVuSans-20" transform="translate(171.337891 0.015625)"/>
      <use xlink:href="#DejaVuSans-31" transform="translate(203.125 0.015625)"/>
      <use xlink:href="#DejaVuSans-20" transform="translate(266.748047 0.015625)"/>
      <use xlink:href="#DejaVuSans-4d" transform="translate(298.535156 0.015625)"/>
      <use xlink:href="#DejaVuSans-48" transform="translate(384.814453 0.015625)"/>
      <use xlink:href="#DejaVuSans-7a" transform="translate(460.009766 0.015625)"/>
      <use xlink:href="#DejaVuSans-20" transform="translate(512.5 0.015625)"/>
      <use xlink:href="#DejaVuSans-28" transform="translate(544.287109 0.015625)"/>
      <use xlink:href="#DejaVuSans-64" transform="translate(583.300781 0.015625)"/>
      <use xlink:href="#DejaVuSans-42" transform="translate(646.777344 0.015625)"/>
      <use xlink:href="#DejaVuSans-29" transform="translate(715.380859 0.015625)"/>
     </g>
    </g>
    <g id="line2d_212">
     <path d="M 329.293438 26.145469 
L 335.293438 26.145469 
L 341.293438 26.145469 
" style="fill: none; stroke: #1f77b4; stroke-width: 0.5; stroke-linecap: square"/>
    </g>
    <g id="text_33">
     <!-- 10 -->
     <g transform="translate(346.093438 28.245469)scale(0.06 -0.06)">
      <use xlink:href="#DejaVuSans-31"/>
      <use xlink:href="#DejaVuSans-30" x="63.623047"/>
     </g>
    </g>
    <g id="line2d_213">
     <path d="M 329.293438 34.952344 
L 335.293438 34.952344 
L 341.293438 34.952344 
" style="fill: none; stroke: #ff7f0e; stroke-width: 0.5; stroke-linecap: square"/>
    </g>
    <g id="text_34">
     <!-- 20 -->
     <g transform="translate(346.093438 37.052344)scale(0.06 -0.06)">
      <use xlink:href="#DejaVuSans-32"/>
      <use xlink:href="#DejaVuSans-30" x="63.623047"/>
     </g>
    </g>
    <g id="line2d_214">
     <path d="M 329.293438 43.759219 
L 335.293438 43.759219 
L 341.293438 43.759219 
" style="fill: none; stroke: #2ca02c; stroke-width: 0.5; stroke-linecap: square"/>
    </g>
    <g id="text_35">
     <!-- 30 -->
     <g transform="translate(346.093438 45.859219)scale(0.06 -0.06)">
      <use xlink:href="#DejaVuSans-33"/>
      <use xlink:href="#DejaVuSans-30" x="63.623047"/>
     </g>
    </g>
    <g id="line2d_215">
     <path d="M 329.293438 52.566094 
L 335.293438 52.566094 
L 341.293438 52.566094 
" style="fill: none; stroke: #d62728; stroke-width: 0.5; stroke-linecap: square"/>
    </g>
    <g id="text_36">
     <!-- 40 -->
     <g transform="translate(346.093438 54.666094)scale(0.06 -0.06)">
      <use xlink:href="#DejaVuSans-34"/>
      <use xlink:href="#DejaVuSans-30" x="63.623047"/>
     </g>
    </g>
    <g id="line2d_216">
     <path d="M 329.293438 61.372969 
L 335.293438 61.372969 
L 341.293438 61.372969 
" style="fill: none; stroke: #9467bd; stroke-width: 0.5; stroke-linecap: square"/>
    </g>
    <g id="text_37">
     <!-- 50 -->
     <g transform="translate(346.093438 63.472969)scale(0.06 -0.06)">
      <use xlink:href="#DejaVuSans-35"/>
      <use xlink:href="#DejaVuSans-30" x="63.623047"/>
     </g>
    </g>
    <g id="line2d_217">
     <path d="M 329.293438 70.179844 
L 335.293438 70.179844 
L 341.293438 70.179844 
" style="fill: none; stroke: #8c564b; stroke-width: 0.5; stroke-linecap: square"/>
    </g>
    <g id="text_38">
     <!-- 60 -->
     <g transform="translate(346.093438 72.279844)scale(0.06 -0.06)">
      <use xlink:href="#DejaVuSans-36"/>
      <use xlink:href="#DejaVuSans-30" x="63.623047"/>
     </g>
    </g>
    <g id="line2d_218">
     <path d="M 329.293438 78.986719 
L 335.293438 78.986719 
L 341.293438 78.986719 
" style="fill: none; stroke: #e377c2; stroke-width: 0.5; stroke-linecap: square"/>
    </g>
    <g id="text_39">
     <!-- 70 -->
     <g transform="translate(346.093438 81.086719)scale(0.06 -0.06)">
      <use xlink:href="#DejaVuSans-37"/>
      <use xlink:href="#DejaVuSans-30" x="63.623047"/>
     </g>
    </g>
    <g id="line2d_219">
     <path d="M 329.293438 87.793594 
L 335.293438 87.793594 
L 341.293438 87.793594 
" style="fill: none; stroke: #7f7f7f; stroke-width: 0.5; stroke-linecap: square"/>
    </g>
    <g id="text_40">
     <!-- 80 -->
     <g transform="translate(346.093438 89.893594)scale(0.06 -0.06)">
      <use xlink:href="#DejaVuSans-38"/>
      <use xlink:href="#DejaVuSans-30" x="63.623047"/>
     </g>
    </g>
    <g id="line2d_220">
     <path d="M 329.293438 96.600469 
L 335.293438 96.600469 
L 341.293438 96.600469 
" style="fill: none; stroke: #bcbd22; stroke-width: 0.5; stroke-linecap: square"/>
    </g>
    <g id="text_41">
     <!-- 90 -->
     <g transform="translate(346.093438 98.700469)scale(0.06 -0.06)">
      <defs>
       <path id="DejaVuSans-39" d="M 703 97 
L 703 672 
Q 941 559 1184 500 
Q 1428 441 1663 441 
Q 2288 441 2617 861 
Q 2947 1281 2994 2138 
Q 2813 1869 2534 1725 
Q 2256 1581 1919 1581 
Q 1219 1581 811 2004 
Q 403 2428 403 3163 
Q 403 3881 828 4315 
Q 1253 4750 1959 4750 
Q 2769 4750 3195 4129 
Q 3622 3509 3622 2328 
Q 3622 1225 3098 567 
Q 2575 -91 1691 -91 
Q 1453 -91 1209 -44 
Q 966 3 703 97 
z
M 1959 2075 
Q 2384 2075 2632 2365 
Q 2881 2656 2881 3163 
Q 2881 3666 2632 3958 
Q 2384 4250 1959 4250 
Q 1534 4250 1286 3958 
Q 1038 3666 1038 3163 
Q 1038 2656 1286 2365 
Q 1534 2075 1959 2075 
z
" transform="scale(0.015625)"/>
      </defs>
      <use xlink:href="#DejaVuSans-39"/>
      <use xlink:href="#DejaVuSans-30" x="63.623047"/>
     </g>
    </g>
    <g id="line2d_221">
     <path d="M 329.293438 105.407344 
L 335.293438 105.407344 
L 341.293438 105.407344 
" style="fill: none; stroke: #17becf; stroke-width: 0.5; stroke-linecap: square"/>
    </g>
    <g id="text_42">
     <!-- 100 -->
     <g transform="translate(346.093438 107.507344)scale(0.06 -0.06)">
      <use xlink:href="#DejaVuSans-31"/>
      <use xlink:href="#DejaVuSans-30" x="63.623047"/>
      <use xlink:href="#DejaVuSans-30" x="127.246094"/>
     </g>
    </g>
   </g>
  </g>
 </g>
 <defs>
  <clipPath id="p286b3d300f">
   <rect x="36.669688" y="9.479531" width="334.8" height="217.44"/>
  </clipPath>
 </defs>
</svg>
